<?xml version="1.0" encoding="UTF-8"?>
<!DOCTYPE svg PUBLIC "-//W3C//DTD SVG 1.1//EN" "http://www.w3.org/Graphics/SVG/1.1/DTD/svg11.dtd">
<!-- Creator: CorelDRAW -->
<svg xmlns="http://www.w3.org/2000/svg" xml:space="preserve" width="13.0323mm" height="12.8292mm" style="shape-rendering:geometricPrecision; text-rendering:geometricPrecision; image-rendering:optimizeQuality; fill-rule:evenodd; clip-rule:evenodd"
viewBox="0 0 20.6906 20.3681"
 xmlns:xlink="http://www.w3.org/1999/xlink">
 <defs>
  <style type="text/css">
   <![CDATA[
    .str0 {stroke:black;stroke-width:0.120978}
    .str1 {stroke:red;stroke-width:0.120978}
    .fil0 {fill:none}
    .fil5 {fill:black}
    .fil1 {fill:#05913A}
    .fil3 {fill:#138C3C}
    .fil2 {fill:yellow}
    .fil4 {fill:white}
    .fil6 {fill:black;fill-rule:nonzero}
   ]]>
  </style>
   <clipPath id="id0">
    <path d="M10.3447 6.59521c2.01456,0 3.64744,1.63289 3.64744,3.64728 0,2.01424 -1.63289,3.64713 -3.64744,3.64713 -2.01408,0 -3.64713,-1.63289 -3.64713,-3.64713 0,-2.0144 1.63305,-3.64728 3.64713,-3.64728z"/>
   </clipPath>
 </defs>
 <g id="Layer_x0020_1">
  <metadata id="CorelCorpID_0Corel-Layer"/>
  <path class="fil0 str0" d="M10.4 0.0617592c0,0 6.74271,1.36966 10.2193,7.26949 0,0 0.42136,7.58543 -4.00339,11.6942 0,0 -4.74117,2.73915 -12.432,0.21068 0,0 -4.95153,-4.53017 -4.00339,-11.9049 0,0 2.52848,-5.58389 10.2195,-7.26949z"/>
  <path class="fil1 str0" d="M10.396 0.799218c0,0 6.25133,1.26979 9.47472,6.73985 0,0 0.390718,7.03293 -3.71174,10.8423 0,0 -4.3957,2.53975 -11.5263,0.195438 0,0 -4.59082,-4.20026 -3.71174,-11.0377 0,0 2.34431,-5.17698 9.47503,-6.73985z"/>
  <circle class="fil2 str0" cx="10.345" cy="10.2424" r="5.95246"/>
  <path class="fil3" d="M10.3447 6.59521c2.01456,0 3.64744,1.63289 3.64744,3.64728 0,2.01424 -1.63289,3.64713 -3.64744,3.64713 -2.01408,0 -3.64713,-1.63289 -3.64713,-3.64713 0,-2.0144 1.63305,-3.64728 3.64713,-3.64728z"/>
  <g style="clip-path:url(#id0)">
   <g id="_262778264">
    <path id="_2627775441" class="fil2" d="M6.99879 11.8716c0,0 -0.252117,-1.26011 0.151143,-1.66337 0.403261,-0.403261 -0.655378,-0.252117 -0.756193,-0.655378 -0.100815,-0.403261 0.504076,-0.403102 0.554563,-0.655219 0.0504869,-0.252117 0.0504869,-0.453747 0.352932,-0.453747 0.302445,0 0.403261,-0.756034 1.00815,-0.352774 0.604891,0.403261 -0.0503282,0.403261 -0.100815,0.806521 -0.0504869,0.403261 -0.0504869,1.10881 0.0503282,1.26011 0.100815,0.151302 -0.100656,1.15929 0.453747,0.403261 0.554404,-0.756034 0.20163,-1.10897 0.604891,-1.3106 0.403261,-0.20163 0.302287,-0.503917 0.957664,-0.655219 0.655378,-0.151302 0.302445,-0.907495 0.907336,-0.957823 0.604891,-0.0503282 0.302445,-0.352774 0.504076,-0.554404 0.20163,-0.20163 0.857008,-0.554563 0.957823,-0.352932 0.100815,0.20163 -0.302445,0.806521 -0.302445,0.806521 0,0 -0.251958,0.554563 0.302445,0.453747 0.554404,-0.100815 0.604891,0.251958 0.604891,0.251958l0.655219 -0.151143 0.403261 1.26011c0,0 -0.504076,0.000158764 -0.806521,0.151302 -0.302445,0.151143 -0.151143,-0.302604 -0.756034,-0.151302 -0.604891,0.151302 -1.05864,0.655219 -0.554563,0.907336 0.504076,0.252117 0.453589,0.100974 0.604891,-0.0503282 0.151302,-0.151302 0.352774,0.151302 0.403261,0.302445 0.0504869,0.151143 0.756193,0.251958 0.756193,0.453589 0,0.20163 -1.10913,1.3106 -1.36108,0.806521 -0.251958,-0.504076 -0.453589,-0.403102 -0.655219,-0.251958 -0.20163,0.151143 -0.302445,0.151302 -0.504076,0 -0.20163,-0.151302 -0.302445,-0.0504869 -0.302445,0.251958 0,0.302445 -0.100974,0.705865 -0.352932,0.756193 -0.251958,0.0503282 -0.403261,0.403261 -0.604891,0.504076 -0.20163,0.100815 0.100815,0.403261 -0.100815,0.604891 -0.20163,0.20163 -1.26011,0.201471 -1.36092,0.151143 -0.100815,-0.0503282 -2.11712,-1.61304 -2.11712,-1.61304l0.403261 -0.302445zm3.12527 -1.71386c0,0 -0.251958,-0.453747 0.302445,-0.604891 0.554404,-0.151143 0.856849,-0.856849 1.15929,-0.453589 0.302445,0.403261 -0.504076,0.957664 -0.504076,0.957664 0,0 -0.655378,0.302604 -0.403261,0.352932 0.252117,0.0503282 1.00831,-0.000158764 1.05864,0.251958l-1.61304 -0.504076z"/>
    <g>
     <path id="_262775240" class="fil0 str0" d="M8.53039 6.52028c0,0 1.61304,1.20978 4.13342,0"/>
     <path id="_262774904" class="fil0 str0" d="M7.01816 7.02435c0,0 4.03261,3.22608 6.6538,-0.20163"/>
     <path id="_262137928" class="fil0 str0" d="M6.3123 8.53658c0,0 5.24255,3.12527 7.86374,-0.302445"/>
     <line id="_262138144" class="fil0 str0" x1="6.00985" y1="10.2504" x2="14.6801" y2= "10.2504" />
     <path id="_259700752" class="fil0 str0" d="M8.53039 13.9646c0,0 1.61304,-1.20978 4.13342,0"/>
     <path id="_259700944" class="fil0 str0" d="M7.01816 13.4605c0,0 4.03261,-3.22608 6.6538,0.20163"/>
     <path id="_262775840" class="fil0 str0" d="M6.3123 11.9483c0,0 5.24255,-3.12527 7.86374,0.302445"/>
     <line id="_259701880" class="fil0 str0" x1="10.3852" y1="7.05706" x2="10.3852" y2= "13.427" />
     <path id="_259701856" class="fil0 str0" d="M9.82654 13.4784c0,0 -1.35267,-3.1367 0.0870027,-6.45884"/>
     <path id="_259701400" class="fil0 str0" d="M9.16148 13.6501c0,0 -3.00508,-3.17496 0.147809,-6.76541"/>
     <path id="_262778096" class="fil0 str0" d="M10.9149 13.4784c0,0 1.35267,-3.1367 -0.0870027,-6.45884"/>
     <path id="_262778792" class="fil0 str0" d="M11.5799 13.6501c0,0 3.00508,-3.17496 -0.147809,-6.76541"/>
    </g>
   </g>
  </g>
  <path class="fil0 str0" d="M10.3447 6.59521c2.01456,0 3.64744,1.63289 3.64744,3.64728 0,2.01424 -1.63289,3.64713 -3.64744,3.64713 -2.01408,0 -3.64713,-1.63289 -3.64713,-3.64713 0,-2.0144 1.63305,-3.64728 3.64713,-3.64728z"/>
  <circle class="fil4" cx="5.15507" cy="14.7631" r="0.352774"/>
  <circle class="fil4" cx="15.6903" cy="14.7631" r="0.352774"/>
  <path class="fil4 str1" d="M8.33066 15.4931c0,0 0.962904,-0.555991 2.01646,0.0261961 0,0 1.15945,-0.604732 2.06679,-0.0503282l0 -0.756193c0,0 -0.806521,-0.705706 -1.96597,-0.20163 0,0 -1.16771,-0.548212 -2.06663,0.20163l-0.0506457 0.780325z"/>
  <path class="fil4 str1" d="M6.36485 11.0835c0,0 0.306097,2.451 3.3288,3.2418 0,0 -2.10204,0.559643 -3.3288,-0.318163l1.20994 -0.100815c0,0 -1.6132,0.100815 -2.01646,-1.00815 0,0 0.63458,0.515824 1.31076,0.403261 0,0 -1.41157,-0.20163 -1.20994,-1.41141 0,0 0.403419,0.806521 1.00831,0.806521 0,0 -0.839068,-0.538051 -0.302604,-1.61304z"/>
  <path class="fil4 str1" d="M14.4302 11.0835c0,0 -0.306097,2.451 -3.3288,3.2418 0,0 2.10204,0.559643 3.3288,-0.318163l-1.20994 -0.100815c0,0 1.6132,0.100815 2.01646,-1.00815 0,0 -0.63458,0.515824 -1.31076,0.403261 0,0 1.41157,-0.20163 1.20994,-1.41141 0,0 -0.403419,0.806521 -1.00831,0.806521 0,0 0.839068,-0.538051 0.302604,-1.61304z"/>
  <polygon class="fil5 str0" points="10.2974,4.57224 10.4721,5.0552 10.9995,5.08235 10.5943,5.39766 10.7313,5.90761 10.3063,5.61977 9.86353,5.90761 10.0064,5.4148 9.59538,5.08235 10.1087,5.06552 "/>
  <polygon class="fil5 str0" points="12.5524,5.45608 12.6621,5.75964 12.9934,5.77647 12.7389,5.97461 12.825,6.29483 12.5581,6.114 12.2799,6.29483 12.3696,5.98508 12.1115,5.77647 12.4339,5.76599 "/>
  <polygon class="fil5 str0" points="8.1973,5.45608 8.30701,5.75964 8.63835,5.77647 8.38385,5.97461 8.4699,6.29483 8.20302,6.114 7.92502,6.29483 8.01456,5.98508 7.75641,5.77647 8.07886,5.76599 "/>
  <polygon class="fil5 str0" points="14.1578,6.623 14.2675,6.9264 14.5988,6.94338 14.3443,7.14152 14.4304,7.46175 14.1635,7.28092 13.8855,7.46175 13.975,7.15216 13.7169,6.94338 14.0393,6.93291 "/>
  <polygon class="fil5 str0" points="6.56648,6.623 6.67618,6.9264 7.00752,6.94338 6.75303,7.14152 6.83908,7.46175 6.57219,7.28092 6.29404,7.46175 6.38374,7.15216 6.12575,6.94338 6.44804,6.93291 "/>
  <polygon class="fil5 str0" points="15.1358,8.15729 15.2455,8.46069 15.5768,8.47768 15.3223,8.67582 15.4084,8.99588 15.1415,8.81521 14.8635,8.99588 14.953,8.68645 14.6949,8.47768 15.0173,8.4672 "/>
  <polygon class="fil5 str0" points="5.65898,8.15729 5.76869,8.46069 6.10003,8.47768 5.84553,8.67582 5.93158,8.99588 5.6647,8.81521 5.38654,8.99588 5.47625,8.68645 5.2181,8.47768 5.54055,8.4672 "/>
  <polygon class="fil5 str0" points="15.3552,9.7986 15.4649,10.102 15.7962,10.119 15.5417,10.3171 15.6278,10.6373 15.3609,10.4565 15.0829,10.6373 15.1724,10.3278 14.9143,10.119 15.2367,10.1085 "/>
  <polygon class="fil5 str0" points="5.2735,9.7986 5.38321,10.102 5.71455,10.119 5.46005,10.3171 5.5461,10.6373 5.27922,10.4565 5.00107,10.6373 5.09077,10.3278 4.83278,10.119 5.15507,10.1085 "/>
  <path class="fil6" d="M4.2255 13.0555m-0.0939883 -0.244655l-0.308637 0.118438 -0.330388 0.409135 -0.0611241 -0.159082 0.229573 -0.269581 -0.349598 -0.0433426 -0.0601715 -0.156541 0.520587 0.0838274 0.307843 -0.118279 0.0519158 0.135426zm-0.131933 -0.282124m-0.187183 -0.697768l0.0411199 0.15289 -0.156224 0.106848 0.0744603 0.277996 0.187977 0.0111135 0.0398498 0.148921 -0.831606 -0.0674747 -0.039691 -0.148444 0.684114 -0.481849zm-0.230843 0.33912l-0.255928 0.171306 0.306732 0.0182579 -0.0508045 -0.189564zm0.247354 -0.256086m-0.0589014 -0.255292l-0.322291 0.0743015 -0.38405 0.359124 -0.0384209 -0.166067 0.264818 -0.234971 -0.340231 -0.0916068 -0.0376271 -0.163209 0.503758 0.155271 0.321338 -0.0741428 0.0327054 0.1413zm-0.0666809 -0.315464m-0.0754129 -0.718407l0.0165115 0.157335 -0.171148 0.0811284 0.0301652 0.286251 0.183849 0.0403261 0.0160352 0.153366 -0.810649 -0.196709 -0.0160352 -0.15289 0.751271 -0.368809zm-0.28133 0.298794l-0.279583 0.129075 0.300223 0.0662046 -0.0206393 -0.19528zm0.278631 -0.293872m-0.256245 -0.0319116l-0.017464 -0.141141c0.0517571,-0.00920831 0.0892254,-0.0271486 0.113199,-0.053821 0.0238146,-0.0263548 0.0354044,-0.0616004 0.0346105,-0.105737 -0.00079382,-0.0468354 -0.0122248,-0.0819222 -0.0344518,-0.105102 -0.0219094,-0.0234971 -0.0473117,-0.0350868 -0.0763655,-0.0344518 -0.0187341,0.000317528 -0.034293,0.00555674 -0.0471529,0.0158764 -0.0130186,0.0101609 -0.0239734,0.0277837 -0.0330229,0.0528684 -0.0061918,0.0169877 -0.0169877,0.0560437 -0.0323879,0.11685 -0.019528,0.0782706 -0.0447714,0.133521 -0.0749366,0.165273 -0.0422312,0.0449302 -0.0946233,0.067951 -0.156859,0.0690623 -0.0400085,0.000635056 -0.0774768,-0.00904955 -0.112722,-0.0292126 -0.0352456,-0.020163 -0.0622355,-0.0496931 -0.0812872,-0.0884315 -0.0187341,-0.0387384 -0.0285775,-0.0857325 -0.0295301,-0.140982 -0.00158764,-0.0906542 0.0187341,-0.158764 0.0611241,-0.205282 0.0425487,-0.0463591 0.0997038,-0.071285 0.1721,-0.0749366l0.00936707 0.14511c-0.0404848,0.00682685 -0.0692211,0.0209568 -0.0863676,0.0415962 -0.017464,0.0207981 -0.0257198,0.0515983 -0.0250847,0.0925594 0.00079382,0.0420725 0.010796,0.0750954 0.0303239,0.0985924 0.0122248,0.0152413 0.0285775,0.0227032 0.0488993,0.022227 0.0187341,-0.000317528 0.0344518,-0.00777943 0.0473117,-0.0223857 0.0166702,-0.0185754 0.0334992,-0.0635056 0.0503282,-0.134473 0.0169877,-0.0709675 0.0349281,-0.123677 0.0536622,-0.157811 0.0190517,-0.0341343 0.045089,-0.0611241 0.0785882,-0.0809696 0.0334992,-0.0196867 0.0750954,-0.0300064 0.124471,-0.0308002 0.045089,-0.00079382 0.0876377,0.0096846 0.127329,0.0320703 0.0395322,0.022227 0.0693799,0.0539798 0.0892254,0.0957347 0.0200043,0.0415962 0.0304827,0.093512 0.0314353,0.156065 0.00158764,0.0911305 -0.0200043,0.161304 -0.0650932,0.210997 -0.045089,0.0493756 -0.111611,0.0796995 -0.199249,0.0906542zm0.25307 -0.637755m0.0630293 -0.719677l-0.0138125 0.157653 -0.183372 0.0469941 -0.0250847 0.286728 0.172735 0.0747778 -0.0134949 0.153525 -0.758257 -0.347852 0.0133362 -0.153048 0.80795 -0.218777zm-0.333087 0.239734l-0.299111 0.073349 0.281965 0.122248 0.0171465 -0.195597zm0.322608 -0.255451m0.0166702 -0.0727139l-0.76556 -0.176704 0.0319116 -0.137807 0.577583 -0.169084 -0.51122 -0.117962 0.0303239 -0.131615 0.76556 0.176704 -0.0328641 0.142253 -0.564565 0.167337 0.499313 0.115263 -0.0304827 0.131615zm0.224651 -0.90432m0.0765242 -0.222428l-0.617274 -0.212426 -0.0695386 0.201789 -0.125582 -0.0431838 0.18623 -0.540909 0.125741 0.0433426 -0.0693799 0.201471 0.617116 0.212426 -0.0473117 0.13749zm0.0909718 -0.282441m0.305303 -0.654743l-0.0669984 0.143523 -0.188294 -0.0185754 -0.121772 0.260849 0.136855 0.129234 -0.0650932 0.139712 -0.593619 -0.586157 0.0649345 -0.139395 0.833987 0.0708087zm-0.394846 0.111294l-0.306256 -0.0333404 0.223222 0.211315 0.0830336 -0.177974zm0.383256 -0.126217m0.0388972 -0.0596953l-0.659029 -0.428028 0.118438 -0.182261 0.520746 0.182261 -0.379287 -0.400085 0.118755 -0.182896 0.658871 0.427869 -0.073349 0.113199 -0.518841 -0.336897 0.440888 0.456764 -0.0762067 0.117327 -0.596318 -0.217348 0.518841 0.336897 -0.0735077 0.113199zm0.416597 -0.642835m0.444857 -0.569169l-0.0974811 0.12463 -0.179403 -0.0604891 -0.177181 0.226874 0.104308 0.1567 -0.0950996 0.121454 -0.446444 -0.704753 0.0946233 -0.121137 0.796678 0.256721zm-0.409929 0.019528l-0.290856 -0.10145 0.170036 0.256245 0.120819 -0.154795zm0.419772 -0.0211156m0.0517571 -0.0536622l-0.5652 -0.545831 0.0982749 -0.101609 0.582188 0.152413 -0.377541 -0.364363 0.0938295 -0.0973223 0.5652 0.545831 -0.101291 0.105102 -0.570121 -0.147492 0.36865 0.356108 -0.0939883 0.0971636zm0.672207 -0.648868m0.0577901 -0.045089l-0.483754 -0.61918 0.183531 -0.143523c0.0696974,-0.0542973 0.117485,-0.0866851 0.143681,-0.0970048 0.0395322,-0.0161939 0.082716,-0.0173053 0.129075,-0.00333404 0.0462003,0.01413 0.0884315,0.045724 0.126852,0.0947821 0.0298476,0.0381034 0.0482642,0.0750954 0.0558849,0.110658 0.00777943,0.0360394 0.00762067,0.0687448 -0.000476292,0.09891 -0.00777943,0.0298476 -0.0200043,0.0552499 -0.036357,0.0755717 -0.022862,0.0273074 -0.059854,0.0612829 -0.11177,0.101768l-0.0746191 0.0582664 0.18242 0.233542 -0.114469 0.0895429zm-0.287363 -0.603938l0.137013 0.175593 0.0627118 -0.0488993c0.045089,-0.0352456 0.0728727,-0.061918 0.0828748,-0.0803346 0.0103197,-0.0184166 0.0142888,-0.0377858 0.0122248,-0.0584251 -0.0022227,-0.0204806 -0.0104784,-0.0400085 -0.0246084,-0.0582664 -0.0176228,-0.0225445 -0.0382621,-0.036357 -0.061918,-0.0415962 -0.0233383,-0.00523921 -0.0460416,-0.0022227 -0.0673159,0.00857325 -0.0160352,0.0079382 -0.0446127,0.0279425 -0.0857325,0.0601715l-0.0552499 0.0431838zm0.759527 0.242909m0.0620767 -0.0388972l-0.416279 -0.666332 0.452477 -0.282759 0.0704912 0.112722 -0.329276 0.205758 0.0922419 0.147809 0.306414 -0.191469 0.0700149 0.112246 -0.306256 0.191469 0.113357 0.181308 0.340866 -0.213061 0.0701737 0.112405 -0.464226 0.289903zm0.498201 -0.323402m0.0681097 -0.0303239l-0.319592 -0.717772 0.129075 -0.0574726 0.482642 0.359442 -0.213379 -0.479308 0.123518 -0.0549323 0.319433 0.717772 -0.133362 0.0593777 -0.473434 -0.350233 0.208457 0.468195 -0.12336 0.0549323zm0.597588 -0.277043m-0.187024 -0.766512l0.251165 -0.0865264c0.0566787,-0.019528 0.101291,-0.0296889 0.134314,-0.0304827 0.0442952,-0.000952584 0.0865264,0.0101609 0.126217,0.0333404 0.039691,0.0227032 0.0752541,0.0554086 0.106372,0.0976398 0.0311177,0.0425487 0.0587427,0.0984337 0.0828748,0.168131 0.0209568,0.0611241 0.0320703,0.116215 0.0333404,0.165273 0.00158764,0.059854 -0.00746191,0.111929 -0.0277837,0.156224 -0.0149238,0.033658 -0.0401673,0.0644582 -0.0758892,0.0925594 -0.0266723,0.0209568 -0.0655695,0.0401673 -0.116374,0.0576313l-0.258309 0.0890666 -0.255928 -0.742857zm0.180673 0.0782706l0.169401 0.49201 0.102562 -0.0352456c0.0384209,-0.0131774 0.065252,-0.0249259 0.0806521,-0.0358807 0.020163,-0.0136537 0.0352456,-0.0301652 0.0447714,-0.0498519 0.00984337,-0.019528 0.0136537,-0.047788 0.011431,-0.0841449 -0.00238146,-0.036357 -0.0131774,-0.0835099 -0.0330229,-0.140982 -0.0196867,-0.0573138 -0.039691,-0.0997038 -0.0593777,-0.127329 -0.0198455,-0.0274662 -0.0412786,-0.0469941 -0.0638231,-0.0585839 -0.0227032,-0.011431 -0.047788,-0.0157176 -0.0755717,-0.0128599 -0.0209568,0.00158764 -0.0593777,0.0123836 -0.11558,0.031594l-0.0614417 0.0212744zm0.692211 0.457717m0.0663633 -0.0177816l-0.203377 -0.758892 0.140506 -0.0376271 0.203377 0.758892 -0.140506 0.0376271zm0.203059 -0.0700149m-0.0649345 -0.786358l0.261643 -0.0462003c0.0589014,-0.0103197 0.104625,-0.0134949 0.13749,-0.00904955 0.0438189,0.00603303 0.0836686,0.0236558 0.119391,0.0525509 0.0355631,0.0287363 0.0657283,0.0666809 0.0898604,0.113199 0.0239734,0.0468354 0.0425487,0.106372 0.0554086,0.178927 0.0112722,0.0636644 0.0136537,0.119867 0.00714438,0.168607 -0.00777943,0.0593777 -0.0249259,0.10923 -0.0517571,0.150032 -0.020163,0.0308002 -0.0498519,0.0573138 -0.0895429,0.079382 -0.0296889,0.0165115 -0.0711263,0.0295301 -0.123836,0.0387384l-0.269422 0.0474704 -0.136378 -0.773657zm0.166226 0.105578l0.0903367 0.51249 0.106848 -0.0187341c0.0400085,-0.00714438 0.0684273,-0.0146063 0.085415,-0.022862 0.0219094,-0.0103197 0.0393735,-0.0242909 0.0520746,-0.0422312 0.0127011,-0.0176228 0.0206393,-0.045089 0.0242909,-0.0812872 0.00333404,-0.0361982 0,-0.0844624 -0.0106372,-0.144475 -0.0104784,-0.0596953 -0.0234971,-0.104625 -0.0387384,-0.134949 -0.0154001,-0.0303239 -0.0333404,-0.0530272 -0.0536622,-0.067951 -0.0207981,-0.0149238 -0.045089,-0.0230208 -0.0727139,-0.0246084 -0.0211156,-0.00158764 -0.0606478,0.00301652 -0.119073,0.0133362l-0.0641406 0.0112722zm0.604732 0.549165m0.0682685 -0.00714438l-0.082081 -0.781436 0.144634 -0.0152413 0.082081 0.781436 -0.144634 0.0152413zm0.211156 -0.0368332m0.0750954 -0.00127011l-0.0138125 -0.785564 0.145269 -0.00254022 0.00603303 0.348646 0.287522 -0.353885 0.195438 -0.00333404 -0.265453 0.310701 0.293872 0.474546 -0.188135 0.00333404 -0.204012 -0.365316 -0.115739 0.133362 0.00428663 0.237511 -0.145269 0.00254022zm0.651091 -0.0206393m0.72063 0.0503282l-0.157811 -0.0109547 -0.0503282 -0.182579 -0.287204 -0.0200043 -0.0716026 0.174005 -0.153684 -0.010796 0.334357 -0.76429 0.153525 0.010796 0.232748 0.803822zm-0.245608 -0.328641l-0.0784294 -0.298 -0.117327 0.284188 0.195756 0.0138125zm0.251006 0.333087m0.0735077 0.0130186l0.136378 -0.773816 0.139395 0.0244497 0.198931 0.567899 0.0911305 -0.516618 0.133044 0.0233383 -0.136378 0.773816 -0.14384 -0.0252435 -0.19655 -0.555198 -0.0890666 0.504711 -0.133044 -0.0233383zm0.91194 0.184643m0.0660458 0.0188929l0.216554 -0.75524 0.139871 0.0400085 -0.216554 0.755399 -0.139871 -0.0401673zm0.203218 0.0579489m0.125582 -0.225604l0.13749 0.0366745c-0.0109547,0.0514395 -0.00825573,0.0930357 0.00730314,0.125265 0.0155589,0.0317528 0.0439776,0.0557262 0.0852563,0.0716026 0.0436601,0.016829 0.0804933,0.0193692 0.110341,0.00746191 0.0300064,-0.0115898 0.0501694,-0.0308002 0.0604891,-0.0577901 0.00666809,-0.0176228 0.00762067,-0.0339755 0.00285775,-0.0498519 -0.00444539,-0.0157176 -0.0166702,-0.0325466 -0.0365157,-0.0503282 -0.0136537,-0.0122248 -0.045724,-0.0368332 -0.096211,-0.073984 -0.065252,-0.0474704 -0.107007,-0.0912893 -0.125265,-0.131139 -0.0258785,-0.0562024 -0.0276249,-0.113357 -0.00523921,-0.171465 0.0142888,-0.0373095 0.0373095,-0.0684273 0.0692211,-0.093512 0.0319116,-0.0250847 0.0693799,-0.0390559 0.112405,-0.0422312 0.0431838,-0.00285775 0.0903367,0.00555674 0.142094,0.0254022 0.0844624,0.0323879 0.14003,0.0768418 0.167337,0.133521 0.0268311,0.0568375 0.0285775,0.119232 0.00492168,0.1875l-0.138125 -0.0455653c0.00889078,-0.0400085 0.00666809,-0.0719201 -0.0061918,-0.0957347 -0.0127011,-0.0238146 -0.0382621,-0.043025 -0.0763655,-0.0576313 -0.0393735,-0.0150826 -0.0736665,-0.0182579 -0.10272,-0.00904955 -0.0187341,0.0057155 -0.0317528,0.0180991 -0.0390559,0.036992 -0.00666809,0.0176228 -0.00555674,0.0349281 0.00317528,0.0523921 0.010796,0.022227 0.0463591,0.0547736 0.105737,0.0970048 0.0593777,0.04239 0.101609,0.0787469 0.126376,0.108912 0.0242909,0.0303239 0.039691,0.0646169 0.0455653,0.103197 0.0057155,0.0382621 -0.000476292,0.0808109 -0.0180991,0.127011 -0.0161939,0.0420725 -0.0419137,0.0774768 -0.0774768,0.105737 -0.0354044,0.0284188 -0.0762067,0.0442952 -0.12209,0.0469941 -0.0462003,0.00301652 -0.0981161,-0.00682685 -0.1567,-0.0292126 -0.0849387,-0.0327054 -0.141935,-0.0790645 -0.170989,-0.139554 -0.0290538,-0.0603303 -0.0320703,-0.133203 -0.00952584,-0.218618zm0.505028 0.467084m0.0692211 0.0338167l0.341819 -0.700467 0.130345 0.0636644 -0.283552 0.581394 0.324831 0.158446 -0.0579489 0.119073 -0.455494 -0.222111zm0.484548 0.229573m0.61267 0.38278l-0.134156 -0.0838274 0.0412786 -0.184801 -0.24402 -0.152413 -0.144952 0.120026 -0.130822 -0.0817634 0.654266 -0.517729 0.130186 0.0814459 -0.171783 0.819063zm-0.0623942 -0.405483l0.0704912 -0.299905 -0.236876 0.195915 0.166385 0.10399zm0.0552499 0.417867m0.0568375 0.0428663l0.472958 -0.627435 0.173688 0.130822 -0.2183 0.506616 0.425487 -0.350392 0.174164 0.131298 -0.472799 0.627435 -0.107801 -0.0811284 0.372302 -0.494074 -0.486453 0.408023 -0.11177 -0.0843037 0.258468 -0.579647 -0.372143 0.493915 -0.107801 -0.0811284zm0.818746 0.659664m0.0466766 0.053821l0.593142 -0.515507 0.14257 0.164003 -0.318798 0.450255 0.489152 -0.254181 0.143046 0.164638 -0.592983 0.515348 -0.0884315 -0.101768 0.466607 -0.405801 -0.560437 0.297841 -0.0917656 -0.105578 0.373254 -0.513284 -0.466766 0.405801 -0.0885903 -0.101768zm0.499313 0.582823m0.0431838 0.0533447l0.610606 -0.494391 0.0916068 0.112881 -0.610765 0.49455 -0.0914481 -0.11304zm0.125582 0.155271m0.0401673 0.0620767l0.659029 -0.427869 0.268946 0.413898 -0.111611 0.0723964 -0.189564 -0.291808 -0.155906 0.101133 0.163686 0.251958 -0.111611 0.0725551 -0.163527 -0.251958 -0.280218 0.181785 -0.0792232 -0.12209zm0.302604 0.453906m0.106689 0.209568l0.581711 -0.296412 -0.0970048 -0.190199 0.118438 -0.0603303 0.259738 0.509632 -0.118438 0.0603303 -0.0966873 -0.189882 -0.581711 0.296412 -0.0660458 -0.129551zm0.141141 0.273392m0.305303 0.654743l-0.0668396 -0.143523 0.135426 -0.132409 -0.121772 -0.260849 -0.186865 0.0217507 -0.065252 -0.139712 0.830653 -0.0779531 0.0649345 0.139395 -0.590284 0.593301zm0.168607 -0.374048l0.222428 -0.21322 -0.305303 0.0352456 0.0828748 0.177974zm-0.180038 0.377858m0.020163 0.0708087l0.755399 -0.216713 0.0400085 0.139871 -0.297047 0.0852563 0.0784294 0.273709 0.297206 -0.0852563 0.0400085 0.139712 -0.75524 0.216554 -0.0400085 -0.139712 0.330229 -0.0946233 -0.0785882 -0.273709 -0.330229 0.0946233 -0.0401673 -0.139712zm0.183055 0.631722m0.784929 -0.0789057l0.0277837 0.14257 -0.417708 0.0811284c-0.0662046,0.0128599 -0.109071,0.0230208 -0.127805,0.0303239 -0.0304827,0.0122248 -0.0530272,0.0319116 -0.0676335,0.0584251 -0.0146063,0.0266723 -0.0179403,0.059854 -0.0103197,0.0997038 0.0079382,0.0406436 0.0227032,0.0693799 0.0449302,0.0863676 0.0219094,0.0171465 0.0465178,0.0252435 0.0736665,0.0241321 0.0273074,-0.00079382 0.071285,-0.00730314 0.132092,-0.0192104l0.426758 -0.0828748 0.0277837 0.14257 -0.405007 0.0787469c-0.0928769,0.0179403 -0.158764,0.0269899 -0.198614,0.0266723 -0.039691,-0.000317528 -0.0746191,-0.00825573 -0.105102,-0.0238146 -0.0301652,-0.0155589 -0.0566787,-0.0393735 -0.0789057,-0.0708087 -0.0225445,-0.0317528 -0.0390559,-0.0755717 -0.0498519,-0.131615 -0.0131774,-0.0673159 -0.0146063,-0.120184 -0.00428663,-0.158446 0.0101609,-0.0381034 0.0269899,-0.0700149 0.0501694,-0.0954172 0.0231795,-0.0254022 0.0492168,-0.0442952 0.0776356,-0.05652 0.0425487,-0.0179403 0.106689,-0.0352456 0.193057,-0.0520746l0.411357 -0.0798583zm-0.652044 0.792391m0.00666809 0.0768418l0.776515 -0.067951 0.0125424 0.144634 -0.644582 0.05652 0.031594 0.359918 -0.131933 0.0115898 -0.0441364 -0.504711zm0.0644582 0.801282m0.778737 0.126852l-0.0101609 0.144952 -0.424376 -0.0296889c-0.0673159,-0.00460416 -0.111452,-0.00603303 -0.131457,-0.00381034 -0.0325466,0.0039691 -0.0593777,0.0169877 -0.0803346,0.0388972 -0.0211156,0.0220682 -0.0330229,0.0531859 -0.0358807,0.0936707 -0.00285775,0.0412786 0.00412786,0.0728727 0.0211156,0.0950996 0.0166702,0.022227 0.0385796,0.036357 0.0647757,0.04239 0.0266723,0.0061918 0.0708087,0.0112722 0.132885,0.0155589l0.433426 0.0303239 -0.0100021 0.144952 -0.411675 -0.0287363c-0.0943058,-0.00650932 -0.160352,-0.0149238 -0.198614,-0.025561 -0.0382621,-0.0106372 -0.0701737,-0.0273074 -0.0954172,-0.0501694 -0.0252435,-0.0230208 -0.0446127,-0.0527096 -0.0579489,-0.0889078 -0.0134949,-0.0365157 -0.0179403,-0.0831923 -0.01413,-0.14003 0.00476292,-0.0684273 0.0169877,-0.119867 0.036992,-0.15416 0.0196867,-0.0341343 0.0441364,-0.0604891 0.0731902,-0.0790645 0.028895,-0.0187341 0.0589014,-0.0301652 0.0895429,-0.0346105 0.045724,-0.00635056 0.112246,-0.00635056 0.200043,-0.000317528l0.418026 0.0292126zm-0.837004 0.586792m-0.0079382 0.076683l0.775086 0.0814459 -0.0152413 0.144475 -0.643312 -0.0676335 -0.0377858 0.359442 -0.131774 -0.0138125 0.0530272 -0.503917zm-0.0817634 0.537892m0.753494 0.234018l-0.0301652 0.142094 -0.41612 -0.0884315c-0.0660458,-0.0139712 -0.109388,-0.0214331 -0.129551,-0.0220682 -0.0327054,-0.000635056 -0.0612829,0.00857325 -0.0849387,0.0273074 -0.0239734,0.0188929 -0.0401673,0.0481055 -0.0485818,0.0877965 -0.00857325,0.0404848 -0.00635056,0.0727139 0.00746191,0.0971636 0.0136537,0.0242909 0.0331817,0.0412786 0.0584251,0.0508045 0.0254022,0.0100021 0.068586,0.0211156 0.129234,0.0341343l0.425329 0.0903367 -0.0303239 0.142094 -0.403578 -0.0857325c-0.0925594,-0.0196867 -0.156859,-0.0371508 -0.193216,-0.0530272 -0.036357,-0.0158764 -0.0657283,-0.0368332 -0.087479,-0.0630293 -0.0215919,-0.0261961 -0.0368332,-0.0584251 -0.0449302,-0.0960522 -0.00841449,-0.0379446 -0.00635056,-0.08478 0.00555674,-0.140506 0.0142888,-0.0671572 0.0333404,-0.116533 0.0577901,-0.147492 0.0242909,-0.0311177 0.0522333,-0.0539798 0.0835099,-0.0682685 0.0314353,-0.0144475 0.062553,-0.0215919 0.0936707,-0.0217507 0.0460416,0 0.111929,0.00920831 0.197979,0.0274662l0.409929 0.0871614zm-0.922101 0.468513m-0.0257198 0.0665221l0.733648 0.281647 -0.0779531 0.2029 -0.547101 -0.0701737 0.454065 0.312606 -0.0781119 0.203535 -0.733648 -0.281489 0.048423 -0.126059 0.577583 0.221635 -0.526303 -0.354996 0.0501694 -0.130663 0.628547 0.0885903 -0.577583 -0.221635 0.0482642 -0.1259z"/>
  <path class="fil6" d="M5.69915 15.8302m0.0577901 0.0420725l0.424217 -0.583775 0.176228 0.128123 -0.183372 0.475181 0.393893 -0.322291 0.176863 0.12844 -0.424059 0.583775 -0.109388 -0.0795408 0.333881 -0.459463 -0.449778 0.375318 -0.113516 -0.0823985 0.2183 -0.543449 -0.333881 0.459463 -0.109388 -0.079382zm0.620608 0.451842m0.0628705 0.0377858l0.371666 -0.618544 0.458669 0.275614 -0.0630293 0.104625 -0.333563 -0.200519 -0.0823985 0.137172 0.310384 0.186548 -0.062553 0.104149 -0.310384 -0.186548 -0.101291 0.16829 0.34547 0.207505 -0.0627118 0.104308 -0.470259 -0.2826zm0.50868 0.304986m0.0700149 0.0327054l0.302604 -0.64871 0.131933 0.0616004 -0.251165 0.538369 0.328324 0.153207 -0.0512808 0.110182 -0.460416 -0.214649zm0.495344 0.219253m0.0633468 0.0269899l0.281965 -0.664268 0.133997 0.0568375 -0.281806 0.664268 -0.134156 -0.0568375zm0.19655 0.0838274m0.0698562 0.0239734l0.234812 -0.682209 0.290062 0.0998625c0.0728727,0.0250847 0.123677,0.0495344 0.152413,0.0731902 0.028895,0.0234971 0.0479467,0.054456 0.0569963,0.0925594 0.00904955,0.0382621 0.00666809,0.0773181 -0.00730314,0.117803 -0.0176228,0.051122 -0.0473117,0.0882728 -0.0889078,0.111452 -0.0414374,0.0227032 -0.0938295,0.0284188 -0.156541,0.0163527 0.0238146,0.0277837 0.0419137,0.0552499 0.0539798,0.0828748 0.0122248,0.0273074 0.0257198,0.0731902 0.0403261,0.13749l0.0374683 0.161939 -0.164638 -0.0566787 -0.0485818 -0.182896c-0.0171465,-0.065252 -0.0296889,-0.106848 -0.0379446,-0.125265 -0.00841449,-0.0182579 -0.0188929,-0.0323879 -0.031594,-0.0427075 -0.0130186,-0.0100021 -0.0350868,-0.0204806 -0.0669984,-0.0314353l-0.0277837 -0.00952584 -0.0979574 0.284664 -0.137807 -0.0474704zm0.273392 -0.346264l0.101768 0.0350868c0.0662046,0.0227032 0.108436,0.034293 0.126852,0.0344518 0.0182579,0 0.034293,-0.00523921 0.048423,-0.0157176 0.0139712,-0.0104784 0.0246084,-0.0258785 0.031594,-0.0463591 0.0079382,-0.0230208 0.00809696,-0.0435013 0.00079382,-0.061918 -0.00730314,-0.0182579 -0.0217507,-0.0331817 -0.0427075,-0.0447714 -0.0106372,-0.00523921 -0.0438189,-0.0176228 -0.0998625,-0.0368332l-0.107324 -0.036992 -0.0595365 0.173053zm0.344359 0.544084m0.705547 0.162892l-0.154477 -0.0357219 -0.0246084 -0.174005 -0.281012 -0.0647757 -0.0947821 0.14638 -0.150667 -0.0347693 0.436125 -0.639819 0.150191 0.0346105 0.119232 0.7681zm-0.197185 -0.338485l-0.0368332 -0.283394 -0.154954 0.239099 0.191787 0.0442952zm0.209568 0.336897m0.0741428 0.00904955l0.0879552 -0.716184 0.140824 0.0173053 0.234336 0.514237 0.0587427 -0.478197 0.134473 0.0165115 -0.0879552 0.716184 -0.145428 -0.0179403 -0.23116 -0.502488 -0.0573138 0.467084 -0.134473 -0.0165115zm0.643629 0.0614417m0.422471 -0.243544l0.00635056 -0.121454 0.3134 0.0165115 -0.0149238 0.287045c-0.0320703,0.0279425 -0.0776356,0.0515983 -0.136696,0.0711263 -0.0590602,0.0190517 -0.11812,0.0273074 -0.177498,0.0241321 -0.0752541,-0.00381034 -0.14003,-0.0230208 -0.194486,-0.0574726 -0.0542973,-0.0346105 -0.094147,-0.082081 -0.119232,-0.142411 -0.0250847,-0.0603303 -0.0357219,-0.125106 -0.0322291,-0.194168 0.0039691,-0.0749366 0.0231795,-0.140982 0.0576313,-0.197661 0.0346105,-0.05652 0.0828748,-0.09891 0.145269,-0.126852 0.0474704,-0.0214331 0.105578,-0.0303239 0.174323,-0.0268311 0.0895429,0.00476292 0.158446,0.0271486 0.206552,0.0671572 0.048423,0.0401673 0.0781119,0.0938295 0.0890666,0.160828l-0.145904 0.019528c-0.00841449,-0.0360394 -0.0260373,-0.0649345 -0.0530272,-0.0868439 -0.0269899,-0.0219094 -0.0612829,-0.0341343 -0.103197,-0.036357 -0.0635056,-0.00333404 -0.115104,0.01413 -0.154795,0.0525509 -0.039691,0.0384209 -0.0614417,0.0971636 -0.0655695,0.176546 -0.00444539,0.085415 0.0109547,0.150667 0.0468354,0.195438 0.0357219,0.0447714 0.0844624,0.068586 0.146063,0.0717613 0.0304827,0.0017464 0.0612829,-0.00269899 0.0927182,-0.0130186 0.0311177,-0.0103197 0.0582664,-0.0234971 0.0809696,-0.0393735l0.00476292 -0.0914481 -0.166385 -0.00873202zm0.641565 0.243544m-0.0146063 -0.725234l0.286093 -0.0350868c0.0566787,-0.00698562 0.0993863,-0.00984337 0.127964,-0.00841449 0.02826,0.00127011 0.0542973,0.00809696 0.0782706,0.0203218 0.0236558,0.0123836 0.0444539,0.0298476 0.0622355,0.0531859 0.0176228,0.0230208 0.0284188,0.0500107 0.0322291,0.0809696 0.00412786,0.0334992 -0.00111135,0.0655695 -0.0157176,0.0955759 -0.0146063,0.0303239 -0.0366745,0.0542973 -0.0658871,0.0720788 0.0452477,0.00746191 0.0814459,0.0249259 0.108753,0.0525509 0.0271486,0.0279425 0.0433426,0.0623942 0.048423,0.103832 0.0039691,0.0325466 0.000317528,0.0650932 -0.0111135,0.0977986 -0.0112722,0.0323879 -0.0290538,0.0596953 -0.0530272,0.0812872 -0.0238146,0.0215919 -0.0547736,0.036992 -0.0928769,0.0458828 -0.0236558,0.00555674 -0.0816047,0.0144475 -0.173688,0.0263548l-0.243703 0.0298476 -0.0879552 -0.716184zm0.15924 0.101609l0.0203218 0.165591 0.0947821 -0.0115898c0.0563612,-0.00698562 0.0912893,-0.0122248 0.104784,-0.0155589 0.0241321,-0.0057155 0.0427075,-0.0166702 0.0550911,-0.0325466 0.0125424,-0.0160352 0.0171465,-0.0355631 0.0142888,-0.0587427 -0.00269899,-0.022227 -0.0109547,-0.0395322 -0.0247672,-0.0519158 -0.0139712,-0.0120661 -0.0333404,-0.0182579 -0.0576313,-0.0180991 -0.0144475,0 -0.0557262,0.00428663 -0.123836,0.0125424l-0.0830336 0.0103197zm0.0349281 0.284664l0.0234971 0.191469 0.133838 -0.0163527c0.0522333,-0.00650932 0.0849387,-0.0119073 0.0985924,-0.0166702 0.0211156,-0.00635056 0.0374683,-0.0180991 0.0490581,-0.0349281 0.0115898,-0.016829 0.0160352,-0.0379446 0.0128599,-0.0633468 -0.00254022,-0.0214331 -0.0101609,-0.0390559 -0.0223857,-0.0527096 -0.0122248,-0.0136537 -0.0287363,-0.022862 -0.0492168,-0.0273074 -0.0204806,-0.00444539 -0.0636644,-0.00254022 -0.129393,0.00555674l-0.11685 0.0142888zm0.548371 0.238305m-0.104308 -0.717613l0.141459 -0.0352456 0.0944646 0.379128c0.0150826,0.0601715 0.0265136,0.09891 0.034293,0.115739 0.0133362,0.0271486 0.0334992,0.0466766 0.0604891,0.0582664 0.0271486,0.0115898 0.0603303,0.0125424 0.0998625,0.00269899 0.0400085,-0.0100021 0.0682685,-0.0257198 0.08478,-0.0473117 0.0161939,-0.0212744 0.0233383,-0.0446127 0.0215919,-0.0693799 -0.00190517,-0.0250847 -0.0096846,-0.0650932 -0.0234971,-0.120661l-0.0965285 -0.387225 0.141141 -0.0352456 0.0917656 0.367697c0.0209568,0.0841449 0.0320703,0.144475 0.0330229,0.18115 0.000952584,0.0365157 -0.00587427,0.0693799 -0.0203218,0.0982749 -0.0146063,0.0290538 -0.0373095,0.0549323 -0.067951,0.0776356 -0.0311177,0.022862 -0.0743015,0.0409611 -0.129551,0.0547736 -0.0668396,0.0166702 -0.119549,0.0217507 -0.15797,0.0147651 -0.0384209,-0.00682685 -0.07065,-0.020163 -0.096846,-0.039691 -0.0261961,-0.019528 -0.0458828,-0.0422312 -0.0589014,-0.0676335 -0.0192104,-0.0377858 -0.0387384,-0.0958934 -0.0582664,-0.174323l-0.0930357 -0.373413zm0.812078 0.556309m0.0703324 -0.025561l-0.246878 -0.678081 0.133203 -0.048423 0.442316 0.351662 -0.164797 -0.452795 0.127329 -0.0462003 0.246719 0.678081 -0.13749 0.0500107 -0.434219 -0.342771 0.160987 0.442158 -0.12717 0.0463591zm0.617274 -0.216395m0.258627 -0.413421l-0.0512808 -0.110182 0.284346 -0.132568 0.121613 0.260532c-0.0152413,0.039691 -0.0442952,0.0819222 -0.0873202,0.126852 -0.0431838,0.0446127 -0.0914481,0.0796995 -0.145269,0.104784 -0.0682685,0.0317528 -0.134632,0.0454065 -0.198773,0.0404848 -0.0642994,-0.00508045 -0.121613,-0.02826 -0.172259,-0.0696974 -0.0503282,-0.0415962 -0.0901779,-0.0936707 -0.119391,-0.156383 -0.0317528,-0.0681097 -0.0458828,-0.135267 -0.0420725,-0.201471 0.00412786,-0.0662046 0.0268311,-0.126376 0.0687448,-0.180356 0.0317528,-0.0411199 0.0789057,-0.0763655 0.141459,-0.105419 0.0811284,-0.0379446 0.152413,-0.0504869 0.213855,-0.0377858 0.0616004,0.0128599 0.112881,0.0462003 0.154001,0.10018l-0.119549 0.0857325c-0.0244497,-0.0277837 -0.0535035,-0.045089 -0.0876377,-0.0517571 -0.0341343,-0.00666809 -0.0701737,-0.00127011 -0.108118,0.0163527 -0.0576313,0.0269899 -0.0950996,0.0666809 -0.112087,0.119073 -0.0169877,0.0525509 -0.00857325,0.114628 0.0249259,0.186706 0.0361982,0.0774768 0.0804933,0.127805 0.133203,0.150508 0.0525509,0.0227032 0.106848,0.0209568 0.162574,-0.00508045 0.0277837,-0.0128599 0.0528684,-0.0312765 0.0757304,-0.0550911 0.0227032,-0.0238146 0.0404848,-0.0481055 0.0531859,-0.0727139l-0.0387384 -0.0830336 -0.151143 0.0703324zm0.444698 0.0808109m0.620767 -0.372937l-0.136061 0.0816047 -0.138442 -0.108118 -0.247354 0.148603 0.033658 0.171148 -0.132568 0.0796995 -0.130822 -0.763178 0.13225 -0.0795408 0.619338 0.469783zm-0.377064 -0.106531l-0.223222 -0.178292 0.054456 0.279742 0.168766 -0.10145zm0.393576 0.106531m0.0573138 -0.0465178l-0.454065 -0.560754 0.113357 -0.0916068 0.178609 0.220523 0.221793 -0.179562 -0.178609 -0.220682 0.11304 -0.0916068 0.454224 0.560754 -0.113199 0.0916068 -0.198455 -0.245132 -0.221952 0.179562 0.198614 0.24529 -0.113357 0.0916068z"/>
  <path class="fil6" d="M7.95376 18.4717m0.575996 -0.209251l0.0344518 -0.148921 0.384526 0.0887491 -0.0812872 0.352139c-0.045724,0.0276249 -0.107324,0.0469941 -0.184643,0.0581076 -0.0773181,0.0109547 -0.152255,0.00809696 -0.22481,-0.00857325 -0.0925594,-0.0214331 -0.168607,-0.0593777 -0.228461,-0.113834 -0.059854,-0.0547736 -0.0987512,-0.12209 -0.116533,-0.202265 -0.0179403,-0.0801758 -0.0169877,-0.162574 0.00254022,-0.247354 0.0212744,-0.0919243 0.0595365,-0.169401 0.114628,-0.232272 0.0550911,-0.0622355 0.123995,-0.104308 0.207505,-0.125265 0.0631881,-0.0163527 0.137172,-0.0146063 0.221476,0.00492168 0.109706,0.0254022 0.190358,0.0682685 0.241162,0.128123 0.051122,0.0603303 0.0760479,0.133203 0.0750954,0.218618l-0.18496 -0.00777943c-0.00238146,-0.0463591 -0.0179403,-0.0862088 -0.0465178,-0.119232 -0.0285775,-0.0328641 -0.0684273,-0.0554086 -0.119867,-0.0673159 -0.0779531,-0.0180991 -0.145745,-0.00762067 -0.203059,0.0311177 -0.0576313,0.0390559 -0.0973223,0.106848 -0.119867,0.204329 -0.0241321,0.104784 -0.0192104,0.188929 0.0154001,0.252117 0.0344518,0.0633468 0.0895429,0.103355 0.165115,0.120819 0.0374683,0.00873202 0.0765242,0.0100021 0.117644,0.00412786 0.0408023,-0.00603303 0.0773181,-0.0165115 0.108912,-0.030959l0.0260373 -0.112087 -0.204488 -0.0473117zm0.384209 0.437236m0.0920831 0.0112722l0.1105 -0.900192 0.38278 0.0469941c0.0960522,0.0117485 0.164956,0.0285775 0.206552,0.0500107 0.0415962,0.0215919 0.0731902,0.054456 0.094147,0.0990687 0.0211156,0.0446127 0.0284188,0.093512 0.0219094,0.146539 -0.00825573,0.0676335 -0.0352456,0.121137 -0.0801758,0.160193 -0.0449302,0.0390559 -0.10796,0.0595365 -0.188453,0.0612829 0.0366745,0.0277837 0.0662046,0.0569963 0.0882728,0.087479 0.022227,0.0306414 0.0506457,0.0835099 0.085415,0.158764l0.0884315 0.189247 -0.217189 -0.0266723 -0.107483 -0.212109c-0.0381034,-0.0757304 -0.0646169,-0.123677 -0.0795408,-0.143999 -0.0149238,-0.0203218 -0.031594,-0.0349281 -0.0500107,-0.0442952 -0.0185754,-0.00904955 -0.0485818,-0.0161939 -0.0904955,-0.0212744l-0.0365157 -0.00444539 -0.0462003 0.375794 -0.181944 -0.0223857zm0.245767 -0.49709l0.134156 0.0163527c0.0873202,0.010796 0.142253,0.0138125 0.164956,0.00904955 0.0225445,-0.00460416 0.0409611,-0.0152413 0.0555674,-0.0317528 0.0144475,-0.0165115 0.0234971,-0.0381034 0.0268311,-0.065252 0.00365157,-0.0304827 -0.00158764,-0.0557262 -0.0152413,-0.0763655 -0.0139712,-0.0206393 -0.0354044,-0.0350868 -0.0642994,-0.0438189 -0.0144475,-0.00365157 -0.0585839,-0.0101609 -0.13225,-0.0192104l-0.141776 -0.017464 -0.0279425 0.228461zm0.564565 0.574567m0.0920831 0.00476292l0.0474704 -0.905749 0.671572 0.0352456 -0.0079382 0.153366 -0.488676 -0.0257198 -0.0104784 0.200836 0.454541 0.0238146 -0.00809696 0.152413 -0.454541 -0.0238146 -0.0128599 0.24656 0.505981 0.0265136 -0.00809696 0.152731 -0.688877 -0.0361982zm0.753018 0.0206393m0.0200043 -0.297841l0.17591 -0.0330229c0.0158764,0.0587427 0.0412786,0.100656 0.0765242,0.1259 0.0350868,0.0247672 0.0803346,0.0349281 0.135902,0.0301652 0.0585839,-0.00523921 0.101926,-0.0214331 0.129393,-0.0490581 0.0277837,-0.0273074 0.0400085,-0.0577901 0.0371508,-0.0909718 -0.00190517,-0.0215919 -0.00984337,-0.0390559 -0.0236558,-0.0528684 -0.0138125,-0.0139712 -0.0366745,-0.0252435 -0.0690623,-0.0333404 -0.0219094,-0.0057155 -0.0717613,-0.0144475 -0.149556,-0.0268311 -0.0998625,-0.0155589 -0.171148,-0.0395322 -0.213379,-0.071285 -0.0600128,-0.0449302 -0.0930357,-0.103038 -0.0992275,-0.17464 -0.00412786,-0.0460416 0.00508045,-0.0900192 0.0277837,-0.132568 0.0225445,-0.0422312 0.0574726,-0.0760479 0.104625,-0.101291 0.0474704,-0.0252435 0.105578,-0.0408023 0.175117,-0.0469941 0.113516,-0.00984337 0.200995,0.00746191 0.262754,0.0520746 0.0616004,0.0449302 0.0974811,0.108436 0.107642,0.191311l-0.181626 0.0239734c-0.0117485,-0.0458828 -0.031594,-0.0777943 -0.0590602,-0.0957347 -0.0274662,-0.0180991 -0.0668396,-0.0249259 -0.11812,-0.0203218 -0.0531859,0.00460416 -0.0938295,0.0190517 -0.121772,0.0433426 -0.0180991,0.0157176 -0.0260373,0.0352456 -0.0239734,0.0585839 0.0017464,0.0215919 0.0123836,0.0388972 0.0317528,0.0525509 0.0246084,0.0173053 0.0823985,0.0325466 0.172894,0.045724 0.090813,0.0133362 0.158288,0.0292126 0.202742,0.047788 0.0444539,0.0187341 0.0803346,0.0463591 0.10796,0.0831923 0.0274662,0.0366745 0.0436601,0.0836686 0.0485818,0.140665 0.00460416,0.0517571 -0.00555674,0.101609 -0.0304827,0.149238 -0.0247672,0.0476292 -0.062553,0.0849387 -0.113199,0.111294 -0.0506457,0.0268311 -0.115263,0.0435013 -0.193692,0.0503282 -0.114469,0.0100021 -0.204329,-0.00857325 -0.270216,-0.0560437 -0.0657283,-0.0474704 -0.10923,-0.121296 -0.12971,-0.221158zm0.825096 0.234494m0.0846212 -0.0179403l-0.188612 -0.887173 0.179245 -0.0381034 0.188612 0.887173 -0.179245 0.0381034zm0.267359 -0.0454065m0.0917656 -0.022862l-0.219412 -0.880029 0.177657 -0.0442952 0.0974811 0.390718 0.261643 -0.480261 0.23894 -0.0596953 -0.245925 0.425487 0.483278 0.450096 -0.22989 0.0574726 -0.344835 -0.352932 -0.107642 0.183055 0.0663633 0.266088 -0.177657 0.0442952z"/>
 </g>
</svg>
