<?xml version="1.0" encoding="UTF-8"?>
<!DOCTYPE svg PUBLIC "-//W3C//DTD SVG 1.1//EN" "http://www.w3.org/Graphics/SVG/1.1/DTD/svg11.dtd">
<!-- Creator: CorelDRAW -->
<svg xmlns="http://www.w3.org/2000/svg" xml:space="preserve" width="50.0748mm" height="49.2888mm" style="shape-rendering:geometricPrecision; text-rendering:geometricPrecision; image-rendering:optimizeQuality; fill-rule:evenodd; clip-rule:evenodd"
viewBox="0 0 11.0484 10.875"
 xmlns:xlink="http://www.w3.org/1999/xlink">
 <defs>
  <style type="text/css">
   <![CDATA[
    .str0 {stroke:black;stroke-width:0.0168126}
    .str1 {stroke:#FF9696;stroke-width:0.0168126}
    .fil0 {fill:none}
    .fil5 {fill:black}
    .fil1 {fill:#05913A}
    .fil3 {fill:#138C3C}
    .fil2 {fill:yellow}
    .fil4 {fill:white}
    .fil6 {fill:black;fill-rule:nonzero}
   ]]>
  </style>
    <clipPath id="id0">
     <path d="M5.52401 3.51248c1.08031,0 1.95602,0.875732 1.95602,1.95604 0,1.08028 -0.87571,1.95602 -1.95602,1.95602 -1.08031,0 -1.95602,-0.875732 -1.95602,-1.95602 0,-1.08031 0.87571,-1.95604 1.95602,-1.95604z"/>
    </clipPath>
 </defs>
 <g id="Layer_x0020_1">
  <metadata id="CorelCorpID_0Corel-Layer"/>
  <g id="_252564832">
   <path id="_252564352" class="fil0 str0" d="M5.55353 0.00858279c0,0 3.61609,0.734524 5.48065,3.89862 0,0 0.225999,4.06811 -2.14707,6.27166 0,0 -2.54265,1.46905 -6.66726,0.11301 0,0 -2.65557,-2.42957 -2.14707,-6.38467 0,0 1.35604,-2.99458 5.48074,-3.89862z"/>
   <path id="_252565024" class="fil1 str0" d="M5.55137 0.404097c0,0 3.35267,0.681019 5.08139,3.61459 0,0 0.209539,3.77175 -1.99066,5.81477 0,0 -2.35742,1.36204 -6.18155,0.104781 0,0 -2.46209,-2.25258 -1.99063,-5.91955 0,0 1.25726,-2.77643 5.08146,-3.61459z"/>
   <circle id="_253963392" class="fil2 str0" cx="5.52863" cy="5.4685" r="3.19232"/>
   <path id="_253963488" class="fil3" d="M5.52401 3.51248c1.08031,0 1.95602,0.875732 1.95602,1.95604 0,1.08028 -0.87571,1.95602 -1.95602,1.95602 -1.08031,0 -1.95602,-0.875732 -1.95602,-1.95602 0,-1.08031 0.87571,-1.95604 1.95602,-1.95604z"/>
   <g style="clip-path:url(#id0)">
    <g>
     <path id="_2499760001" class="fil2" d="M3.72946 6.34222c0,0 -0.135207,-0.675812 0.0810622,-0.892081 0.216269,-0.216269 -0.351475,-0.135207 -0.405554,-0.351475 -0.0540562,-0.216269 0.270347,-0.216181 0.297419,-0.351387 0.0270722,-0.135229 0.0270722,-0.243363 0.189285,-0.243363 0.162191,0 0.216269,-0.405443 0.540672,-0.189174 0.324403,0.216269 -0.026984,0.216269 -0.0540782,0.432538 -0.0270722,0.216269 -0.0270722,0.59464 0.027006,0.67579 0.0540562,0.0811504 -0.05399,0.621734 0.243341,0.216269 0.297331,-0.405465 0.108134,-0.594728 0.324403,-0.702862 0.216269,-0.108134 0.162124,-0.270259 0.5136,-0.351409 0.351475,-0.0811504 0.162191,-0.486682 0.486594,-0.513688 0.324403,-0.026984 0.162213,-0.189174 0.270347,-0.297309 0.108134,-0.108156 0.45961,-0.297419 0.513688,-0.189285 0.0540562,0.108134 -0.162213,0.432538 -0.162213,0.432538 0,0 -0.135118,0.297419 0.162213,0.243341 0.297331,-0.0540562 0.324403,0.135118 0.324403,0.135118l0.351387 -0.0810401 0.216269 0.67579c0,0 -0.270325,8.8255e-005 -0.432538,0.0811504 -0.162191,0.0810622 -0.0810622,-0.162301 -0.405465,-0.0811504 -0.324403,0.0811504 -0.567744,0.351387 -0.297397,0.486616 0.270325,0.135207 0.243253,0.0541444 0.324403,-0.027006 0.0811284,-0.0811284 0.189174,0.0811504 0.216269,0.162213 0.0270722,0.0810622 0.405531,0.135118 0.405531,0.243253 0,0.108134 -0.594816,0.702884 -0.729935,0.432538 -0.13514,-0.270325 -0.243275,-0.216181 -0.351409,-0.135118 -0.108134,0.0810622 -0.162191,0.0811504 -0.270325,0 -0.108134,-0.0811504 -0.162213,-0.0270722 -0.162213,0.135118 0,0.162213 -0.0541444,0.37857 -0.189285,0.405554 -0.135118,0.026984 -0.216269,0.216269 -0.324403,0.270347 -0.108134,0.0540562 0.0540782,0.216269 -0.0540562,0.324403 -0.108134,0.108134 -0.675812,0.108046 -0.729868,0.0810401 -0.0540782,-0.026984 -1.13542,-0.865075 -1.13542,-0.865075l0.216269 -0.162191zm1.67609 -0.919153c0,0 -0.135118,-0.243341 0.162213,-0.324403 0.297309,-0.0810622 0.459521,-0.459521 0.621712,-0.243253 0.162213,0.216269 -0.270325,0.5136 -0.270325,0.5136 0,0 -0.351475,0.162279 -0.216269,0.189263 0.135207,0.027006 0.54076,-8.8255e-005 0.567744,0.13514l0.026984 0.135207 -1.08134 -0.026984 1.08134 0.026984 -0.892059 -0.405554z"/>
     <g>
      <path id="_249975880" class="fil0 str0" d="M4.55087 3.4723c0,0 0.865075,0.648806 2.21677,0"/>
      <path id="_249975784" class="fil0 str0" d="M3.73985 3.74265c0,0 2.16269,1.73015 3.56846,-0.108134"/>
      <path id="_249974176" class="fil0 str0" d="M3.3613 4.55365c0,0 2.81158,1.67609 4.21733,-0.162191"/>
      <line id="_249973840" class="fil0 str0" x1="3.19909" y1="5.4728" x2="7.84898" y2= "5.4728" />
      <path id="_249963448" class="fil0 str0" d="M4.55087 7.46469c0,0 0.865075,-0.648806 2.21677,0"/>
      <path id="_249962944" class="fil0 str0" d="M3.73985 7.19435c0,0 2.16269,-1.73015 3.56846,0.108134"/>
      <path id="_249959968" class="fil0 str0" d="M3.3613 6.38335c0,0 2.81158,-1.67609 4.21733,0.162191"/>
      <line id="_249959944" class="fil0 str0" x1="5.54561" y1="3.76017" x2="5.54561" y2= "7.17639" />
      <path id="_250236552" class="fil0 str0" d="M5.24598 7.20396c0,0 -0.725434,-1.68221 0.0466648,-3.46387"/>
      <path id="_250707264" class="fil0 str0" d="M4.88932 7.29601c0,0 -1.61165,-1.70275 0.0792529,-3.62829"/>
      <path id="_250713408" class="fil0 str0" d="M5.82966 7.20396c0,0 0.725434,-1.68221 -0.0466648,-3.46387"/>
      <path id="_250702488" class="fil0 str0" d="M6.18634 7.29601c0,0 1.61162,-1.70275 -0.079275,-3.62829"/>
     </g>
    </g>
   </g>
   <path class="fil0 str0" d="M5.52401 3.51248c1.08031,0 1.95602,0.875732 1.95602,1.95604 0,1.08028 -0.87571,1.95602 -1.95602,1.95602 -1.08031,0 -1.95602,-0.875732 -1.95602,-1.95602 0,-1.08031 0.87571,-1.95604 1.95602,-1.95604z"/>
   <circle id="_253963704" class="fil4" cx="2.17181" cy="7.47865" r="0.189193"/>
   <circle id="_253963728" class="fil4" cx="8.88025" cy="7.47865" r="0.189193"/>
   <path id="_253962872" class="fil4 str1" d="M4.83072 8.3932c0,0 0.333891,-0.240782 0.699244,0.0113408 0,0 0.402067,-0.261897 0.716696,-0.021799l0 -0.32747c0,0 -0.27968,-0.305627 -0.681747,-0.0873283 0,0 -0.404914,-0.237406 -0.71663,0.0873283l-0.0175627 0.337928z"/>
   <path id="_253963208" class="fil4 str1" d="M3.38948 5.91955c0,0 0.164154,1.31449 1.78524,1.7386 0,0 -1.12732,0.300133 -1.78524,-0.170641l0.648895 -0.0540562c0,0 -0.865163,0.0540562 -1.08143,-0.540694 0,0 0.340333,0.276657 0.702951,0.216291 0,0 -0.757029,-0.108134 -0.648895,-0.756963 0,0 0.216357,0.432538 0.54076,0.432538 0,0 -0.44999,-0.28855 -0.162279,-0.865075z"/>
   <path id="_253962896" class="fil4 str1" d="M7.71496 5.91955c0,0 -0.164176,1.31449 -1.78527,1.7386 0,0 1.12735,0.300133 1.78527,-0.170641l-0.648895 -0.0540562c0,0 0.865163,0.0540562 1.08143,-0.540694 0,0 -0.340333,0.276657 -0.702973,0.216291 0,0 0.757029,-0.108134 0.648895,-0.756963 0,0 -0.216357,0.432538 -0.54076,0.432538 0,0 0.44999,-0.28855 0.162301,-0.865075z"/>
   <polygon id="_247896984" class="fil5 str0" points="5.49855,2.42761 5.59219,2.68659 5.87509,2.70122 5.65769,2.87023 5.73125,3.14373 5.50331,2.98935 5.26586,3.14373 5.34236,2.8793 5.12201,2.70122 5.39723,2.69215 "/>
   <polygon id="_247896960" class="fil5 str0" points="6.70791,2.90158 6.76671,3.06428 6.94441,3.07346 6.80785,3.17961 6.85408,3.35139 6.71091,3.25442 6.56176,3.35139 6.60981,3.1853 6.4714,3.07346 6.64425,3.06776 "/>
   <polygon id="_493656064" class="fil5 str0" points="4.37228,2.90158 4.43108,3.06428 4.60878,3.07346 4.47223,3.17961 4.51845,3.35139 4.37528,3.25442 4.22613,3.35139 4.27419,3.1853 4.13578,3.07346 4.30863,3.06776 "/>
   <polygon id="_250247376" class="fil5 str0" points="7.5689,3.52742 7.6277,3.69009 7.8054,3.69927 7.66885,3.80542 7.71505,3.97721 7.5719,3.88024 7.42273,3.97721 7.4708,3.81111 7.3324,3.69927 7.50525,3.69358 "/>
   <polygon id="_249979552" class="fil5 str0" points="3.49768,3.52742 3.55648,3.69009 3.73418,3.69927 3.59762,3.80542 3.64383,3.97721 3.50065,3.88024 3.3515,3.97721 3.39956,3.81111 3.26115,3.69927 3.43402,3.69358 "/>
   <polygon id="_249965680" class="fil5 str0" points="8.0934,4.35026 8.1522,4.51294 8.3299,4.52212 8.19335,4.62827 8.23955,4.80005 8.09638,4.70308 7.94723,4.80005 7.99528,4.63396 7.8569,4.52212 8.02974,4.51643 "/>
   <polygon id="_250702128" class="fil5 str0" points="3.01097,4.35026 3.06979,4.51294 3.2475,4.52212 3.11094,4.62827 3.15714,4.80005 3.01397,4.70308 2.86482,4.80005 2.91288,4.63396 2.77447,4.52212 2.94734,4.51643 "/>
   <polygon id="_249061088" class="fil5 str0" points="8.21106,5.2305 8.26986,5.39317 8.44757,5.40235 8.31101,5.5085 8.35724,5.68029 8.21406,5.58334 8.06491,5.68029 8.11297,5.51419 7.97456,5.40235 8.14741,5.39666 "/>
   <polygon id="_250701864" class="fil5 str0" points="2.80423,5.2305 2.86306,5.39317 3.04076,5.40235 2.90421,5.5085 2.95041,5.68029 2.80724,5.58334 2.65808,5.68029 2.70614,5.51419 2.56773,5.40235 2.7406,5.39666 "/>
   <path id="_249965560" class="fil6" d="M2.10724 7.02966m-0.052622 -0.130286l-0.164419 0.0664339 -0.1732 0.222402 -0.0342429 -0.0847248 0.12049 -0.146614 -0.187829 -0.0200559 -0.0336031 -0.0832244 0.279812 0.0399354 0.163867 -0.0661912 0.0291241 0.0720381zm-0.0739576 -0.152174m-0.100213 -0.374002l0.0219534 0.0819006 -0.0837319 0.0573216 0.0399133 0.148996 0.100699 0.00595721 0.0213798 0.0798266 -0.445754 -0.0361404 -0.0213577 -0.079606 0.366898 -0.258256zm-0.1238 0.181717l-0.137236 0.0918072 0.164463 0.00988455 -0.0272267 -0.101692zm0.132559 -0.137236m-0.0292124 -0.137435l-0.173443 0.0368685 -0.209186 0.188932 -0.0189969 -0.0893802 0.144098 -0.123469 -0.181474 -0.0523572 -0.0186659 -0.0877916 0.268648 0.087924 0.172847 -0.0367361 0.0161727 0.0760096zm-0.038082 -0.162676m-0.0404649 -0.385078l0.00886962 0.0843276 -0.0916748 0.0435097 0.0161286 0.153409 0.0985146 0.0216445 0.00862692 0.0821874 -0.434612 -0.105443 -0.00860486 -0.0819447 0.402751 -0.197691zm-0.150717 0.160094l-0.149923 0.069236 0.160933 0.0354785 -0.0110098 -0.104714zm0.143856 -0.163382m-0.137325 -0.0170994l-0.00946534 -0.0756786c0.0277562,-0.00496434 0.0479886,-0.0145841 0.0608077,-0.0288152 0.0126866,-0.0141649 0.0189528,-0.0330515 0.0185115,-0.0567479 -0.000419211,-0.0250644 -0.00653087,-0.0439068 -0.0184232,-0.0563728 -0.0118041,-0.0125543 -0.0254395,-0.01871 -0.0409282,-0.0184453 -0.0100169,0.00017651 -0.0184012,0.0030448 -0.025263,0.00853867 -0.00697214,0.00542768 -0.0128852,0.014871 -0.0177392,0.0283519 -0.00337575,0.00913439 -0.00911232,0.0300729 -0.0173421,0.062661 -0.0105685,0.0419652 -0.0239833,0.0714865 -0.040156,0.0885638 -0.0227256,0.0241377 -0.0507687,0.0364714 -0.084107,0.037045 -0.021468,0.000375084 -0.0415681,-0.00483196 -0.0604988,-0.0156432 -0.0188204,-0.0108112 -0.0333162,-0.026653 -0.0434876,-0.047415 -0.0100831,-0.0208502 -0.0154226,-0.0460029 -0.0159521,-0.0756345 -0.000838422,-0.0484961 0.0101052,-0.0850778 0.0328308,-0.11001 0.0227918,-0.0248438 0.0534604,-0.0382365 0.0921602,-0.040156l0.00509672 0.0777967c-0.0216225,0.00372877 -0.0370671,0.0111643 -0.0463118,0.0222844 -0.0093109,0.0111422 -0.0137236,0.0276459 -0.0133486,0.0495772 0.000397147,0.0226374 0.00569244,0.0403325 0.0161286,0.0529088 0.00661912,0.00814152 0.0154226,0.0121351 0.0263,0.0119365 0.00999487,-0.000154446 0.0184673,-0.00419211 0.0253954,-0.0120468 0.00884756,-0.00992868 0.0178496,-0.0340002 0.0268957,-0.0720822 0.00913439,-0.0380599 0.0187321,-0.0662574 0.0288152,-0.0845924 0.0101934,-0.018335 0.0241598,-0.0327647 0.0421197,-0.0433994 0.0179599,-0.0105685 0.0402222,-0.0160845 0.0667869,-0.0165478 0.0241598,-0.000419211 0.0469075,0.0052953 0.0680887,0.0172318 0.0212915,0.0119365 0.0373098,0.0290138 0.0478783,0.0512761 0.0107009,0.0222844 0.016283,0.0502171 0.0168788,0.0837319 0.000838422,0.0487829 -0.0107671,0.0864237 -0.0349269,0.11301 -0.0241598,0.0265647 -0.0597707,0.0428257 -0.106744,0.0486726zm0.130308 -0.341856m0.0337575 -0.38574l-0.00739135 0.0844821 -0.098294 0.0252409 -0.0134368 0.153652 0.0925574 0.0400457 -0.00719278 0.0823198 -0.406502 -0.186439 0.00717071 -0.0820771 0.433089 -0.117225zm-0.178496 0.128411l-0.160359 0.0393617 0.151181 0.0655293 0.00917851 -0.104891zm0.172847 -0.131037m0.00763405 -0.0392514l-0.413497 -0.0803561 0.0144738 -0.0744431 0.306245 -0.101361 -0.276106 -0.0536811 0.013834 -0.0710673 0.413474 0.0803561 -0.0149372 0.0768259 -0.299317 0.100236 0.269641 0.0524234 -0.0138119 0.0710673zm0.0948079 -0.490345m0.0431125 -0.118438l-0.328838 -0.119674 -0.0391631 0.107539 -0.0669634 -0.0243804 0.104869 -0.28813 0.0669855 0.0243804 -0.0390528 0.107296 0.328838 0.119674 -0.0266751 0.0732957zm0.046731 -0.158131m0.163647 -0.350924l-0.0358536 0.076848 -0.100986 -0.00990662 -0.0651983 0.139796 0.0733178 0.0692801 -0.0349269 0.0749064 -0.318247 -0.314232 0.0348166 -0.0746637 0.447078 0.0379717zm-0.211657 0.0596162l-0.164154 -0.0178716 0.119652 0.113275 0.0445026 -0.0954036zm0.200096 -0.0676474m0.0196588 -0.0327205l-0.361051 -0.216953 0.0600575 -0.0999487 0.28235 0.0880122 -0.210665 -0.207289 0.0601899 -0.100191 0.361051 0.216931 -0.0372436 0.0619991 -0.284247 -0.170795 0.244753 0.236479 -0.0386115 0.0642937 -0.323565 -0.10531 0.284225 0.170773 -0.0372436 0.0619991zm0.208348 -0.355645m0.227587 -0.313261l-0.049864 0.0686182 -0.0972349 -0.0290138 -0.0906599 0.124793 0.0587337 0.0820109 -0.0485623 0.0668531 -0.252453 -0.36917 0.048452 -0.0666766 0.431589 0.122586zm-0.219159 0.0181364l-0.15769 -0.0488491 0.0958228 0.134037 0.0618667 -0.0851881zm0.219115 -0.0226374m0.0267633 -0.0297199l-0.31304 -0.281842 0.0507466 -0.0563508 0.314695 0.0708467 -0.20901 -0.188204 0.0484299 -0.0538355 0.31304 0.281864 -0.0523572 0.05816 -0.308186 -0.0682431 0.204134 0.183791 -0.048452 0.0538135zm0.339782 -0.358646m0.0296316 -0.0257484l-0.276348 -0.317894 0.0943225 -0.0819888c0.0357212,-0.0310657 0.0604767,-0.0497096 0.07409,-0.0559536 0.020784,-0.00977424 0.0438406,-0.0116276 0.0689933,-0.00540562 0.0251747,0.00619991 0.0487388,0.0219534 0.0706922,0.0471943 0.016967,0.0195264 0.0279768,0.0388101 0.0329632,0.0577187 0.00511879,0.0189748 0.00597927,0.0365375 0.00255939,0.0528868 -0.00337575,0.0162168 -0.00917851,0.0300949 -0.0173642,0.0415019 -0.011407,0.015224 -0.0304038,0.0344636 -0.0570348,0.0576084l-0.0383247 0.0333162 0.104229 0.119916 -0.0587778 0.0510996zm-0.170795 -0.315203l0.0783704 0.0901524 0.0321469 -0.0279327c0.023189,-0.0201663 0.0372877,-0.0352799 0.0421859,-0.0453851 0.00492021,-0.0101273 0.0065088,-0.0206075 0.00483196,-0.0315953 -0.00178716,-0.0109436 -0.00668531,-0.021115 -0.0148489,-0.0305141 -0.010039,-0.0115393 -0.021468,-0.0183791 -0.034265,-0.0204972 -0.0126646,-0.00211812 -0.0247334,4.41275e-005 -0.0358315,0.00644261 -0.00834009,0.00465545 -0.0230125,0.0162389 -0.0441716,0.034618l-0.0284181 0.0247114zm0.414467 0.105575m0.0321469 -0.022505l-0.241598 -0.345055 0.234317 -0.164066 0.0408841 0.0584027 -0.170509 0.119387 0.0535708 0.076495 0.158682 -0.111113 0.0406635 0.0580938 -0.158682 0.111091 0.065772 0.0939253 0.176532 -0.123623 0.0407297 0.05816 -0.240362 0.168302zm0.262691 -0.183438m0.034618 -0.0199897l-0.210598 -0.36478 0.0656617 -0.0379276 0.277407 0.164618 -0.140634 -0.243584 0.0627272 -0.0362066 0.210598 0.364802 -0.0677798 0.039119 -0.272024 -0.160139 0.137369 0.237891 -0.0627272 0.0362066zm0.306156 -0.168324m-0.135736 -0.400655l0.130088 -0.0579173c0.0293006,-0.0130397 0.0527103,-0.0205634 0.0703392,-0.0225271 0.0236303,-0.00258146 0.0466207,0.00136795 0.0689051,0.0118482 0.0223064,0.01037 0.0428037,0.0261455 0.0614475,0.0472605 0.0185997,0.0212253 0.0359418,0.0497758 0.0520042,0.0858941 0.0140987,0.0316394 0.0226595,0.060565 0.0256381,0.0867326 0.00366258,0.031838 0.00121351,0.0601016 -0.00750167,0.0847027 -0.00646468,0.0186439 -0.0185777,0.0362948 -0.0362948,0.0529971 -0.0132382,0.0124439 -0.0330735,0.0244687 -0.0594176,0.0362066l-0.133861 0.0595942 -0.171347 -0.384792zm0.100169 0.0334486l0.113452 0.254814 0.0531074 -0.0236523c0.0198794,-0.00884756 0.0336913,-0.0163934 0.0414357,-0.022858 0.0101052,-0.00825184 0.0173642,-0.0178054 0.0216225,-0.0287491 0.00430243,-0.0109216 0.00489815,-0.0261014 0.00209606,-0.0454513 -0.00291241,-0.0193499 -0.0109436,-0.0439951 -0.0242039,-0.073737 -0.0132382,-0.0297419 -0.0258146,-0.0514085 -0.0376849,-0.0652425 -0.0119365,-0.0137898 -0.0242039,-0.0232552 -0.0367582,-0.0282857 -0.0127087,-0.00507466 -0.0263662,-0.00617785 -0.0410606,-0.00341988 -0.0110539,0.00194161 -0.0310216,0.00942122 -0.0600796,0.0223506l-0.0319262 0.0142311zm0.392492 0.214217m0.0350152 -0.0113849l-0.130154 -0.400589 0.074068 -0.0240715 0.130176 0.400589 -0.07409 0.0240715zm0.109348 -0.0415681m-0.0713762 -0.416961l0.137545 -0.0368464c0.0309775,-0.00829597 0.0552697,-0.0120689 0.0729868,-0.0112525 0.0237406,0.00116938 0.0458264,0.00864899 0.0662133,0.0224829 0.020409,0.0137236 0.0381703,0.0325219 0.0532839,0.0562846 0.0150695,0.023895 0.0277121,0.0548063 0.0379496,0.0929987 0.00895788,0.0334266 0.0128852,0.063345 0.0117379,0.089645 -0.00134589,0.0320365 -0.00820771,0.0595721 -0.0206517,0.0824963 -0.0093109,0.0174083 -0.0240053,0.0329412 -0.0441495,0.0466648 -0.0150254,0.0102155 -0.0364714,0.0189969 -0.0643379,0.0264765l-0.141539 0.0379276 -0.109039 -0.406877zm0.0937047 0.0486947l0.0721925 0.269442 0.0561522 -0.0150475c0.0210047,-0.00562625 0.0358315,-0.0109436 0.0445026,-0.0160845 0.0112746,-0.00659706 0.0199236,-0.014893 0.0258587,-0.0250203 0.00595721,-0.0101273 0.00893581,-0.0250203 0.00917851,-0.0445908 0.000154446,-0.0195485 -0.00392735,-0.0451424 -0.0123557,-0.0766053 -0.00842835,-0.0314408 -0.0174745,-0.0548063 -0.0270501,-0.0703392 -0.00961979,-0.0154887 -0.0202545,-0.0267413 -0.0318821,-0.0336693 -0.0117379,-0.00701627 -0.0250644,-0.0102376 -0.0400236,-0.0097963 -0.0111863,0.00017651 -0.0321027,0.00443481 -0.0628155,0.0126646l-0.0337575 0.00904613zm0.356175 0.268229m0.0362507 -0.00639848l-0.0731413 -0.41482 0.0767156 -0.0135251 0.0731413 0.41482 -0.0767156 0.0135251zm0.108112 -0.0230345m0.0400236 -0.00421417l-0.0440392 -0.418902 0.0774878 -0.00814152 0.0195264 0.185975 0.136994 -0.202435 0.104185 -0.0109436 -0.12733 0.178341 0.179224 0.239745 -0.100258 0.0105244 -0.126116 -0.185534 -0.0555124 0.0766274 0.0133044 0.126602 -0.0774658 0.00814152zm0.349247 -0.0428478m0.38713 -0.0067515l-0.0847689 0.00147827 -0.0353902 -0.0951168 -0.154226 0.00269178 -0.0301391 0.0962641 -0.0826066 0.00143414 0.142907 -0.423778 0.0824081 -0.00143414 0.161815 0.418461zm-0.146371 -0.16411l-0.0558654 -0.155351 -0.0493786 0.157204 0.105244 -0.00185335zm0.148511 0.170862m0.0398692 0.00278003l0.0293889 -0.420182 0.0756345 0.0052953 0.137942 0.291594 0.0196147 -0.280585 0.0722367 0.0050526 -0.0293889 0.420182 -0.0780615 -0.00544974 -0.135957 -0.284865 -0.0191734 0.27401 -0.0722367 -0.0050526zm0.493764 0.056064m0.0362507 0.00639848l0.0731413 -0.41482 0.0767156 0.0135251 -0.0731413 0.41482 -0.0767156 -0.0135251zm0.108112 0.0230125m0.0520704 -0.128234l0.0755242 0.0104582c-0.00238288,0.0281092 0.00167684,0.0501288 0.012113,0.0661912 0.01037,0.01593 0.027006,0.0268516 0.0500185,0.0325881 0.0243142,0.00606753 0.0441054,0.00503053 0.0592411,-0.00322131 0.0151799,-0.00816358 0.0246231,-0.019725 0.028396,-0.0347725 0.00242701,-0.00970804 0.00180923,-0.0185556 -0.00169891,-0.0266089 -0.00346401,-0.00814152 -0.0110539,-0.016283 -0.0228139,-0.0244687 -0.00794295,-0.00562625 -0.0266971,-0.0165699 -0.0560198,-0.0329853 -0.0378172,-0.0210488 -0.0628596,-0.0416343 -0.0751712,-0.0616902 -0.0174304,-0.0281975 -0.0220858,-0.0584689 -0.0140105,-0.0908364 0.00518498,-0.0208282 0.0154226,-0.0388984 0.0307569,-0.0543871 0.0153122,-0.0153784 0.0343753,-0.025285 0.0570568,-0.0297199 0.0227477,-0.00436862 0.0484299,-0.00300067 0.077201,0.00417005 0.047062,0.0117379 0.0795618,0.0317718 0.0977644,0.0601678 0.0180923,0.0284402 0.0231007,0.0615358 0.0149372,0.0994192l-0.0764729 -0.015224c0.00198574,-0.021821 -0.00119144,-0.0386998 -0.0095536,-0.0504818 -0.00834009,-0.0118924 -0.0231449,-0.020431 -0.0444143,-0.0257263 -0.0219755,-0.00547181 -0.0404428,-0.00494228 -0.0552917,0.00187542 -0.00957566,0.00428037 -0.0157094,0.01176 -0.018335,0.0223064 -0.00242701,0.00970804 -0.000728103,0.0189307 0.00507466,0.0276459 0.00728103,0.0111201 0.0281975,0.0260573 0.062639,0.0446349 0.0343974,0.018688 0.0591749,0.0352579 0.0742665,0.0497317 0.0150695,0.0145841 0.0253954,0.031838 0.0310216,0.051938 0.00556006,0.0200559 0.00514085,0.0430243 -0.00130176,0.0687947 -0.00582483,0.0234096 -0.0172538,0.0439289 -0.034265,0.0612931 -0.0170332,0.0174745 -0.0376849,0.0285284 -0.0619329,0.0329853 -0.0242701,0.00456719 -0.0527103,0.0027359 -0.0852322,-0.00538355 -0.0473267,-0.0118041 -0.0807092,-0.0327647 -0.100125,-0.0629699 -0.019394,-0.0302053 -0.0259028,-0.0688168 -0.019372,-0.115724zm0.296691 0.222402m0.0385895 0.0148048l0.149725 -0.390043 0.0727221 0.0279106 -0.124285 0.323763 0.180834 0.0694125 -0.0254616 0.0662795 -0.253534 -0.0973231zm0.269111 0.0969922m0.348011 0.169736l-0.0762081 -0.0371774 0.0116497 -0.100787 -0.138626 -0.0676254 -0.0705598 0.0720822 -0.0742665 -0.0362287 0.319704 -0.312709 0.07409 0.0361183 -0.0457823 0.446327zm-0.0559095 -0.21265l0.0207178 -0.163823 -0.115349 0.117666 0.0946314 0.0461573zm0.0594176 0.219446m0.0323896 0.0202324l0.223197 -0.357212 0.0989117 0.0618005 -0.0929325 0.280761 0.210929 -0.207024 0.0991324 0.0619329 -0.223219 0.357212 -0.0613151 -0.0383247 0.175716 -0.281202 -0.240715 0.240605 -0.0636098 -0.0397589 0.110936 -0.321667 -0.175716 0.281202 -0.0613151 -0.0383247zm0.463978 0.31518m0.0292565 0.0245349l0.270744 -0.32266 0.0893361 0.0749505 -0.131125 0.265118 0.237737 -0.175671 0.0895346 0.075127 -0.270766 0.322682 -0.055402 -0.0464883 0.213136 -0.25402 -0.271825 0.204751 -0.057476 -0.0482093 0.154645 -0.303112 -0.213136 0.25402 -0.055402 -0.0464883zm0.306554 0.269685m0.0255939 0.0264985l0.302979 -0.292609 0.0541223 0.0560198 -0.303001 0.292609 -0.0541003 -0.0560198zm0.0756566 0.0852984m0.0265868 0.0295213l0.31304 -0.281864 0.177017 0.19661 -0.0529971 0.0477018 -0.124837 -0.138649 -0.0740459 0.0666546 0.107781 0.119718 -0.0529971 0.0477239 -0.107781 -0.119718 -0.133022 0.119762 -0.0521587 -0.0579394zm0.189483 0.217615m0.074068 0.101957l0.283122 -0.205678 -0.0672944 -0.0926015 0.0576746 -0.041899 0.180239 0.248063 -0.0576746 0.041899 -0.0670958 -0.0923588 -0.2831 0.205678 -0.0458705 -0.0631023zm0.0912336 0.133419m0.199434 0.331905l-0.0436862 -0.0727 0.0646909 -0.0781718 -0.0794515 -0.132228 -0.0984263 0.0220417 -0.042561 -0.0708467 0.438473 -0.0881226 0.0424286 0.070626 -0.281467 0.349401zm0.0689271 -0.208811l0.10659 -0.126094 -0.160801 0.0358536 0.0542106 0.0902407zm-0.0731413 0.212319m0.0166802 0.0357433l0.381747 -0.17801 0.0329632 0.0706702 -0.150232 0.0700524 0.0645144 0.13834 0.15021 -0.0700524 0.0329191 0.0705819 -0.381769 0.17801 -0.032897 -0.0705819 0.166934 -0.0778409 -0.0645144 -0.138318 -0.166934 0.0778409 -0.0329412 -0.0706922zm0.146194 0.323212m0.410893 -0.100522l0.0253512 0.0736488 -0.215695 0.0742665c-0.0342209,0.011782 -0.0561522,0.0203869 -0.0656176,0.0256381 -0.0152681,0.0087593 -0.0257043,0.0208282 -0.031485,0.0360301 -0.00582483,0.0152902 -0.00516291,0.0332059 0.00191955,0.0537693 0.00719278,0.0208944 0.0172759,0.0351034 0.0302935,0.0424948 0.0129294,0.00741342 0.0266089,0.00984043 0.0408841,0.0073031 0.0144076,-0.0024932 0.0372877,-0.00922264 0.0688168,-0.020078l0.220328 -0.0758772 0.0253292 0.0736488 -0.209186 0.072016c-0.0478342,0.0164816 -0.0822757,0.0261455 -0.103391,0.0289697 -0.0211371,0.00280209 -0.0402443,0.00121351 -0.0575643,-0.00478783 -0.0172097,-0.00604546 -0.0330294,-0.0166581 -0.0472385,-0.0317277 -0.014209,-0.0151578 -0.0262558,-0.0371995 -0.0362066,-0.066103 -0.0120027,-0.0348166 -0.0167464,-0.0627493 -0.0141208,-0.083776 0.00260352,-0.0210488 0.00911232,-0.0391631 0.0195043,-0.0544312 0.0104141,-0.0152681 0.0227918,-0.0272267 0.0370671,-0.0358315 0.021115,-0.0127087 0.0539679,-0.0266751 0.0985587,-0.0420314l0.212452 -0.0731413zm-0.285747 0.471237m0.00928883 0.0402663l0.407098 -0.0939695 0.0175186 0.0758993 -0.337906 0.0779953 0.0435759 0.188733 -0.0691919 0.0159741 -0.0610945 -0.264632zm0.0881005 0.418726m0.423006 0.00187542l0.00677357 0.0775982 -0.227234 0.0198794c-0.0360742,0.00315511 -0.0594397,0.00617785 -0.0698979,0.00897994 -0.0169229,0.00480989 -0.0299846,0.0139884 -0.0392735,0.027337 -0.00933296,0.0134368 -0.0130397,0.0309996 -0.0111422,0.0526441 0.00191955,0.0220196 0.00829597,0.0382365 0.0191072,0.0485623 0.0107671,0.0103258 0.0234758,0.0159962 0.0379055,0.0169891 0.0146062,0.00105906 0.038435,6.61912e-005 0.071641,-0.00284622l0.232133 -0.0202986 0.00677357 0.0775761 -0.220417 0.0192837c-0.0503936,0.00439068 -0.0861368,0.00544974 -0.107318,0.00306686 -0.0211812,-0.00238288 -0.0393396,-0.00853867 -0.054696,-0.0185556 -0.015246,-0.010039 -0.0279989,-0.0241598 -0.0381482,-0.0422079 -0.0101273,-0.0181585 -0.0165037,-0.0424727 -0.0191513,-0.0729207 -0.00319924,-0.0366699 -0.00108112,-0.0649115 0.00655293,-0.0847027 0.00761199,-0.0197691 0.018335,-0.0357874 0.0321248,-0.0480769 0.0137678,-0.0122895 0.0286829,-0.0209164 0.0445908,-0.0258146 0.0235861,-0.00721484 0.058844,-0.012819 0.10584,-0.0169229l0.223837 -0.0195705zm-0.384108 0.380599m-0.000728103 0.0413254l0.417755 0.00728103 -0.00134589 0.077885 -0.346776 -0.00604546 -0.00337575 0.193653 -0.070979 -0.00123557 0.00472164 -0.271538zm-0.00961979 0.288197m0.41749 0.0680225l-0.00542768 0.0776864 -0.227565 -0.015908c-0.0360963,-0.00251527 -0.0596383,-0.00317718 -0.0704275,-0.00205193 -0.0174745,0.00211812 -0.0317938,0.00913439 -0.0430684,0.0208723 -0.0113408,0.0118041 -0.0177172,0.0285505 -0.0192396,0.0502391 -0.0015224,0.0220417 0.00220637,0.0390528 0.0112746,0.0509672 0.00902407,0.0118703 0.0206958,0.0194602 0.0348166,0.0226815 0.0142311,0.00333162 0.0379055,0.00608959 0.0711776,0.00840628l0.232441 0.016261 -0.00542768 0.0776864 -0.220726 -0.0154446c-0.0504598,-0.0035302 -0.0859383,-0.00807533 -0.10648,-0.0137457 -0.0205413,-0.00567038 -0.0375084,-0.0145841 -0.0510996,-0.0268957 -0.013503,-0.0122895 -0.023895,-0.0282195 -0.0310878,-0.0476577 -0.00717071,-0.0195043 -0.00966392,-0.0445246 -0.00752373,-0.0749946 0.00255939,-0.0367361 0.00909026,-0.0642937 0.019725,-0.0826508 0.0106347,-0.018335 0.0237185,-0.0324778 0.0392514,-0.0424506 0.0155549,-0.00999487 0.0316173,-0.0161727 0.0480989,-0.0185115 0.0244246,-0.00344194 0.0601237,-0.00346401 0.107164,-0.00017651l0.224123 0.0156873zm-0.44326 0.326234m-0.00858279 0.0371995l0.41043 0.0947638 -0.0262338 0.113628 -0.29572 0.0035302 0.264412 0.132051 -0.0263 0.113893 -0.41043 -0.0947638 0.016283 -0.0704716 0.323101 0.0745975 -0.30587 -0.149261 0.0168788 -0.0730751 0.340267 0.000154446 -0.323079 -0.0745754 0.016261 -0.0704716zm-0.141892 0.53948m-0.0113849 0.0350152l0.400611 0.130176 -0.0240715 0.074068 -0.400611 -0.130154 0.0240715 -0.07409zm-0.032897 0.106215m-0.0132162 0.0343753l0.393264 0.15096 -0.0279106 0.0727221 -0.393264 -0.15096 0.0279106 -0.0727221zm-0.041877 0.106855m-0.0149592 0.0336472l0.384792 0.171325 -0.0316835 0.0711556 -0.384814 -0.171325 0.0317056 -0.0711556z"/>
   <path id="_249980512" class="fil6" d="M2.36199 7.90542m0.0274914 0.0327647l0.322153 -0.270303 0.0875489 0.104339c0.0331839,0.0395162 0.0531957,0.0666987 0.0600354,0.0814152 0.0106788,0.0224609 0.0132162,0.0468193 0.00745754,0.0728765 -0.00575864,0.0260131 -0.021468,0.0498199 -0.0470399,0.0712879 -0.0197912,0.016614 -0.039472,0.026984 -0.0589322,0.0310437 -0.0195485,0.00412592 -0.0377511,0.00392735 -0.0547843,-0.000683976 -0.0169008,-0.00461132 -0.0314408,-0.0115835 -0.0435097,-0.0209164 -0.0160845,-0.0129294 -0.0365596,-0.0341105 -0.0612931,-0.0635877l-0.0355447 -0.0423844 -0.121505 0.101957 -0.0545857 -0.0650439zm0.322197 -0.159521l-0.0913439 0.0766494 0.0298302 0.0355447c0.0215121,0.0256601 0.0375966,0.0414578 0.0481872,0.0472605 0.0106347,0.0057807 0.0215563,0.00814152 0.032897,0.00703833 0.0112966,-0.00116938 0.0216887,-0.00567038 0.0312202,-0.0136795 0.0116938,-0.00981836 0.0184894,-0.0213798 0.0203428,-0.0346842 0.00185335,-0.0131941 -0.00070604,-0.0259911 -0.00765612,-0.0380599 -0.0050526,-0.0090682 -0.0174524,-0.0252409 -0.0371112,-0.0486505l-0.0263662 -0.0314188zm-0.0988455 0.426382m0.0307789 0.0297199l0.292124 -0.302516 0.224256 0.216578 -0.0494448 0.0511879 -0.163183 -0.157579 -0.0647571 0.0670517 0.151865 0.146658 -0.0491801 0.050901 -0.151843 -0.146636 -0.0795177 0.0823419 0.168964 0.163161 -0.0492463 0.0509893 -0.230037 -0.222138zm0.249453 0.246408m0.0338678 0.0264544l0.258918 -0.331375 0.140899 0.110076c0.0354123,0.0276679 0.0587337,0.0507466 0.0701627,0.0692139 0.011407,0.0184894 0.0160403,0.0391411 0.0137898,0.0618447 -0.00229463,0.022836 -0.0110539,0.0439068 -0.0263882,0.0635215 -0.0194161,0.0248438 -0.0428257,0.0397368 -0.0700524,0.0445246 -0.0272046,0.0047437 -0.057123,-0.00211812 -0.0894685,-0.0206737 0.00787675,0.0198132 0.0125984,0.038435 0.0140987,0.0558874 0.00154446,0.0174524 0.000198574,0.0452527 -0.00397147,0.0834892l-0.00999487 0.0963082 -0.0800252 -0.0625066 0.00798707 -0.109922c0.00293448,-0.0392293 0.00386115,-0.0646026 0.00278003,-0.0762743 -0.00105906,-0.0116276 -0.00423624,-0.021446 -0.00935502,-0.0295213 -0.00516291,-0.00800914 -0.0153784,-0.018004 -0.030801,-0.0300508l-0.0135251 -0.0105465 -0.10809 0.13834 -0.0669634 -0.0523352zm0.216401 -0.138935l0.0494669 0.0386336c0.0321027,0.0250865 0.0531957,0.03945 0.0633229,0.0430022 0.0100611,0.0035302 0.0199897,0.00370671 0.0297199,0.000617785 0.00966392,-0.00313305 0.0184232,-0.00959773 0.0262117,-0.0195485 0.00871518,-0.0111863 0.0127087,-0.0224829 0.0121571,-0.0339782 -0.000595721,-0.0115173 -0.00562625,-0.0224168 -0.0150695,-0.0327647 -0.00483196,-0.00492021 -0.0208282,-0.0180261 -0.0479886,-0.0392514l-0.0521587 -0.0407517 -0.0656617 0.0840408zm0.0858721 0.370958m0.0358756 0.0232993l0.229044 -0.352689 0.261455 0.169803 -0.038766 0.0596824 -0.190256 -0.123557 -0.0507687 0.0781939 0.177061 0.114974 -0.0385674 0.0593515 -0.177039 -0.114974 -0.0623521 0.0959993 0.197007 0.127926 -0.0386115 0.0594618 -0.268207 -0.174171zm0.297221 0.188204m0.0388322 0.0197912l0.190918 -0.374708 0.0736267 0.0375084 0.0258808 0.328353 0.127484 -0.250203 0.0703171 0.0358315 -0.190918 0.374708 -0.0759654 -0.0387219 -0.0265206 -0.321314 -0.124506 0.244378 -0.0703171 -0.0358315zm0.344305 0.162345m0.279879 -0.049158l0.02769 -0.0652425 0.168457 0.0714865 -0.0654631 0.154226c-0.0231228,0.00889169 -0.0527544,0.012819 -0.088961,0.0116717 -0.0362066,-0.00119144 -0.0702068,-0.0085166 -0.102045,-0.0220196 -0.0404649,-0.0171656 -0.0721925,-0.0406414 -0.0950947,-0.0703833 -0.0229022,-0.0298081 -0.0352137,-0.0636539 -0.0369347,-0.101714 -0.00172097,-0.0380599 0.0052953,-0.0756124 0.0210709,-0.112746 0.0170994,-0.0402884 0.0407959,-0.0725676 0.070957,-0.0967716 0.0302273,-0.0240936 0.0651322,-0.0376849 0.104825,-0.040509 0.0302714,-0.00233876 0.0638966,0.00436862 0.100853,0.0200559 0.0480328,0.0203869 0.0813269,0.0464442 0.0997502,0.0779732 0.0184894,0.0316615 0.0240495,0.0669193 0.0166802,0.105796l-0.0837539 -0.0184232c0.00255939,-0.0213577 -0.00132382,-0.0407738 -0.0116938,-0.05816 -0.010392,-0.0173862 -0.0268074,-0.0308451 -0.0493345,-0.0403987 -0.0341547,-0.0144959 -0.0658823,-0.0152019 -0.0952492,-0.00214018 -0.029411,0.01315 -0.0530412,0.0409944 -0.0711335,0.0836216 -0.0194823,0.0458705 -0.0239392,0.0847248 -0.0132382,0.116386 0.0106127,0.0316394 0.0325219,0.0544533 0.0656176,0.0684858 0.0163713,0.00697214 0.0341767,0.0106788 0.0533722,0.0112966 0.0191293,0.000551593 0.0366037,-0.0012797 0.0522911,-0.00538355l0.0208282 -0.0491139 -0.0894905 -0.0379938zm0.141848 0.213643m0.042561 0.0106127l0.101736 -0.408047 0.082386 0.0205413 -0.0451645 0.181165 0.211613 -0.139663 0.11076 0.0276238 -0.193256 0.120622 0.0998825 0.289498 -0.10659 -0.0265647 -0.0643599 -0.219512 -0.0838863 0.051563 -0.0307348 0.123314 -0.082386 -0.0205413zm0.369943 0.0951388m0.0931531 -0.412261l0.0842394 0.0103479 -0.0277562 0.226043c-0.00441275,0.0358536 -0.00619991,0.0593294 -0.00544974,0.0701627 0.00150033,0.0175407 0.00845041,0.0323013 0.0206958,0.0442599 0.0123557,0.0120689 0.0302714,0.0195264 0.0537914,0.0224168 0.023895,0.00293448 0.042561,0.000286829 0.0559316,-0.00805326 0.0133486,-0.00820771 0.0221079,-0.019394 0.0263,-0.0332721 0.0042583,-0.0139663 0.00831803,-0.0374422 0.0123778,-0.0704936l0.0283519 -0.230897 0.0842614 0.0103479 -0.0269178 0.219225c-0.00615578,0.0501509 -0.0127308,0.0852763 -0.0198574,0.105398 -0.00708246,0.0201442 -0.0175848,0.0364934 -0.0315953,0.0492904 -0.0139663,0.0127087 -0.0317938,0.0220417 -0.0532398,0.0279989 -0.0215563,0.00593515 -0.0488932,0.00681769 -0.0819227,0.00275797 -0.0398471,-0.00489815 -0.0695228,-0.0131721 -0.0889831,-0.024932 -0.0194823,-0.01176 -0.0342429,-0.0257263 -0.0443922,-0.0418549 -0.0101493,-0.0161507 -0.0161286,-0.032544 -0.0179378,-0.049158 -0.00260352,-0.024579 -0.000992868,-0.0601899 0.00476577,-0.106943l0.027337 -0.222645zm0.331111 0.459257m0.0449659 0.00236082l0.0218431 -0.416541 0.0847689 0.00443481 -0.0181143 0.345761 0.210819 0.0110319 -0.00370671 0.0708025 -0.29561 -0.0154887zm0.313901 0.0211371m0.00734722 -0.20912c-0.00372877,-0.0427154 -0.000507466,-0.0790764 0.00973011,-0.109149 0.00770024,-0.0221299 0.0189748,-0.0424727 0.0339782,-0.0608739 0.0150033,-0.018335 0.0319483,-0.0324778 0.0508349,-0.0423844 0.0251968,-0.0134148 0.0547401,-0.0214901 0.0888948,-0.0244907 0.0617343,-0.00538355 0.112768,0.00939915 0.153189,0.0444805 0.0403987,0.0349931 0.0635877,0.0866443 0.069567,0.154821 0.00591308,0.0676915 -0.00787675,0.122167 -0.0413254,0.163625 -0.0334266,0.0413695 -0.0809077,0.0647791 -0.142355,0.0701627 -0.0623521,0.00544974 -0.11354,-0.00922264 -0.153652,-0.043973 -0.0400898,-0.0347945 -0.0630361,-0.0856073 -0.0688609,-0.152218zm0.0868649 -0.0104361c0.00414798,0.0473929 0.018335,0.0824301 0.0423182,0.105001 0.0240715,0.0225712 0.052953,0.0323234 0.0867105,0.0293668 0.0336472,-0.00293448 0.0602781,-0.0174745 0.0798045,-0.0437303 0.0194382,-0.0261897 0.0270943,-0.0635215 0.022836,-0.112106 -0.00419211,-0.0479886 -0.0178716,-0.0828714 -0.0409282,-0.104714 -0.0231228,-0.0217769 -0.0521587,-0.0311319 -0.0869532,-0.0280871 -0.0349269,0.00306686 -0.061977,0.0175186 -0.0812607,0.0432891 -0.0191734,0.0257484 -0.0267633,0.0626831 -0.0225271,0.110981zm0.36275 0.190189m0.0427816 -0.00831803l-0.0802458 -0.412813 0.0811063 -0.0157535 0.222557 0.242789 -0.0535708 -0.275642 0.0774658 -0.0150475 0.0802458 0.41279 -0.0837098 0.016283 -0.218718 -0.236876 0.0523352 0.269222 -0.0774658 0.0150475zm0.532972 -0.109193m-0.0962641 -0.411621l0.158947 -0.0547401c0.031485,-0.0108333 0.0554462,-0.0176289 0.0718175,-0.0202766 0.0163713,-0.00271384 0.0320365,-0.00202986 0.0471281,0.00211812 0.0150916,0.00410386 0.0289697,0.0116497 0.041899,0.0227256 0.0129073,0.0109877 0.0223285,0.0251527 0.0282195,0.0422741 0.00642055,0.0186218 0.00732516,0.0374642 0.00266971,0.056439 -0.0047437,0.019041 -0.0143194,0.0353902 -0.0287711,0.0490698 0.0265647,-0.0012797 0.0494228,0.00430243 0.0682211,0.0167905 0.0189307,0.0125543 0.0323013,0.0302935 0.0402001,0.0532619 0.00622197,0.0180481 0.00809739,0.0370671 0.00556006,0.057101 -0.00255939,0.0199456 -0.0093109,0.0375966 -0.0203428,0.0527985 -0.0110319,0.0151799 -0.0268295,0.0276679 -0.0473929,0.0374201 -0.0128411,0.00600134 -0.0448335,0.0180481 -0.0959111,0.0360521l-0.135339 0.0465986 -0.136905 -0.397633zm0.103148 0.0385233l0.0316394 0.0919175 0.0526 -0.0181143c0.0312864,-0.0107671 0.0505701,-0.0179158 0.0578511,-0.021446 0.01315,-0.00631023 0.0223726,-0.0147606 0.0275135,-0.0253292 0.00516291,-0.0105685 0.00549387,-0.0222844 0.00105906,-0.0351475 -0.00423624,-0.0123336 -0.0110098,-0.0211812 -0.020431,-0.0265206 -0.00950947,-0.00533942 -0.0211591,-0.00648674 -0.0350372,-0.00348607 -0.00829597,0.00183129 -0.0313084,0.00924471 -0.0691036,0.0222623l-0.0460911 0.0158638zm0.0544312 0.158109l0.0366037 0.106303 0.0742445 -0.0255719c0.0289697,-0.00997281 0.047062,-0.0170111 0.0542768,-0.0213798 0.0111863,-0.00622197 0.0190631,-0.0149592 0.0236965,-0.0258587 0.00458926,-0.0110098 0.004501,-0.0236303 -0.000330956,-0.0376849 -0.00412592,-0.0119585 -0.0105465,-0.0210047 -0.0191734,-0.0273811 -0.00869311,-0.00631023 -0.0191293,-0.0095536 -0.0313746,-0.00959773 -0.0122233,-4.41275e-005 -0.0366479,0.00631023 -0.0731192,0.0188645l-0.0648233 0.0223064zm0.339451 0.0798707m-0.139465 -0.398979l0.0769142 -0.0358756 0.096242 0.206406c0.0152681,0.0327426 0.0261897,0.0535928 0.0325661,0.0623963 0.0105685,0.0140767 0.0242922,0.0229242 0.0410165,0.0265647 0.0168567,0.00370671 0.036008,0.00052953 0.057476,-0.00948741 0.0218431,-0.0101934 0.0362728,-0.0223285 0.0431787,-0.0364714 0.00697214,-0.0140325 0.00847248,-0.0281533 0.00465545,-0.0421638 -0.0037729,-0.0140987 -0.0127749,-0.0361404 -0.0268295,-0.0663236l-0.098316 -0.210841 0.0769363 -0.0358756 0.0933517 0.200184c0.0213577,0.0457823 0.0343753,0.0790544 0.0390087,0.0999046 0.00465545,0.0208282 0.00441275,0.0402663 -0.000661912,0.0585351 -0.00514085,0.0181805 -0.0153122,0.0355447 -0.0303376,0.0519601 -0.0151357,0.0164375 -0.0378614,0.0316835 -0.0680004,0.0457602 -0.0364052,0.016967 -0.0659485,0.0256601 -0.0886962,0.0260131 -0.0227477,0.000330956 -0.0426492,-0.00368464 -0.0598148,-0.0119806 -0.0171656,-0.00831803 -0.0309113,-0.0190631 -0.0412592,-0.032191 -0.015224,-0.0194823 -0.0327426,-0.050526 -0.0526441,-0.0931972l-0.0947858 -0.203317zm0.528471 0.222733m0.0373539 -0.0224388l-0.2166 -0.360477 0.0708246 -0.042561 0.29219 0.152041 -0.144628 -0.240693 0.0676474 -0.0406414 0.2166 0.360455 -0.0730972 0.0439289 -0.286542 -0.147783 0.141252 0.235089 -0.0676474 0.0406414zm0.334045 -0.189064m0.0879902 -0.270193l-0.0446129 -0.0550932 0.142223 -0.115151 0.105421 0.130176c-0.0029786,0.0246011 -0.0134368,0.0526 -0.0314408,0.0840408 -0.0180702,0.0314188 -0.040487,0.0580056 -0.0673606,0.0797604 -0.0341547,0.0276679 -0.0697876,0.0446791 -0.106788,0.0509231 -0.0370671,0.00622197 -0.0727221,0.00121351 -0.107142,-0.0151357 -0.0344194,-0.0163492 -0.0642717,-0.0401781 -0.089667,-0.0715306 -0.0275355,-0.0340223 -0.0449218,-0.0700965 -0.0521366,-0.10809 -0.00708246,-0.0379938 -0.00269178,-0.0751932 0.0134589,-0.111576 0.0121351,-0.0278224 0.0338458,-0.054365 0.065066,-0.079628 0.0405531,-0.0328308 0.0791647,-0.0499964 0.115658,-0.0514747 0.0366479,-0.00145621 0.0703613,0.0101934 0.10125,0.034949l-0.0556006 0.0652866c-0.0176289,-0.0122895 -0.0366037,-0.0179599 -0.0568362,-0.016967 -0.0202104,0.00101493 -0.039803,0.00917851 -0.0588219,0.024579 -0.0288373,0.0233655 -0.0443481,0.0510555 -0.0465986,0.0831141 -0.00220637,0.0321248 0.0112746,0.0660588 0.0404208,0.102067 0.0313746,0.0387219 0.0635877,0.0608959 0.0965509,0.0663236 0.0329191,0.00547181 0.063345,-0.00315511 0.0912777,-0.0257704 0.013834,-0.0112084 0.0254836,-0.0251747 0.0350152,-0.0418549 0.00948741,-0.016614 0.0160845,-0.0329191 0.0198132,-0.0486726l-0.033581 -0.0414578 -0.0755683 0.0611827zm0.269089 -0.00591308m0.303575 -0.293161l-0.0665001 0.0642055 -0.092778 -0.0432229 -0.120931 0.116783 0.0414357 0.0928221 -0.0648012 0.0625728 -0.174304 -0.416299 0.0646026 -0.0623742 0.413276 0.185512zm-0.228051 -0.0110539l-0.150122 -0.071994 0.0675812 0.15171 0.0825404 -0.0797163zm0.237119 0.0104582m0.0276238 -0.0329191l-0.322153 -0.270325 0.0546298 -0.0651101 0.126756 0.106369 0.106943 -0.12744 -0.126756 -0.106369 0.0545636 -0.0650218 0.322153 0.270303 -0.0545636 0.0650439 -0.140855 -0.118195 -0.106943 0.12744 0.140855 0.118195 -0.0546298 0.0651101z"/>
   <path id="_250706400" class="fil6" d="M4.24599 10.0724m0.310812 -0.106788l0.0198353 -0.0795398 0.205347 0.0511879 -0.0468634 0.188005c-0.0248217,0.0143635 -0.0579614,0.0241598 -0.0995295,0.0294551 -0.0415681,0.00516291 -0.0817461,0.00295654 -0.120534,-0.00670738 -0.0493345,-0.0123116 -0.0898435,-0.0333824 -0.121373,-0.0631905 -0.0315291,-0.0299184 -0.0517395,-0.0663236 -0.060587,-0.109524 -0.00884756,-0.0431567 -0.00763405,-0.0873283 0.00366258,-0.132581 0.0122454,-0.0491359 0.0334707,-0.0902848 0.0635436,-0.123402 0.0301832,-0.0329853 0.0675812,-0.0548063 0.112437,-0.0651983 0.0341326,-0.00818565 0.0737591,-0.00659706 0.118835,0.00463338 0.0585351,0.0146062 0.101317,0.0383247 0.128036,0.0710232 0.0268295,0.0328308 0.0395603,0.0720602 0.0382144,0.117842l-0.0990221 -0.00591308c-0.000926677,-0.0248438 -0.00886962,-0.0463118 -0.023895,-0.0642937 -0.0150033,-0.0179819 -0.0361625,-0.0304038 -0.0636318,-0.0372436 -0.0416784,-0.010392 -0.0780174,-0.00544974 -0.109216,0.0147827 -0.0312202,0.0203648 -0.0531736,0.056417 -0.066125,0.108399 -0.0139443,0.0559316 -0.0120247,0.101118 0.00595721,0.135361 0.0178275,0.0341988 0.0469958,0.0562846 0.0873062,0.0663236 0.0200118,0.00500847 0.0409944,0.00604546 0.0630361,0.00324337 0.0219534,-0.00280209 0.0415901,-0.00807533 0.0587337,-0.015577l0.0149372 -0.059881 -0.109105 -0.0272046zm0.20409 0.222292m0.0493345 0.00606753l0.0592853 -0.482755 0.205237 0.0251968c0.051585,0.00633229 0.0884756,0.0153122 0.110804,0.0268295 0.0223064,0.0115173 0.0391852,0.0292345 0.050526,0.0531074 0.0112966,0.0239833 0.0151799,0.0501288 0.0116717,0.0786572 -0.00443481,0.0362066 -0.0188204,0.0648895 -0.0429581,0.0858941 -0.0241157,0.0208944 -0.0578952,0.0319262 -0.101008,0.0327867 0.0196147,0.0149592 0.0353902,0.0305803 0.0472826,0.0469958 0.0119144,0.0164154 0.0271605,0.0447453 0.0458043,0.085144l0.047437 0.101427 -0.116563 -0.0142973 -0.0575643 -0.113761c-0.0204531,-0.0405973 -0.034618,-0.0663236 -0.0426492,-0.077201 -0.00800914,-0.0109216 -0.0169891,-0.0187762 -0.0268736,-0.0237406 -0.00988455,-0.00485402 -0.025969,-0.00867105 -0.048452,-0.011429l-0.0196588 -0.00242701 -0.0247555 0.20153 -0.0975658 -0.0119585zm0.131787 -0.266662l0.0720381 0.00884756c0.0467531,0.00573657 0.0762302,0.00741342 0.0883873,0.00492021 0.0120689,-0.00251527 0.0220196,-0.00825184 0.0298302,-0.0170994 0.00770024,-0.00886962 0.0125543,-0.0204751 0.0143194,-0.0349931 0.0020078,-0.016283 -0.000772231,-0.0298743 -0.00818565,-0.0409503 -0.00743548,-0.0110319 -0.0189086,-0.0188424 -0.0344194,-0.0234979 -0.00776644,-0.00196367 -0.0314188,-0.00544974 -0.070957,-0.0103038l-0.0759875 -0.00933296 -0.0150254 0.12241zm0.309554 0.308164m0.0494228 0.00258146l0.0254616 -0.485689 0.360058 0.0188645 -0.00430243 0.0822095 -0.262029 -0.0137457 -0.00562625 0.107671 0.243782 0.0127749 -0.00428037 0.0817682 -0.243804 -0.0127749 -0.00692801 0.132184 0.271296 0.0142311 -0.00428037 0.0818785 -0.369347 -0.019372zm0.396971 0.0110098m0.0107009 -0.159741l0.0943887 -0.0176951c0.00842835,0.0315511 0.0221079,0.05399 0.0410386,0.0674709 0.0187762,0.0133486 0.0430243,0.0188424 0.0728103,0.0162389 0.0314629,-0.00275797 0.054696,-0.0114952 0.0694125,-0.026322 0.0148489,-0.0146944 0.0215121,-0.0309554 0.0199456,-0.0487829 -0.000992868,-0.0115173 -0.00522911,-0.0209164 -0.0127087,-0.0283519 -0.00736929,-0.00752373 -0.019725,-0.0134809 -0.037045,-0.0178716 -0.0117379,-0.00308892 -0.0385233,-0.0077885 -0.0801576,-0.0143635 -0.0535708,-0.00838422 -0.091741,-0.0211812 -0.114511,-0.0383247 -0.0321027,-0.0240053 -0.049842,-0.0551814 -0.0531957,-0.0935282 -0.00216225,-0.0247114 0.00282416,-0.0483416 0.0149151,-0.0711114 0.012113,-0.0226595 0.0308892,-0.0407959 0.0561743,-0.054365 0.0254395,-0.0134809 0.0566376,-0.0218872 0.0938591,-0.0251527 0.060918,-0.00533942 0.107781,0.00399354 0.140899,0.0279106 0.0330294,0.0240715 0.052269,0.0581821 0.0577408,0.102618l-0.0974335 0.0128411c-0.00635436,-0.024579 -0.016945,-0.0417225 -0.0316394,-0.0513423 -0.0147386,-0.00973011 -0.0358536,-0.0133706 -0.0633671,-0.0109657 -0.0284622,0.0024932 -0.0502833,0.0102155 -0.0652866,0.0233434 -0.00970804,0.00836216 -0.0140325,0.0188424 -0.0129294,0.0313746 0.00101493,0.0115173 0.00672944,0.0208944 0.0171215,0.0281754 0.0132162,0.00928883 0.0441716,0.0175186 0.092756,0.0245128 0.0486064,0.00710452 0.084813,0.0156653 0.108642,0.025616 0.0238509,0.0100831 0.0431125,0.0248658 0.0578952,0.0446129 0.0146944,0.019747 0.0233655,0.0448997 0.0260352,0.075458 0.00242701,0.0277782 -0.00295654,0.0544754 -0.0163051,0.0800031 -0.0133265,0.0255939 -0.0335148,0.0455396 -0.0606973,0.0597486 -0.0271825,0.0142973 -0.0618447,0.0232552 -0.10392,0.0269398 -0.0612489,0.00536149 -0.109546,-0.00461132 -0.144848,-0.0300729 -0.035302,-0.0254395 -0.0585572,-0.0650218 -0.069589,-0.118615zm0.442488 0.118968m0.0460691 -0.00564832l-0.0592632 -0.482755 0.0974555 -0.0119585 0.0592632 0.482733 -0.0974555 0.0119806zm0.142708 -0.0147386m0.0494228 -0.011407l-0.109414 -0.473907 0.0956684 -0.0220858 0.0485844 0.210422 0.144738 -0.255057 0.128654 -0.0296978 -0.13578 0.225778 0.254924 0.245878 -0.123822 0.0285946 -0.18154 -0.192396 -0.0594176 0.0971687 0.0330735 0.143216 -0.0956684 0.0220858z"/>
  </g>
 </g>
</svg>
