<?xml version="1.0" encoding="UTF-8"?>
<!DOCTYPE svg PUBLIC "-//W3C//DTD SVG 1.1//EN" "http://www.w3.org/Graphics/SVG/1.1/DTD/svg11.dtd">
<!-- Creator: CorelDRAW -->
<svg xmlns="http://www.w3.org/2000/svg" xml:space="preserve" width="55.5963mm" height="15.3413mm" style="shape-rendering:geometricPrecision; text-rendering:geometricPrecision; image-rendering:optimizeQuality; fill-rule:evenodd; clip-rule:evenodd"
viewBox="0 0 11.7085 3.23086"
 xmlns:xlink="http://www.w3.org/1999/xlink">
 <defs>
  <style type="text/css">
   <![CDATA[
    .str0 {stroke:#000066;stroke-width:0.210599;stroke-linecap:round;stroke-linejoin:round}
    .fil1 {fill:none;fill-rule:nonzero}
    .fil0 {fill:white;fill-rule:nonzero}
   ]]>
  </style>
 </defs>
 <g id="Layer_x0020_1">
  <metadata id="CorelCorpID_0Corel-Layer"/>
  <path class="fil0" d="M1.76665 1.97118c0,0.00162161 0,0.00322216 0,0.00484377 0.00162161,0.00484377 0.00162161,0.00968754 0,0.0145103 -0.00160055,0.00162161 -0.00242189,0.00324322 -0.00242189,0.00484377 0,0 -0.000800275,0.000821335 -0.00242189,0.00242189 0,0.00162161 -0.000800275,0.00242189 -0.00242189,0.00242189 -0.0903469,0.103257 -0.207313,0.154895 -0.3509,0.154895 -0.0629269,0 -0.128676,-0.010909 -0.197247,-0.0326849 -0.0685499,-0.0217759 -0.123011,-0.0435518 -0.16334,-0.0653277 -0.0403297,-0.021797 -0.0968122,-0.0536606 -0.169406,-0.0956118 -0.0516388,-0.0306421 -0.0903469,-0.0532394 -0.116166,-0.0677496 -0.0758366,0.125833 -0.179893,0.190381 -0.312192,0.193603 -0.00322216,0 -0.00644432,0 -0.00968754,0 -0.0613053,0 -0.102835,-0.0149315 -0.124632,-0.0447733 -0.0217759,-0.0298418 -0.0326639,-0.0641273 -0.0326639,-0.102856 0,-0.0532394 0.0177535,-0.0976125 0.0532394,-0.133098 0.0403297,-0.0387291 0.093569,-0.0572829 0.159718,-0.0556612 0.054861,0 0.1081,0.00402244 0.159739,0.0120884 0.0532394,-0.179072 0.079859,-0.427537 0.079859,-0.745372 0,-0.561456 -0.087925,-0.846228 -0.263796,-0.854294 -0.00322216,0 -0.00644432,0 -0.00966648,0 -0.0968122,0 -0.170227,0.0508385 -0.220244,0.152473 -0.0516178,0.112944 -0.0717931,0.250486 -0.060484,0.412626 0.0112881,0.16214 0.0459737,0.280328 0.104057,0.354543 0.0112881,0.0145103 0.00926634,0.0278201 -0.00604418,0.0399295 -0.0153316,0.0120884 -0.0286414,0.010888 -0.0399506,-0.00364336 -0.0629058,-0.0822809 -0.101235,-0.210135 -0.114945,-0.383563 -0.01371,-0.173449 0.00766579,-0.321479 0.0641273,-0.44409 0.0613053,-0.124232 0.152473,-0.186359 0.273484,-0.186359 0.074215,0 0.139143,0.0197752 0.194804,0.0593046 0.0556612,0.0395294 0.102456,0.0980127 0.140364,0.17545 0.0379078,0.0774372 0.0661491,0.173449 0.0847028,0.287994 0.0185537,0.114545 0.0278412,0.247643 0.0278412,0.399316 0,0.312992 -0.027441,0.552569 -0.0822809,0.718752 -0.00646538,0.019354 -0.0129097,0.0379078 -0.0193751,0.0556612 0.0484167,0.0177535 0.114566,0.0475953 0.198447,0.0895466 0.0629269,0.0306632 0.112144,0.0536395 0.14763,0.0689711 0.0354859,0.0153316 0.0855031,0.0306632 0.150052,0.0459737 0.0645275,0.0153316 0.131477,0.0229974 0.200869,0.0229974 0.0838815,0 0.152452,-0.0209756 0.205692,-0.0629269 0.00646538,-0.00484377 0.00968754,-0.0072446 0.00968754,-0.0072446l0.00242189 -0.00242189c0,0 0.000800275,-0.000821335 0.00242189,-0.00242189 0.00160055,0 0.00322216,0 0.00484377,0 0.00160055,0 0.00282202,-0.000400138 0.0036223,-0.00122147 0.000800275,-0.000800275 0.00160055,-0.00120041 0.00242189,-0.00120041 0.000800275,0 0.00202175,0 0.0036223,0 0,0 0.000800275,0 0.00242189,0 0.00162161,0.00160055 0.0040435,0.00242189 0.00726566,0.00242189 0,0 0.000400138,0.000400138 0.00120041,0.00120041 0.000821335,0.000800275 0.00122147,0.00122147 0.00122147,0.00122147 0.00160055,0 0.00242189,0 0.00242189,0 0.00160055,0.00160055 0.00242189,0.00242189 0.00242189,0.00242189 0.00482271,0.00322216 0.00806593,0.0072446 0.00966648,0.0120884zm-1.42542 -0.0314635c0,0.0322637 0.00766579,0.0552611 0.0229974,0.0689711 0.0153105,0.01371 0.0407298,0.0205755 0.0762157,0.0205755 0.0774582,0 0.141185,-0.0645275 0.191203,-0.193603 -0.0484167,-0.0177535 -0.0935901,-0.02742 -0.135541,-0.0290416 -0.00160055,0 -0.00282202,0 -0.0036223,0 -0.000800275,0 -0.00120041,0 -0.00120041,0 -0.0484167,0 -0.0863244,0.01371 -0.113744,0.0411299 -0.0242189,0.0242189 -0.0363072,0.054861 -0.0363072,0.0919685z"/>
  <path id="1" class="fil0" d="M2.20954 1.35649c0.0112881,-0.0161319 0.0249981,-0.0185537 0.0411299,-0.00726566 0.0161319,0.0112881 0.0185537,0.0250191 0.00726566,0.041151 -0.0483956,0.0661491 -0.116566,0.133899 -0.204491,0.203291 -0.087946,0.0693712 -0.169005,0.107279 -0.24322,0.113723 -0.0209756,0.0371075 -0.046795,0.0693923 -0.0774372,0.0968122 -0.0597047,0.0532394 -0.125854,0.079859 -0.198447,0.079859 -0.0129097,0 -0.0250191,-0.000400138 -0.0363072,-0.00120041 -0.0112881,-0.000821335 -0.0250191,-0.00322216 -0.041151,-0.00726566 -0.0161319,-0.0040435 -0.0314635,-0.0100877 -0.0459737,-0.0181536 -0.0145313,-0.00806593 -0.0294417,-0.0181536 -0.0447733,-0.030242 -0.0153316,-0.0121094 -0.0290416,-0.027441 -0.0411299,-0.0459948 -0.0121094,-0.0185537 -0.0229974,-0.0395294 -0.0326849,-0.0629058 -0.00966648,-0.0233975 -0.0173323,-0.052039 -0.0229974,-0.0859243 -0.00564405,-0.0338853 -0.00846607,-0.0701715 -0.00846607,-0.108901 0,-0.0645275 0.0141312,-0.130677 0.0423514,-0.198447 0.0282413,-0.0677707 0.0726144,-0.127054 0.133119,-0.177872 0.060484,-0.0508175 0.128655,-0.0762367 0.204491,-0.0762367 0.02742,0 0.0536395,0.00604418 0.0786376,0.0181536 0.0250191,0.0121094 0.0488168,0.0310633 0.071393,0.0568617 0.0225972,0.0258194 0.041151,0.0572829 0.0556612,0.0943904l0 0.00242189c0,0 0.000821335,0.000800275 0.00242189,0.00242189l0 0.00242189c0.0177535,0.0532394 0.0266197,0.114545 0.0266197,0.183916 0,0.0790588 -0.0120884,0.150052 -0.0362862,0.212979 0.0613053,-0.0145313 0.127854,-0.0512387 0.199648,-0.110122 0.0717931,-0.0588834 0.128676,-0.118188 0.170627,-0.177872zm-0.409004 0.225067c0.0129097,-0.046795 0.019354,-0.0968122 0.019354,-0.150052 0,-0.0645275 -0.00886621,-0.120189 -0.0266197,-0.166984 -0.0241978,-0.0532394 -0.0556612,-0.079859 -0.0943693,-0.079859 -0.0403507,0 -0.0790588,0.0129097 -0.116166,0.0387291 -0.0371075,0.0257983 -0.0681708,0.0649276 -0.0931689,0.117367 -0.0250191,0.0524391 -0.0375287,0.110922 -0.0375287,0.17545 0,0.0903469 0.0117093,0.16134 0.0351068,0.212979 0.0233975,0.0516178 0.0560614,0.0774372 0.0980127,0.0774372 0.0306421,0 0.060505,-0.0104878 0.0895466,-0.0314635 0.00966648,-0.00644432 0.0185537,-0.01371 0.0266197,-0.0217759 0.00160055,0 0.00242189,-0.000800275 0.00242189,-0.00242189 0,0 0.000800275,-0.000800275 0.00240083,-0.00242189 0.0161529,-0.0161319 0.0306632,-0.033064 0.0435729,-0.0508175 -0.0145313,-0.00968754 -0.0225972,-0.0233975 -0.0241978,-0.041151 -0.00162161,-0.0177324 0.00402244,-0.0338853 0.0169321,-0.0483956 0.0129097,-0.0145103 0.0290416,-0.0233975 0.0483956,-0.0266197 0.00324322,-0.00162161 0.00646538,-0.00162161 0.00968754,0z"/>
  <path id="12" class="fil0" d="M3.18482 1.34922c0.0161319,-0.0112881 0.030242,-0.00966648 0.0423514,0.00484377 0.0120884,0.0145313 0.0100666,0.0282413 -0.00606524,0.041151 -0.00482271,0.00322216 -0.0145103,0.0104878 -0.0290416,0.0217759 -0.138742,0.1081 -0.264596,0.215379 -0.377519,0.321858 -0.00806593,0.188781 -0.0217759,0.364231 -0.041151,0.526371 -0.019354,0.16214 -0.0500172,0.320258 -0.0919474,0.474332 -0.0419513,0.154074 -0.0927687,0.260974 -0.152473,0.320658 -0.0419513,0.0435729 -0.0887463,0.0653488 -0.140364,0.0653488 -0.0258194,0 -0.0500172,-0.00402244 -0.0725934,-0.0120884 -0.0225972,-0.00808699 -0.0463949,-0.0233975 -0.071393,-0.0459948 -0.0250191,-0.0225762 -0.0451734,-0.0580831 -0.060505,-0.106479 -0.0153316,-0.0483956 -0.0229974,-0.1081 -0.0229974,-0.179093 0,-0.290395 0.158118,-0.605008 0.474332,-0.943819 0.00322216,-0.0806804 0.00564405,-0.162961 0.00726566,-0.246843 -0.0145313,0.0354859 -0.0290416,0.0677496 -0.0435729,0.0967912 -0.00160055,0.00162161 -0.00322216,0.0040435 -0.00482271,0.00726566 -0.0693923,0.125833 -0.151673,0.18876 -0.246864,0.18876 -0.0548399,0 -0.102835,-0.0233975 -0.143986,-0.0701715 -0.041151,-0.046795 -0.0617054,-0.119388 -0.0617054,-0.217822 0,-0.130677 0.0411299,-0.247243 0.123411,-0.349699 0.0822809,-0.102435 0.168605,-0.153674 0.258952,-0.153674 0.0516388,0 0.0927687,0.01371 0.123432,0.041151 0.0129097,-0.0355069 0.0371075,-0.0556612 0.0725934,-0.060505 0.0258194,-0.00322216 0.0483956,0.00322216 0.0677707,0.019354 0.0225762,0.0193751 0.0346856,0.0484167 0.0362862,0.0871247 0.00324322,0.140364 0.00162161,0.299282 -0.00482271,0.476753 0.101635,-0.0951906 0.214579,-0.190381 0.338811,-0.285572 0.0145103,-0.0112881 0.0233765,-0.0185537 0.0266197,-0.0217759zm-0.7817 1.63597c0.116166,-0.124232 0.192003,-0.475953 0.227489,-1.05514 -0.274263,0.306526 -0.411405,0.590498 -0.411405,0.851851 0,0.0225972 0.000800275,0.0435729 0.00242189,0.0629269 0.00644432,0.0483956 0.0197542,0.090747 0.0399295,0.127054 0.0201754,0.0363072 0.0407298,0.0544608 0.0617054,0.0544608 0.027441,0 0.0540607,-0.013731 0.079859,-0.041151zm0.239598 -1.55854c0,-0.00160055 0.000400138,-0.00402244 0.00120041,-0.0072446 0.000821335,-0.00324322 0.00122147,-0.00484377 0.00122147,-0.00484377 0,-0.0597047 0,-0.110522 0,-0.152473 -0.019354,-0.0257983 -0.0508175,-0.033064 -0.0943904,-0.0217759 -0.054861,0.0145313 -0.106479,0.054861 -0.154874,0.12101 -0.0484167,0.0661491 -0.0726144,0.150852 -0.0726144,0.254108 0,0.0564615 0.00846607,0.100435 0.0254193,0.131898 0.0169321,0.0314424 0.0342855,0.0471741 0.052039,0.0471741 0.0161319,0 0.0334641,-0.00684446 0.0520179,-0.0205544 0.0185537,-0.013731 0.0359071,-0.030263 0.052039,-0.0496171 0.0161319,-0.019354 0.0306421,-0.041151 0.0435518,-0.0653488 0,0 0,-0.000800275 0,-0.00242189 0.027441,-0.0516178 0.0589045,-0.128255 0.0943904,-0.229911z"/>
  <path id="123" class="fil0" d="M3.73661 1.35649c0.00966648,-0.0161319 0.0229763,-0.019354 0.0399295,-0.00968754 0.0169321,0.00968754 0.0205544,0.0225972 0.010888,0.0387291l-0.0169532 0.0290416c-0.0838815,0.141965 -0.150852,0.245221 -0.200869,0.30977 -0.00160055,0.00160055 -0.00240083,0.00322216 -0.00240083,0.00484377l-0.00484377 0.00242189c0,0 -0.000821335,0.000800275 -0.00242189,0.00242189 -0.0806804,0.100013 -0.152473,0.150031 -0.2154,0.150031 -0.0580621,0 -0.104857,-0.0241978 -0.140364,-0.0725934 -0.0354859,-0.0500172 -0.0564615,-0.123432 -0.0629058,-0.220223 -0.00646538,-0.0968122 -0.0040435,-0.186359 0.0072446,-0.26864 0.0113092,-0.0822809 0.0250191,-0.14843 0.041151,-0.198447 0.00806593,-0.0225762 0.0237977,-0.0379078 0.0471952,-0.0459737 0.0233975,-0.00806593 0.0463738,-0.00888727 0.0689711,-0.00242189 0.0225762,0.00644432 0.0399295,0.019354 0.0520179,0.0387291 0.0121094,0.019354 0.0141312,0.0427515 0.00606524,0.0701715 -0.0161319,0.0629269 -0.0290416,0.130677 -0.0387291,0.203291 -0.00968754,0.0725934 -0.0120884,0.144387 -0.00726566,0.215379 0.00484377,0.0709928 0.0193751,0.12181 0.0435729,0.152473 0.0161319,0.019354 0.0379078,0.0290416 0.0653488,0.0290416 0.0145103,-0.00484377 0.0451734,-0.0346856 0.0919474,-0.0895466l0.00242189 -0.00484377c0.0500172,-0.0629269 0.116166,-0.164562 0.198447,-0.304926l0.0169532 -0.0290416zm-0.331567 -0.39085c-0.0241978,0.00726566 -0.0512176,0.00726566 -0.0810595,0 -0.0298629,-0.0072446 -0.0540607,-0.019354 -0.0726144,-0.0362862 -0.0185537,-0.0169532 -0.0257983,-0.0338853 -0.0217759,-0.0508385 0.0040435,-0.0169321 0.0177535,-0.0290416 0.041151,-0.0362862 0.0233765,-0.00726566 0.0504173,-0.00766579 0.0810595,-0.00122147 0.0306632,0.00646538 0.0552611,0.0185537 0.0738149,0.0363072 0.0185537,0.0177535 0.0258194,0.0350858 0.0217759,0.052039 -0.00402244,0.0169321 -0.0181536,0.0290416 -0.0423514,0.0362862z"/>
  <path id="1234" class="fil0" d="M4.78933 1.35891c0.00806593,-0.0177535 0.0209756,-0.0225972 0.0387291,-0.0145313 0.0177324,0.00806593 0.0225762,0.0209756 0.0145103,0.0387291 -0.00162161,0.00484377 -0.00564405,0.0145103 -0.0120884,0.0290416 -0.101656,0.233933 -0.191203,0.405761 -0.26864,0.515483 -0.00162161,0.00160055 -0.00242189,0.00322216 -0.00242189,0.00482271 -0.0112881,0.0177535 -0.0233975,0.0330851 -0.0363072,0.0459948 0,0 -0.000800275,0.00160055 -0.00240083,0.00484377 -0.0580831,0.0693712 -0.112144,0.104057 -0.162161,0.104057 -0.0371075,0 -0.0677496,-0.0129097 -0.0919474,-0.0387291 -0.0338853,-0.0371075 -0.0512387,-0.104857 -0.052039,-0.20327 -0.000800275,-0.0984339 0.00686552,-0.195225 0.0229974,-0.290416 0.00322216,-0.0338853 0.00564405,-0.0597047 0.0072446,-0.0774372 0.00162161,-0.0177535 0.00364336,-0.0415511 0.00606524,-0.071393 0.00242189,-0.0298629 0.0036223,-0.0536606 0.0036223,-0.071393 0,-0.0177535 0,-0.0371075 0,-0.0580831 0,-0.0209756 -0.00202175,-0.0379288 -0.00604418,-0.0508175 -0.0040435,-0.0129097 -0.0092874,-0.0225972 -0.0157317,-0.0290416 -0.00322216,-0.00484377 -0.00888727,-0.00726566 -0.0169532,-0.00726566 -0.0371075,0 -0.074215,0.0363072 -0.111322,0.108901 -0.00160055,0.00484377 -0.00402244,0.00886621 -0.0072446,0.0121094 -0.0629269,0.133899 -0.105678,0.31137 -0.128276,0.532415 0,0.0177324 -0.00806593,0.0298418 -0.0241978,0.0362862 -0.00806593,0.00324322 -0.0169321,0.00484377 -0.0266197,0.00484377 -0.0241978,0 -0.0492169,-0.00806593 -0.0750153,-0.0241978 -0.0258194,-0.0161319 -0.0451734,-0.0371075 -0.0580831,-0.0629269 -0.0387291,-0.0806593 -0.060505,-0.193603 -0.0653488,-0.338811 -0.00484377,-0.145208 0.00726566,-0.25653 0.0363072,-0.333967 0.00644432,-0.0225762 0.0213758,-0.0379078 0.0447733,-0.0459737 0.0233765,-0.00806593 0.0463738,-0.00888727 0.0689711,-0.00242189 0.0225762,0.00644432 0.0399295,0.019354 0.0520179,0.0387291 0.0121094,0.019354 0.0149315,0.0427515 0.00848713,0.0701715 -0.0435729,0.180694 -0.0443732,0.354943 -0.00242189,0.522727 0.0209756,-0.132277 0.0491959,-0.246843 0.0847028,-0.343634 0.00160055,0 0.00242189,-0.000821335 0.00242189,-0.00242189 0.0145103,-0.0403297 0.0306421,-0.0758366 0.0483956,-0.106479 0,-0.00162161 0.000800275,-0.00324322 0.00242189,-0.00484377 0.0661491,-0.12101 0.139543,-0.181515 0.220223,-0.181515 0.0435518,0 0.0782374,0.0153316 0.104057,0.0459948 0.0241978,0.0290416 0.0391292,0.0746151 0.0447733,0.136721 0.00564405,0.0621266 0.00564405,0.117788 0,0.166984 -0.00564405,0.0492169 -0.0149315,0.12061 -0.0278201,0.214179 -0.00806593,0.0483956 -0.013731,0.0859243 -0.0169532,0.112544 -0.00322216,0.0266197 -0.00644432,0.0592835 -0.00966648,0.0980127 -0.00324322,0.038708 -0.00364336,0.0693712 -0.00122147,0.0919474 0.00242189,0.0225972 0.00846607,0.0387291 0.0181536,0.0484167 0.00322216,0.00482271 0.00886621,0.0072446 0.0169321,0.0072446 0.0145313,0 0.0355069,-0.0153105 0.0629269,-0.0459737 0.0129097,-0.0161319 0.0266197,-0.0338853 0.041151,-0.0532394l0 -0.00242189c0,0 0.000800275,-0.000800275 0.00242189,-0.00242189 0.0758155,-0.109701 0.161319,-0.275084 0.256509,-0.496107 0.00484377,-0.0129097 0.00888727,-0.0233975 0.0121094,-0.0314635z"/>
  <path id="12345" class="fil0" d="M7.47805 1.35649c0.00966648,-0.0161319 0.0229763,-0.019354 0.0399295,-0.00968754 0.0169321,0.00968754 0.0205755,0.0225972 0.010888,0.0387291 -0.0290416,0.0516178 -0.0661491,0.150852 -0.111322,0.29766 -0.0145313,0.0451734 -0.0254193,0.0794589 -0.0326639,0.102856 -0.00726566,0.0233975 -0.0177535,0.0536395 -0.0314635,0.090747 -0.01371,0.0371075 -0.0266197,0.0657489 -0.0387291,0.0859243 -0.0121094,0.0201754 -0.0262195,0.0407298 -0.0423514,0.0617054 -0.0161319,0.0209756 -0.0334852,0.0363072 -0.052039,0.0459948 -0.0185537,0.00966648 -0.0383079,0.0145103 -0.0592835,0.0145103l0 0 -0.00484377 0c-0.101635,0 -0.179493,-0.0314635 -0.233533,-0.0943904 -0.0540396,-0.0629058 -0.0883251,-0.16294 -0.102856,-0.300082 -0.00644432,-0.0500172 -0.0145103,-0.180694 -0.0241978,-0.392051 -0.00484377,-0.100034 -0.00726566,-0.153274 -0.00726566,-0.159718 -0.127454,0.00644432 -0.244421,0.0177324 -0.3509,0.0338643 -0.0161319,0.0871247 -0.0326849,0.164983 -0.0496171,0.233554 -0.0169321,0.068571 -0.0367074,0.139143 -0.0592835,0.211757 -0.0225972,0.0725934 -0.0475953,0.13552 -0.0750363,0.18876 -0.02742,0.0532394 -0.057683,0.102035 -0.090747,0.146408 -0.033064,0.0443732 -0.0709928,0.0774372 -0.113744,0.0992341 -0.0427515,0.0217759 -0.0883251,0.0326639 -0.136742,0.0326639 -0.0419302,0 -0.0826811,-0.00644432 -0.12221,-0.019354 -0.0395294,-0.0129097 -0.0762367,-0.0330851 -0.110101,-0.060505 -0.0338853,-0.02742 -0.0613053,-0.0653488 -0.0822809,-0.113744 -0.0209756,-0.0483956 -0.0314635,-0.104878 -0.0314635,-0.169406 0,-0.280728 0.223445,-0.471109 0.670357,-0.571144 0.0500172,-0.0112881 0.100835,-0.0209756 0.152452,-0.0290416 0.0113092,-0.0580831 0.0266407,-0.141965 0.0459948,-0.251687 0.0483956,-0.282329 0.0887253,-0.470288 0.12101,-0.563878 0,0 0,-0.000800275 0,-0.00242189 0,0 0.000400138,-0.000400138 0.00120041,-0.00120041 0.000800275,-0.000800275 0.00120041,-0.00122147 0.00120041,-0.00122147 0.0451734,-0.130677 0.101656,-0.196025 0.169406,-0.196025 0.0290416,0 0.054861,0.0100877 0.0774582,0.030263 0.0225762,0.0201543 0.0415301,0.054861 0.0568617,0.104057 0.0153316,0.0492169 0.0278412,0.0964121 0.0375076,0.141586 0.00968754,0.0451734 0.0181536,0.111723 0.0254193,0.199648 0.00726566,0.087925 0.0125096,0.159318 0.0157317,0.214179 0.00322216,0.054861 0.00726566,0.137942 0.0120884,0.249265 0,0.00644432 0.000821335,0.0161319 0.00242189,0.0290416 0.046795,-0.00162161 0.104878,-0.00242189 0.174249,-0.00242189 0.00806593,0 0.0149315,0.00282202 0.0205755,0.00846607 0.00564405,0.00564405 0.00846607,0.0125096 0.00846607,0.0205755 0,0.00806593 -0.00282202,0.0149315 -0.00846607,0.0205755 -0.00564405,0.00564405 -0.0125096,0.00846607 -0.0205755,0.00846607 -0.0677496,0 -0.125032,0.000800275 -0.171828,0.00242189 0.00322216,0.0839025 0.00686552,0.155296 0.010888,0.214179 0.0040435,0.0588834 0.0092874,0.126254 0.0157317,0.202069 0.00646538,0.0758366 0.0145313,0.139564 0.0241978,0.191182 0.00968754,0.0516388 0.0213968,0.100835 0.0351068,0.14763 0.01371,0.046795 0.030242,0.0818808 0.049596,0.105278 0.0193751,0.0233975 0.0419513,0.0350858 0.0677707,0.0350858 0.0145313,0 0.0286414,-0.00444363 0.0423514,-0.0133098 0.01371,-0.00886621 0.0266197,-0.0229974 0.0387291,-0.0423514 0.0120884,-0.019354 0.0229763,-0.0383079 0.0326639,-0.0568617 0.00968754,-0.0185537 0.0205755,-0.0443732 0.0326639,-0.0774582 0.0121094,-0.033064 0.0213758,-0.0600838 0.0278412,-0.0810595 0.00644432,-0.0209756 0.0153316,-0.0508175 0.0266197,-0.0895466 0.046795,-0.151652 0.0855031,-0.254909 0.116166,-0.30977zm-1.5658 0.672779c0.0484167,0 0.0943904,-0.0161319 0.137942,-0.0483956 0.0435729,-0.0322637 0.0806804,-0.0738149 0.111344,-0.124632 0.0306421,-0.0508385 0.0600838,-0.114966 0.0883251,-0.192403 0.0282413,-0.0774372 0.0516178,-0.153274 0.0701715,-0.227489 0.0185537,-0.074215 0.0375287,-0.158918 0.0568827,-0.254108 -0.0451734,0.00646538 -0.087925,0.0145313 -0.128276,0.0241978 -0.416248,0.0935901 -0.624362,0.265418 -0.624362,0.515483 0,0.104878 0.0282202,0.182315 0.0847028,0.232333 0.0564615,0.0500172 0.124232,0.0750153 0.20327,0.0750153zm0.537258 -0.9172c0.103257,-0.0145313 0.214579,-0.0250191 0.333967,-0.0314635 -0.00966648,-0.196847 -0.0201543,-0.355764 -0.0314424,-0.476753 -0.0225972,-0.230711 -0.0475953,-0.358186 -0.0750363,-0.382384 -0.0177324,0.00162161 -0.0395294,0.0363072 -0.0653277,0.104078l-0.00242189 0c-0.0306632,0.0919474 -0.0701926,0.276685 -0.118588,0.554191 -0.0177535,0.104857 -0.0314635,0.182315 -0.041151,0.232333z"/>
  <path id="123456" class="fil0" d="M8.54772 0.262617c0,0.0306421 -0.00484377,0.0669493 -0.0145313,0.108901l0 0.00242189c-0.0257983,0.1081 -0.0822809,0.249265 -0.169406,0.423514 -0.0806593,0.158118 -0.171006,0.314613 -0.271041,0.469488 0,0.116166 0.0036223,0.217801 0.010888,0.304926 0.00726566,0.0871247 0.0149315,0.152874 0.0229974,0.197247 0.00806593,0.0443732 0.0177535,0.079859 0.0290416,0.106479 0.0112881,0.0266197 0.0209756,0.0427515 0.0290416,0.0483956 0.00806593,0.00564405 0.0153316,0.00846607 0.0217759,0.00846607 0.00646538,0 0.0177535,-0.0120884 0.0338853,-0.0362862 0,-0.00162161 0,-0.00242189 0,-0.00242189 0.00484377,-0.00806593 0.00968754,-0.0161319 0.0145103,-0.0241978 0,0 0.000421197,-0.000400138 0.00122147,-0.00122147 0.000800275,-0.000800275 0.00120041,-0.00202175 0.00120041,-0.0036223l0.00242189 -0.00726566c0.00646538,-0.00968754 0.0121094,-0.0201543 0.0169532,-0.0314635 0.0419302,-0.0838815 0.0992131,-0.215379 0.171806,-0.394473 0,-0.00322216 0.00364336,-0.01371 0.010909,-0.0314635 0.0072446,-0.0177324 0.0124885,-0.0306421 0.0157317,-0.038708 0.00806593,-0.0177535 0.0209546,-0.0229974 0.038708,-0.0157317 0.0177535,0.00726566 0.0233975,0.0197542 0.0169532,0.0375076 -0.00646538,0.0112881 -0.0161529,0.0346856 -0.0290416,0.0701926 -0.0839025,0.209735 -0.150052,0.358165 -0.198447,0.44529 0,0.00160055 0,0.00242189 0,0.00242189 -0.00484377,0.00966648 -0.00968754,0.0177324 -0.0145313,0.0241978 -0.0613053,0.1081 -0.116166,0.16214 -0.164562,0.16214 -0.0822809,0 -0.141164,-0.0903469 -0.176671,-0.271041 -0.0112881,-0.0645485 -0.0209756,-0.139564 -0.0290416,-0.225067 -0.019354,0.0419302 -0.0395294,0.079859 -0.060505,0.113744 -0.0806593,0.119388 -0.172628,0.179072 -0.275884,0.179072 -0.0241978,0 -0.0479955,-0.00524391 -0.071393,-0.0157317 -0.0233975,-0.0104878 -0.0455736,-0.0262195 -0.0665492,-0.0471952 -0.0209756,-0.0209546 -0.0375076,-0.0508175 -0.0496171,-0.0895255 -0.0120884,-0.0387291 -0.0181326,-0.0839025 -0.0181326,-0.135541 0,-0.130677 0.043952,-0.250865 0.131877,-0.360587 0.087946,-0.109701 0.177071,-0.164562 0.267418,-0.164562 0.0564826,0 0.100835,0.0121094 0.133119,0.0363072 0.0129097,-0.259752 0.0596837,-0.482397 0.140364,-0.667935 0.0483956,-0.1081 0.103257,-0.190802 0.164562,-0.248064 0.0613053,-0.0572829 0.125833,-0.0859243 0.193603,-0.0859243 0.0580831,0 0.0984128,0.0225972 0.12101,0.0677707 0.0112881,0.0225972 0.0177324,0.0508175 0.019354,0.0847028 0,0.00162161 0,0.00242189 0,0.00242189 0,0 0,0.000800275 0,0.00242189zm-0.764747 1.44477c0.0451734,-0.0596837 0.087925,-0.141965 0.128276,-0.246843 -0.00324322,-0.074215 -0.00484377,-0.152452 -0.00484377,-0.234733 0,-0.0145313 0,-0.027441 0,-0.0387291 -0.00162161,-0.00322216 -0.00322216,-0.00564405 -0.00484377,-0.00726566 -0.00484377,-0.00644432 -0.0104878,-0.0129097 -0.0169321,-0.019354 -0.0129097,-0.00646538 -0.0298629,-0.00726566 -0.0508385,-0.00242189 -0.0629058,0.0177535 -0.124632,0.071393 -0.185137,0.16094 -0.060484,0.0895466 -0.090747,0.18836 -0.090747,0.29646 0,0.0548399 0.010888,0.0984128 0.0326639,0.130677 0.021797,0.0322637 0.0431727,0.0483956 0.0641484,0.0483956 0.0371075,0 0.079859,-0.0290416 0.128255,-0.0871247zm0.704242 -1.41089c0.00484377,-0.0387291 0.000800275,-0.0661491 -0.0120884,-0.0822809 -0.00646538,-0.00808699 -0.0153316,-0.0121094 -0.0266407,-0.0121094 -0.019354,0 -0.0427515,0.0129097 -0.0701715,0.0387291 -0.02742,0.0257983 -0.057683,0.0657279 -0.090747,0.119789 -0.0330851,0.0540396 -0.063327,0.117367 -0.0907681,0.189981 -0.02742,0.0725934 -0.0512176,0.16254 -0.071393,0.269819 -0.0201543,0.1073 -0.0310423,0.220644 -0.0326639,0.340033 0.0855031,-0.137142 0.164962,-0.279528 0.238377,-0.427136 0.0734147,-0.14763 0.12141,-0.270662 0.144007,-0.369074 0,-0.00322216 0.000800275,-0.00564405 0.00240083,-0.00726566 0.00324322,-0.0128886 0.00566511,-0.0249981 0.00726566,-0.0362862 0.00162161,-0.00806593 0.00242189,-0.0161319 0.00242189,-0.0241978z"/>
  <path id="1234567" class="fil0" d="M9.93201 1.36133c0.00806593,-0.0177535 0.0209546,-0.0229974 0.038708,-0.0157317 0.0177535,0.00726566 0.0225972,0.0197542 0.0145313,0.0375076 -0.00162161,0.00484377 -0.00564405,0.0145103 -0.0121094,0.0290416 -0.101635,0.235555 -0.191182,0.408182 -0.268619,0.517904 0,0 -0.000821335,0.000800275 -0.00242189,0.00240083 -0.0113092,0.0177535 -0.0233975,0.0330851 -0.0363072,0.0459948 0,0.00160055 -0.000800275,0.00322216 -0.00242189,0.00484377 -0.0580831,0.0693712 -0.112123,0.104057 -0.16214,0.104057 -0.0371075,0 -0.0669493,-0.0133098 -0.0895466,-0.0399295 -0.0225972,-0.0266197 -0.0363072,-0.0693712 -0.041151,-0.128276 -0.00482271,-0.0588834 -0.00442257,-0.112123 0.00122147,-0.159718 0.00564405,-0.0475953 0.0157317,-0.116566 0.030242,-0.206913 0.00484377,-0.0322637 0.00848713,-0.0572829 0.010888,-0.0750153 0.00242189,-0.0177535 0.00566511,-0.0419513 0.00968754,-0.0726144 0.0040435,-0.0306421 0.00646538,-0.0548399 0.00726566,-0.0725934 0.000800275,-0.0177535 0.00120041,-0.0367074 0.00120041,-0.0568827 0,-0.0201543 -0.00160055,-0.0367074 -0.00482271,-0.049596 -0.00324322,-0.0129097 -0.00726566,-0.0225972 -0.0121094,-0.0290416 -0.00484377,-0.00484377 -0.0104878,-0.00726566 -0.0169321,-0.00726566 -0.0435729,0 -0.0923686,0.0568617 -0.146429,0.170606 -0.0540396,0.113744 -0.102856,0.260974 -0.146408,0.441668l0 0.00242189c-0.00322216,0.0177535 -0.0129097,0.0330851 -0.0290416,0.0459737 -0.0161319,0.0129097 -0.0338853,0.0185537 -0.0532394,0.0169532 -0.00968754,-0.00162161 -0.0185537,-0.00444363 -0.0266197,-0.00846607 -0.00806593,-0.0040435 -0.0169532,-0.010909 -0.0266197,-0.0205755 -0.00968754,-0.00968754 -0.0173533,-0.0262195 -0.0229974,-0.0496171 -0.00564405,-0.0233975 -0.00766579,-0.0512176 -0.00604418,-0.0834813 0.0129097,-0.283971 -0.00564405,-0.452556 -0.0556612,-0.505795 -0.00806593,-0.00646538 -0.0161319,-0.00968754 -0.0241978,-0.00968754 -0.0242189,0 -0.0540607,0.0346856 -0.0895466,0.104057 -0.0322637,0.074215 -0.0564826,0.16134 -0.0726144,0.261374 -0.0161319,0.100034 -0.0217759,0.192803 -0.0169321,0.278306 0,0.00322216 0,0.00564405 0,0.00726566 0,0 0,0.000800275 0,0.00242189 0.00162161,0.00806593 0,0.0145103 -0.00484377,0.019354 -0.00484377,0.00806593 -0.0112881,0.01371 -0.019354,0.0169321 -0.00806593,0.00324322 -0.0169532,0.00484377 -0.0266197,0.00484377 -0.0161319,0 -0.0326849,-0.00322216 -0.0496171,-0.00966648 -0.0169321,-0.00646538 -0.033064,-0.0165531 -0.0483956,-0.030263 -0.0153316,-0.01371 -0.0270198,-0.0294417 -0.0350858,-0.0471952 -0.0387291,-0.0806593 -0.060505,-0.193603 -0.0653488,-0.338811 -0.00484377,-0.145208 0.00726566,-0.25653 0.0363072,-0.333967 0.00644432,-0.0225762 0.0213758,-0.0379078 0.0447522,-0.0459737 0.0233975,-0.00806593 0.0463949,-0.00888727 0.0689921,-0.00242189 0.0225762,0.00644432 0.0399295,0.019354 0.0520179,0.0387291 0.0121094,0.019354 0.0149315,0.0427515 0.00846607,0.0701715 -0.0371075,0.156496 -0.0419302,0.311391 -0.0145103,0.464665 0.0145103,-0.143607 0.0443732,-0.26864 0.0895466,-0.375118 0,-0.00162161 0.000800275,-0.00322216 0.00242189,-0.00484377 0,0 0.000800275,-0.00162161 0.00242189,-0.00484377 0.0241978,-0.054861 0.0508175,-0.0984128 0.079859,-0.130677 0.0435518,-0.0451734 0.0903469,-0.0677707 0.140364,-0.0677707 0.0371075,0 0.0693712,0.0153316 0.0967912,0.0459948 0.0580831,0.0645275 0.0855242,0.201669 0.0822809,0.411405 0.100034,-0.303325 0.2154,-0.454978 0.346077,-0.454978 0.0435729,0 0.0774372,0.0153316 0.101635,0.0459948 0.0242189,0.0290416 0.0379288,0.0746151 0.041151,0.136721 0.00322216,0.0621266 0.00120041,0.117788 -0.00604418,0.166984 -0.00726566,0.0492169 -0.0197752,0.12061 -0.0375076,0.214179 -0.00968754,0.0500172 -0.0169532,0.0883251 -0.021797,0.114966 -0.00484377,0.0266197 -0.00966648,0.0592835 -0.0145103,0.0980127 -0.00484377,0.038708 -0.00646538,0.0693712 -0.00484377,0.0919474 0.00162161,0.0225972 0.00644432,0.0379288 0.0145103,0.0459948 0.00324322,0.00482271 0.00888727,0.0072446 0.0169532,0.0072446 0.0145103,0 0.0354859,-0.0153105 0.0629269,-0.0459737 0.0129097,-0.0161319 0.0266197,-0.0338853 0.0411299,-0.0532394 0,0 0,-0.000800275 0,-0.00242189 0,0 0.000800275,-0.000800275 0.00242189,-0.00242189 0.0758366,-0.109701 0.16134,-0.275084 0.25653,-0.496107 0.00162161,-0.00322216 0.00322216,-0.00726566 0.00484377,-0.0121094 0.00160055,-0.00484377 0.00322216,-0.00846607 0.00484377,-0.010888 0.00160055,-0.00242189 0.00242189,-0.00444363 0.00242189,-0.00604418z"/>
  <path id="12345678" class="fil0" d="M10.4935 1.35649c0.00966648,-0.0161319 0.0229763,-0.019354 0.0399295,-0.00968754 0.0169321,0.00968754 0.0205544,0.0225972 0.010888,0.0387291l-0.0169532 0.0290416c-0.0838815,0.141965 -0.150852,0.245221 -0.200869,0.30977 -0.00160055,0.00160055 -0.00240083,0.00322216 -0.00240083,0.00484377l-0.00484377 0.00242189c0,0 -0.000821335,0.000800275 -0.00242189,0.00242189 -0.0806804,0.100013 -0.152473,0.150031 -0.2154,0.150031 -0.0580621,0 -0.104857,-0.0241978 -0.140364,-0.0725934 -0.0354859,-0.0500172 -0.0564615,-0.123432 -0.0629058,-0.220223 -0.00646538,-0.0968122 -0.0040435,-0.186359 0.0072446,-0.26864 0.0113092,-0.0822809 0.0250191,-0.14843 0.041151,-0.198447 0.00806593,-0.0225762 0.0237977,-0.0379078 0.0471952,-0.0459737 0.0233975,-0.00806593 0.0463738,-0.00888727 0.0689711,-0.00242189 0.0225762,0.00644432 0.0399295,0.019354 0.0520179,0.0387291 0.0121094,0.019354 0.0141312,0.0427515 0.00606524,0.0701715 -0.0161319,0.0629269 -0.0290416,0.130677 -0.0387291,0.203291 -0.00968754,0.0725934 -0.0120884,0.144387 -0.00726566,0.215379 0.00484377,0.0709928 0.0193751,0.12181 0.0435729,0.152473 0.0161319,0.019354 0.0379078,0.0290416 0.0653488,0.0290416 0.0145103,-0.00484377 0.0451734,-0.0346856 0.0919474,-0.0895466l0.00242189 -0.00484377c0.0500172,-0.0629269 0.116166,-0.164562 0.198447,-0.304926l0.0169532 -0.0290416zm-0.331567 -0.39085c-0.0241978,0.00726566 -0.0512176,0.00726566 -0.0810595,0 -0.0298629,-0.0072446 -0.0540607,-0.019354 -0.0726144,-0.0362862 -0.0185537,-0.0169532 -0.0257983,-0.0338853 -0.0217759,-0.0508385 0.0040435,-0.0169321 0.0177535,-0.0290416 0.041151,-0.0362862 0.0233765,-0.00726566 0.0504173,-0.00766579 0.0810595,-0.00122147 0.0306632,0.00646538 0.0552611,0.0185537 0.0738149,0.0363072 0.0185537,0.0177535 0.0258194,0.0350858 0.0217759,0.052039 -0.00402244,0.0169321 -0.0181536,0.0290416 -0.0423514,0.0362862z"/>
  <path id="123456789" class="fil0" d="M11.5462 1.35891c0.00806593,-0.0177535 0.0209756,-0.0225972 0.0387291,-0.0145313 0.0177324,0.00806593 0.0225762,0.0209756 0.0145103,0.0387291 -0.00162161,0.00484377 -0.00564405,0.0145103 -0.0120884,0.0290416 -0.101656,0.233933 -0.191203,0.405761 -0.26864,0.515483 -0.00162161,0.00160055 -0.00242189,0.00322216 -0.00242189,0.00482271 -0.0112881,0.0177535 -0.0233975,0.0330851 -0.0363072,0.0459948 0,0 -0.000800275,0.00160055 -0.00240083,0.00484377 -0.0580831,0.0693712 -0.112144,0.104057 -0.162161,0.104057 -0.0371075,0 -0.0677496,-0.0129097 -0.0919474,-0.0387291 -0.0338853,-0.0371075 -0.0512387,-0.104857 -0.052039,-0.20327 -0.000800275,-0.0984339 0.00686552,-0.195225 0.0229974,-0.290416 0.00322216,-0.0338853 0.00564405,-0.0597047 0.0072446,-0.0774372 0.00162161,-0.0177535 0.00364336,-0.0415511 0.00606524,-0.071393 0.00242189,-0.0298629 0.0036223,-0.0536606 0.0036223,-0.071393 0,-0.0177535 0,-0.0371075 0,-0.0580831 0,-0.0209756 -0.00202175,-0.0379288 -0.00604418,-0.0508175 -0.0040435,-0.0129097 -0.0092874,-0.0225972 -0.0157317,-0.0290416 -0.00322216,-0.00484377 -0.00888727,-0.00726566 -0.0169532,-0.00726566 -0.0371075,0 -0.074215,0.0363072 -0.111322,0.108901 -0.00160055,0.00484377 -0.00402244,0.00886621 -0.0072446,0.0121094 -0.0629269,0.133899 -0.105678,0.31137 -0.128276,0.532415 0,0.0177324 -0.00806593,0.0298418 -0.0241978,0.0362862 -0.00806593,0.00324322 -0.0169321,0.00484377 -0.0266197,0.00484377 -0.0241978,0 -0.0492169,-0.00806593 -0.0750153,-0.0241978 -0.0258194,-0.0161319 -0.0451734,-0.0371075 -0.0580831,-0.0629269 -0.0387291,-0.0806593 -0.060505,-0.193603 -0.0653488,-0.338811 -0.00484377,-0.145208 0.00726566,-0.25653 0.0363072,-0.333967 0.00644432,-0.0225762 0.0213758,-0.0379078 0.0447733,-0.0459737 0.0233765,-0.00806593 0.0463738,-0.00888727 0.0689711,-0.00242189 0.0225762,0.00644432 0.0399295,0.019354 0.0520179,0.0387291 0.0121094,0.019354 0.0149315,0.0427515 0.00848713,0.0701715 -0.0435729,0.180694 -0.0443732,0.354943 -0.00242189,0.522727 0.0209756,-0.132277 0.0491959,-0.246843 0.0847028,-0.343634 0.00160055,0 0.00242189,-0.000821335 0.00242189,-0.00242189 0.0145103,-0.0403297 0.0306421,-0.0758366 0.0483956,-0.106479 0,-0.00162161 0.000800275,-0.00324322 0.00242189,-0.00484377 0.0661491,-0.12101 0.139543,-0.181515 0.220223,-0.181515 0.0435518,0 0.0782374,0.0153316 0.104057,0.0459948 0.0241978,0.0290416 0.0391292,0.0746151 0.0447733,0.136721 0.00564405,0.0621266 0.00564405,0.117788 0,0.166984 -0.00564405,0.0492169 -0.0149315,0.12061 -0.0278201,0.214179 -0.00806593,0.0483956 -0.013731,0.0859243 -0.0169532,0.112544 -0.00322216,0.0266197 -0.00644432,0.0592835 -0.00966648,0.0980127 -0.00324322,0.038708 -0.00364336,0.0693712 -0.00122147,0.0919474 0.00242189,0.0225972 0.00846607,0.0387291 0.0181536,0.0484167 0.00322216,0.00482271 0.00886621,0.0072446 0.0169321,0.0072446 0.0145313,0 0.0355069,-0.0153105 0.0629269,-0.0459737 0.0129097,-0.0161319 0.0266197,-0.0338853 0.041151,-0.0532394l0 -0.00242189c0,0 0.000800275,-0.000800275 0.00242189,-0.00242189 0.0758155,-0.109701 0.161319,-0.275084 0.256509,-0.496107 0.00484377,-0.0129097 0.00888727,-0.0233975 0.0121094,-0.0314635z"/>
  <path id="12345678910" class="fil1 str0" d="M1.76665 1.97118c0,0.00162161 0,0.00322216 0,0.00484377 0.00162161,0.00484377 0.00162161,0.00968754 0,0.0145103 -0.00160055,0.00162161 -0.00242189,0.00324322 -0.00242189,0.00484377 0,0 -0.000800275,0.000821335 -0.00242189,0.00242189 0,0.00162161 -0.000800275,0.00242189 -0.00242189,0.00242189 -0.0903469,0.103257 -0.207313,0.154895 -0.3509,0.154895 -0.0629269,0 -0.128676,-0.010909 -0.197247,-0.0326849 -0.0685499,-0.0217759 -0.123011,-0.0435518 -0.16334,-0.0653277 -0.0403297,-0.021797 -0.0968122,-0.0536606 -0.169406,-0.0956118 -0.0516388,-0.0306421 -0.0903469,-0.0532394 -0.116166,-0.0677496 -0.0758366,0.125833 -0.179893,0.190381 -0.312192,0.193603 -0.00322216,0 -0.00644432,0 -0.00968754,0 -0.0613053,0 -0.102835,-0.0149315 -0.124632,-0.0447733 -0.0217759,-0.0298418 -0.0326639,-0.0641273 -0.0326639,-0.102856 0,-0.0532394 0.0177535,-0.0976125 0.0532394,-0.133098 0.0403297,-0.0387291 0.093569,-0.0572829 0.159718,-0.0556612 0.054861,0 0.1081,0.00402244 0.159739,0.0120884 0.0532394,-0.179072 0.079859,-0.427537 0.079859,-0.745372 0,-0.561456 -0.087925,-0.846228 -0.263796,-0.854294 -0.00322216,0 -0.00644432,0 -0.00966648,0 -0.0968122,0 -0.170227,0.0508385 -0.220244,0.152473 -0.0516178,0.112944 -0.0717931,0.250486 -0.060484,0.412626 0.0112881,0.16214 0.0459737,0.280328 0.104057,0.354543 0.0112881,0.0145103 0.00926634,0.0278201 -0.00604418,0.0399295 -0.0153316,0.0120884 -0.0286414,0.010888 -0.0399506,-0.00364336 -0.0629058,-0.0822809 -0.101235,-0.210135 -0.114945,-0.383563 -0.01371,-0.173449 0.00766579,-0.321479 0.0641273,-0.44409 0.0613053,-0.124232 0.152473,-0.186359 0.273484,-0.186359 0.074215,0 0.139143,0.0197752 0.194804,0.0593046 0.0556612,0.0395294 0.102456,0.0980127 0.140364,0.17545 0.0379078,0.0774372 0.0661491,0.173449 0.0847028,0.287994 0.0185537,0.114545 0.0278412,0.247643 0.0278412,0.399316 0,0.312992 -0.027441,0.552569 -0.0822809,0.718752 -0.00646538,0.019354 -0.0129097,0.0379078 -0.0193751,0.0556612 0.0484167,0.0177535 0.114566,0.0475953 0.198447,0.0895466 0.0629269,0.0306632 0.112144,0.0536395 0.14763,0.0689711 0.0354859,0.0153316 0.0855031,0.0306632 0.150052,0.0459737 0.0645275,0.0153316 0.131477,0.0229974 0.200869,0.0229974 0.0838815,0 0.152452,-0.0209756 0.205692,-0.0629269 0.00646538,-0.00484377 0.00968754,-0.0072446 0.00968754,-0.0072446l0.00242189 -0.00242189c0,0 0.000800275,-0.000821335 0.00242189,-0.00242189 0.00160055,0 0.00322216,0 0.00484377,0 0.00160055,0 0.00282202,-0.000400138 0.0036223,-0.00122147 0.000800275,-0.000800275 0.00160055,-0.00120041 0.00242189,-0.00120041 0.000800275,0 0.00202175,0 0.0036223,0 0,0 0.000800275,0 0.00242189,0 0.00162161,0.00160055 0.0040435,0.00242189 0.00726566,0.00242189 0,0 0.000400138,0.000400138 0.00120041,0.00120041 0.000821335,0.000800275 0.00122147,0.00122147 0.00122147,0.00122147 0.00160055,0 0.00242189,0 0.00242189,0 0.00160055,0.00160055 0.00242189,0.00242189 0.00242189,0.00242189 0.00482271,0.00322216 0.00806593,0.0072446 0.00966648,0.0120884zm-1.42542 -0.0314635c0,0.0322637 0.00766579,0.0552611 0.0229974,0.0689711 0.0153105,0.01371 0.0407298,0.0205755 0.0762157,0.0205755 0.0774582,0 0.141185,-0.0645275 0.191203,-0.193603 -0.0484167,-0.0177535 -0.0935901,-0.02742 -0.135541,-0.0290416 -0.00160055,0 -0.00282202,0 -0.0036223,0 -0.000800275,0 -0.00120041,0 -0.00120041,0 -0.0484167,0 -0.0863244,0.01371 -0.113744,0.0411299 -0.0242189,0.0242189 -0.0363072,0.054861 -0.0363072,0.0919685z"/>
  <path id="1234567891011" class="fil1 str0" d="M2.20954 1.35649c0.0112881,-0.0161319 0.0249981,-0.0185537 0.0411299,-0.00726566 0.0161319,0.0112881 0.0185537,0.0250191 0.00726566,0.041151 -0.0483956,0.0661491 -0.116566,0.133899 -0.204491,0.203291 -0.087946,0.0693712 -0.169005,0.107279 -0.24322,0.113723 -0.0209756,0.0371075 -0.046795,0.0693923 -0.0774372,0.0968122 -0.0597047,0.0532394 -0.125854,0.079859 -0.198447,0.079859 -0.0129097,0 -0.0250191,-0.000400138 -0.0363072,-0.00120041 -0.0112881,-0.000821335 -0.0250191,-0.00322216 -0.041151,-0.00726566 -0.0161319,-0.0040435 -0.0314635,-0.0100877 -0.0459737,-0.0181536 -0.0145313,-0.00806593 -0.0294417,-0.0181536 -0.0447733,-0.030242 -0.0153316,-0.0121094 -0.0290416,-0.027441 -0.0411299,-0.0459948 -0.0121094,-0.0185537 -0.0229974,-0.0395294 -0.0326849,-0.0629058 -0.00966648,-0.0233975 -0.0173323,-0.052039 -0.0229974,-0.0859243 -0.00564405,-0.0338853 -0.00846607,-0.0701715 -0.00846607,-0.108901 0,-0.0645275 0.0141312,-0.130677 0.0423514,-0.198447 0.0282413,-0.0677707 0.0726144,-0.127054 0.133119,-0.177872 0.060484,-0.0508175 0.128655,-0.0762367 0.204491,-0.0762367 0.02742,0 0.0536395,0.00604418 0.0786376,0.0181536 0.0250191,0.0121094 0.0488168,0.0310633 0.071393,0.0568617 0.0225972,0.0258194 0.041151,0.0572829 0.0556612,0.0943904l0 0.00242189c0,0 0.000821335,0.000800275 0.00242189,0.00242189l0 0.00242189c0.0177535,0.0532394 0.0266197,0.114545 0.0266197,0.183916 0,0.0790588 -0.0120884,0.150052 -0.0362862,0.212979 0.0613053,-0.0145313 0.127854,-0.0512387 0.199648,-0.110122 0.0717931,-0.0588834 0.128676,-0.118188 0.170627,-0.177872zm-0.409004 0.225067c0.0129097,-0.046795 0.019354,-0.0968122 0.019354,-0.150052 0,-0.0645275 -0.00886621,-0.120189 -0.0266197,-0.166984 -0.0241978,-0.0532394 -0.0556612,-0.079859 -0.0943693,-0.079859 -0.0403507,0 -0.0790588,0.0129097 -0.116166,0.0387291 -0.0371075,0.0257983 -0.0681708,0.0649276 -0.0931689,0.117367 -0.0250191,0.0524391 -0.0375287,0.110922 -0.0375287,0.17545 0,0.0903469 0.0117093,0.16134 0.0351068,0.212979 0.0233975,0.0516178 0.0560614,0.0774372 0.0980127,0.0774372 0.0306421,0 0.060505,-0.0104878 0.0895466,-0.0314635 0.00966648,-0.00644432 0.0185537,-0.01371 0.0266197,-0.0217759 0.00160055,0 0.00242189,-0.000800275 0.00242189,-0.00242189 0,0 0.000800275,-0.000800275 0.00240083,-0.00242189 0.0161529,-0.0161319 0.0306632,-0.033064 0.0435729,-0.0508175 -0.0145313,-0.00968754 -0.0225972,-0.0233975 -0.0241978,-0.041151 -0.00162161,-0.0177324 0.00402244,-0.0338853 0.0169321,-0.0483956 0.0129097,-0.0145103 0.0290416,-0.0233975 0.0483956,-0.0266197 0.00324322,-0.00162161 0.00646538,-0.00162161 0.00968754,0z"/>
  <path id="123456789101112" class="fil1 str0" d="M3.18482 1.34922c0.0161319,-0.0112881 0.030242,-0.00966648 0.0423514,0.00484377 0.0120884,0.0145313 0.0100666,0.0282413 -0.00606524,0.041151 -0.00482271,0.00322216 -0.0145103,0.0104878 -0.0290416,0.0217759 -0.138742,0.1081 -0.264596,0.215379 -0.377519,0.321858 -0.00806593,0.188781 -0.0217759,0.364231 -0.041151,0.526371 -0.019354,0.16214 -0.0500172,0.320258 -0.0919474,0.474332 -0.0419513,0.154074 -0.0927687,0.260974 -0.152473,0.320658 -0.0419513,0.0435729 -0.0887463,0.0653488 -0.140364,0.0653488 -0.0258194,0 -0.0500172,-0.00402244 -0.0725934,-0.0120884 -0.0225972,-0.00808699 -0.0463949,-0.0233975 -0.071393,-0.0459948 -0.0250191,-0.0225762 -0.0451734,-0.0580831 -0.060505,-0.106479 -0.0153316,-0.0483956 -0.0229974,-0.1081 -0.0229974,-0.179093 0,-0.290395 0.158118,-0.605008 0.474332,-0.943819 0.00322216,-0.0806804 0.00564405,-0.162961 0.00726566,-0.246843 -0.0145313,0.0354859 -0.0290416,0.0677496 -0.0435729,0.0967912 -0.00160055,0.00162161 -0.00322216,0.0040435 -0.00482271,0.00726566 -0.0693923,0.125833 -0.151673,0.18876 -0.246864,0.18876 -0.0548399,0 -0.102835,-0.0233975 -0.143986,-0.0701715 -0.041151,-0.046795 -0.0617054,-0.119388 -0.0617054,-0.217822 0,-0.130677 0.0411299,-0.247243 0.123411,-0.349699 0.0822809,-0.102435 0.168605,-0.153674 0.258952,-0.153674 0.0516388,0 0.0927687,0.01371 0.123432,0.041151 0.0129097,-0.0355069 0.0371075,-0.0556612 0.0725934,-0.060505 0.0258194,-0.00322216 0.0483956,0.00322216 0.0677707,0.019354 0.0225762,0.0193751 0.0346856,0.0484167 0.0362862,0.0871247 0.00324322,0.140364 0.00162161,0.299282 -0.00482271,0.476753 0.101635,-0.0951906 0.214579,-0.190381 0.338811,-0.285572 0.0145103,-0.0112881 0.0233765,-0.0185537 0.0266197,-0.0217759zm-0.7817 1.63597c0.116166,-0.124232 0.192003,-0.475953 0.227489,-1.05514 -0.274263,0.306526 -0.411405,0.590498 -0.411405,0.851851 0,0.0225972 0.000800275,0.0435729 0.00242189,0.0629269 0.00644432,0.0483956 0.0197542,0.090747 0.0399295,0.127054 0.0201754,0.0363072 0.0407298,0.0544608 0.0617054,0.0544608 0.027441,0 0.0540607,-0.013731 0.079859,-0.041151zm0.239598 -1.55854c0,-0.00160055 0.000400138,-0.00402244 0.00120041,-0.0072446 0.000821335,-0.00324322 0.00122147,-0.00484377 0.00122147,-0.00484377 0,-0.0597047 0,-0.110522 0,-0.152473 -0.019354,-0.0257983 -0.0508175,-0.033064 -0.0943904,-0.0217759 -0.054861,0.0145313 -0.106479,0.054861 -0.154874,0.12101 -0.0484167,0.0661491 -0.0726144,0.150852 -0.0726144,0.254108 0,0.0564615 0.00846607,0.100435 0.0254193,0.131898 0.0169321,0.0314424 0.0342855,0.0471741 0.052039,0.0471741 0.0161319,0 0.0334641,-0.00684446 0.0520179,-0.0205544 0.0185537,-0.013731 0.0359071,-0.030263 0.052039,-0.0496171 0.0161319,-0.019354 0.0306421,-0.041151 0.0435518,-0.0653488 0,0 0,-0.000800275 0,-0.00242189 0.027441,-0.0516178 0.0589045,-0.128255 0.0943904,-0.229911z"/>
  <path id="12345678910111213" class="fil1 str0" d="M3.73661 1.35649c0.00966648,-0.0161319 0.0229763,-0.019354 0.0399295,-0.00968754 0.0169321,0.00968754 0.0205544,0.0225972 0.010888,0.0387291l-0.0169532 0.0290416c-0.0838815,0.141965 -0.150852,0.245221 -0.200869,0.30977 -0.00160055,0.00160055 -0.00240083,0.00322216 -0.00240083,0.00484377l-0.00484377 0.00242189c0,0 -0.000821335,0.000800275 -0.00242189,0.00242189 -0.0806804,0.100013 -0.152473,0.150031 -0.2154,0.150031 -0.0580621,0 -0.104857,-0.0241978 -0.140364,-0.0725934 -0.0354859,-0.0500172 -0.0564615,-0.123432 -0.0629058,-0.220223 -0.00646538,-0.0968122 -0.0040435,-0.186359 0.0072446,-0.26864 0.0113092,-0.0822809 0.0250191,-0.14843 0.041151,-0.198447 0.00806593,-0.0225762 0.0237977,-0.0379078 0.0471952,-0.0459737 0.0233975,-0.00806593 0.0463738,-0.00888727 0.0689711,-0.00242189 0.0225762,0.00644432 0.0399295,0.019354 0.0520179,0.0387291 0.0121094,0.019354 0.0141312,0.0427515 0.00606524,0.0701715 -0.0161319,0.0629269 -0.0290416,0.130677 -0.0387291,0.203291 -0.00968754,0.0725934 -0.0120884,0.144387 -0.00726566,0.215379 0.00484377,0.0709928 0.0193751,0.12181 0.0435729,0.152473 0.0161319,0.019354 0.0379078,0.0290416 0.0653488,0.0290416 0.0145103,-0.00484377 0.0451734,-0.0346856 0.0919474,-0.0895466l0.00242189 -0.00484377c0.0500172,-0.0629269 0.116166,-0.164562 0.198447,-0.304926l0.0169532 -0.0290416zm-0.331567 -0.39085c-0.0241978,0.00726566 -0.0512176,0.00726566 -0.0810595,0 -0.0298629,-0.0072446 -0.0540607,-0.019354 -0.0726144,-0.0362862 -0.0185537,-0.0169532 -0.0257983,-0.0338853 -0.0217759,-0.0508385 0.0040435,-0.0169321 0.0177535,-0.0290416 0.041151,-0.0362862 0.0233765,-0.00726566 0.0504173,-0.00766579 0.0810595,-0.00122147 0.0306632,0.00646538 0.0552611,0.0185537 0.0738149,0.0363072 0.0185537,0.0177535 0.0258194,0.0350858 0.0217759,0.052039 -0.00402244,0.0169321 -0.0181536,0.0290416 -0.0423514,0.0362862z"/>
  <path id="1234567891011121314" class="fil1 str0" d="M4.78933 1.35891c0.00806593,-0.0177535 0.0209756,-0.0225972 0.0387291,-0.0145313 0.0177324,0.00806593 0.0225762,0.0209756 0.0145103,0.0387291 -0.00162161,0.00484377 -0.00564405,0.0145103 -0.0120884,0.0290416 -0.101656,0.233933 -0.191203,0.405761 -0.26864,0.515483 -0.00162161,0.00160055 -0.00242189,0.00322216 -0.00242189,0.00482271 -0.0112881,0.0177535 -0.0233975,0.0330851 -0.0363072,0.0459948 0,0 -0.000800275,0.00160055 -0.00240083,0.00484377 -0.0580831,0.0693712 -0.112144,0.104057 -0.162161,0.104057 -0.0371075,0 -0.0677496,-0.0129097 -0.0919474,-0.0387291 -0.0338853,-0.0371075 -0.0512387,-0.104857 -0.052039,-0.20327 -0.000800275,-0.0984339 0.00686552,-0.195225 0.0229974,-0.290416 0.00322216,-0.0338853 0.00564405,-0.0597047 0.0072446,-0.0774372 0.00162161,-0.0177535 0.00364336,-0.0415511 0.00606524,-0.071393 0.00242189,-0.0298629 0.0036223,-0.0536606 0.0036223,-0.071393 0,-0.0177535 0,-0.0371075 0,-0.0580831 0,-0.0209756 -0.00202175,-0.0379288 -0.00604418,-0.0508175 -0.0040435,-0.0129097 -0.0092874,-0.0225972 -0.0157317,-0.0290416 -0.00322216,-0.00484377 -0.00888727,-0.00726566 -0.0169532,-0.00726566 -0.0371075,0 -0.074215,0.0363072 -0.111322,0.108901 -0.00160055,0.00484377 -0.00402244,0.00886621 -0.0072446,0.0121094 -0.0629269,0.133899 -0.105678,0.31137 -0.128276,0.532415 0,0.0177324 -0.00806593,0.0298418 -0.0241978,0.0362862 -0.00806593,0.00324322 -0.0169321,0.00484377 -0.0266197,0.00484377 -0.0241978,0 -0.0492169,-0.00806593 -0.0750153,-0.0241978 -0.0258194,-0.0161319 -0.0451734,-0.0371075 -0.0580831,-0.0629269 -0.0387291,-0.0806593 -0.060505,-0.193603 -0.0653488,-0.338811 -0.00484377,-0.145208 0.00726566,-0.25653 0.0363072,-0.333967 0.00644432,-0.0225762 0.0213758,-0.0379078 0.0447733,-0.0459737 0.0233765,-0.00806593 0.0463738,-0.00888727 0.0689711,-0.00242189 0.0225762,0.00644432 0.0399295,0.019354 0.0520179,0.0387291 0.0121094,0.019354 0.0149315,0.0427515 0.00848713,0.0701715 -0.0435729,0.180694 -0.0443732,0.354943 -0.00242189,0.522727 0.0209756,-0.132277 0.0491959,-0.246843 0.0847028,-0.343634 0.00160055,0 0.00242189,-0.000821335 0.00242189,-0.00242189 0.0145103,-0.0403297 0.0306421,-0.0758366 0.0483956,-0.106479 0,-0.00162161 0.000800275,-0.00324322 0.00242189,-0.00484377 0.0661491,-0.12101 0.139543,-0.181515 0.220223,-0.181515 0.0435518,0 0.0782374,0.0153316 0.104057,0.0459948 0.0241978,0.0290416 0.0391292,0.0746151 0.0447733,0.136721 0.00564405,0.0621266 0.00564405,0.117788 0,0.166984 -0.00564405,0.0492169 -0.0149315,0.12061 -0.0278201,0.214179 -0.00806593,0.0483956 -0.013731,0.0859243 -0.0169532,0.112544 -0.00322216,0.0266197 -0.00644432,0.0592835 -0.00966648,0.0980127 -0.00324322,0.038708 -0.00364336,0.0693712 -0.00122147,0.0919474 0.00242189,0.0225972 0.00846607,0.0387291 0.0181536,0.0484167 0.00322216,0.00482271 0.00886621,0.0072446 0.0169321,0.0072446 0.0145313,0 0.0355069,-0.0153105 0.0629269,-0.0459737 0.0129097,-0.0161319 0.0266197,-0.0338853 0.041151,-0.0532394l0 -0.00242189c0,0 0.000800275,-0.000800275 0.00242189,-0.00242189 0.0758155,-0.109701 0.161319,-0.275084 0.256509,-0.496107 0.00484377,-0.0129097 0.00888727,-0.0233975 0.0121094,-0.0314635z"/>
  <path id="123456789101112131415" class="fil1 str0" d="M7.47805 1.35649c0.00966648,-0.0161319 0.0229763,-0.019354 0.0399295,-0.00968754 0.0169321,0.00968754 0.0205755,0.0225972 0.010888,0.0387291 -0.0290416,0.0516178 -0.0661491,0.150852 -0.111322,0.29766 -0.0145313,0.0451734 -0.0254193,0.0794589 -0.0326639,0.102856 -0.00726566,0.0233975 -0.0177535,0.0536395 -0.0314635,0.090747 -0.01371,0.0371075 -0.0266197,0.0657489 -0.0387291,0.0859243 -0.0121094,0.0201754 -0.0262195,0.0407298 -0.0423514,0.0617054 -0.0161319,0.0209756 -0.0334852,0.0363072 -0.052039,0.0459948 -0.0185537,0.00966648 -0.0383079,0.0145103 -0.0592835,0.0145103l0 0 -0.00484377 0c-0.101635,0 -0.179493,-0.0314635 -0.233533,-0.0943904 -0.0540396,-0.0629058 -0.0883251,-0.16294 -0.102856,-0.300082 -0.00644432,-0.0500172 -0.0145103,-0.180694 -0.0241978,-0.392051 -0.00484377,-0.100034 -0.00726566,-0.153274 -0.00726566,-0.159718 -0.127454,0.00644432 -0.244421,0.0177324 -0.3509,0.0338643 -0.0161319,0.0871247 -0.0326849,0.164983 -0.0496171,0.233554 -0.0169321,0.068571 -0.0367074,0.139143 -0.0592835,0.211757 -0.0225972,0.0725934 -0.0475953,0.13552 -0.0750363,0.18876 -0.02742,0.0532394 -0.057683,0.102035 -0.090747,0.146408 -0.033064,0.0443732 -0.0709928,0.0774372 -0.113744,0.0992341 -0.0427515,0.0217759 -0.0883251,0.0326639 -0.136742,0.0326639 -0.0419302,0 -0.0826811,-0.00644432 -0.12221,-0.019354 -0.0395294,-0.0129097 -0.0762367,-0.0330851 -0.110101,-0.060505 -0.0338853,-0.02742 -0.0613053,-0.0653488 -0.0822809,-0.113744 -0.0209756,-0.0483956 -0.0314635,-0.104878 -0.0314635,-0.169406 0,-0.280728 0.223445,-0.471109 0.670357,-0.571144 0.0500172,-0.0112881 0.100835,-0.0209756 0.152452,-0.0290416 0.0113092,-0.0580831 0.0266407,-0.141965 0.0459948,-0.251687 0.0483956,-0.282329 0.0887253,-0.470288 0.12101,-0.563878 0,0 0,-0.000800275 0,-0.00242189 0,0 0.000400138,-0.000400138 0.00120041,-0.00120041 0.000800275,-0.000800275 0.00120041,-0.00122147 0.00120041,-0.00122147 0.0451734,-0.130677 0.101656,-0.196025 0.169406,-0.196025 0.0290416,0 0.054861,0.0100877 0.0774582,0.030263 0.0225762,0.0201543 0.0415301,0.054861 0.0568617,0.104057 0.0153316,0.0492169 0.0278412,0.0964121 0.0375076,0.141586 0.00968754,0.0451734 0.0181536,0.111723 0.0254193,0.199648 0.00726566,0.087925 0.0125096,0.159318 0.0157317,0.214179 0.00322216,0.054861 0.00726566,0.137942 0.0120884,0.249265 0,0.00644432 0.000821335,0.0161319 0.00242189,0.0290416 0.046795,-0.00162161 0.104878,-0.00242189 0.174249,-0.00242189 0.00806593,0 0.0149315,0.00282202 0.0205755,0.00846607 0.00564405,0.00564405 0.00846607,0.0125096 0.00846607,0.0205755 0,0.00806593 -0.00282202,0.0149315 -0.00846607,0.0205755 -0.00564405,0.00564405 -0.0125096,0.00846607 -0.0205755,0.00846607 -0.0677496,0 -0.125032,0.000800275 -0.171828,0.00242189 0.00322216,0.0839025 0.00686552,0.155296 0.010888,0.214179 0.0040435,0.0588834 0.0092874,0.126254 0.0157317,0.202069 0.00646538,0.0758366 0.0145313,0.139564 0.0241978,0.191182 0.00968754,0.0516388 0.0213968,0.100835 0.0351068,0.14763 0.01371,0.046795 0.030242,0.0818808 0.049596,0.105278 0.0193751,0.0233975 0.0419513,0.0350858 0.0677707,0.0350858 0.0145313,0 0.0286414,-0.00444363 0.0423514,-0.0133098 0.01371,-0.00886621 0.0266197,-0.0229974 0.0387291,-0.0423514 0.0120884,-0.019354 0.0229763,-0.0383079 0.0326639,-0.0568617 0.00968754,-0.0185537 0.0205755,-0.0443732 0.0326639,-0.0774582 0.0121094,-0.033064 0.0213758,-0.0600838 0.0278412,-0.0810595 0.00644432,-0.0209756 0.0153316,-0.0508175 0.0266197,-0.0895466 0.046795,-0.151652 0.0855031,-0.254909 0.116166,-0.30977zm-1.5658 0.672779c0.0484167,0 0.0943904,-0.0161319 0.137942,-0.0483956 0.0435729,-0.0322637 0.0806804,-0.0738149 0.111344,-0.124632 0.0306421,-0.0508385 0.0600838,-0.114966 0.0883251,-0.192403 0.0282413,-0.0774372 0.0516178,-0.153274 0.0701715,-0.227489 0.0185537,-0.074215 0.0375287,-0.158918 0.0568827,-0.254108 -0.0451734,0.00646538 -0.087925,0.0145313 -0.128276,0.0241978 -0.416248,0.0935901 -0.624362,0.265418 -0.624362,0.515483 0,0.104878 0.0282202,0.182315 0.0847028,0.232333 0.0564615,0.0500172 0.124232,0.0750153 0.20327,0.0750153zm0.537258 -0.9172c0.103257,-0.0145313 0.214579,-0.0250191 0.333967,-0.0314635 -0.00966648,-0.196847 -0.0201543,-0.355764 -0.0314424,-0.476753 -0.0225972,-0.230711 -0.0475953,-0.358186 -0.0750363,-0.382384 -0.0177324,0.00162161 -0.0395294,0.0363072 -0.0653277,0.104078l-0.00242189 0c-0.0306632,0.0919474 -0.0701926,0.276685 -0.118588,0.554191 -0.0177535,0.104857 -0.0314635,0.182315 -0.041151,0.232333z"/>
  <path id="12345678910111213141516" class="fil1 str0" d="M8.54772 0.262617c0,0.0306421 -0.00484377,0.0669493 -0.0145313,0.108901l0 0.00242189c-0.0257983,0.1081 -0.0822809,0.249265 -0.169406,0.423514 -0.0806593,0.158118 -0.171006,0.314613 -0.271041,0.469488 0,0.116166 0.0036223,0.217801 0.010888,0.304926 0.00726566,0.0871247 0.0149315,0.152874 0.0229974,0.197247 0.00806593,0.0443732 0.0177535,0.079859 0.0290416,0.106479 0.0112881,0.0266197 0.0209756,0.0427515 0.0290416,0.0483956 0.00806593,0.00564405 0.0153316,0.00846607 0.0217759,0.00846607 0.00646538,0 0.0177535,-0.0120884 0.0338853,-0.0362862 0,-0.00162161 0,-0.00242189 0,-0.00242189 0.00484377,-0.00806593 0.00968754,-0.0161319 0.0145103,-0.0241978 0,0 0.000421197,-0.000400138 0.00122147,-0.00122147 0.000800275,-0.000800275 0.00120041,-0.00202175 0.00120041,-0.0036223l0.00242189 -0.00726566c0.00646538,-0.00968754 0.0121094,-0.0201543 0.0169532,-0.0314635 0.0419302,-0.0838815 0.0992131,-0.215379 0.171806,-0.394473 0,-0.00322216 0.00364336,-0.01371 0.010909,-0.0314635 0.0072446,-0.0177324 0.0124885,-0.0306421 0.0157317,-0.038708 0.00806593,-0.0177535 0.0209546,-0.0229974 0.038708,-0.0157317 0.0177535,0.00726566 0.0233975,0.0197542 0.0169532,0.0375076 -0.00646538,0.0112881 -0.0161529,0.0346856 -0.0290416,0.0701926 -0.0839025,0.209735 -0.150052,0.358165 -0.198447,0.44529 0,0.00160055 0,0.00242189 0,0.00242189 -0.00484377,0.00966648 -0.00968754,0.0177324 -0.0145313,0.0241978 -0.0613053,0.1081 -0.116166,0.16214 -0.164562,0.16214 -0.0822809,0 -0.141164,-0.0903469 -0.176671,-0.271041 -0.0112881,-0.0645485 -0.0209756,-0.139564 -0.0290416,-0.225067 -0.019354,0.0419302 -0.0395294,0.079859 -0.060505,0.113744 -0.0806593,0.119388 -0.172628,0.179072 -0.275884,0.179072 -0.0241978,0 -0.0479955,-0.00524391 -0.071393,-0.0157317 -0.0233975,-0.0104878 -0.0455736,-0.0262195 -0.0665492,-0.0471952 -0.0209756,-0.0209546 -0.0375076,-0.0508175 -0.0496171,-0.0895255 -0.0120884,-0.0387291 -0.0181326,-0.0839025 -0.0181326,-0.135541 0,-0.130677 0.043952,-0.250865 0.131877,-0.360587 0.087946,-0.109701 0.177071,-0.164562 0.267418,-0.164562 0.0564826,0 0.100835,0.0121094 0.133119,0.0363072 0.0129097,-0.259752 0.0596837,-0.482397 0.140364,-0.667935 0.0483956,-0.1081 0.103257,-0.190802 0.164562,-0.248064 0.0613053,-0.0572829 0.125833,-0.0859243 0.193603,-0.0859243 0.0580831,0 0.0984128,0.0225972 0.12101,0.0677707 0.0112881,0.0225972 0.0177324,0.0508175 0.019354,0.0847028 0,0.00162161 0,0.00242189 0,0.00242189 0,0 0,0.000800275 0,0.00242189zm-0.764747 1.44477c0.0451734,-0.0596837 0.087925,-0.141965 0.128276,-0.246843 -0.00324322,-0.074215 -0.00484377,-0.152452 -0.00484377,-0.234733 0,-0.0145313 0,-0.027441 0,-0.0387291 -0.00162161,-0.00322216 -0.00322216,-0.00564405 -0.00484377,-0.00726566 -0.00484377,-0.00644432 -0.0104878,-0.0129097 -0.0169321,-0.019354 -0.0129097,-0.00646538 -0.0298629,-0.00726566 -0.0508385,-0.00242189 -0.0629058,0.0177535 -0.124632,0.071393 -0.185137,0.16094 -0.060484,0.0895466 -0.090747,0.18836 -0.090747,0.29646 0,0.0548399 0.010888,0.0984128 0.0326639,0.130677 0.021797,0.0322637 0.0431727,0.0483956 0.0641484,0.0483956 0.0371075,0 0.079859,-0.0290416 0.128255,-0.0871247zm0.704242 -1.41089c0.00484377,-0.0387291 0.000800275,-0.0661491 -0.0120884,-0.0822809 -0.00646538,-0.00808699 -0.0153316,-0.0121094 -0.0266407,-0.0121094 -0.019354,0 -0.0427515,0.0129097 -0.0701715,0.0387291 -0.02742,0.0257983 -0.057683,0.0657279 -0.090747,0.119789 -0.0330851,0.0540396 -0.063327,0.117367 -0.0907681,0.189981 -0.02742,0.0725934 -0.0512176,0.16254 -0.071393,0.269819 -0.0201543,0.1073 -0.0310423,0.220644 -0.0326639,0.340033 0.0855031,-0.137142 0.164962,-0.279528 0.238377,-0.427136 0.0734147,-0.14763 0.12141,-0.270662 0.144007,-0.369074 0,-0.00322216 0.000800275,-0.00564405 0.00240083,-0.00726566 0.00324322,-0.0128886 0.00566511,-0.0249981 0.00726566,-0.0362862 0.00162161,-0.00806593 0.00242189,-0.0161319 0.00242189,-0.0241978z"/>
  <path id="1234567891011121314151617" class="fil1 str0" d="M9.93201 1.36133c0.00806593,-0.0177535 0.0209546,-0.0229974 0.038708,-0.0157317 0.0177535,0.00726566 0.0225972,0.0197542 0.0145313,0.0375076 -0.00162161,0.00484377 -0.00564405,0.0145103 -0.0121094,0.0290416 -0.101635,0.235555 -0.191182,0.408182 -0.268619,0.517904 0,0 -0.000821335,0.000800275 -0.00242189,0.00240083 -0.0113092,0.0177535 -0.0233975,0.0330851 -0.0363072,0.0459948 0,0.00160055 -0.000800275,0.00322216 -0.00242189,0.00484377 -0.0580831,0.0693712 -0.112123,0.104057 -0.16214,0.104057 -0.0371075,0 -0.0669493,-0.0133098 -0.0895466,-0.0399295 -0.0225972,-0.0266197 -0.0363072,-0.0693712 -0.041151,-0.128276 -0.00482271,-0.0588834 -0.00442257,-0.112123 0.00122147,-0.159718 0.00564405,-0.0475953 0.0157317,-0.116566 0.030242,-0.206913 0.00484377,-0.0322637 0.00848713,-0.0572829 0.010888,-0.0750153 0.00242189,-0.0177535 0.00566511,-0.0419513 0.00968754,-0.0726144 0.0040435,-0.0306421 0.00646538,-0.0548399 0.00726566,-0.0725934 0.000800275,-0.0177535 0.00120041,-0.0367074 0.00120041,-0.0568827 0,-0.0201543 -0.00160055,-0.0367074 -0.00482271,-0.049596 -0.00324322,-0.0129097 -0.00726566,-0.0225972 -0.0121094,-0.0290416 -0.00484377,-0.00484377 -0.0104878,-0.00726566 -0.0169321,-0.00726566 -0.0435729,0 -0.0923686,0.0568617 -0.146429,0.170606 -0.0540396,0.113744 -0.102856,0.260974 -0.146408,0.441668l0 0.00242189c-0.00322216,0.0177535 -0.0129097,0.0330851 -0.0290416,0.0459737 -0.0161319,0.0129097 -0.0338853,0.0185537 -0.0532394,0.0169532 -0.00968754,-0.00162161 -0.0185537,-0.00444363 -0.0266197,-0.00846607 -0.00806593,-0.0040435 -0.0169532,-0.010909 -0.0266197,-0.0205755 -0.00968754,-0.00968754 -0.0173533,-0.0262195 -0.0229974,-0.0496171 -0.00564405,-0.0233975 -0.00766579,-0.0512176 -0.00604418,-0.0834813 0.0129097,-0.283971 -0.00564405,-0.452556 -0.0556612,-0.505795 -0.00806593,-0.00646538 -0.0161319,-0.00968754 -0.0241978,-0.00968754 -0.0242189,0 -0.0540607,0.0346856 -0.0895466,0.104057 -0.0322637,0.074215 -0.0564826,0.16134 -0.0726144,0.261374 -0.0161319,0.100034 -0.0217759,0.192803 -0.0169321,0.278306 0,0.00322216 0,0.00564405 0,0.00726566 0,0 0,0.000800275 0,0.00242189 0.00162161,0.00806593 0,0.0145103 -0.00484377,0.019354 -0.00484377,0.00806593 -0.0112881,0.01371 -0.019354,0.0169321 -0.00806593,0.00324322 -0.0169532,0.00484377 -0.0266197,0.00484377 -0.0161319,0 -0.0326849,-0.00322216 -0.0496171,-0.00966648 -0.0169321,-0.00646538 -0.033064,-0.0165531 -0.0483956,-0.030263 -0.0153316,-0.01371 -0.0270198,-0.0294417 -0.0350858,-0.0471952 -0.0387291,-0.0806593 -0.060505,-0.193603 -0.0653488,-0.338811 -0.00484377,-0.145208 0.00726566,-0.25653 0.0363072,-0.333967 0.00644432,-0.0225762 0.0213758,-0.0379078 0.0447522,-0.0459737 0.0233975,-0.00806593 0.0463949,-0.00888727 0.0689921,-0.00242189 0.0225762,0.00644432 0.0399295,0.019354 0.0520179,0.0387291 0.0121094,0.019354 0.0149315,0.0427515 0.00846607,0.0701715 -0.0371075,0.156496 -0.0419302,0.311391 -0.0145103,0.464665 0.0145103,-0.143607 0.0443732,-0.26864 0.0895466,-0.375118 0,-0.00162161 0.000800275,-0.00322216 0.00242189,-0.00484377 0,0 0.000800275,-0.00162161 0.00242189,-0.00484377 0.0241978,-0.054861 0.0508175,-0.0984128 0.079859,-0.130677 0.0435518,-0.0451734 0.0903469,-0.0677707 0.140364,-0.0677707 0.0371075,0 0.0693712,0.0153316 0.0967912,0.0459948 0.0580831,0.0645275 0.0855242,0.201669 0.0822809,0.411405 0.100034,-0.303325 0.2154,-0.454978 0.346077,-0.454978 0.0435729,0 0.0774372,0.0153316 0.101635,0.0459948 0.0242189,0.0290416 0.0379288,0.0746151 0.041151,0.136721 0.00322216,0.0621266 0.00120041,0.117788 -0.00604418,0.166984 -0.00726566,0.0492169 -0.0197752,0.12061 -0.0375076,0.214179 -0.00968754,0.0500172 -0.0169532,0.0883251 -0.021797,0.114966 -0.00484377,0.0266197 -0.00966648,0.0592835 -0.0145103,0.0980127 -0.00484377,0.038708 -0.00646538,0.0693712 -0.00484377,0.0919474 0.00162161,0.0225972 0.00644432,0.0379288 0.0145103,0.0459948 0.00324322,0.00482271 0.00888727,0.0072446 0.0169532,0.0072446 0.0145103,0 0.0354859,-0.0153105 0.0629269,-0.0459737 0.0129097,-0.0161319 0.0266197,-0.0338853 0.0411299,-0.0532394 0,0 0,-0.000800275 0,-0.00242189 0,0 0.000800275,-0.000800275 0.00242189,-0.00242189 0.0758366,-0.109701 0.16134,-0.275084 0.25653,-0.496107 0.00162161,-0.00322216 0.00322216,-0.00726566 0.00484377,-0.0121094 0.00160055,-0.00484377 0.00322216,-0.00846607 0.00484377,-0.010888 0.00160055,-0.00242189 0.00242189,-0.00444363 0.00242189,-0.00604418z"/>
  <path id="123456789101112131415161718" class="fil1 str0" d="M10.4935 1.35649c0.00966648,-0.0161319 0.0229763,-0.019354 0.0399295,-0.00968754 0.0169321,0.00968754 0.0205544,0.0225972 0.010888,0.0387291l-0.0169532 0.0290416c-0.0838815,0.141965 -0.150852,0.245221 -0.200869,0.30977 -0.00160055,0.00160055 -0.00240083,0.00322216 -0.00240083,0.00484377l-0.00484377 0.00242189c0,0 -0.000821335,0.000800275 -0.00242189,0.00242189 -0.0806804,0.100013 -0.152473,0.150031 -0.2154,0.150031 -0.0580621,0 -0.104857,-0.0241978 -0.140364,-0.0725934 -0.0354859,-0.0500172 -0.0564615,-0.123432 -0.0629058,-0.220223 -0.00646538,-0.0968122 -0.0040435,-0.186359 0.0072446,-0.26864 0.0113092,-0.0822809 0.0250191,-0.14843 0.041151,-0.198447 0.00806593,-0.0225762 0.0237977,-0.0379078 0.0471952,-0.0459737 0.0233975,-0.00806593 0.0463738,-0.00888727 0.0689711,-0.00242189 0.0225762,0.00644432 0.0399295,0.019354 0.0520179,0.0387291 0.0121094,0.019354 0.0141312,0.0427515 0.00606524,0.0701715 -0.0161319,0.0629269 -0.0290416,0.130677 -0.0387291,0.203291 -0.00968754,0.0725934 -0.0120884,0.144387 -0.00726566,0.215379 0.00484377,0.0709928 0.0193751,0.12181 0.0435729,0.152473 0.0161319,0.019354 0.0379078,0.0290416 0.0653488,0.0290416 0.0145103,-0.00484377 0.0451734,-0.0346856 0.0919474,-0.0895466l0.00242189 -0.00484377c0.0500172,-0.0629269 0.116166,-0.164562 0.198447,-0.304926l0.0169532 -0.0290416zm-0.331567 -0.39085c-0.0241978,0.00726566 -0.0512176,0.00726566 -0.0810595,0 -0.0298629,-0.0072446 -0.0540607,-0.019354 -0.0726144,-0.0362862 -0.0185537,-0.0169532 -0.0257983,-0.0338853 -0.0217759,-0.0508385 0.0040435,-0.0169321 0.0177535,-0.0290416 0.041151,-0.0362862 0.0233765,-0.00726566 0.0504173,-0.00766579 0.0810595,-0.00122147 0.0306632,0.00646538 0.0552611,0.0185537 0.0738149,0.0363072 0.0185537,0.0177535 0.0258194,0.0350858 0.0217759,0.052039 -0.00402244,0.0169321 -0.0181536,0.0290416 -0.0423514,0.0362862z"/>
  <path id="12345678910111213141516171819" class="fil1 str0" d="M11.5462 1.35891c0.00806593,-0.0177535 0.0209756,-0.0225972 0.0387291,-0.0145313 0.0177324,0.00806593 0.0225762,0.0209756 0.0145103,0.0387291 -0.00162161,0.00484377 -0.00564405,0.0145103 -0.0120884,0.0290416 -0.101656,0.233933 -0.191203,0.405761 -0.26864,0.515483 -0.00162161,0.00160055 -0.00242189,0.00322216 -0.00242189,0.00482271 -0.0112881,0.0177535 -0.0233975,0.0330851 -0.0363072,0.0459948 0,0 -0.000800275,0.00160055 -0.00240083,0.00484377 -0.0580831,0.0693712 -0.112144,0.104057 -0.162161,0.104057 -0.0371075,0 -0.0677496,-0.0129097 -0.0919474,-0.0387291 -0.0338853,-0.0371075 -0.0512387,-0.104857 -0.052039,-0.20327 -0.000800275,-0.0984339 0.00686552,-0.195225 0.0229974,-0.290416 0.00322216,-0.0338853 0.00564405,-0.0597047 0.0072446,-0.0774372 0.00162161,-0.0177535 0.00364336,-0.0415511 0.00606524,-0.071393 0.00242189,-0.0298629 0.0036223,-0.0536606 0.0036223,-0.071393 0,-0.0177535 0,-0.0371075 0,-0.0580831 0,-0.0209756 -0.00202175,-0.0379288 -0.00604418,-0.0508175 -0.0040435,-0.0129097 -0.0092874,-0.0225972 -0.0157317,-0.0290416 -0.00322216,-0.00484377 -0.00888727,-0.00726566 -0.0169532,-0.00726566 -0.0371075,0 -0.074215,0.0363072 -0.111322,0.108901 -0.00160055,0.00484377 -0.00402244,0.00886621 -0.0072446,0.0121094 -0.0629269,0.133899 -0.105678,0.31137 -0.128276,0.532415 0,0.0177324 -0.00806593,0.0298418 -0.0241978,0.0362862 -0.00806593,0.00324322 -0.0169321,0.00484377 -0.0266197,0.00484377 -0.0241978,0 -0.0492169,-0.00806593 -0.0750153,-0.0241978 -0.0258194,-0.0161319 -0.0451734,-0.0371075 -0.0580831,-0.0629269 -0.0387291,-0.0806593 -0.060505,-0.193603 -0.0653488,-0.338811 -0.00484377,-0.145208 0.00726566,-0.25653 0.0363072,-0.333967 0.00644432,-0.0225762 0.0213758,-0.0379078 0.0447733,-0.0459737 0.0233765,-0.00806593 0.0463738,-0.00888727 0.0689711,-0.00242189 0.0225762,0.00644432 0.0399295,0.019354 0.0520179,0.0387291 0.0121094,0.019354 0.0149315,0.0427515 0.00848713,0.0701715 -0.0435729,0.180694 -0.0443732,0.354943 -0.00242189,0.522727 0.0209756,-0.132277 0.0491959,-0.246843 0.0847028,-0.343634 0.00160055,0 0.00242189,-0.000821335 0.00242189,-0.00242189 0.0145103,-0.0403297 0.0306421,-0.0758366 0.0483956,-0.106479 0,-0.00162161 0.000800275,-0.00324322 0.00242189,-0.00484377 0.0661491,-0.12101 0.139543,-0.181515 0.220223,-0.181515 0.0435518,0 0.0782374,0.0153316 0.104057,0.0459948 0.0241978,0.0290416 0.0391292,0.0746151 0.0447733,0.136721 0.00564405,0.0621266 0.00564405,0.117788 0,0.166984 -0.00564405,0.0492169 -0.0149315,0.12061 -0.0278201,0.214179 -0.00806593,0.0483956 -0.013731,0.0859243 -0.0169532,0.112544 -0.00322216,0.0266197 -0.00644432,0.0592835 -0.00966648,0.0980127 -0.00324322,0.038708 -0.00364336,0.0693712 -0.00122147,0.0919474 0.00242189,0.0225972 0.00846607,0.0387291 0.0181536,0.0484167 0.00322216,0.00482271 0.00886621,0.0072446 0.0169321,0.0072446 0.0145313,0 0.0355069,-0.0153105 0.0629269,-0.0459737 0.0129097,-0.0161319 0.0266197,-0.0338853 0.041151,-0.0532394l0 -0.00242189c0,0 0.000800275,-0.000800275 0.00242189,-0.00242189 0.0758155,-0.109701 0.161319,-0.275084 0.256509,-0.496107 0.00484377,-0.0129097 0.00888727,-0.0233975 0.0121094,-0.0314635z"/>
  <path class="fil0" d="M1.76665 1.97118c0,0.00162161 0,0.00322216 0,0.00484377 0.00162161,0.00484377 0.00162161,0.00968754 0,0.0145103 -0.00160055,0.00162161 -0.00242189,0.00324322 -0.00242189,0.00484377 0,0 -0.000800275,0.000821335 -0.00242189,0.00242189 0,0.00162161 -0.000800275,0.00242189 -0.00242189,0.00242189 -0.0903469,0.103257 -0.207313,0.154895 -0.3509,0.154895 -0.0629269,0 -0.128676,-0.010909 -0.197247,-0.0326849 -0.0685499,-0.0217759 -0.123011,-0.0435518 -0.16334,-0.0653277 -0.0403297,-0.021797 -0.0968122,-0.0536606 -0.169406,-0.0956118 -0.0516388,-0.0306421 -0.0903469,-0.0532394 -0.116166,-0.0677496 -0.0758366,0.125833 -0.179893,0.190381 -0.312192,0.193603 -0.00322216,0 -0.00644432,0 -0.00968754,0 -0.0613053,0 -0.102835,-0.0149315 -0.124632,-0.0447733 -0.0217759,-0.0298418 -0.0326639,-0.0641273 -0.0326639,-0.102856 0,-0.0532394 0.0177535,-0.0976125 0.0532394,-0.133098 0.0403297,-0.0387291 0.093569,-0.0572829 0.159718,-0.0556612 0.054861,0 0.1081,0.00402244 0.159739,0.0120884 0.0532394,-0.179072 0.079859,-0.427537 0.079859,-0.745372 0,-0.561456 -0.087925,-0.846228 -0.263796,-0.854294 -0.00322216,0 -0.00644432,0 -0.00966648,0 -0.0968122,0 -0.170227,0.0508385 -0.220244,0.152473 -0.0516178,0.112944 -0.0717931,0.250486 -0.060484,0.412626 0.0112881,0.16214 0.0459737,0.280328 0.104057,0.354543 0.0112881,0.0145103 0.00926634,0.0278201 -0.00604418,0.0399295 -0.0153316,0.0120884 -0.0286414,0.010888 -0.0399506,-0.00364336 -0.0629058,-0.0822809 -0.101235,-0.210135 -0.114945,-0.383563 -0.01371,-0.173449 0.00766579,-0.321479 0.0641273,-0.44409 0.0613053,-0.124232 0.152473,-0.186359 0.273484,-0.186359 0.074215,0 0.139143,0.0197752 0.194804,0.0593046 0.0556612,0.0395294 0.102456,0.0980127 0.140364,0.17545 0.0379078,0.0774372 0.0661491,0.173449 0.0847028,0.287994 0.0185537,0.114545 0.0278412,0.247643 0.0278412,0.399316 0,0.312992 -0.027441,0.552569 -0.0822809,0.718752 -0.00646538,0.019354 -0.0129097,0.0379078 -0.0193751,0.0556612 0.0484167,0.0177535 0.114566,0.0475953 0.198447,0.0895466 0.0629269,0.0306632 0.112144,0.0536395 0.14763,0.0689711 0.0354859,0.0153316 0.0855031,0.0306632 0.150052,0.0459737 0.0645275,0.0153316 0.131477,0.0229974 0.200869,0.0229974 0.0838815,0 0.152452,-0.0209756 0.205692,-0.0629269 0.00646538,-0.00484377 0.00968754,-0.0072446 0.00968754,-0.0072446l0.00242189 -0.00242189c0,0 0.000800275,-0.000821335 0.00242189,-0.00242189 0.00160055,0 0.00322216,0 0.00484377,0 0.00160055,0 0.00282202,-0.000400138 0.0036223,-0.00122147 0.000800275,-0.000800275 0.00160055,-0.00120041 0.00242189,-0.00120041 0.000800275,0 0.00202175,0 0.0036223,0 0,0 0.000800275,0 0.00242189,0 0.00162161,0.00160055 0.0040435,0.00242189 0.00726566,0.00242189 0,0 0.000400138,0.000400138 0.00120041,0.00120041 0.000821335,0.000800275 0.00122147,0.00122147 0.00122147,0.00122147 0.00160055,0 0.00242189,0 0.00242189,0 0.00160055,0.00160055 0.00242189,0.00242189 0.00242189,0.00242189 0.00482271,0.00322216 0.00806593,0.0072446 0.00966648,0.0120884zm-1.42542 -0.0314635c0,0.0322637 0.00766579,0.0552611 0.0229974,0.0689711 0.0153105,0.01371 0.0407298,0.0205755 0.0762157,0.0205755 0.0774582,0 0.141185,-0.0645275 0.191203,-0.193603 -0.0484167,-0.0177535 -0.0935901,-0.02742 -0.135541,-0.0290416 -0.00160055,0 -0.00282202,0 -0.0036223,0 -0.000800275,0 -0.00120041,0 -0.00120041,0 -0.0484167,0 -0.0863244,0.01371 -0.113744,0.0411299 -0.0242189,0.0242189 -0.0363072,0.054861 -0.0363072,0.0919685z"/>
  <path id="1" class="fil0" d="M2.20954 1.35649c0.0112881,-0.0161319 0.0249981,-0.0185537 0.0411299,-0.00726566 0.0161319,0.0112881 0.0185537,0.0250191 0.00726566,0.041151 -0.0483956,0.0661491 -0.116566,0.133899 -0.204491,0.203291 -0.087946,0.0693712 -0.169005,0.107279 -0.24322,0.113723 -0.0209756,0.0371075 -0.046795,0.0693923 -0.0774372,0.0968122 -0.0597047,0.0532394 -0.125854,0.079859 -0.198447,0.079859 -0.0129097,0 -0.0250191,-0.000400138 -0.0363072,-0.00120041 -0.0112881,-0.000821335 -0.0250191,-0.00322216 -0.041151,-0.00726566 -0.0161319,-0.0040435 -0.0314635,-0.0100877 -0.0459737,-0.0181536 -0.0145313,-0.00806593 -0.0294417,-0.0181536 -0.0447733,-0.030242 -0.0153316,-0.0121094 -0.0290416,-0.027441 -0.0411299,-0.0459948 -0.0121094,-0.0185537 -0.0229974,-0.0395294 -0.0326849,-0.0629058 -0.00966648,-0.0233975 -0.0173323,-0.052039 -0.0229974,-0.0859243 -0.00564405,-0.0338853 -0.00846607,-0.0701715 -0.00846607,-0.108901 0,-0.0645275 0.0141312,-0.130677 0.0423514,-0.198447 0.0282413,-0.0677707 0.0726144,-0.127054 0.133119,-0.177872 0.060484,-0.0508175 0.128655,-0.0762367 0.204491,-0.0762367 0.02742,0 0.0536395,0.00604418 0.0786376,0.0181536 0.0250191,0.0121094 0.0488168,0.0310633 0.071393,0.0568617 0.0225972,0.0258194 0.041151,0.0572829 0.0556612,0.0943904l0 0.00242189c0,0 0.000821335,0.000800275 0.00242189,0.00242189l0 0.00242189c0.0177535,0.0532394 0.0266197,0.114545 0.0266197,0.183916 0,0.0790588 -0.0120884,0.150052 -0.0362862,0.212979 0.0613053,-0.0145313 0.127854,-0.0512387 0.199648,-0.110122 0.0717931,-0.0588834 0.128676,-0.118188 0.170627,-0.177872zm-0.409004 0.225067c0.0129097,-0.046795 0.019354,-0.0968122 0.019354,-0.150052 0,-0.0645275 -0.00886621,-0.120189 -0.0266197,-0.166984 -0.0241978,-0.0532394 -0.0556612,-0.079859 -0.0943693,-0.079859 -0.0403507,0 -0.0790588,0.0129097 -0.116166,0.0387291 -0.0371075,0.0257983 -0.0681708,0.0649276 -0.0931689,0.117367 -0.0250191,0.0524391 -0.0375287,0.110922 -0.0375287,0.17545 0,0.0903469 0.0117093,0.16134 0.0351068,0.212979 0.0233975,0.0516178 0.0560614,0.0774372 0.0980127,0.0774372 0.0306421,0 0.060505,-0.0104878 0.0895466,-0.0314635 0.00966648,-0.00644432 0.0185537,-0.01371 0.0266197,-0.0217759 0.00160055,0 0.00242189,-0.000800275 0.00242189,-0.00242189 0,0 0.000800275,-0.000800275 0.00240083,-0.00242189 0.0161529,-0.0161319 0.0306632,-0.033064 0.0435729,-0.0508175 -0.0145313,-0.00968754 -0.0225972,-0.0233975 -0.0241978,-0.041151 -0.00162161,-0.0177324 0.00402244,-0.0338853 0.0169321,-0.0483956 0.0129097,-0.0145103 0.0290416,-0.0233975 0.0483956,-0.0266197 0.00324322,-0.00162161 0.00646538,-0.00162161 0.00968754,0z"/>
  <path id="12" class="fil0" d="M3.18482 1.34922c0.0161319,-0.0112881 0.030242,-0.00966648 0.0423514,0.00484377 0.0120884,0.0145313 0.0100666,0.0282413 -0.00606524,0.041151 -0.00482271,0.00322216 -0.0145103,0.0104878 -0.0290416,0.0217759 -0.138742,0.1081 -0.264596,0.215379 -0.377519,0.321858 -0.00806593,0.188781 -0.0217759,0.364231 -0.041151,0.526371 -0.019354,0.16214 -0.0500172,0.320258 -0.0919474,0.474332 -0.0419513,0.154074 -0.0927687,0.260974 -0.152473,0.320658 -0.0419513,0.0435729 -0.0887463,0.0653488 -0.140364,0.0653488 -0.0258194,0 -0.0500172,-0.00402244 -0.0725934,-0.0120884 -0.0225972,-0.00808699 -0.0463949,-0.0233975 -0.071393,-0.0459948 -0.0250191,-0.0225762 -0.0451734,-0.0580831 -0.060505,-0.106479 -0.0153316,-0.0483956 -0.0229974,-0.1081 -0.0229974,-0.179093 0,-0.290395 0.158118,-0.605008 0.474332,-0.943819 0.00322216,-0.0806804 0.00564405,-0.162961 0.00726566,-0.246843 -0.0145313,0.0354859 -0.0290416,0.0677496 -0.0435729,0.0967912 -0.00160055,0.00162161 -0.00322216,0.0040435 -0.00482271,0.00726566 -0.0693923,0.125833 -0.151673,0.18876 -0.246864,0.18876 -0.0548399,0 -0.102835,-0.0233975 -0.143986,-0.0701715 -0.041151,-0.046795 -0.0617054,-0.119388 -0.0617054,-0.217822 0,-0.130677 0.0411299,-0.247243 0.123411,-0.349699 0.0822809,-0.102435 0.168605,-0.153674 0.258952,-0.153674 0.0516388,0 0.0927687,0.01371 0.123432,0.041151 0.0129097,-0.0355069 0.0371075,-0.0556612 0.0725934,-0.060505 0.0258194,-0.00322216 0.0483956,0.00322216 0.0677707,0.019354 0.0225762,0.0193751 0.0346856,0.0484167 0.0362862,0.0871247 0.00324322,0.140364 0.00162161,0.299282 -0.00482271,0.476753 0.101635,-0.0951906 0.214579,-0.190381 0.338811,-0.285572 0.0145103,-0.0112881 0.0233765,-0.0185537 0.0266197,-0.0217759zm-0.7817 1.63597c0.116166,-0.124232 0.192003,-0.475953 0.227489,-1.05514 -0.274263,0.306526 -0.411405,0.590498 -0.411405,0.851851 0,0.0225972 0.000800275,0.0435729 0.00242189,0.0629269 0.00644432,0.0483956 0.0197542,0.090747 0.0399295,0.127054 0.0201754,0.0363072 0.0407298,0.0544608 0.0617054,0.0544608 0.027441,0 0.0540607,-0.013731 0.079859,-0.041151zm0.239598 -1.55854c0,-0.00160055 0.000400138,-0.00402244 0.00120041,-0.0072446 0.000821335,-0.00324322 0.00122147,-0.00484377 0.00122147,-0.00484377 0,-0.0597047 0,-0.110522 0,-0.152473 -0.019354,-0.0257983 -0.0508175,-0.033064 -0.0943904,-0.0217759 -0.054861,0.0145313 -0.106479,0.054861 -0.154874,0.12101 -0.0484167,0.0661491 -0.0726144,0.150852 -0.0726144,0.254108 0,0.0564615 0.00846607,0.100435 0.0254193,0.131898 0.0169321,0.0314424 0.0342855,0.0471741 0.052039,0.0471741 0.0161319,0 0.0334641,-0.00684446 0.0520179,-0.0205544 0.0185537,-0.013731 0.0359071,-0.030263 0.052039,-0.0496171 0.0161319,-0.019354 0.0306421,-0.041151 0.0435518,-0.0653488 0,0 0,-0.000800275 0,-0.00242189 0.027441,-0.0516178 0.0589045,-0.128255 0.0943904,-0.229911z"/>
  <path id="123" class="fil0" d="M3.73661 1.35649c0.00966648,-0.0161319 0.0229763,-0.019354 0.0399295,-0.00968754 0.0169321,0.00968754 0.0205544,0.0225972 0.010888,0.0387291l-0.0169532 0.0290416c-0.0838815,0.141965 -0.150852,0.245221 -0.200869,0.30977 -0.00160055,0.00160055 -0.00240083,0.00322216 -0.00240083,0.00484377l-0.00484377 0.00242189c0,0 -0.000821335,0.000800275 -0.00242189,0.00242189 -0.0806804,0.100013 -0.152473,0.150031 -0.2154,0.150031 -0.0580621,0 -0.104857,-0.0241978 -0.140364,-0.0725934 -0.0354859,-0.0500172 -0.0564615,-0.123432 -0.0629058,-0.220223 -0.00646538,-0.0968122 -0.0040435,-0.186359 0.0072446,-0.26864 0.0113092,-0.0822809 0.0250191,-0.14843 0.041151,-0.198447 0.00806593,-0.0225762 0.0237977,-0.0379078 0.0471952,-0.0459737 0.0233975,-0.00806593 0.0463738,-0.00888727 0.0689711,-0.00242189 0.0225762,0.00644432 0.0399295,0.019354 0.0520179,0.0387291 0.0121094,0.019354 0.0141312,0.0427515 0.00606524,0.0701715 -0.0161319,0.0629269 -0.0290416,0.130677 -0.0387291,0.203291 -0.00968754,0.0725934 -0.0120884,0.144387 -0.00726566,0.215379 0.00484377,0.0709928 0.0193751,0.12181 0.0435729,0.152473 0.0161319,0.019354 0.0379078,0.0290416 0.0653488,0.0290416 0.0145103,-0.00484377 0.0451734,-0.0346856 0.0919474,-0.0895466l0.00242189 -0.00484377c0.0500172,-0.0629269 0.116166,-0.164562 0.198447,-0.304926l0.0169532 -0.0290416zm-0.331567 -0.39085c-0.0241978,0.00726566 -0.0512176,0.00726566 -0.0810595,0 -0.0298629,-0.0072446 -0.0540607,-0.019354 -0.0726144,-0.0362862 -0.0185537,-0.0169532 -0.0257983,-0.0338853 -0.0217759,-0.0508385 0.0040435,-0.0169321 0.0177535,-0.0290416 0.041151,-0.0362862 0.0233765,-0.00726566 0.0504173,-0.00766579 0.0810595,-0.00122147 0.0306632,0.00646538 0.0552611,0.0185537 0.0738149,0.0363072 0.0185537,0.0177535 0.0258194,0.0350858 0.0217759,0.052039 -0.00402244,0.0169321 -0.0181536,0.0290416 -0.0423514,0.0362862z"/>
  <path id="1234" class="fil0" d="M4.78933 1.35891c0.00806593,-0.0177535 0.0209756,-0.0225972 0.0387291,-0.0145313 0.0177324,0.00806593 0.0225762,0.0209756 0.0145103,0.0387291 -0.00162161,0.00484377 -0.00564405,0.0145103 -0.0120884,0.0290416 -0.101656,0.233933 -0.191203,0.405761 -0.26864,0.515483 -0.00162161,0.00160055 -0.00242189,0.00322216 -0.00242189,0.00482271 -0.0112881,0.0177535 -0.0233975,0.0330851 -0.0363072,0.0459948 0,0 -0.000800275,0.00160055 -0.00240083,0.00484377 -0.0580831,0.0693712 -0.112144,0.104057 -0.162161,0.104057 -0.0371075,0 -0.0677496,-0.0129097 -0.0919474,-0.0387291 -0.0338853,-0.0371075 -0.0512387,-0.104857 -0.052039,-0.20327 -0.000800275,-0.0984339 0.00686552,-0.195225 0.0229974,-0.290416 0.00322216,-0.0338853 0.00564405,-0.0597047 0.0072446,-0.0774372 0.00162161,-0.0177535 0.00364336,-0.0415511 0.00606524,-0.071393 0.00242189,-0.0298629 0.0036223,-0.0536606 0.0036223,-0.071393 0,-0.0177535 0,-0.0371075 0,-0.0580831 0,-0.0209756 -0.00202175,-0.0379288 -0.00604418,-0.0508175 -0.0040435,-0.0129097 -0.0092874,-0.0225972 -0.0157317,-0.0290416 -0.00322216,-0.00484377 -0.00888727,-0.00726566 -0.0169532,-0.00726566 -0.0371075,0 -0.074215,0.0363072 -0.111322,0.108901 -0.00160055,0.00484377 -0.00402244,0.00886621 -0.0072446,0.0121094 -0.0629269,0.133899 -0.105678,0.31137 -0.128276,0.532415 0,0.0177324 -0.00806593,0.0298418 -0.0241978,0.0362862 -0.00806593,0.00324322 -0.0169321,0.00484377 -0.0266197,0.00484377 -0.0241978,0 -0.0492169,-0.00806593 -0.0750153,-0.0241978 -0.0258194,-0.0161319 -0.0451734,-0.0371075 -0.0580831,-0.0629269 -0.0387291,-0.0806593 -0.060505,-0.193603 -0.0653488,-0.338811 -0.00484377,-0.145208 0.00726566,-0.25653 0.0363072,-0.333967 0.00644432,-0.0225762 0.0213758,-0.0379078 0.0447733,-0.0459737 0.0233765,-0.00806593 0.0463738,-0.00888727 0.0689711,-0.00242189 0.0225762,0.00644432 0.0399295,0.019354 0.0520179,0.0387291 0.0121094,0.019354 0.0149315,0.0427515 0.00848713,0.0701715 -0.0435729,0.180694 -0.0443732,0.354943 -0.00242189,0.522727 0.0209756,-0.132277 0.0491959,-0.246843 0.0847028,-0.343634 0.00160055,0 0.00242189,-0.000821335 0.00242189,-0.00242189 0.0145103,-0.0403297 0.0306421,-0.0758366 0.0483956,-0.106479 0,-0.00162161 0.000800275,-0.00324322 0.00242189,-0.00484377 0.0661491,-0.12101 0.139543,-0.181515 0.220223,-0.181515 0.0435518,0 0.0782374,0.0153316 0.104057,0.0459948 0.0241978,0.0290416 0.0391292,0.0746151 0.0447733,0.136721 0.00564405,0.0621266 0.00564405,0.117788 0,0.166984 -0.00564405,0.0492169 -0.0149315,0.12061 -0.0278201,0.214179 -0.00806593,0.0483956 -0.013731,0.0859243 -0.0169532,0.112544 -0.00322216,0.0266197 -0.00644432,0.0592835 -0.00966648,0.0980127 -0.00324322,0.038708 -0.00364336,0.0693712 -0.00122147,0.0919474 0.00242189,0.0225972 0.00846607,0.0387291 0.0181536,0.0484167 0.00322216,0.00482271 0.00886621,0.0072446 0.0169321,0.0072446 0.0145313,0 0.0355069,-0.0153105 0.0629269,-0.0459737 0.0129097,-0.0161319 0.0266197,-0.0338853 0.041151,-0.0532394l0 -0.00242189c0,0 0.000800275,-0.000800275 0.00242189,-0.00242189 0.0758155,-0.109701 0.161319,-0.275084 0.256509,-0.496107 0.00484377,-0.0129097 0.00888727,-0.0233975 0.0121094,-0.0314635z"/>
  <path id="12345" class="fil0" d="M7.47805 1.35649c0.00966648,-0.0161319 0.0229763,-0.019354 0.0399295,-0.00968754 0.0169321,0.00968754 0.0205755,0.0225972 0.010888,0.0387291 -0.0290416,0.0516178 -0.0661491,0.150852 -0.111322,0.29766 -0.0145313,0.0451734 -0.0254193,0.0794589 -0.0326639,0.102856 -0.00726566,0.0233975 -0.0177535,0.0536395 -0.0314635,0.090747 -0.01371,0.0371075 -0.0266197,0.0657489 -0.0387291,0.0859243 -0.0121094,0.0201754 -0.0262195,0.0407298 -0.0423514,0.0617054 -0.0161319,0.0209756 -0.0334852,0.0363072 -0.052039,0.0459948 -0.0185537,0.00966648 -0.0383079,0.0145103 -0.0592835,0.0145103l0 0 -0.00484377 0c-0.101635,0 -0.179493,-0.0314635 -0.233533,-0.0943904 -0.0540396,-0.0629058 -0.0883251,-0.16294 -0.102856,-0.300082 -0.00644432,-0.0500172 -0.0145103,-0.180694 -0.0241978,-0.392051 -0.00484377,-0.100034 -0.00726566,-0.153274 -0.00726566,-0.159718 -0.127454,0.00644432 -0.244421,0.0177324 -0.3509,0.0338643 -0.0161319,0.0871247 -0.0326849,0.164983 -0.0496171,0.233554 -0.0169321,0.068571 -0.0367074,0.139143 -0.0592835,0.211757 -0.0225972,0.0725934 -0.0475953,0.13552 -0.0750363,0.18876 -0.02742,0.0532394 -0.057683,0.102035 -0.090747,0.146408 -0.033064,0.0443732 -0.0709928,0.0774372 -0.113744,0.0992341 -0.0427515,0.0217759 -0.0883251,0.0326639 -0.136742,0.0326639 -0.0419302,0 -0.0826811,-0.00644432 -0.12221,-0.019354 -0.0395294,-0.0129097 -0.0762367,-0.0330851 -0.110101,-0.060505 -0.0338853,-0.02742 -0.0613053,-0.0653488 -0.0822809,-0.113744 -0.0209756,-0.0483956 -0.0314635,-0.104878 -0.0314635,-0.169406 0,-0.280728 0.223445,-0.471109 0.670357,-0.571144 0.0500172,-0.0112881 0.100835,-0.0209756 0.152452,-0.0290416 0.0113092,-0.0580831 0.0266407,-0.141965 0.0459948,-0.251687 0.0483956,-0.282329 0.0887253,-0.470288 0.12101,-0.563878 0,0 0,-0.000800275 0,-0.00242189 0,0 0.000400138,-0.000400138 0.00120041,-0.00120041 0.000800275,-0.000800275 0.00120041,-0.00122147 0.00120041,-0.00122147 0.0451734,-0.130677 0.101656,-0.196025 0.169406,-0.196025 0.0290416,0 0.054861,0.0100877 0.0774582,0.030263 0.0225762,0.0201543 0.0415301,0.054861 0.0568617,0.104057 0.0153316,0.0492169 0.0278412,0.0964121 0.0375076,0.141586 0.00968754,0.0451734 0.0181536,0.111723 0.0254193,0.199648 0.00726566,0.087925 0.0125096,0.159318 0.0157317,0.214179 0.00322216,0.054861 0.00726566,0.137942 0.0120884,0.249265 0,0.00644432 0.000821335,0.0161319 0.00242189,0.0290416 0.046795,-0.00162161 0.104878,-0.00242189 0.174249,-0.00242189 0.00806593,0 0.0149315,0.00282202 0.0205755,0.00846607 0.00564405,0.00564405 0.00846607,0.0125096 0.00846607,0.0205755 0,0.00806593 -0.00282202,0.0149315 -0.00846607,0.0205755 -0.00564405,0.00564405 -0.0125096,0.00846607 -0.0205755,0.00846607 -0.0677496,0 -0.125032,0.000800275 -0.171828,0.00242189 0.00322216,0.0839025 0.00686552,0.155296 0.010888,0.214179 0.0040435,0.0588834 0.0092874,0.126254 0.0157317,0.202069 0.00646538,0.0758366 0.0145313,0.139564 0.0241978,0.191182 0.00968754,0.0516388 0.0213968,0.100835 0.0351068,0.14763 0.01371,0.046795 0.030242,0.0818808 0.049596,0.105278 0.0193751,0.0233975 0.0419513,0.0350858 0.0677707,0.0350858 0.0145313,0 0.0286414,-0.00444363 0.0423514,-0.0133098 0.01371,-0.00886621 0.0266197,-0.0229974 0.0387291,-0.0423514 0.0120884,-0.019354 0.0229763,-0.0383079 0.0326639,-0.0568617 0.00968754,-0.0185537 0.0205755,-0.0443732 0.0326639,-0.0774582 0.0121094,-0.033064 0.0213758,-0.0600838 0.0278412,-0.0810595 0.00644432,-0.0209756 0.0153316,-0.0508175 0.0266197,-0.0895466 0.046795,-0.151652 0.0855031,-0.254909 0.116166,-0.30977zm-1.5658 0.672779c0.0484167,0 0.0943904,-0.0161319 0.137942,-0.0483956 0.0435729,-0.0322637 0.0806804,-0.0738149 0.111344,-0.124632 0.0306421,-0.0508385 0.0600838,-0.114966 0.0883251,-0.192403 0.0282413,-0.0774372 0.0516178,-0.153274 0.0701715,-0.227489 0.0185537,-0.074215 0.0375287,-0.158918 0.0568827,-0.254108 -0.0451734,0.00646538 -0.087925,0.0145313 -0.128276,0.0241978 -0.416248,0.0935901 -0.624362,0.265418 -0.624362,0.515483 0,0.104878 0.0282202,0.182315 0.0847028,0.232333 0.0564615,0.0500172 0.124232,0.0750153 0.20327,0.0750153zm0.537258 -0.9172c0.103257,-0.0145313 0.214579,-0.0250191 0.333967,-0.0314635 -0.00966648,-0.196847 -0.0201543,-0.355764 -0.0314424,-0.476753 -0.0225972,-0.230711 -0.0475953,-0.358186 -0.0750363,-0.382384 -0.0177324,0.00162161 -0.0395294,0.0363072 -0.0653277,0.104078l-0.00242189 0c-0.0306632,0.0919474 -0.0701926,0.276685 -0.118588,0.554191 -0.0177535,0.104857 -0.0314635,0.182315 -0.041151,0.232333z"/>
  <path id="123456" class="fil0" d="M8.54772 0.262617c0,0.0306421 -0.00484377,0.0669493 -0.0145313,0.108901l0 0.00242189c-0.0257983,0.1081 -0.0822809,0.249265 -0.169406,0.423514 -0.0806593,0.158118 -0.171006,0.314613 -0.271041,0.469488 0,0.116166 0.0036223,0.217801 0.010888,0.304926 0.00726566,0.0871247 0.0149315,0.152874 0.0229974,0.197247 0.00806593,0.0443732 0.0177535,0.079859 0.0290416,0.106479 0.0112881,0.0266197 0.0209756,0.0427515 0.0290416,0.0483956 0.00806593,0.00564405 0.0153316,0.00846607 0.0217759,0.00846607 0.00646538,0 0.0177535,-0.0120884 0.0338853,-0.0362862 0,-0.00162161 0,-0.00242189 0,-0.00242189 0.00484377,-0.00806593 0.00968754,-0.0161319 0.0145103,-0.0241978 0,0 0.000421197,-0.000400138 0.00122147,-0.00122147 0.000800275,-0.000800275 0.00120041,-0.00202175 0.00120041,-0.0036223l0.00242189 -0.00726566c0.00646538,-0.00968754 0.0121094,-0.0201543 0.0169532,-0.0314635 0.0419302,-0.0838815 0.0992131,-0.215379 0.171806,-0.394473 0,-0.00322216 0.00364336,-0.01371 0.010909,-0.0314635 0.0072446,-0.0177324 0.0124885,-0.0306421 0.0157317,-0.038708 0.00806593,-0.0177535 0.0209546,-0.0229974 0.038708,-0.0157317 0.0177535,0.00726566 0.0233975,0.0197542 0.0169532,0.0375076 -0.00646538,0.0112881 -0.0161529,0.0346856 -0.0290416,0.0701926 -0.0839025,0.209735 -0.150052,0.358165 -0.198447,0.44529 0,0.00160055 0,0.00242189 0,0.00242189 -0.00484377,0.00966648 -0.00968754,0.0177324 -0.0145313,0.0241978 -0.0613053,0.1081 -0.116166,0.16214 -0.164562,0.16214 -0.0822809,0 -0.141164,-0.0903469 -0.176671,-0.271041 -0.0112881,-0.0645485 -0.0209756,-0.139564 -0.0290416,-0.225067 -0.019354,0.0419302 -0.0395294,0.079859 -0.060505,0.113744 -0.0806593,0.119388 -0.172628,0.179072 -0.275884,0.179072 -0.0241978,0 -0.0479955,-0.00524391 -0.071393,-0.0157317 -0.0233975,-0.0104878 -0.0455736,-0.0262195 -0.0665492,-0.0471952 -0.0209756,-0.0209546 -0.0375076,-0.0508175 -0.0496171,-0.0895255 -0.0120884,-0.0387291 -0.0181326,-0.0839025 -0.0181326,-0.135541 0,-0.130677 0.043952,-0.250865 0.131877,-0.360587 0.087946,-0.109701 0.177071,-0.164562 0.267418,-0.164562 0.0564826,0 0.100835,0.0121094 0.133119,0.0363072 0.0129097,-0.259752 0.0596837,-0.482397 0.140364,-0.667935 0.0483956,-0.1081 0.103257,-0.190802 0.164562,-0.248064 0.0613053,-0.0572829 0.125833,-0.0859243 0.193603,-0.0859243 0.0580831,0 0.0984128,0.0225972 0.12101,0.0677707 0.0112881,0.0225972 0.0177324,0.0508175 0.019354,0.0847028 0,0.00162161 0,0.00242189 0,0.00242189 0,0 0,0.000800275 0,0.00242189zm-0.764747 1.44477c0.0451734,-0.0596837 0.087925,-0.141965 0.128276,-0.246843 -0.00324322,-0.074215 -0.00484377,-0.152452 -0.00484377,-0.234733 0,-0.0145313 0,-0.027441 0,-0.0387291 -0.00162161,-0.00322216 -0.00322216,-0.00564405 -0.00484377,-0.00726566 -0.00484377,-0.00644432 -0.0104878,-0.0129097 -0.0169321,-0.019354 -0.0129097,-0.00646538 -0.0298629,-0.00726566 -0.0508385,-0.00242189 -0.0629058,0.0177535 -0.124632,0.071393 -0.185137,0.16094 -0.060484,0.0895466 -0.090747,0.18836 -0.090747,0.29646 0,0.0548399 0.010888,0.0984128 0.0326639,0.130677 0.021797,0.0322637 0.0431727,0.0483956 0.0641484,0.0483956 0.0371075,0 0.079859,-0.0290416 0.128255,-0.0871247zm0.704242 -1.41089c0.00484377,-0.0387291 0.000800275,-0.0661491 -0.0120884,-0.0822809 -0.00646538,-0.00808699 -0.0153316,-0.0121094 -0.0266407,-0.0121094 -0.019354,0 -0.0427515,0.0129097 -0.0701715,0.0387291 -0.02742,0.0257983 -0.057683,0.0657279 -0.090747,0.119789 -0.0330851,0.0540396 -0.063327,0.117367 -0.0907681,0.189981 -0.02742,0.0725934 -0.0512176,0.16254 -0.071393,0.269819 -0.0201543,0.1073 -0.0310423,0.220644 -0.0326639,0.340033 0.0855031,-0.137142 0.164962,-0.279528 0.238377,-0.427136 0.0734147,-0.14763 0.12141,-0.270662 0.144007,-0.369074 0,-0.00322216 0.000800275,-0.00564405 0.00240083,-0.00726566 0.00324322,-0.0128886 0.00566511,-0.0249981 0.00726566,-0.0362862 0.00162161,-0.00806593 0.00242189,-0.0161319 0.00242189,-0.0241978z"/>
  <path id="1234567" class="fil0" d="M9.93201 1.36133c0.00806593,-0.0177535 0.0209546,-0.0229974 0.038708,-0.0157317 0.0177535,0.00726566 0.0225972,0.0197542 0.0145313,0.0375076 -0.00162161,0.00484377 -0.00564405,0.0145103 -0.0121094,0.0290416 -0.101635,0.235555 -0.191182,0.408182 -0.268619,0.517904 0,0 -0.000821335,0.000800275 -0.00242189,0.00240083 -0.0113092,0.0177535 -0.0233975,0.0330851 -0.0363072,0.0459948 0,0.00160055 -0.000800275,0.00322216 -0.00242189,0.00484377 -0.0580831,0.0693712 -0.112123,0.104057 -0.16214,0.104057 -0.0371075,0 -0.0669493,-0.0133098 -0.0895466,-0.0399295 -0.0225972,-0.0266197 -0.0363072,-0.0693712 -0.041151,-0.128276 -0.00482271,-0.0588834 -0.00442257,-0.112123 0.00122147,-0.159718 0.00564405,-0.0475953 0.0157317,-0.116566 0.030242,-0.206913 0.00484377,-0.0322637 0.00848713,-0.0572829 0.010888,-0.0750153 0.00242189,-0.0177535 0.00566511,-0.0419513 0.00968754,-0.0726144 0.0040435,-0.0306421 0.00646538,-0.0548399 0.00726566,-0.0725934 0.000800275,-0.0177535 0.00120041,-0.0367074 0.00120041,-0.0568827 0,-0.0201543 -0.00160055,-0.0367074 -0.00482271,-0.049596 -0.00324322,-0.0129097 -0.00726566,-0.0225972 -0.0121094,-0.0290416 -0.00484377,-0.00484377 -0.0104878,-0.00726566 -0.0169321,-0.00726566 -0.0435729,0 -0.0923686,0.0568617 -0.146429,0.170606 -0.0540396,0.113744 -0.102856,0.260974 -0.146408,0.441668l0 0.00242189c-0.00322216,0.0177535 -0.0129097,0.0330851 -0.0290416,0.0459737 -0.0161319,0.0129097 -0.0338853,0.0185537 -0.0532394,0.0169532 -0.00968754,-0.00162161 -0.0185537,-0.00444363 -0.0266197,-0.00846607 -0.00806593,-0.0040435 -0.0169532,-0.010909 -0.0266197,-0.0205755 -0.00968754,-0.00968754 -0.0173533,-0.0262195 -0.0229974,-0.0496171 -0.00564405,-0.0233975 -0.00766579,-0.0512176 -0.00604418,-0.0834813 0.0129097,-0.283971 -0.00564405,-0.452556 -0.0556612,-0.505795 -0.00806593,-0.00646538 -0.0161319,-0.00968754 -0.0241978,-0.00968754 -0.0242189,0 -0.0540607,0.0346856 -0.0895466,0.104057 -0.0322637,0.074215 -0.0564826,0.16134 -0.0726144,0.261374 -0.0161319,0.100034 -0.0217759,0.192803 -0.0169321,0.278306 0,0.00322216 0,0.00564405 0,0.00726566 0,0 0,0.000800275 0,0.00242189 0.00162161,0.00806593 0,0.0145103 -0.00484377,0.019354 -0.00484377,0.00806593 -0.0112881,0.01371 -0.019354,0.0169321 -0.00806593,0.00324322 -0.0169532,0.00484377 -0.0266197,0.00484377 -0.0161319,0 -0.0326849,-0.00322216 -0.0496171,-0.00966648 -0.0169321,-0.00646538 -0.033064,-0.0165531 -0.0483956,-0.030263 -0.0153316,-0.01371 -0.0270198,-0.0294417 -0.0350858,-0.0471952 -0.0387291,-0.0806593 -0.060505,-0.193603 -0.0653488,-0.338811 -0.00484377,-0.145208 0.00726566,-0.25653 0.0363072,-0.333967 0.00644432,-0.0225762 0.0213758,-0.0379078 0.0447522,-0.0459737 0.0233975,-0.00806593 0.0463949,-0.00888727 0.0689921,-0.00242189 0.0225762,0.00644432 0.0399295,0.019354 0.0520179,0.0387291 0.0121094,0.019354 0.0149315,0.0427515 0.00846607,0.0701715 -0.0371075,0.156496 -0.0419302,0.311391 -0.0145103,0.464665 0.0145103,-0.143607 0.0443732,-0.26864 0.0895466,-0.375118 0,-0.00162161 0.000800275,-0.00322216 0.00242189,-0.00484377 0,0 0.000800275,-0.00162161 0.00242189,-0.00484377 0.0241978,-0.054861 0.0508175,-0.0984128 0.079859,-0.130677 0.0435518,-0.0451734 0.0903469,-0.0677707 0.140364,-0.0677707 0.0371075,0 0.0693712,0.0153316 0.0967912,0.0459948 0.0580831,0.0645275 0.0855242,0.201669 0.0822809,0.411405 0.100034,-0.303325 0.2154,-0.454978 0.346077,-0.454978 0.0435729,0 0.0774372,0.0153316 0.101635,0.0459948 0.0242189,0.0290416 0.0379288,0.0746151 0.041151,0.136721 0.00322216,0.0621266 0.00120041,0.117788 -0.00604418,0.166984 -0.00726566,0.0492169 -0.0197752,0.12061 -0.0375076,0.214179 -0.00968754,0.0500172 -0.0169532,0.0883251 -0.021797,0.114966 -0.00484377,0.0266197 -0.00966648,0.0592835 -0.0145103,0.0980127 -0.00484377,0.038708 -0.00646538,0.0693712 -0.00484377,0.0919474 0.00162161,0.0225972 0.00644432,0.0379288 0.0145103,0.0459948 0.00324322,0.00482271 0.00888727,0.0072446 0.0169532,0.0072446 0.0145103,0 0.0354859,-0.0153105 0.0629269,-0.0459737 0.0129097,-0.0161319 0.0266197,-0.0338853 0.0411299,-0.0532394 0,0 0,-0.000800275 0,-0.00242189 0,0 0.000800275,-0.000800275 0.00242189,-0.00242189 0.0758366,-0.109701 0.16134,-0.275084 0.25653,-0.496107 0.00162161,-0.00322216 0.00322216,-0.00726566 0.00484377,-0.0121094 0.00160055,-0.00484377 0.00322216,-0.00846607 0.00484377,-0.010888 0.00160055,-0.00242189 0.00242189,-0.00444363 0.00242189,-0.00604418z"/>
  <path id="12345678" class="fil0" d="M10.4935 1.35649c0.00966648,-0.0161319 0.0229763,-0.019354 0.0399295,-0.00968754 0.0169321,0.00968754 0.0205544,0.0225972 0.010888,0.0387291l-0.0169532 0.0290416c-0.0838815,0.141965 -0.150852,0.245221 -0.200869,0.30977 -0.00160055,0.00160055 -0.00240083,0.00322216 -0.00240083,0.00484377l-0.00484377 0.00242189c0,0 -0.000821335,0.000800275 -0.00242189,0.00242189 -0.0806804,0.100013 -0.152473,0.150031 -0.2154,0.150031 -0.0580621,0 -0.104857,-0.0241978 -0.140364,-0.0725934 -0.0354859,-0.0500172 -0.0564615,-0.123432 -0.0629058,-0.220223 -0.00646538,-0.0968122 -0.0040435,-0.186359 0.0072446,-0.26864 0.0113092,-0.0822809 0.0250191,-0.14843 0.041151,-0.198447 0.00806593,-0.0225762 0.0237977,-0.0379078 0.0471952,-0.0459737 0.0233975,-0.00806593 0.0463738,-0.00888727 0.0689711,-0.00242189 0.0225762,0.00644432 0.0399295,0.019354 0.0520179,0.0387291 0.0121094,0.019354 0.0141312,0.0427515 0.00606524,0.0701715 -0.0161319,0.0629269 -0.0290416,0.130677 -0.0387291,0.203291 -0.00968754,0.0725934 -0.0120884,0.144387 -0.00726566,0.215379 0.00484377,0.0709928 0.0193751,0.12181 0.0435729,0.152473 0.0161319,0.019354 0.0379078,0.0290416 0.0653488,0.0290416 0.0145103,-0.00484377 0.0451734,-0.0346856 0.0919474,-0.0895466l0.00242189 -0.00484377c0.0500172,-0.0629269 0.116166,-0.164562 0.198447,-0.304926l0.0169532 -0.0290416zm-0.331567 -0.39085c-0.0241978,0.00726566 -0.0512176,0.00726566 -0.0810595,0 -0.0298629,-0.0072446 -0.0540607,-0.019354 -0.0726144,-0.0362862 -0.0185537,-0.0169532 -0.0257983,-0.0338853 -0.0217759,-0.0508385 0.0040435,-0.0169321 0.0177535,-0.0290416 0.041151,-0.0362862 0.0233765,-0.00726566 0.0504173,-0.00766579 0.0810595,-0.00122147 0.0306632,0.00646538 0.0552611,0.0185537 0.0738149,0.0363072 0.0185537,0.0177535 0.0258194,0.0350858 0.0217759,0.052039 -0.00402244,0.0169321 -0.0181536,0.0290416 -0.0423514,0.0362862z"/>
  <path id="123456789" class="fil0" d="M11.5462 1.35891c0.00806593,-0.0177535 0.0209756,-0.0225972 0.0387291,-0.0145313 0.0177324,0.00806593 0.0225762,0.0209756 0.0145103,0.0387291 -0.00162161,0.00484377 -0.00564405,0.0145103 -0.0120884,0.0290416 -0.101656,0.233933 -0.191203,0.405761 -0.26864,0.515483 -0.00162161,0.00160055 -0.00242189,0.00322216 -0.00242189,0.00482271 -0.0112881,0.0177535 -0.0233975,0.0330851 -0.0363072,0.0459948 0,0 -0.000800275,0.00160055 -0.00240083,0.00484377 -0.0580831,0.0693712 -0.112144,0.104057 -0.162161,0.104057 -0.0371075,0 -0.0677496,-0.0129097 -0.0919474,-0.0387291 -0.0338853,-0.0371075 -0.0512387,-0.104857 -0.052039,-0.20327 -0.000800275,-0.0984339 0.00686552,-0.195225 0.0229974,-0.290416 0.00322216,-0.0338853 0.00564405,-0.0597047 0.0072446,-0.0774372 0.00162161,-0.0177535 0.00364336,-0.0415511 0.00606524,-0.071393 0.00242189,-0.0298629 0.0036223,-0.0536606 0.0036223,-0.071393 0,-0.0177535 0,-0.0371075 0,-0.0580831 0,-0.0209756 -0.00202175,-0.0379288 -0.00604418,-0.0508175 -0.0040435,-0.0129097 -0.0092874,-0.0225972 -0.0157317,-0.0290416 -0.00322216,-0.00484377 -0.00888727,-0.00726566 -0.0169532,-0.00726566 -0.0371075,0 -0.074215,0.0363072 -0.111322,0.108901 -0.00160055,0.00484377 -0.00402244,0.00886621 -0.0072446,0.0121094 -0.0629269,0.133899 -0.105678,0.31137 -0.128276,0.532415 0,0.0177324 -0.00806593,0.0298418 -0.0241978,0.0362862 -0.00806593,0.00324322 -0.0169321,0.00484377 -0.0266197,0.00484377 -0.0241978,0 -0.0492169,-0.00806593 -0.0750153,-0.0241978 -0.0258194,-0.0161319 -0.0451734,-0.0371075 -0.0580831,-0.0629269 -0.0387291,-0.0806593 -0.060505,-0.193603 -0.0653488,-0.338811 -0.00484377,-0.145208 0.00726566,-0.25653 0.0363072,-0.333967 0.00644432,-0.0225762 0.0213758,-0.0379078 0.0447733,-0.0459737 0.0233765,-0.00806593 0.0463738,-0.00888727 0.0689711,-0.00242189 0.0225762,0.00644432 0.0399295,0.019354 0.0520179,0.0387291 0.0121094,0.019354 0.0149315,0.0427515 0.00848713,0.0701715 -0.0435729,0.180694 -0.0443732,0.354943 -0.00242189,0.522727 0.0209756,-0.132277 0.0491959,-0.246843 0.0847028,-0.343634 0.00160055,0 0.00242189,-0.000821335 0.00242189,-0.00242189 0.0145103,-0.0403297 0.0306421,-0.0758366 0.0483956,-0.106479 0,-0.00162161 0.000800275,-0.00324322 0.00242189,-0.00484377 0.0661491,-0.12101 0.139543,-0.181515 0.220223,-0.181515 0.0435518,0 0.0782374,0.0153316 0.104057,0.0459948 0.0241978,0.0290416 0.0391292,0.0746151 0.0447733,0.136721 0.00564405,0.0621266 0.00564405,0.117788 0,0.166984 -0.00564405,0.0492169 -0.0149315,0.12061 -0.0278201,0.214179 -0.00806593,0.0483956 -0.013731,0.0859243 -0.0169532,0.112544 -0.00322216,0.0266197 -0.00644432,0.0592835 -0.00966648,0.0980127 -0.00324322,0.038708 -0.00364336,0.0693712 -0.00122147,0.0919474 0.00242189,0.0225972 0.00846607,0.0387291 0.0181536,0.0484167 0.00322216,0.00482271 0.00886621,0.0072446 0.0169321,0.0072446 0.0145313,0 0.0355069,-0.0153105 0.0629269,-0.0459737 0.0129097,-0.0161319 0.0266197,-0.0338853 0.041151,-0.0532394l0 -0.00242189c0,0 0.000800275,-0.000800275 0.00242189,-0.00242189 0.0758155,-0.109701 0.161319,-0.275084 0.256509,-0.496107 0.00484377,-0.0129097 0.00888727,-0.0233975 0.0121094,-0.0314635z"/>
 </g>
</svg>
