<?xml version="1.0" encoding="UTF-8"?>
<!DOCTYPE svg PUBLIC "-//W3C//DTD SVG 1.1//EN" "http://www.w3.org/Graphics/SVG/1.1/DTD/svg11.dtd">
<!-- Creator: CorelDRAW -->
<svg xmlns="http://www.w3.org/2000/svg" xml:space="preserve" width="30.055mm" height="14.3916mm" style="shape-rendering:geometricPrecision; text-rendering:geometricPrecision; image-rendering:optimizeQuality; fill-rule:evenodd; clip-rule:evenodd"
viewBox="0 0 2.75052 1.31706"
 xmlns:xlink="http://www.w3.org/1999/xlink">
 <defs>
  <style type="text/css">
   <![CDATA[
    .str0 {stroke:#000066;stroke-width:0.0915162}
    .fil1 {fill:none;fill-rule:nonzero}
    .fil0 {fill:white;fill-rule:nonzero}
   ]]>
  </style>
 </defs>
 <g id="Layer_x0020_1">
  <metadata id="CorelCorpID_0Corel-Layer"/>
  <path class="fil0" d="M0.529778 0.0482382c-0.00804427,-0.00062231 -0.0160885,-0.00123547 -0.0243433,-0.00164729 -0.00804427,-0.00062231 -0.0165095,-0.000832797 -0.0251761,-0.000832797 -0.0416765,0.000210487 -0.0831425,0.00598516 -0.124618,0.017745 -0.0412555,0.0115585 -0.080461,0.027647 -0.117598,0.0480735 -0.0371373,0.0206369 -0.0701472,0.0445684 -0.0988283,0.0715931 -0.0288825,0.0272352 -0.0515785,0.0563282 -0.0680789,0.0876817 -0.0165095,0.0313626 -0.0249656,0.0635488 -0.0253774,0.0967692 0,0.0295048 0.00515236,0.0530245 0.0152649,0.0707695 0.0103139,0.0175345 0.025167,0.0303285 0.0449802,0.0379609 0.0195936,0.00783379 0.0437356,0.0115493 0.0722063,0.011348 -0.000613159,-0.00330373 -0.0022696,-0.00763245 -0.00495103,-0.012794 -0.00289191,-0.00516151 -0.00557334,-0.0129953 -0.00825476,-0.0239315 -0.00247094,-0.0109362 -0.00391689,-0.0268234 -0.00412738,-0.0474511 0.000210487,-0.0441566 0.00722063,-0.0837648 0.0210487,-0.118843 0.0138189,-0.0352795 0.0336322,-0.0654066 0.0594215,-0.0907841 0.0257893,-0.025167 0.05674,-0.0453829 0.0928432,-0.0602451l-0.184451 0.857873c0.00495103,-0.000613159 0.00970072,-0.00102498 0.0142399,-0.00102498 0.0045392,-0.000210487 0.00927974,-0.000210487 0.0142308,-0.000210487 0.0311521,0.000210487 0.0612792,0.00557334 0.0903722,0.0156859 0.0288825,0.00990205 0.0569414,0.0233092 0.0839661,0.04002 0.0270339,0.0167109 0.0534363,0.0348677 0.0792256,0.0548823 0.0257893,0.0200146 0.0509654,0.0398187 0.075931,0.0598333 0.0247551,0.0200146 0.0495103,0.0381714 0.0740641,0.0548823 0.0245538,0.0167109 0.0491076,0.030118 0.0736614,0.0402305 0.0247551,0.0101125 0.0497208,0.0152649 0.0748877,0.0154754 0.0224947,-0.000210487 0.0425001,-0.00825476 0.0602451,-0.0239315 0.0179555,-0.0158872 0.0325981,-0.0381714 0.0445684,-0.0672644 0.0117598,-0.0288825 0.0196028,-0.0633384 0.0239315,-0.103157 -0.0179463,0.00742196 -0.0356913,0.0125835 -0.0530245,0.0154754 -0.0173332,0.00309325 -0.0342454,0.0045392 -0.0509562,0.00432872 -0.0313626,-0.000201336 -0.0619016,-0.00495103 -0.0911959,-0.0138189 -0.0295048,-0.00887707 -0.058186,-0.0204264 -0.0860344,-0.0342545 -0.0278575,-0.0138189 -0.0552941,-0.0280589 -0.081907,-0.0431224 -0.0268234,-0.0148531 -0.053235,-0.028672 -0.0792256,-0.0408437 -0.0259998,-0.0123821 -0.051789,-0.021671 -0.0775783,-0.027647l0.190637 -0.888824z"/>
  <path id="1" class="fil0" d="M0.829347 0.331719c-0.0363045,0.000210487 -0.0693235,0.00577467 -0.0990297,0.0169213 -0.0297062,0.0109362 -0.0563282,0.0259906 -0.0796374,0.045392 -0.0235197,0.0191818 -0.0441566,0.0410542 -0.0618924,0.0658093 -0.017745,0.0247643 -0.0328086,0.0509654 -0.045392,0.0786124 -0.0125835,0.027647 -0.022696,0.0554954 -0.030539,0.083353 -0.00784294,0.0278484 -0.0136176,0.0546718 -0.0173332,0.0802506 -0.00350507,0.0255879 -0.00536285,0.0484853 -0.00536285,0.0691222 0.000411823,0.0468288 0.00887707,0.0845884 0.0257893,0.113471 0.0169213,0.0286812 0.0400292,0.0497299 0.0697353,0.0627252 0.0297153,0.0132058 0.0637593,0.0196028 0.102544,0.0193923 0.0381714,-0.000201336 0.0740641,-0.00886792 0.107696,-0.0259998 0.0334217,-0.0171227 0.0635488,-0.0420883 0.0899604,-0.0744759 0.0264024,-0.0323967 0.0480643,-0.0713918 0.0649857,-0.117397 0.0169213,-0.0458039 0.0280589,-0.0973824 0.0332204,-0.154736 0.0303285,-0.00495103 0.059211,-0.0123821 0.0864462,-0.0220829 0.0274366,-0.00949023 0.0524022,-0.0212501 0.0750982,-0.0348677 0.0224855,-0.0136176 0.0416765,-0.0288825 0.0575637,-0.0457947l-0.0111375 -0.0334309c-0.0181568,0.0125926 -0.0381714,0.0245538 -0.0604556,0.0357005 -0.0222842,0.0113389 -0.0445592,0.0204173 -0.0672553,0.0276379 -0.022696,0.00701929 -0.0435343,0.0107349 -0.0629265,0.0109362 -0.00185778,0 -0.00392604,0 -0.00639698,-0.000411823 -0.0022696,-0.000201336 -0.00474969,-0.000823646 -0.00722063,-0.00205911 0,-0.0651961 -0.0130045,-0.114304 -0.0392055,-0.147725 -0.0264116,-0.0334217 -0.0660198,-0.0501326 -0.119255,-0.0503431zm-0.0915986 0.523637c-0.0156859,0.000210487 -0.0280589,-0.0022696 -0.0373478,-0.00784294 -0.00927974,-0.00556418 -0.0158872,-0.0154662 -0.0198041,-0.030118 -0.00412738,-0.0146517 -0.00598516,-0.0352795 -0.00598516,-0.0623134 0,-0.0204173 0.00205911,-0.0431133 0.00598516,-0.0678776 0.00412738,-0.0247551 0.00990205,-0.0501326 0.0171227,-0.0763337 0.00743112,-0.0259998 0.0160977,-0.0509654 0.0262011,-0.0753087 0.0101125,-0.024142 0.0212501,-0.0458039 0.0336322,-0.0651961 0.0121717,-0.0191909 0.025167,-0.0344558 0.0389951,-0.0458039 0.0138189,-0.011348 0.0280589,-0.0171227 0.0427106,-0.0173332 0.0158781,-0.000201336 0.0274366,0.00516151 0.0346572,0.016299 0.00722063,0.011348 0.011348,0.0297153 0.0123821,0.0555046 -0.011348,0.00495103 -0.0204264,0.0129953 -0.0274457,0.024142 -0.00701014,0.0111375 -0.0107257,0.0253774 -0.0109362,0.0427015 -0.000201336,0.0125926 0.00206827,0.0235197 0.00701929,0.0330099 0.00474054,0.00928889 0.0136176,0.0156859 0.0264116,0.0189896 -0.00495103,0.0367163 -0.0123821,0.070559 -0.0222842,0.101912 -0.00970072,0.0311613 -0.0210487,0.0583965 -0.0342545,0.0817057 -0.0129953,0.0231078 -0.0270247,0.0412647 -0.0418778,0.05426 -0.0148531,0.012794 -0.0299166,0.0193923 -0.0451815,0.0196028l0 0z"/>
  <path id="12" class="fil0" d="M1.46688 0.342856l-0.0136176 0.0643725 0 -0.00742196c0,-0.0121717 -0.00330373,-0.0229065 -0.0103139,-0.0323967 -0.00701929,-0.00949023 -0.017745,-0.0169122 -0.0325981,-0.0222842 -0.0148622,-0.00556418 -0.0338427,-0.00824561 -0.0573624,-0.0084561 -0.0359018,0.000210487 -0.0687012,0.00701929 -0.0984165,0.0204264 -0.0297062,0.0134071 -0.0563191,0.0315639 -0.0798387,0.0546718 -0.0235197,0.0231078 -0.0441566,0.0495194 -0.0614897,0.0788138 -0.0175345,0.0295048 -0.0321862,0.0604556 -0.0437356,0.0928432 -0.0115493,0.0321862 -0.0202159,0.0643725 -0.0259998,0.0963574 -0.00577467,0.0319758 -0.00865743,0.0621029 -0.00865743,0.0901618 0.000201336,0.0367255 0.00474054,0.0678776 0.0138189,0.093255 0.00907841,0.0255788 0.0214605,0.0460052 0.0369268,0.0616911 0.0154754,0.0154662 0.033019,0.0268142 0.0526127,0.0338335 0.0196028,0.00722063 0.0400292,0.0105244 0.0612792,0.0105244 0.0214605,-0.000210487 0.0410542,-0.0031024 0.059211,-0.00907841 0.0179555,-0.00598516 0.0342545,-0.0140294 0.0491076,-0.0243525 0.0148531,-0.0101034 0.0282694,-0.0216619 0.0402305,-0.0346572l-0.0148531 0.065608c-0.0235197,0.00701929 -0.0470393,0.0156767 -0.0707695,0.0262011 -0.0235197,0.0105244 -0.0451815,0.0229065 -0.0649857,0.0377596 -0.0196028,0.0146517 -0.03549,0.0319758 -0.0474603,0.051789 -0.0121717,0.0198041 -0.0181568,0.0427015 -0.0185686,0.0687012 0.000411823,0.0268234 0.00680881,0.0490984 0.0191909,0.0668434 0.0123821,0.017745 0.029093,0.0311521 0.0499312,0.0400292 0.0208382,0.00886792 0.0439461,0.0132058 0.0695249,0.0132058 0.0206369,0.000201336 0.0420883,-0.00248009 0.0639607,-0.00804427 0.0220737,-0.00557334 0.0435343,-0.0158872 0.064162,-0.0307494 0.0206369,-0.0150544 0.0392055,-0.0363045 0.0557059,-0.064162 0.0165095,-0.027647 0.0295048,-0.0635488 0.0389951,-0.107495l0.0185686 -0.0891276c0.0194014,-0.00495103 0.0392055,-0.0123821 0.0598333,-0.0220737 0.0204264,-0.00970072 0.0406423,-0.0231078 0.0604556,-0.0402305 0.0195936,-0.0173332 0.0379609,-0.0396174 0.0550836,-0.0670539 0.0169213,-0.0274457 0.0315639,-0.0614897 0.0437447,-0.102132l-0.0519995 0c-0.011348,0.03549 -0.0245446,0.0647843 -0.0389951,0.0876908 -0.0146426,0.0228974 -0.0315639,0.0412647 -0.0507457,0.0552941 -0.0189896,0.0138189 -0.0412647,0.0253774 -0.0662303,0.0340349l0.122549 -0.574392 -0.178255 0zm-0.0755192 0.0705681c0.0130045,0.000201336 0.0233183,0.00329458 0.030539,0.00886792 0.00722063,0.00557334 0.0123821,0.0119703 0.0152649,0.0189805 0.00309325,0.00701929 0.00474969,0.0130045 0.00495103,0.0179555l-0.0631279 0.293383c-0.00598516,0.0210396 -0.0146517,0.0387846 -0.0259998,0.0530245 -0.0111375,0.0144413 -0.0233092,0.025167 -0.0363136,0.0325981 -0.0129953,0.00722063 -0.0253774,0.0109362 -0.0367255,0.0109362 -0.00577467,0.000201336 -0.0121717,-0.000411823 -0.0189805,-0.00165644 -0.00701014,-0.0014368 -0.0138189,-0.00495103 -0.0204264,-0.0109362 -0.00638783,-0.00577467 -0.0117598,-0.0154662 -0.0158872,-0.028672 -0.00432872,-0.0132058 -0.00638783,-0.0317744 -0.00659832,-0.0552941 0,-0.0196028 0.00185778,-0.0414751 0.00557334,-0.065608 0.00371556,-0.0239315 0.00886792,-0.0486958 0.0158872,-0.0740732 0.00701014,-0.0253774 0.0156767,-0.0499312 0.0257893,-0.0736522 0.0101034,-0.0235197 0.0214514,-0.0449802 0.0344558,-0.0637502 0.0127848,-0.0189805 0.0268142,-0.034044 0.0422896,-0.0451907 0.0152741,-0.010927 0.0317744,-0.0167109 0.0493089,-0.0169122zm-0.191873 0.720461c0.000411823,-0.0165004 0.0061865,-0.0311521 0.0173332,-0.0441474 0.011348,-0.012794 0.0262011,-0.0243525 0.0445592,-0.0342545 0.0181568,-0.0101034 0.0379701,-0.0189805 0.0594215,-0.0268234l-0.00742196 0.0359018c-0.00557334,0.0243433 -0.0121808,0.0447697 -0.0200146,0.0610688 -0.00784294,0.016299 -0.016299,0.0284707 -0.0251761,0.0367255 -0.00907841,0.00825476 -0.0179463,0.0123821 -0.0266129,0.0123821 -0.00907841,-0.000210487 -0.0167109,-0.00248009 -0.0231078,-0.00680881 -0.0061865,-0.00412738 -0.0109362,-0.00949023 -0.0140294,-0.0156767 -0.00330373,-0.00619565 -0.00495103,-0.0123821 -0.00495103,-0.0183673z"/>
  <path id="123" class="fil0" d="M1.78749 0.178219c0.000210487,0.0183581 0.0045392,0.0348677 0.0132058,0.0495194 0.00866658,0.0146426 0.0204264,0.0264024 0.0350782,0.035069 0.0146517,0.00846525 0.0311521,0.0130045 0.0495194,0.0132058 0.0183581,-0.000201336 0.035069,-0.00474054 0.0499221,-0.0132058 0.0148622,-0.00866658 0.0266221,-0.0204264 0.03549,-0.035069 0.00886792,-0.0146517 0.0134071,-0.0311613 0.0136176,-0.0495194 -0.000210487,-0.0183581 -0.00474969,-0.0350782 -0.0136176,-0.0499312 -0.00886792,-0.0148531 -0.0206278,-0.0266129 -0.03549,-0.0354808 -0.0148531,-0.00887707 -0.0315639,-0.0134163 -0.0499221,-0.0136176 -0.0183673,0.000201336 -0.0348677,0.00474054 -0.0495194,0.0136176 -0.0146517,0.00886792 -0.0264116,0.0206278 -0.0350782,0.0354808 -0.00866658,0.0148531 -0.0129953,0.0315731 -0.0132058,0.0499312zm-0.0247551 0.164638l-0.0841766 0.397372c-0.00309325,0.0148531 -0.00557334,0.029093 -0.00722063,0.0425001 -0.00185778,0.0136176 -0.00268142,0.0262102 -0.00268142,0.0379701 0.000201336,0.0346572 0.0061865,0.0627161 0.017745,0.0847898 0.0117598,0.0218724 0.0274366,0.0379701 0.0474511,0.0482839 0.0198041,0.0103139 0.0422988,0.0154754 0.0672553,0.0154754 0.0134163,0.000201336 0.0288917,-0.00124462 0.0460143,-0.0045392 0.0171227,-0.0031024 0.035069,-0.00907841 0.0540586,-0.0179555 0.0189805,-0.00886792 0.0379609,-0.0218632 0.0571427,-0.0387846 0.0191909,-0.0169213 0.0375491,-0.0389951 0.0550928,-0.0664316 0.0175345,-0.0274457 0.0334217,-0.0610779 0.0476616,-0.101308l-0.0519995 0c-0.00639698,0.0208382 -0.0150544,0.0394069 -0.0264024,0.0557059 -0.011348,0.016299 -0.024142,0.0293035 -0.0387937,0.0387937 -0.0146426,0.00949023 -0.0299166,0.0142308 -0.0462157,0.0144413 -0.017324,0.000201336 -0.030118,-0.00309325 -0.0383727,-0.00990205 -0.00825476,-0.00680881 -0.0123821,-0.0187791 -0.0123821,-0.0359018 0,-0.00557334 0.000411823,-0.0115585 0.00103413,-0.0179555 0.000823646,-0.00638783 0.00205911,-0.0136085 0.00391689,-0.0216619l0.0891368 -0.420892 -0.178264 0z"/>
  <path id="1234" class="fil0" d="M2.36559 0.51369c-0.000210487,0.0160977 -0.00206827,0.0344558 -0.00577467,0.0550928 -0.00371556,0.0208382 -0.00825476,0.0427015 -0.0138281,0.0660198 -0.00557334,0.0231078 -0.0109362,0.046417 -0.0165004,0.0699458 -0.005372,0.0233092 -0.0101125,0.0457947 -0.0138281,0.0670539 -0.00371556,0.0214514 -0.00557334,0.0406423 -0.00577467,0.0575545 0,0.017745 0.00247094,0.0350782 0.00763245,0.0515877 0.00536285,0.0167109 0.0136176,0.0315639 0.0249656,0.0447697 0.0115493,0.0132058 0.0266129,0.023721 0.0451815,0.0315639 0.0187791,0.00784294 0.0414751,0.0117598 0.0682894,0.0119703 0.0132058,0.000201336 0.0274457,-0.00124462 0.0425093,-0.00433787 0.0150544,-0.00309325 0.0307403,-0.00907841 0.0468288,-0.017745 0.016299,-0.00886792 0.0325981,-0.0216619 0.0488971,-0.0385741 0.016299,-0.0169213 0.0321862,-0.0392055 0.0476616,-0.0666421 0.0156767,-0.0274457 0.0303285,-0.0612792 0.0443579,-0.10172l-0.0519904 0c-0.00887707,0.0216619 -0.017745,0.0406423 -0.0270247,0.0569414 -0.00907841,0.0163082 -0.0196028,0.0288917 -0.0317744,0.0379701 -0.0121717,0.00927974 -0.0272352,0.0138189 -0.0451907,0.0140294 -0.0183581,-0.000210487 -0.0311521,-0.00495103 -0.0385741,-0.0144413 -0.0076416,-0.00928889 -0.0111467,-0.0218724 -0.0109362,-0.0375582 0.000411823,-0.0177358 0.00350507,-0.0394069 0.00927974,-0.0649857 0.00598516,-0.0257893 0.012794,-0.0534363 0.0204264,-0.0831425 0.00784294,-0.0297153 0.0146517,-0.0592201 0.0204264,-0.088725 0.00598516,-0.0297062 0.00907841,-0.0571427 0.00928889,-0.0825202 -0.000210487,-0.033019 -0.00619565,-0.059632 -0.0179555,-0.0802597 -0.0117598,-0.0206369 -0.0280589,-0.0356913 -0.0486866,-0.045392 -0.0204264,-0.00970072 -0.0441566,-0.0144413 -0.0707695,-0.0142399 -0.012794,-0.000201336 -0.0272352,0.00124462 -0.0431224,0.00474969 -0.0156767,0.00350507 -0.0321862,0.0101125 -0.0495194,0.0202159 -0.017324,0.00990205 -0.0346572,0.0247643 -0.0521917,0.0443579l0.0136176 -0.0643725 -0.178264 0 -0.131216 0.618961 0.178255 0 0.0841766 -0.397372c0.00619565,-0.0208382 0.0140294,-0.04002 0.0233183,-0.0571519 0.00949023,-0.0171227 0.0202159,-0.0307403 0.0325981,-0.0410542 0.0121717,-0.0101125 0.0257893,-0.0154754 0.0406423,-0.0156767 0.0148531,0 0.0259998,0.00536285 0.0334217,0.016299 0.00743112,0.0107257 0.0111467,0.0264024 0.0111467,0.0468288l0 0z"/>
  <path id="12345" class="fil1 str0" d="M0.529778 0.0482382c-0.00804427,-0.00062231 -0.0160885,-0.00123547 -0.0243433,-0.00164729 -0.00804427,-0.00062231 -0.0165095,-0.000832797 -0.0251761,-0.000832797 -0.0416765,0.000210487 -0.0831425,0.00598516 -0.124618,0.017745 -0.0412555,0.0115585 -0.080461,0.027647 -0.117598,0.0480735 -0.0371373,0.0206369 -0.0701472,0.0445684 -0.0988283,0.0715931 -0.0288825,0.0272352 -0.0515785,0.0563282 -0.0680789,0.0876817 -0.0165095,0.0313626 -0.0249656,0.0635488 -0.0253774,0.0967692 0,0.0295048 0.00515236,0.0530245 0.0152649,0.0707695 0.0103139,0.0175345 0.025167,0.0303285 0.0449802,0.0379609 0.0195936,0.00783379 0.0437356,0.0115493 0.0722063,0.011348 -0.000613159,-0.00330373 -0.0022696,-0.00763245 -0.00495103,-0.012794 -0.00289191,-0.00516151 -0.00557334,-0.0129953 -0.00825476,-0.0239315 -0.00247094,-0.0109362 -0.00391689,-0.0268234 -0.00412738,-0.0474511 0.000210487,-0.0441566 0.00722063,-0.0837648 0.0210487,-0.118843 0.0138189,-0.0352795 0.0336322,-0.0654066 0.0594215,-0.0907841 0.0257893,-0.025167 0.05674,-0.0453829 0.0928432,-0.0602451l-0.184451 0.857873c0.00495103,-0.000613159 0.00970072,-0.00102498 0.0142399,-0.00102498 0.0045392,-0.000210487 0.00927974,-0.000210487 0.0142308,-0.000210487 0.0311521,0.000210487 0.0612792,0.00557334 0.0903722,0.0156859 0.0288825,0.00990205 0.0569414,0.0233092 0.0839661,0.04002 0.0270339,0.0167109 0.0534363,0.0348677 0.0792256,0.0548823 0.0257893,0.0200146 0.0509654,0.0398187 0.075931,0.0598333 0.0247551,0.0200146 0.0495103,0.0381714 0.0740641,0.0548823 0.0245538,0.0167109 0.0491076,0.030118 0.0736614,0.0402305 0.0247551,0.0101125 0.0497208,0.0152649 0.0748877,0.0154754 0.0224947,-0.000210487 0.0425001,-0.00825476 0.0602451,-0.0239315 0.0179555,-0.0158872 0.0325981,-0.0381714 0.0445684,-0.0672644 0.0117598,-0.0288825 0.0196028,-0.0633384 0.0239315,-0.103157 -0.0179463,0.00742196 -0.0356913,0.0125835 -0.0530245,0.0154754 -0.0173332,0.00309325 -0.0342454,0.0045392 -0.0509562,0.00432872 -0.0313626,-0.000201336 -0.0619016,-0.00495103 -0.0911959,-0.0138189 -0.0295048,-0.00887707 -0.058186,-0.0204264 -0.0860344,-0.0342545 -0.0278575,-0.0138189 -0.0552941,-0.0280589 -0.081907,-0.0431224 -0.0268234,-0.0148531 -0.053235,-0.028672 -0.0792256,-0.0408437 -0.0259998,-0.0123821 -0.051789,-0.021671 -0.0775783,-0.027647l0.190637 -0.888824z"/>
  <path id="123456" class="fil1 str0" d="M0.829347 0.331719c-0.0363045,0.000210487 -0.0693235,0.00577467 -0.0990297,0.0169213 -0.0297062,0.0109362 -0.0563282,0.0259906 -0.0796374,0.045392 -0.0235197,0.0191818 -0.0441566,0.0410542 -0.0618924,0.0658093 -0.017745,0.0247643 -0.0328086,0.0509654 -0.045392,0.0786124 -0.0125835,0.027647 -0.022696,0.0554954 -0.030539,0.083353 -0.00784294,0.0278484 -0.0136176,0.0546718 -0.0173332,0.0802506 -0.00350507,0.0255879 -0.00536285,0.0484853 -0.00536285,0.0691222 0.000411823,0.0468288 0.00887707,0.0845884 0.0257893,0.113471 0.0169213,0.0286812 0.0400292,0.0497299 0.0697353,0.0627252 0.0297153,0.0132058 0.0637593,0.0196028 0.102544,0.0193923 0.0381714,-0.000201336 0.0740641,-0.00886792 0.107696,-0.0259998 0.0334217,-0.0171227 0.0635488,-0.0420883 0.0899604,-0.0744759 0.0264024,-0.0323967 0.0480643,-0.0713918 0.0649857,-0.117397 0.0169213,-0.0458039 0.0280589,-0.0973824 0.0332204,-0.154736 0.0303285,-0.00495103 0.059211,-0.0123821 0.0864462,-0.0220829 0.0274366,-0.00949023 0.0524022,-0.0212501 0.0750982,-0.0348677 0.0224855,-0.0136176 0.0416765,-0.0288825 0.0575637,-0.0457947l-0.0111375 -0.0334309c-0.0181568,0.0125926 -0.0381714,0.0245538 -0.0604556,0.0357005 -0.0222842,0.0113389 -0.0445592,0.0204173 -0.0672553,0.0276379 -0.022696,0.00701929 -0.0435343,0.0107349 -0.0629265,0.0109362 -0.00185778,0 -0.00392604,0 -0.00639698,-0.000411823 -0.0022696,-0.000201336 -0.00474969,-0.000823646 -0.00722063,-0.00205911 0,-0.0651961 -0.0130045,-0.114304 -0.0392055,-0.147725 -0.0264116,-0.0334217 -0.0660198,-0.0501326 -0.119255,-0.0503431zm-0.0915986 0.523637c-0.0156859,0.000210487 -0.0280589,-0.0022696 -0.0373478,-0.00784294 -0.00927974,-0.00556418 -0.0158872,-0.0154662 -0.0198041,-0.030118 -0.00412738,-0.0146517 -0.00598516,-0.0352795 -0.00598516,-0.0623134 0,-0.0204173 0.00205911,-0.0431133 0.00598516,-0.0678776 0.00412738,-0.0247551 0.00990205,-0.0501326 0.0171227,-0.0763337 0.00743112,-0.0259998 0.0160977,-0.0509654 0.0262011,-0.0753087 0.0101125,-0.024142 0.0212501,-0.0458039 0.0336322,-0.0651961 0.0121717,-0.0191909 0.025167,-0.0344558 0.0389951,-0.0458039 0.0138189,-0.011348 0.0280589,-0.0171227 0.0427106,-0.0173332 0.0158781,-0.000201336 0.0274366,0.00516151 0.0346572,0.016299 0.00722063,0.011348 0.011348,0.0297153 0.0123821,0.0555046 -0.011348,0.00495103 -0.0204264,0.0129953 -0.0274457,0.024142 -0.00701014,0.0111375 -0.0107257,0.0253774 -0.0109362,0.0427015 -0.000201336,0.0125926 0.00206827,0.0235197 0.00701929,0.0330099 0.00474054,0.00928889 0.0136176,0.0156859 0.0264116,0.0189896 -0.00495103,0.0367163 -0.0123821,0.070559 -0.0222842,0.101912 -0.00970072,0.0311613 -0.0210487,0.0583965 -0.0342545,0.0817057 -0.0129953,0.0231078 -0.0270247,0.0412647 -0.0418778,0.05426 -0.0148531,0.012794 -0.0299166,0.0193923 -0.0451815,0.0196028l0 0z"/>
  <path id="1234567" class="fil1 str0" d="M1.46688 0.342856l-0.0136176 0.0643725 0 -0.00742196c0,-0.0121717 -0.00330373,-0.0229065 -0.0103139,-0.0323967 -0.00701929,-0.00949023 -0.017745,-0.0169122 -0.0325981,-0.0222842 -0.0148622,-0.00556418 -0.0338427,-0.00824561 -0.0573624,-0.0084561 -0.0359018,0.000210487 -0.0687012,0.00701929 -0.0984165,0.0204264 -0.0297062,0.0134071 -0.0563191,0.0315639 -0.0798387,0.0546718 -0.0235197,0.0231078 -0.0441566,0.0495194 -0.0614897,0.0788138 -0.0175345,0.0295048 -0.0321862,0.0604556 -0.0437356,0.0928432 -0.0115493,0.0321862 -0.0202159,0.0643725 -0.0259998,0.0963574 -0.00577467,0.0319758 -0.00865743,0.0621029 -0.00865743,0.0901618 0.000201336,0.0367255 0.00474054,0.0678776 0.0138189,0.093255 0.00907841,0.0255788 0.0214605,0.0460052 0.0369268,0.0616911 0.0154754,0.0154662 0.033019,0.0268142 0.0526127,0.0338335 0.0196028,0.00722063 0.0400292,0.0105244 0.0612792,0.0105244 0.0214605,-0.000210487 0.0410542,-0.0031024 0.059211,-0.00907841 0.0179555,-0.00598516 0.0342545,-0.0140294 0.0491076,-0.0243525 0.0148531,-0.0101034 0.0282694,-0.0216619 0.0402305,-0.0346572l-0.0148531 0.065608c-0.0235197,0.00701929 -0.0470393,0.0156767 -0.0707695,0.0262011 -0.0235197,0.0105244 -0.0451815,0.0229065 -0.0649857,0.0377596 -0.0196028,0.0146517 -0.03549,0.0319758 -0.0474603,0.051789 -0.0121717,0.0198041 -0.0181568,0.0427015 -0.0185686,0.0687012 0.000411823,0.0268234 0.00680881,0.0490984 0.0191909,0.0668434 0.0123821,0.017745 0.029093,0.0311521 0.0499312,0.0400292 0.0208382,0.00886792 0.0439461,0.0132058 0.0695249,0.0132058 0.0206369,0.000201336 0.0420883,-0.00248009 0.0639607,-0.00804427 0.0220737,-0.00557334 0.0435343,-0.0158872 0.064162,-0.0307494 0.0206369,-0.0150544 0.0392055,-0.0363045 0.0557059,-0.064162 0.0165095,-0.027647 0.0295048,-0.0635488 0.0389951,-0.107495l0.0185686 -0.0891276c0.0194014,-0.00495103 0.0392055,-0.0123821 0.0598333,-0.0220737 0.0204264,-0.00970072 0.0406423,-0.0231078 0.0604556,-0.0402305 0.0195936,-0.0173332 0.0379609,-0.0396174 0.0550836,-0.0670539 0.0169213,-0.0274457 0.0315639,-0.0614897 0.0437447,-0.102132l-0.0519995 0c-0.011348,0.03549 -0.0245446,0.0647843 -0.0389951,0.0876908 -0.0146426,0.0228974 -0.0315639,0.0412647 -0.0507457,0.0552941 -0.0189896,0.0138189 -0.0412647,0.0253774 -0.0662303,0.0340349l0.122549 -0.574392 -0.178255 0zm-0.0755192 0.0705681c0.0130045,0.000201336 0.0233183,0.00329458 0.030539,0.00886792 0.00722063,0.00557334 0.0123821,0.0119703 0.0152649,0.0189805 0.00309325,0.00701929 0.00474969,0.0130045 0.00495103,0.0179555l-0.0631279 0.293383c-0.00598516,0.0210396 -0.0146517,0.0387846 -0.0259998,0.0530245 -0.0111375,0.0144413 -0.0233092,0.025167 -0.0363136,0.0325981 -0.0129953,0.00722063 -0.0253774,0.0109362 -0.0367255,0.0109362 -0.00577467,0.000201336 -0.0121717,-0.000411823 -0.0189805,-0.00165644 -0.00701014,-0.0014368 -0.0138189,-0.00495103 -0.0204264,-0.0109362 -0.00638783,-0.00577467 -0.0117598,-0.0154662 -0.0158872,-0.028672 -0.00432872,-0.0132058 -0.00638783,-0.0317744 -0.00659832,-0.0552941 0,-0.0196028 0.00185778,-0.0414751 0.00557334,-0.065608 0.00371556,-0.0239315 0.00886792,-0.0486958 0.0158872,-0.0740732 0.00701014,-0.0253774 0.0156767,-0.0499312 0.0257893,-0.0736522 0.0101034,-0.0235197 0.0214514,-0.0449802 0.0344558,-0.0637502 0.0127848,-0.0189805 0.0268142,-0.034044 0.0422896,-0.0451907 0.0152741,-0.010927 0.0317744,-0.0167109 0.0493089,-0.0169122zm-0.191873 0.720461c0.000411823,-0.0165004 0.0061865,-0.0311521 0.0173332,-0.0441474 0.011348,-0.012794 0.0262011,-0.0243525 0.0445592,-0.0342545 0.0181568,-0.0101034 0.0379701,-0.0189805 0.0594215,-0.0268234l-0.00742196 0.0359018c-0.00557334,0.0243433 -0.0121808,0.0447697 -0.0200146,0.0610688 -0.00784294,0.016299 -0.016299,0.0284707 -0.0251761,0.0367255 -0.00907841,0.00825476 -0.0179463,0.0123821 -0.0266129,0.0123821 -0.00907841,-0.000210487 -0.0167109,-0.00248009 -0.0231078,-0.00680881 -0.0061865,-0.00412738 -0.0109362,-0.00949023 -0.0140294,-0.0156767 -0.00330373,-0.00619565 -0.00495103,-0.0123821 -0.00495103,-0.0183673z"/>
  <path id="12345678" class="fil1 str0" d="M1.78749 0.178219c0.000210487,0.0183581 0.0045392,0.0348677 0.0132058,0.0495194 0.00866658,0.0146426 0.0204264,0.0264024 0.0350782,0.035069 0.0146517,0.00846525 0.0311521,0.0130045 0.0495194,0.0132058 0.0183581,-0.000201336 0.035069,-0.00474054 0.0499221,-0.0132058 0.0148622,-0.00866658 0.0266221,-0.0204264 0.03549,-0.035069 0.00886792,-0.0146517 0.0134071,-0.0311613 0.0136176,-0.0495194 -0.000210487,-0.0183581 -0.00474969,-0.0350782 -0.0136176,-0.0499312 -0.00886792,-0.0148531 -0.0206278,-0.0266129 -0.03549,-0.0354808 -0.0148531,-0.00887707 -0.0315639,-0.0134163 -0.0499221,-0.0136176 -0.0183673,0.000201336 -0.0348677,0.00474054 -0.0495194,0.0136176 -0.0146517,0.00886792 -0.0264116,0.0206278 -0.0350782,0.0354808 -0.00866658,0.0148531 -0.0129953,0.0315731 -0.0132058,0.0499312zm-0.0247551 0.164638l-0.0841766 0.397372c-0.00309325,0.0148531 -0.00557334,0.029093 -0.00722063,0.0425001 -0.00185778,0.0136176 -0.00268142,0.0262102 -0.00268142,0.0379701 0.000201336,0.0346572 0.0061865,0.0627161 0.017745,0.0847898 0.0117598,0.0218724 0.0274366,0.0379701 0.0474511,0.0482839 0.0198041,0.0103139 0.0422988,0.0154754 0.0672553,0.0154754 0.0134163,0.000201336 0.0288917,-0.00124462 0.0460143,-0.0045392 0.0171227,-0.0031024 0.035069,-0.00907841 0.0540586,-0.0179555 0.0189805,-0.00886792 0.0379609,-0.0218632 0.0571427,-0.0387846 0.0191909,-0.0169213 0.0375491,-0.0389951 0.0550928,-0.0664316 0.0175345,-0.0274457 0.0334217,-0.0610779 0.0476616,-0.101308l-0.0519995 0c-0.00639698,0.0208382 -0.0150544,0.0394069 -0.0264024,0.0557059 -0.011348,0.016299 -0.024142,0.0293035 -0.0387937,0.0387937 -0.0146426,0.00949023 -0.0299166,0.0142308 -0.0462157,0.0144413 -0.017324,0.000201336 -0.030118,-0.00309325 -0.0383727,-0.00990205 -0.00825476,-0.00680881 -0.0123821,-0.0187791 -0.0123821,-0.0359018 0,-0.00557334 0.000411823,-0.0115585 0.00103413,-0.0179555 0.000823646,-0.00638783 0.00205911,-0.0136085 0.00391689,-0.0216619l0.0891368 -0.420892 -0.178264 0z"/>
  <path id="123456789" class="fil1 str0" d="M2.36559 0.51369c-0.000210487,0.0160977 -0.00206827,0.0344558 -0.00577467,0.0550928 -0.00371556,0.0208382 -0.00825476,0.0427015 -0.0138281,0.0660198 -0.00557334,0.0231078 -0.0109362,0.046417 -0.0165004,0.0699458 -0.005372,0.0233092 -0.0101125,0.0457947 -0.0138281,0.0670539 -0.00371556,0.0214514 -0.00557334,0.0406423 -0.00577467,0.0575545 0,0.017745 0.00247094,0.0350782 0.00763245,0.0515877 0.00536285,0.0167109 0.0136176,0.0315639 0.0249656,0.0447697 0.0115493,0.0132058 0.0266129,0.023721 0.0451815,0.0315639 0.0187791,0.00784294 0.0414751,0.0117598 0.0682894,0.0119703 0.0132058,0.000201336 0.0274457,-0.00124462 0.0425093,-0.00433787 0.0150544,-0.00309325 0.0307403,-0.00907841 0.0468288,-0.017745 0.016299,-0.00886792 0.0325981,-0.0216619 0.0488971,-0.0385741 0.016299,-0.0169213 0.0321862,-0.0392055 0.0476616,-0.0666421 0.0156767,-0.0274457 0.0303285,-0.0612792 0.0443579,-0.10172l-0.0519904 0c-0.00887707,0.0216619 -0.017745,0.0406423 -0.0270247,0.0569414 -0.00907841,0.0163082 -0.0196028,0.0288917 -0.0317744,0.0379701 -0.0121717,0.00927974 -0.0272352,0.0138189 -0.0451907,0.0140294 -0.0183581,-0.000210487 -0.0311521,-0.00495103 -0.0385741,-0.0144413 -0.0076416,-0.00928889 -0.0111467,-0.0218724 -0.0109362,-0.0375582 0.000411823,-0.0177358 0.00350507,-0.0394069 0.00927974,-0.0649857 0.00598516,-0.0257893 0.012794,-0.0534363 0.0204264,-0.0831425 0.00784294,-0.0297153 0.0146517,-0.0592201 0.0204264,-0.088725 0.00598516,-0.0297062 0.00907841,-0.0571427 0.00928889,-0.0825202 -0.000210487,-0.033019 -0.00619565,-0.059632 -0.0179555,-0.0802597 -0.0117598,-0.0206369 -0.0280589,-0.0356913 -0.0486866,-0.045392 -0.0204264,-0.00970072 -0.0441566,-0.0144413 -0.0707695,-0.0142399 -0.012794,-0.000201336 -0.0272352,0.00124462 -0.0431224,0.00474969 -0.0156767,0.00350507 -0.0321862,0.0101125 -0.0495194,0.0202159 -0.017324,0.00990205 -0.0346572,0.0247643 -0.0521917,0.0443579l0.0136176 -0.0643725 -0.178264 0 -0.131216 0.618961 0.178255 0 0.0841766 -0.397372c0.00619565,-0.0208382 0.0140294,-0.04002 0.0233183,-0.0571519 0.00949023,-0.0171227 0.0202159,-0.0307403 0.0325981,-0.0410542 0.0121717,-0.0101125 0.0257893,-0.0154754 0.0406423,-0.0156767 0.0148531,0 0.0259998,0.00536285 0.0334217,0.016299 0.00743112,0.0107257 0.0111467,0.0264024 0.0111467,0.0468288l0 0z"/>
  <path class="fil0" d="M0.529778 0.0482382c-0.00804427,-0.00062231 -0.0160885,-0.00123547 -0.0243433,-0.00164729 -0.00804427,-0.00062231 -0.0165095,-0.000832797 -0.0251761,-0.000832797 -0.0416765,0.000210487 -0.0831425,0.00598516 -0.124618,0.017745 -0.0412555,0.0115585 -0.080461,0.027647 -0.117598,0.0480735 -0.0371373,0.0206369 -0.0701472,0.0445684 -0.0988283,0.0715931 -0.0288825,0.0272352 -0.0515785,0.0563282 -0.0680789,0.0876817 -0.0165095,0.0313626 -0.0249656,0.0635488 -0.0253774,0.0967692 0,0.0295048 0.00515236,0.0530245 0.0152649,0.0707695 0.0103139,0.0175345 0.025167,0.0303285 0.0449802,0.0379609 0.0195936,0.00783379 0.0437356,0.0115493 0.0722063,0.011348 -0.000613159,-0.00330373 -0.0022696,-0.00763245 -0.00495103,-0.012794 -0.00289191,-0.00516151 -0.00557334,-0.0129953 -0.00825476,-0.0239315 -0.00247094,-0.0109362 -0.00391689,-0.0268234 -0.00412738,-0.0474511 0.000210487,-0.0441566 0.00722063,-0.0837648 0.0210487,-0.118843 0.0138189,-0.0352795 0.0336322,-0.0654066 0.0594215,-0.0907841 0.0257893,-0.025167 0.05674,-0.0453829 0.0928432,-0.0602451l-0.184451 0.857873c0.00495103,-0.000613159 0.00970072,-0.00102498 0.0142399,-0.00102498 0.0045392,-0.000210487 0.00927974,-0.000210487 0.0142308,-0.000210487 0.0311521,0.000210487 0.0612792,0.00557334 0.0903722,0.0156859 0.0288825,0.00990205 0.0569414,0.0233092 0.0839661,0.04002 0.0270339,0.0167109 0.0534363,0.0348677 0.0792256,0.0548823 0.0257893,0.0200146 0.0509654,0.0398187 0.075931,0.0598333 0.0247551,0.0200146 0.0495103,0.0381714 0.0740641,0.0548823 0.0245538,0.0167109 0.0491076,0.030118 0.0736614,0.0402305 0.0247551,0.0101125 0.0497208,0.0152649 0.0748877,0.0154754 0.0224947,-0.000210487 0.0425001,-0.00825476 0.0602451,-0.0239315 0.0179555,-0.0158872 0.0325981,-0.0381714 0.0445684,-0.0672644 0.0117598,-0.0288825 0.0196028,-0.0633384 0.0239315,-0.103157 -0.0179463,0.00742196 -0.0356913,0.0125835 -0.0530245,0.0154754 -0.0173332,0.00309325 -0.0342454,0.0045392 -0.0509562,0.00432872 -0.0313626,-0.000201336 -0.0619016,-0.00495103 -0.0911959,-0.0138189 -0.0295048,-0.00887707 -0.058186,-0.0204264 -0.0860344,-0.0342545 -0.0278575,-0.0138189 -0.0552941,-0.0280589 -0.081907,-0.0431224 -0.0268234,-0.0148531 -0.053235,-0.028672 -0.0792256,-0.0408437 -0.0259998,-0.0123821 -0.051789,-0.021671 -0.0775783,-0.027647l0.190637 -0.888824z"/>
  <path id="1" class="fil0" d="M0.829347 0.331719c-0.0363045,0.000210487 -0.0693235,0.00577467 -0.0990297,0.0169213 -0.0297062,0.0109362 -0.0563282,0.0259906 -0.0796374,0.045392 -0.0235197,0.0191818 -0.0441566,0.0410542 -0.0618924,0.0658093 -0.017745,0.0247643 -0.0328086,0.0509654 -0.045392,0.0786124 -0.0125835,0.027647 -0.022696,0.0554954 -0.030539,0.083353 -0.00784294,0.0278484 -0.0136176,0.0546718 -0.0173332,0.0802506 -0.00350507,0.0255879 -0.00536285,0.0484853 -0.00536285,0.0691222 0.000411823,0.0468288 0.00887707,0.0845884 0.0257893,0.113471 0.0169213,0.0286812 0.0400292,0.0497299 0.0697353,0.0627252 0.0297153,0.0132058 0.0637593,0.0196028 0.102544,0.0193923 0.0381714,-0.000201336 0.0740641,-0.00886792 0.107696,-0.0259998 0.0334217,-0.0171227 0.0635488,-0.0420883 0.0899604,-0.0744759 0.0264024,-0.0323967 0.0480643,-0.0713918 0.0649857,-0.117397 0.0169213,-0.0458039 0.0280589,-0.0973824 0.0332204,-0.154736 0.0303285,-0.00495103 0.059211,-0.0123821 0.0864462,-0.0220829 0.0274366,-0.00949023 0.0524022,-0.0212501 0.0750982,-0.0348677 0.0224855,-0.0136176 0.0416765,-0.0288825 0.0575637,-0.0457947l-0.0111375 -0.0334309c-0.0181568,0.0125926 -0.0381714,0.0245538 -0.0604556,0.0357005 -0.0222842,0.0113389 -0.0445592,0.0204173 -0.0672553,0.0276379 -0.022696,0.00701929 -0.0435343,0.0107349 -0.0629265,0.0109362 -0.00185778,0 -0.00392604,0 -0.00639698,-0.000411823 -0.0022696,-0.000201336 -0.00474969,-0.000823646 -0.00722063,-0.00205911 0,-0.0651961 -0.0130045,-0.114304 -0.0392055,-0.147725 -0.0264116,-0.0334217 -0.0660198,-0.0501326 -0.119255,-0.0503431zm-0.0915986 0.523637c-0.0156859,0.000210487 -0.0280589,-0.0022696 -0.0373478,-0.00784294 -0.00927974,-0.00556418 -0.0158872,-0.0154662 -0.0198041,-0.030118 -0.00412738,-0.0146517 -0.00598516,-0.0352795 -0.00598516,-0.0623134 0,-0.0204173 0.00205911,-0.0431133 0.00598516,-0.0678776 0.00412738,-0.0247551 0.00990205,-0.0501326 0.0171227,-0.0763337 0.00743112,-0.0259998 0.0160977,-0.0509654 0.0262011,-0.0753087 0.0101125,-0.024142 0.0212501,-0.0458039 0.0336322,-0.0651961 0.0121717,-0.0191909 0.025167,-0.0344558 0.0389951,-0.0458039 0.0138189,-0.011348 0.0280589,-0.0171227 0.0427106,-0.0173332 0.0158781,-0.000201336 0.0274366,0.00516151 0.0346572,0.016299 0.00722063,0.011348 0.011348,0.0297153 0.0123821,0.0555046 -0.011348,0.00495103 -0.0204264,0.0129953 -0.0274457,0.024142 -0.00701014,0.0111375 -0.0107257,0.0253774 -0.0109362,0.0427015 -0.000201336,0.0125926 0.00206827,0.0235197 0.00701929,0.0330099 0.00474054,0.00928889 0.0136176,0.0156859 0.0264116,0.0189896 -0.00495103,0.0367163 -0.0123821,0.070559 -0.0222842,0.101912 -0.00970072,0.0311613 -0.0210487,0.0583965 -0.0342545,0.0817057 -0.0129953,0.0231078 -0.0270247,0.0412647 -0.0418778,0.05426 -0.0148531,0.012794 -0.0299166,0.0193923 -0.0451815,0.0196028l0 0z"/>
  <path id="12" class="fil0" d="M1.46688 0.342856l-0.0136176 0.0643725 0 -0.00742196c0,-0.0121717 -0.00330373,-0.0229065 -0.0103139,-0.0323967 -0.00701929,-0.00949023 -0.017745,-0.0169122 -0.0325981,-0.0222842 -0.0148622,-0.00556418 -0.0338427,-0.00824561 -0.0573624,-0.0084561 -0.0359018,0.000210487 -0.0687012,0.00701929 -0.0984165,0.0204264 -0.0297062,0.0134071 -0.0563191,0.0315639 -0.0798387,0.0546718 -0.0235197,0.0231078 -0.0441566,0.0495194 -0.0614897,0.0788138 -0.0175345,0.0295048 -0.0321862,0.0604556 -0.0437356,0.0928432 -0.0115493,0.0321862 -0.0202159,0.0643725 -0.0259998,0.0963574 -0.00577467,0.0319758 -0.00865743,0.0621029 -0.00865743,0.0901618 0.000201336,0.0367255 0.00474054,0.0678776 0.0138189,0.093255 0.00907841,0.0255788 0.0214605,0.0460052 0.0369268,0.0616911 0.0154754,0.0154662 0.033019,0.0268142 0.0526127,0.0338335 0.0196028,0.00722063 0.0400292,0.0105244 0.0612792,0.0105244 0.0214605,-0.000210487 0.0410542,-0.0031024 0.059211,-0.00907841 0.0179555,-0.00598516 0.0342545,-0.0140294 0.0491076,-0.0243525 0.0148531,-0.0101034 0.0282694,-0.0216619 0.0402305,-0.0346572l-0.0148531 0.065608c-0.0235197,0.00701929 -0.0470393,0.0156767 -0.0707695,0.0262011 -0.0235197,0.0105244 -0.0451815,0.0229065 -0.0649857,0.0377596 -0.0196028,0.0146517 -0.03549,0.0319758 -0.0474603,0.051789 -0.0121717,0.0198041 -0.0181568,0.0427015 -0.0185686,0.0687012 0.000411823,0.0268234 0.00680881,0.0490984 0.0191909,0.0668434 0.0123821,0.017745 0.029093,0.0311521 0.0499312,0.0400292 0.0208382,0.00886792 0.0439461,0.0132058 0.0695249,0.0132058 0.0206369,0.000201336 0.0420883,-0.00248009 0.0639607,-0.00804427 0.0220737,-0.00557334 0.0435343,-0.0158872 0.064162,-0.0307494 0.0206369,-0.0150544 0.0392055,-0.0363045 0.0557059,-0.064162 0.0165095,-0.027647 0.0295048,-0.0635488 0.0389951,-0.107495l0.0185686 -0.0891276c0.0194014,-0.00495103 0.0392055,-0.0123821 0.0598333,-0.0220737 0.0204264,-0.00970072 0.0406423,-0.0231078 0.0604556,-0.0402305 0.0195936,-0.0173332 0.0379609,-0.0396174 0.0550836,-0.0670539 0.0169213,-0.0274457 0.0315639,-0.0614897 0.0437447,-0.102132l-0.0519995 0c-0.011348,0.03549 -0.0245446,0.0647843 -0.0389951,0.0876908 -0.0146426,0.0228974 -0.0315639,0.0412647 -0.0507457,0.0552941 -0.0189896,0.0138189 -0.0412647,0.0253774 -0.0662303,0.0340349l0.122549 -0.574392 -0.178255 0zm-0.0755192 0.0705681c0.0130045,0.000201336 0.0233183,0.00329458 0.030539,0.00886792 0.00722063,0.00557334 0.0123821,0.0119703 0.0152649,0.0189805 0.00309325,0.00701929 0.00474969,0.0130045 0.00495103,0.0179555l-0.0631279 0.293383c-0.00598516,0.0210396 -0.0146517,0.0387846 -0.0259998,0.0530245 -0.0111375,0.0144413 -0.0233092,0.025167 -0.0363136,0.0325981 -0.0129953,0.00722063 -0.0253774,0.0109362 -0.0367255,0.0109362 -0.00577467,0.000201336 -0.0121717,-0.000411823 -0.0189805,-0.00165644 -0.00701014,-0.0014368 -0.0138189,-0.00495103 -0.0204264,-0.0109362 -0.00638783,-0.00577467 -0.0117598,-0.0154662 -0.0158872,-0.028672 -0.00432872,-0.0132058 -0.00638783,-0.0317744 -0.00659832,-0.0552941 0,-0.0196028 0.00185778,-0.0414751 0.00557334,-0.065608 0.00371556,-0.0239315 0.00886792,-0.0486958 0.0158872,-0.0740732 0.00701014,-0.0253774 0.0156767,-0.0499312 0.0257893,-0.0736522 0.0101034,-0.0235197 0.0214514,-0.0449802 0.0344558,-0.0637502 0.0127848,-0.0189805 0.0268142,-0.034044 0.0422896,-0.0451907 0.0152741,-0.010927 0.0317744,-0.0167109 0.0493089,-0.0169122zm-0.191873 0.720461c0.000411823,-0.0165004 0.0061865,-0.0311521 0.0173332,-0.0441474 0.011348,-0.012794 0.0262011,-0.0243525 0.0445592,-0.0342545 0.0181568,-0.0101034 0.0379701,-0.0189805 0.0594215,-0.0268234l-0.00742196 0.0359018c-0.00557334,0.0243433 -0.0121808,0.0447697 -0.0200146,0.0610688 -0.00784294,0.016299 -0.016299,0.0284707 -0.0251761,0.0367255 -0.00907841,0.00825476 -0.0179463,0.0123821 -0.0266129,0.0123821 -0.00907841,-0.000210487 -0.0167109,-0.00248009 -0.0231078,-0.00680881 -0.0061865,-0.00412738 -0.0109362,-0.00949023 -0.0140294,-0.0156767 -0.00330373,-0.00619565 -0.00495103,-0.0123821 -0.00495103,-0.0183673z"/>
  <path id="123" class="fil0" d="M1.78749 0.178219c0.000210487,0.0183581 0.0045392,0.0348677 0.0132058,0.0495194 0.00866658,0.0146426 0.0204264,0.0264024 0.0350782,0.035069 0.0146517,0.00846525 0.0311521,0.0130045 0.0495194,0.0132058 0.0183581,-0.000201336 0.035069,-0.00474054 0.0499221,-0.0132058 0.0148622,-0.00866658 0.0266221,-0.0204264 0.03549,-0.035069 0.00886792,-0.0146517 0.0134071,-0.0311613 0.0136176,-0.0495194 -0.000210487,-0.0183581 -0.00474969,-0.0350782 -0.0136176,-0.0499312 -0.00886792,-0.0148531 -0.0206278,-0.0266129 -0.03549,-0.0354808 -0.0148531,-0.00887707 -0.0315639,-0.0134163 -0.0499221,-0.0136176 -0.0183673,0.000201336 -0.0348677,0.00474054 -0.0495194,0.0136176 -0.0146517,0.00886792 -0.0264116,0.0206278 -0.0350782,0.0354808 -0.00866658,0.0148531 -0.0129953,0.0315731 -0.0132058,0.0499312zm-0.0247551 0.164638l-0.0841766 0.397372c-0.00309325,0.0148531 -0.00557334,0.029093 -0.00722063,0.0425001 -0.00185778,0.0136176 -0.00268142,0.0262102 -0.00268142,0.0379701 0.000201336,0.0346572 0.0061865,0.0627161 0.017745,0.0847898 0.0117598,0.0218724 0.0274366,0.0379701 0.0474511,0.0482839 0.0198041,0.0103139 0.0422988,0.0154754 0.0672553,0.0154754 0.0134163,0.000201336 0.0288917,-0.00124462 0.0460143,-0.0045392 0.0171227,-0.0031024 0.035069,-0.00907841 0.0540586,-0.0179555 0.0189805,-0.00886792 0.0379609,-0.0218632 0.0571427,-0.0387846 0.0191909,-0.0169213 0.0375491,-0.0389951 0.0550928,-0.0664316 0.0175345,-0.0274457 0.0334217,-0.0610779 0.0476616,-0.101308l-0.0519995 0c-0.00639698,0.0208382 -0.0150544,0.0394069 -0.0264024,0.0557059 -0.011348,0.016299 -0.024142,0.0293035 -0.0387937,0.0387937 -0.0146426,0.00949023 -0.0299166,0.0142308 -0.0462157,0.0144413 -0.017324,0.000201336 -0.030118,-0.00309325 -0.0383727,-0.00990205 -0.00825476,-0.00680881 -0.0123821,-0.0187791 -0.0123821,-0.0359018 0,-0.00557334 0.000411823,-0.0115585 0.00103413,-0.0179555 0.000823646,-0.00638783 0.00205911,-0.0136085 0.00391689,-0.0216619l0.0891368 -0.420892 -0.178264 0z"/>
  <path id="1234" class="fil0" d="M2.36559 0.51369c-0.000210487,0.0160977 -0.00206827,0.0344558 -0.00577467,0.0550928 -0.00371556,0.0208382 -0.00825476,0.0427015 -0.0138281,0.0660198 -0.00557334,0.0231078 -0.0109362,0.046417 -0.0165004,0.0699458 -0.005372,0.0233092 -0.0101125,0.0457947 -0.0138281,0.0670539 -0.00371556,0.0214514 -0.00557334,0.0406423 -0.00577467,0.0575545 0,0.017745 0.00247094,0.0350782 0.00763245,0.0515877 0.00536285,0.0167109 0.0136176,0.0315639 0.0249656,0.0447697 0.0115493,0.0132058 0.0266129,0.023721 0.0451815,0.0315639 0.0187791,0.00784294 0.0414751,0.0117598 0.0682894,0.0119703 0.0132058,0.000201336 0.0274457,-0.00124462 0.0425093,-0.00433787 0.0150544,-0.00309325 0.0307403,-0.00907841 0.0468288,-0.017745 0.016299,-0.00886792 0.0325981,-0.0216619 0.0488971,-0.0385741 0.016299,-0.0169213 0.0321862,-0.0392055 0.0476616,-0.0666421 0.0156767,-0.0274457 0.0303285,-0.0612792 0.0443579,-0.10172l-0.0519904 0c-0.00887707,0.0216619 -0.017745,0.0406423 -0.0270247,0.0569414 -0.00907841,0.0163082 -0.0196028,0.0288917 -0.0317744,0.0379701 -0.0121717,0.00927974 -0.0272352,0.0138189 -0.0451907,0.0140294 -0.0183581,-0.000210487 -0.0311521,-0.00495103 -0.0385741,-0.0144413 -0.0076416,-0.00928889 -0.0111467,-0.0218724 -0.0109362,-0.0375582 0.000411823,-0.0177358 0.00350507,-0.0394069 0.00927974,-0.0649857 0.00598516,-0.0257893 0.012794,-0.0534363 0.0204264,-0.0831425 0.00784294,-0.0297153 0.0146517,-0.0592201 0.0204264,-0.088725 0.00598516,-0.0297062 0.00907841,-0.0571427 0.00928889,-0.0825202 -0.000210487,-0.033019 -0.00619565,-0.059632 -0.0179555,-0.0802597 -0.0117598,-0.0206369 -0.0280589,-0.0356913 -0.0486866,-0.045392 -0.0204264,-0.00970072 -0.0441566,-0.0144413 -0.0707695,-0.0142399 -0.012794,-0.000201336 -0.0272352,0.00124462 -0.0431224,0.00474969 -0.0156767,0.00350507 -0.0321862,0.0101125 -0.0495194,0.0202159 -0.017324,0.00990205 -0.0346572,0.0247643 -0.0521917,0.0443579l0.0136176 -0.0643725 -0.178264 0 -0.131216 0.618961 0.178255 0 0.0841766 -0.397372c0.00619565,-0.0208382 0.0140294,-0.04002 0.0233183,-0.0571519 0.00949023,-0.0171227 0.0202159,-0.0307403 0.0325981,-0.0410542 0.0121717,-0.0101125 0.0257893,-0.0154754 0.0406423,-0.0156767 0.0148531,0 0.0259998,0.00536285 0.0334217,0.016299 0.00743112,0.0107257 0.0111467,0.0264024 0.0111467,0.0468288l0 0z"/>
 </g>
</svg>
