<?xml version="1.0" encoding="UTF-8"?>
<!DOCTYPE svg PUBLIC "-//W3C//DTD SVG 1.1//EN" "http://www.w3.org/Graphics/SVG/1.1/DTD/svg11.dtd">
<!-- Creator: CorelDRAW -->
<svg xmlns="http://www.w3.org/2000/svg" xml:space="preserve" width="50.7194mm" height="15.3413mm" style="shape-rendering:geometricPrecision; text-rendering:geometricPrecision; image-rendering:optimizeQuality; fill-rule:evenodd; clip-rule:evenodd"
viewBox="0 0 9.74447 2.94745"
 xmlns:xlink="http://www.w3.org/1999/xlink">
 <defs>
  <style type="text/css">
   <![CDATA[
    .str0 {stroke:#000066;stroke-width:0.192125;stroke-linecap:round;stroke-linejoin:round}
    .fil1 {fill:none;fill-rule:nonzero}
    .fil0 {fill:white;fill-rule:nonzero}
   ]]>
  </style>
 </defs>
 <g id="Layer_x0020_1">
  <metadata id="CorelCorpID_0Corel-Layer"/>
  <path class="fil0" d="M1.61168 1.79827c0,0.00147936 0,0.00293951 0,0.00441888 0.00147936,0.00441888 0.00147936,0.00883775 0,0.0132374 -0.00146015,0.00147936 -0.00220944,0.00295873 -0.00220944,0.00441888 0,0 -0.000730075,0.000749288 -0.00220944,0.00220944 0,0.00147936 -0.000730075,0.00220944 -0.00220944,0.00220944 -0.0824216,0.0941989 -0.189128,0.141308 -0.320119,0.141308 -0.057407,0 -0.117388,-0.00995208 -0.179944,-0.0298178 -0.0625367,-0.0198657 -0.11222,-0.0397315 -0.149012,-0.0595972 -0.0367919,-0.0198849 -0.0883199,-0.0489535 -0.154545,-0.0872248 -0.0471091,-0.0279542 -0.0824216,-0.0485692 -0.105976,-0.0618066 -0.0691842,0.114795 -0.164113,0.173681 -0.284806,0.176621 -0.00293951,0 -0.00587903,0 -0.00883775,0 -0.0559276,0 -0.0938147,-0.0136217 -0.1137,-0.0408458 -0.0198657,-0.0272241 -0.0297986,-0.0585021 -0.0297986,-0.0938339 0,-0.0485692 0.0161961,-0.08905 0.0485692,-0.121423 0.0367919,-0.0353318 0.0853612,-0.052258 0.145708,-0.0507787 0.0500486,0 0.0986178,0.00366959 0.145727,0.011028 0.0485692,-0.163364 0.0728538,-0.390033 0.0728538,-0.679988 0,-0.512205 -0.0802122,-0.771997 -0.240656,-0.779355 -0.00293951,0 -0.00587903,0 -0.00881854,0 -0.0883199,0 -0.155295,0.046379 -0.200924,0.139099 -0.0470899,0.103037 -0.0654954,0.228514 -0.0551783,0.376431 0.0102979,0.147917 0.0419409,0.255738 0.094929,0.323443 0.0102979,0.0132374 0.0084535,0.0253797 -0.00551399,0.0364269 -0.0139867,0.011028 -0.026129,0.00993287 -0.0364461,-0.00332376 -0.0573878,-0.0750633 -0.0923545,-0.191702 -0.104862,-0.349917 -0.0125073,-0.158234 0.00699335,-0.293279 0.0585021,-0.405134 0.0559276,-0.113335 0.139099,-0.170011 0.249494,-0.170011 0.0677049,0 0.126937,0.0180405 0.177716,0.0541024 0.0507787,0.0360619 0.0934688,0.089415 0.128051,0.160059 0.0345825,0.0706444 0.0603465,0.158234 0.0772727,0.262731 0.0169262,0.104497 0.0253989,0.22592 0.0253989,0.364288 0,0.285536 -0.0250339,0.504098 -0.0750633,0.655704 -0.00589824,0.0176563 -0.0117773,0.0345825 -0.0176755,0.0507787 0.0441695,0.0161961 0.104516,0.0434203 0.181039,0.0816916 0.057407,0.0279734 0.102307,0.0489343 0.13468,0.062921 0.0323731,0.0139867 0.0780028,0.0279734 0.136889,0.0419409 0.0588671,0.0139867 0.119944,0.0209801 0.183249,0.0209801 0.0765234,0 0.139079,-0.0191357 0.187649,-0.057407 0.00589824,-0.00441888 0.00883775,-0.0066091 0.00883775,-0.0066091l0.00220944 -0.00220944c0,0 0.000730075,-0.000749288 0.00220944,-0.00220944 0.00146015,0 0.00293951,0 0.00441888,0 0.00146015,0 0.00257448,-0.000365038 0.00330455,-0.00111433 0.000730075,-0.000730075 0.00146015,-0.00109511 0.00220944,-0.00109511 0.000730075,0 0.0018444,0 0.00330455,0 0,0 0.000730075,0 0.00220944,0 0.00147936,0.00146015 0.0036888,0.00220944 0.00662831,0.00220944 0,0 0.000365038,0.000365038 0.00109511,0.00109511 0.000749288,0.000730075 0.00111433,0.00111433 0.00111433,0.00111433 0.00146015,0 0.00220944,0 0.00220944,0 0.00146015,0.00146015 0.00220944,0.00220944 0.00220944,0.00220944 0.00439966,0.00293951 0.00735839,0.0066091 0.00881854,0.011028zm-1.30038 -0.0287035c0,0.0294336 0.00699335,0.0504136 0.0209801,0.062921 0.0139675,0.0125073 0.037157,0.0187706 0.0695301,0.0187706 0.0706636,0 0.128801,-0.0588671 0.17443,-0.176621 -0.0441695,-0.0161961 -0.0853804,-0.0250147 -0.123652,-0.026494 -0.00146015,0 -0.00257448,0 -0.00330455,0 -0.000730075,0 -0.00109511,0 -0.00109511,0 -0.0441695,0 -0.0787521,0.0125073 -0.103767,0.037522 -0.0220944,0.0220944 -0.0331224,0.0500486 -0.0331224,0.083901z"/>
  <path id="1" class="fil0" d="M2.01572 1.2375c0.0102979,-0.0147168 0.0228052,-0.0169262 0.037522,-0.00662831 0.0147168,0.0102979 0.0169262,0.0228245 0.00662831,0.0375412 -0.0441503,0.0603465 -0.106341,0.122153 -0.186553,0.185458 -0.0802314,0.063286 -0.15418,0.0978685 -0.221885,0.103748 -0.0191357,0.0338524 -0.0426902,0.0633052 -0.0706444,0.0883199 -0.0544675,0.0485692 -0.114814,0.0728538 -0.181039,0.0728538 -0.0117773,0 -0.0228245,-0.000365038 -0.0331224,-0.00109511 -0.0102979,-0.000749288 -0.0228245,-0.00293951 -0.0375412,-0.00662831 -0.0147168,-0.0036888 -0.0287035,-0.00920279 -0.0419409,-0.0165612 -0.0132566,-0.00735839 -0.0268591,-0.0165612 -0.0408458,-0.0275892 -0.0139867,-0.0110472 -0.026494,-0.0250339 -0.037522,-0.0419601 -0.0110472,-0.0169262 -0.0209801,-0.0360619 -0.0298178,-0.0573878 -0.00881854,-0.0213451 -0.0158119,-0.0474741 -0.0209801,-0.078387 -0.00514895,-0.0309129 -0.00772343,-0.0640161 -0.00772343,-0.0993479 0,-0.0588671 0.0128916,-0.119214 0.0386363,-0.181039 0.025764,-0.0618258 0.0662447,-0.115909 0.121442,-0.162269 0.0551783,-0.0463598 0.117369,-0.0695493 0.186553,-0.0695493 0.0250147,0 0.0489343,0.00551399 0.0717395,0.0165612 0.0228245,0.0110472 0.0445346,0.0283384 0.0651304,0.0518738 0.020615,0.0235545 0.0375412,0.052258 0.0507787,0.0861104l0 0.00220944c0,0 0.000749288,0.000730075 0.00220944,0.00220944l0 0.00220944c0.0161961,0.0485692 0.0242846,0.104497 0.0242846,0.167783 0,0.0721237 -0.011028,0.136889 -0.0331031,0.194296 0.0559276,-0.0132566 0.116639,-0.046744 0.182135,-0.100462 0.0654954,-0.0537182 0.117388,-0.107821 0.15566,-0.162269zm-0.373126 0.205324c0.0117773,-0.0426902 0.0176563,-0.0883199 0.0176563,-0.136889 0,-0.0588671 -0.00808846,-0.109646 -0.0242846,-0.152336 -0.0220752,-0.0485692 -0.0507787,-0.0728538 -0.0860912,-0.0728538 -0.0368112,0 -0.0721237,0.0117773 -0.105976,0.0353318 -0.0338524,0.0235353 -0.0621909,0.0592322 -0.0849961,0.107071 -0.0228245,0.0478391 -0.0342367,0.101192 -0.0342367,0.160059 0,0.0824216 0.0106822,0.147187 0.0320272,0.194296 0.0213451,0.0470899 0.0511437,0.0706444 0.089415,0.0706444 0.0279542,0 0.0551975,-0.00956783 0.0816916,-0.0287035 0.00881854,-0.00587903 0.0169262,-0.0125073 0.0242846,-0.0198657 0.00146015,0 0.00220944,-0.000730075 0.00220944,-0.00220944 0,0 0.000730075,-0.000730075 0.00219023,-0.00220944 0.014736,-0.0147168 0.0279734,-0.0301636 0.0397507,-0.0463598 -0.0132566,-0.00883775 -0.020615,-0.0213451 -0.0220752,-0.0375412 -0.00147936,-0.0161769 0.00366959,-0.0309129 0.0154469,-0.0441503 0.0117773,-0.0132374 0.026494,-0.0213451 0.0441503,-0.0242846 0.00295873,-0.00147936 0.00589824,-0.00147936 0.00883775,0z"/>
  <path id="12" class="fil0" d="M2.90545 1.23087c0.0147168,-0.0102979 0.0275892,-0.00881854 0.0386363,0.00441888 0.011028,0.0132566 0.00918358,0.025764 -0.0055332,0.0375412 -0.00439966,0.00293951 -0.0132374,0.00956783 -0.026494,0.0198657 -0.126572,0.0986178 -0.241386,0.196486 -0.344403,0.293625 -0.00735839,0.172221 -0.0198657,0.33228 -0.0375412,0.480197 -0.0176563,0.147917 -0.0456297,0.292165 -0.0838818,0.432723 -0.0382713,0.140559 -0.0846311,0.238081 -0.139099,0.29253 -0.0382713,0.0397507 -0.0809615,0.0596164 -0.128051,0.0596164 -0.0235545,0 -0.0456297,-0.00366959 -0.0662255,-0.011028 -0.020615,-0.0073776 -0.0423251,-0.0213451 -0.0651304,-0.0419601 -0.0228245,-0.0205958 -0.0412108,-0.0529881 -0.0551975,-0.0971384 -0.0139867,-0.0441503 -0.0209801,-0.0986178 -0.0209801,-0.163383 0,-0.264921 0.144247,-0.551937 0.432723,-0.861028 0.00293951,-0.0736031 0.00514895,-0.148666 0.00662831,-0.22519 -0.0132566,0.0323731 -0.026494,0.0618066 -0.0397507,0.0883007 -0.00146015,0.00147936 -0.00293951,0.0036888 -0.00439966,0.00662831 -0.0633052,0.114795 -0.138368,0.172202 -0.225209,0.172202 -0.0500294,0 -0.0938147,-0.0213451 -0.131356,-0.0640161 -0.0375412,-0.0426902 -0.0562926,-0.108916 -0.0562926,-0.198715 0,-0.119214 0.037522,-0.225555 0.112585,-0.319024 0.0750633,-0.0934496 0.153815,-0.140194 0.236237,-0.140194 0.0471091,0 0.0846311,0.0125073 0.112604,0.0375412 0.0117773,-0.0323923 0.0338524,-0.0507787 0.0662255,-0.0551975 0.0235545,-0.00293951 0.0441503,0.00293951 0.0618258,0.0176563 0.0205958,0.0176755 0.031643,0.0441695 0.0331031,0.0794821 0.00295873,0.128051 0.00147936,0.273029 -0.00439966,0.434933 0.0927196,-0.0868405 0.195756,-0.173681 0.309091,-0.260522 0.0132374,-0.0102979 0.0213259,-0.0169262 0.0242846,-0.0198657zm-0.71313 1.49247c0.105976,-0.113335 0.17516,-0.434203 0.207533,-0.962585 -0.250204,0.279638 -0.375316,0.538699 -0.375316,0.777127 0,0.020615 0.000730075,0.0397507 0.00220944,0.057407 0.00587903,0.0441503 0.0180213,0.0827867 0.0364269,0.115909 0.0184056,0.0331224 0.037157,0.0496835 0.0562926,0.0496835 0.0250339,0 0.0493185,-0.0125266 0.0728538,-0.0375412zm0.218581 -1.42182c0,-0.00146015 0.000365038,-0.00366959 0.00109511,-0.0066091 0.000749288,-0.00295873 0.00111433,-0.00441888 0.00111433,-0.00441888 0,-0.0544675 0,-0.100827 0,-0.139099 -0.0176563,-0.0235353 -0.0463598,-0.0301636 -0.0861104,-0.0198657 -0.0500486,0.0132566 -0.0971384,0.0500486 -0.141289,0.110395 -0.0441695,0.0603465 -0.0662447,0.137619 -0.0662447,0.231818 0,0.0515087 0.00772343,0.0916244 0.0231895,0.120328 0.0154469,0.0286843 0.031278,0.043036 0.0474741,0.043036 0.0147168,0 0.0305287,-0.00624406 0.0474549,-0.0187514 0.0169262,-0.0125266 0.0327573,-0.0276084 0.0474741,-0.0452647 0.0147168,-0.0176563 0.0279542,-0.0375412 0.0397315,-0.0596164 0,0 0,-0.000730075 0,-0.00220944 0.0250339,-0.0470899 0.0537374,-0.117004 0.0861104,-0.209743z"/>
  <path id="123" class="fil0" d="M3.40884 1.2375c0.00881854,-0.0147168 0.0209608,-0.0176563 0.0364269,-0.00883775 0.0154469,0.00883775 0.0187514,0.020615 0.00993287,0.0353318l-0.0154661 0.026494c-0.0765234,0.129511 -0.137619,0.22371 -0.183249,0.282597 -0.00146015,0.00146015 -0.00219023,0.00293951 -0.00219023,0.00441888l-0.00441888 0.00220944c0,0 -0.000749288,0.000730075 -0.00220944,0.00220944 -0.0736031,0.0912402 -0.139099,0.13687 -0.196506,0.13687 -0.0529689,0 -0.0956591,-0.0220752 -0.128051,-0.0662255 -0.0323731,-0.0456297 -0.0515087,-0.112604 -0.0573878,-0.200905 -0.00589824,-0.0883199 -0.0036888,-0.170011 0.0066091,-0.245075 0.0103171,-0.0750633 0.0228245,-0.13541 0.0375412,-0.181039 0.00735839,-0.0205958 0.0217101,-0.0345825 0.0430552,-0.0419409 0.0213451,-0.00735839 0.0423059,-0.00810768 0.062921,-0.00220944 0.0205958,0.00587903 0.0364269,0.0176563 0.0474549,0.0353318 0.0110472,0.0176563 0.0128916,0.0390014 0.0055332,0.0640161 -0.0147168,0.057407 -0.026494,0.119214 -0.0353318,0.185458 -0.00883775,0.0662255 -0.011028,0.131721 -0.00662831,0.196486 0.00441888,0.0647654 0.0176755,0.111125 0.0397507,0.139099 0.0147168,0.0176563 0.0345825,0.026494 0.0596164,0.026494 0.0132374,-0.00441888 0.0412108,-0.031643 0.0838818,-0.0816916l0.00220944 -0.00441888c0.0456297,-0.057407 0.105976,-0.150127 0.181039,-0.278178l0.0154661 -0.026494zm-0.302482 -0.356565c-0.0220752,0.00662831 -0.0467248,0.00662831 -0.0739489,0 -0.0272433,-0.0066091 -0.0493185,-0.0176563 -0.0662447,-0.0331031 -0.0169262,-0.0154661 -0.0235353,-0.0309129 -0.0198657,-0.046379 0.0036888,-0.0154469 0.0161961,-0.026494 0.0375412,-0.0331031 0.0213259,-0.00662831 0.0459947,-0.00699335 0.0739489,-0.00111433 0.0279734,0.00589824 0.0504136,0.0169262 0.0673398,0.0331224 0.0169262,0.0161961 0.0235545,0.032008 0.0198657,0.0474741 -0.00366959,0.0154469 -0.0165612,0.026494 -0.0386363,0.0331031z"/>
  <path id="1234" class="fil0" d="M4.36921 1.23971c0.00735839,-0.0161961 0.0191357,-0.020615 0.0353318,-0.0132566 0.0161769,0.00735839 0.0205958,0.0191357 0.0132374,0.0353318 -0.00147936,0.00441888 -0.00514895,0.0132374 -0.011028,0.026494 -0.0927388,0.213413 -0.17443,0.370167 -0.245075,0.470264 -0.00147936,0.00146015 -0.00220944,0.00293951 -0.00220944,0.00439966 -0.0102979,0.0161961 -0.0213451,0.0301828 -0.0331224,0.0419601 0,0 -0.000730075,0.00146015 -0.00219023,0.00441888 -0.0529881,0.063286 -0.102307,0.094929 -0.147936,0.094929 -0.0338524,0 -0.0618066,-0.0117773 -0.0838818,-0.0353318 -0.0309129,-0.0338524 -0.046744,-0.0956591 -0.0474741,-0.185439 -0.000730075,-0.0897992 0.00626328,-0.1781 0.0209801,-0.26494 0.00293951,-0.0309129 0.00514895,-0.0544675 0.0066091,-0.0706444 0.00147936,-0.0161961 0.00332376,-0.0379063 0.0055332,-0.0651304 0.00220944,-0.0272433 0.00330455,-0.0489535 0.00330455,-0.0651304 0,-0.0161961 0,-0.0338524 0,-0.0529881 0,-0.0191357 -0.0018444,-0.0346017 -0.00551399,-0.0463598 -0.0036888,-0.0117773 -0.00847271,-0.020615 -0.0143517,-0.026494 -0.00293951,-0.00441888 -0.00810768,-0.00662831 -0.0154661,-0.00662831 -0.0338524,0 -0.0677049,0.0331224 -0.101557,0.0993479 -0.00146015,0.00441888 -0.00366959,0.00808846 -0.0066091,0.0110472 -0.057407,0.122153 -0.0964084,0.284057 -0.117023,0.485711 0,0.0161769 -0.00735839,0.0272241 -0.0220752,0.0331031 -0.00735839,0.00295873 -0.0154469,0.00441888 -0.0242846,0.00441888 -0.0220752,0 -0.0448996,-0.00735839 -0.0684349,-0.0220752 -0.0235545,-0.0147168 -0.0412108,-0.0338524 -0.0529881,-0.057407 -0.0353318,-0.0735839 -0.0551975,-0.176621 -0.0596164,-0.309091 -0.00441888,-0.13247 0.00662831,-0.234028 0.0331224,-0.304672 0.00587903,-0.0205958 0.0195007,-0.0345825 0.0408458,-0.0419409 0.0213259,-0.00735839 0.0423059,-0.00810768 0.062921,-0.00220944 0.0205958,0.00587903 0.0364269,0.0176563 0.0474549,0.0353318 0.0110472,0.0176563 0.0136217,0.0390014 0.00774264,0.0640161 -0.0397507,0.164843 -0.0404807,0.323808 -0.00220944,0.476874 0.0191357,-0.120674 0.0448804,-0.22519 0.0772727,-0.31349 0.00146015,0 0.00220944,-0.000749288 0.00220944,-0.00220944 0.0132374,-0.0367919 0.0279542,-0.0691842 0.0441503,-0.0971384 0,-0.00147936 0.000730075,-0.00295873 0.00220944,-0.00441888 0.0603465,-0.110395 0.127302,-0.165593 0.200905,-0.165593 0.0397315,0 0.0713745,0.0139867 0.094929,0.0419601 0.0220752,0.026494 0.0356968,0.0680699 0.0408458,0.124728 0.00514895,0.0566769 0.00514895,0.107456 0,0.152336 -0.00514895,0.0448996 -0.0136217,0.11003 -0.0253797,0.195391 -0.00735839,0.0441503 -0.0125266,0.078387 -0.0154661,0.102672 -0.00293951,0.0242846 -0.00587903,0.0540832 -0.00881854,0.089415 -0.00295873,0.0353126 -0.00332376,0.063286 -0.00111433,0.0838818 0.00220944,0.020615 0.00772343,0.0353318 0.0165612,0.0441695 0.00293951,0.00439966 0.00808846,0.0066091 0.0154469,0.0066091 0.0132566,0 0.0323923,-0.0139675 0.057407,-0.0419409 0.0117773,-0.0147168 0.0242846,-0.0309129 0.0375412,-0.0485692l0 -0.00220944c0,0 0.000730075,-0.000730075 0.00220944,-0.00220944 0.069165,-0.100078 0.147168,-0.250954 0.234008,-0.452589 0.00441888,-0.0117773 0.00810768,-0.0213451 0.0110472,-0.0287035z"/>
  <path id="12345" class="fil0" d="M6.15532 1.22645c0.0176563,-0.00293951 0.0279542,0.00405384 0.0309129,0.0209801 0.00293951,0.0169262 -0.00441888,0.0268591 -0.0220944,0.0297986 -0.0794821,0.0117773 -0.18323,0.0368112 -0.311281,0.0750633 0.0323731,0.04123 0.0492993,0.08905 0.0507787,0.143517 0.00146015,0.107436 -0.0309129,0.195026 -0.0971576,0.262731 -0.0927196,0.0956591 -0.236218,0.143498 -0.430514,0.143498 -0.063286,0 -0.114795,-0.0102979 -0.154545,-0.0309129 -0.0382713,-0.0191357 -0.063286,-0.0463598 -0.0750633,-0.0816916l-0.00220944 -0.00219023c0,0 0,0 0,0 -0.00441888,-0.0161961 -0.00662831,-0.0331224 -0.00662831,-0.0507787 0,-0.116293 0.150146,-0.232567 0.450399,-0.348841 0.0250147,-0.00883775 0.0500486,-0.0176563 0.0750633,-0.026494 -0.0353318,-0.0294336 -0.102287,-0.0706444 -0.200905,-0.123632 -0.0515279,-0.0279734 -0.0905293,-0.0496835 -0.117023,-0.0651304 -0.026494,-0.0154469 -0.057772,-0.037157 -0.0938339,-0.0651304 -0.0360427,-0.0279734 -0.063651,-0.0559276 -0.0827867,-0.083901 -0.0559276,-0.0647654 -0.0860912,-0.143498 -0.0905101,-0.236237 -0.00441888,-0.0809423 0.0128724,-0.166688 0.0518738,-0.257198 0.0390014,-0.0905101 0.094564,-0.173316 0.166688,-0.248379 0.117753,-0.123632 0.234758,-0.185458 0.351051,-0.185458 0.0397315,0 0.0754283,0.00662831 0.107071,0.0198849 0.031643,0.0132374 0.0585021,0.0338524 0.0805772,0.0618066 0.0426902,0.0500486 0.0691842,0.123632 0.0794821,0.22079 0.0102979,0.0971384 0.00293951,0.217831 -0.0220752,0.362079 -0.00293951,0.0161769 -0.0128724,0.0228052 -0.0297986,0.0198657 -0.0169262,-0.00293951 -0.0239196,-0.0125073 -0.0209801,-0.0287035 0.0235545,-0.136889 0.0301636,-0.252433 0.0198657,-0.346632 0,0 0,-0.000730075 0,-0.00220944 -0.00735839,-0.0677049 -0.0250147,-0.117004 -0.0529881,-0.147917 -0.0279542,-0.0309129 -0.0684349,-0.0463598 -0.121423,-0.0463598 -0.026494,0 -0.0585021,0.00847271 -0.0960433,0.0253989 -0.037522,0.0169262 -0.0765234,0.0419409 -0.117004,0.0750633 -0.0404807,0.0331031 -0.078022,0.0717395 -0.112604,0.115909 -0.0345825,0.0441503 -0.063286,0.0967734 -0.0860912,0.15785 -0.0228245,0.0610766 -0.0342367,0.123267 -0.0342367,0.186553 0,0.0397507 0.00626328,0.0772727 0.0187706,0.112604 0.0125073,0.0353126 0.031278,0.0680699 0.0562926,0.0982335 0.0250339,0.0301828 0.0493185,0.0563119 0.072873,0.078387 0.0235353,0.0220752 0.0544482,0.0448804 0.0927196,0.0684349 0.0382713,0.0235545 0.0691842,0.0415759 0.0927196,0.0541024 0.0235545,0.0125073 0.0551975,0.0283192 0.0949482,0.0474549 0.042671,0.0176755 0.0780028,0.0360619 0.105976,0.0551975 0,0 0.000730075,0 0.00219023,0 0.00735839,0.00589824 0.0139867,0.0110472 0.0198849,0.0154661 0.00439966,0.00293951 0.00956783,0.0066091 0.0154469,0.011028 0.147187,-0.0441503 0.261252,-0.0721237 0.342213,-0.083901zm-0.450399 0.17443c-0.147187,0.0529881 -0.269705,0.108551 -0.367593,0.166688 -0.0978685,0.058137 -0.146822,0.11443 -0.146822,0.168897 0,0.0117581 0.00147936,0.0228052 0.00441888,0.0331031 0.00589824,0.0161961 0.0187706,0.0298178 0.0386363,0.0408458 0.0198657,0.0110472 0.0430552,0.0191357 0.0695493,0.0242846 0.026494,0.00514895 0.0537182,0.00772343 0.0816916,0.00772343l0.00220944 0c0.0912402,0 0.175141,-0.0323731 0.251684,-0.0971384 0.0765426,-0.0647654 0.114795,-0.141289 0.114795,-0.229609 0,-0.0397315 -0.0161769,-0.0780028 -0.0485692,-0.114795z"/>
  <path id="123456" class="fil0" d="M6.64766 1.2375c0.00881854,-0.0147168 0.0209608,-0.0176563 0.0364269,-0.00883775 0.0154469,0.00883775 0.0187514,0.020615 0.00993287,0.0353318l-0.0154661 0.026494c-0.0765234,0.129511 -0.137619,0.22371 -0.183249,0.282597 -0.00146015,0.00146015 -0.00219023,0.00293951 -0.00219023,0.00441888l-0.00441888 0.00220944c0,0 -0.000749288,0.000730075 -0.00220944,0.00220944 -0.0736031,0.0912402 -0.139099,0.13687 -0.196506,0.13687 -0.0529689,0 -0.0956591,-0.0220752 -0.128051,-0.0662255 -0.0323731,-0.0456297 -0.0515087,-0.112604 -0.0573878,-0.200905 -0.00589824,-0.0883199 -0.0036888,-0.170011 0.0066091,-0.245075 0.0103171,-0.0750633 0.0228245,-0.13541 0.0375412,-0.181039 0.00735839,-0.0205958 0.0217101,-0.0345825 0.0430552,-0.0419409 0.0213451,-0.00735839 0.0423059,-0.00810768 0.062921,-0.00220944 0.0205958,0.00587903 0.0364269,0.0176563 0.0474549,0.0353318 0.0110472,0.0176563 0.0128916,0.0390014 0.0055332,0.0640161 -0.0147168,0.057407 -0.026494,0.119214 -0.0353318,0.185458 -0.00883775,0.0662255 -0.011028,0.131721 -0.00662831,0.196486 0.00441888,0.0647654 0.0176755,0.111125 0.0397507,0.139099 0.0147168,0.0176563 0.0345825,0.026494 0.0596164,0.026494 0.0132374,-0.00441888 0.0412108,-0.031643 0.0838818,-0.0816916l0.00220944 -0.00441888c0.0456297,-0.057407 0.105976,-0.150127 0.181039,-0.278178l0.0154661 -0.026494zm-0.302482 -0.356565c-0.0220752,0.00662831 -0.0467248,0.00662831 -0.0739489,0 -0.0272433,-0.0066091 -0.0493185,-0.0176563 -0.0662447,-0.0331031 -0.0169262,-0.0154661 -0.0235353,-0.0309129 -0.0198657,-0.046379 0.0036888,-0.0154469 0.0161961,-0.026494 0.0375412,-0.0331031 0.0213259,-0.00662831 0.0459947,-0.00699335 0.0739489,-0.00111433 0.0279734,0.00589824 0.0504136,0.0169262 0.0673398,0.0331224 0.0169262,0.0161961 0.0235545,0.032008 0.0198657,0.0474741 -0.00366959,0.0154469 -0.0165612,0.026494 -0.0386363,0.0331031z"/>
  <path id="1234567" class="fil0" d="M7.36077 1.23308c0.0132374,-0.0117773 0.0257448,-0.011028 0.037522,0.00220944 0.0117773,0.0132566 0.0110472,0.025764 -0.00220944,0.0375412 -0.0986178,0.0853612 -0.22446,0.169992 -0.377526,0.253893 0.0294336,0.0441503 0.0441503,0.08978 0.0441503,0.13687 0,0.0235545 -0.00366959,0.0482042 -0.011028,0.0739681 -0.00735839,0.025764 -0.0195007,0.0515087 -0.0364269,0.0772727 -0.0169262,0.025764 -0.0423251,0.0470899 -0.0761776,0.0640161 -0.0338524,0.0169262 -0.0728538,0.0253989 -0.117004,0.0253989 -0.0382713,0 -0.0691842,-0.0136217 -0.0927388,-0.0408458 -0.0235545,-0.0272241 -0.0353126,-0.0592322 -0.0353126,-0.0960433 0,-0.0412108 0.0132374,-0.0776377 0.0397315,-0.109281 0.026494,-0.031643 0.0662255,-0.063651 0.119214,-0.0960433 -0.0147168,-0.0147168 -0.0390014,-0.0345825 -0.0728538,-0.0595972 -0.026494,-0.020615 -0.0470899,-0.0371762 -0.0618066,-0.0496835 -0.0147168,-0.0125073 -0.0320272,-0.0305479 -0.051893,-0.0540832 -0.0198657,-0.0235545 -0.0342175,-0.0496835 -0.0430552,-0.078387 -0.00881854,-0.0287035 -0.0132374,-0.0599814 -0.0132374,-0.0938339 0,-0.0573878 0.0268591,-0.11295 0.0805772,-0.166688 0.0537182,-0.0537182 0.121807,-0.0805772 0.204229,-0.0805772 0.0544482,0 0.102287,0.00993287 0.143498,0.0297986 0.0412108,0.0198849 0.0713937,0.0474741 0.0905293,0.0828059 0,0.00146015 0.000730075,0.00293951 0.00220944,0.00439966 0,0.00147936 0,0.00441888 0,0.00883775 0,0 0,0.000730075 0,0.00220944 0,0.00147936 0,0.00257448 0,0.00330455 0,0.000749288 -0.000749288,0.0018444 -0.00220944,0.00332376 0,0.00146015 0,0.00220944 0,0.00220944 0,0 -0.000749288,0.000730075 -0.00220944,0.00220944 0,0 0,0.000730075 0,0.00219023l-0.00220944 0c0,0.00147936 0,0.00220944 0,0.00220944 -0.00147936,0.00147936 -0.00220944,0.00220944 -0.00220944,0.00220944l-0.00220944 0.00220944c-0.00147936,0 -0.00293951,0 -0.00441888,0 -0.00146015,0.00147936 -0.00220944,0.00220944 -0.00220944,0.00220944 -0.00293951,0 -0.00587903,0 -0.00881854,0 -0.00147936,0 -0.00257448,0 -0.00332376,0 -0.000730075,0 -0.0018444,0 -0.00330455,0 -0.00147936,0 -0.00220944,-0.000730075 -0.00220944,-0.00220944 -0.00147936,0 -0.00293951,0 -0.00441888,0 0,0 0,-0.000730075 0,-0.00220944 0,0 -0.000730075,0 -0.00220944,0 -0.0441503,-0.0353126 -0.0860912,-0.0529881 -0.125842,-0.0529881 -0.0588671,0 -0.104132,0.0165612 -0.135775,0.0496835 -0.031643,0.0331224 -0.0474741,0.0658605 -0.0474741,0.0982528 0,0.0250147 0.00699335,0.0496643 0.0209801,0.0739489 0.0139867,0.0242846 0.0279542,0.0437853 0.0419409,0.0585021 0.0139867,0.014736 0.0356968,0.0346017 0.0651304,0.0596164 0.0353318,0.0309129 0.0610958,0.0551975 0.0772727,0.0728538 0.154545,-0.0853612 0.279657,-0.169262 0.375336,-0.251684zm-0.53209 0.618182c0.020615,-0.00147936 0.0386363,-0.00808846 0.0541024,-0.0198657 0.0154469,-0.0117773 0.0272241,-0.026129 0.0353126,-0.0430552 0.00810768,-0.0169262 0.0121423,-0.0342175 0.0121423,-0.0518738 0,-0.0515279 -0.0139675,-0.0964084 -0.0419409,-0.13468 -0.0485692,0.0279542 -0.084266,0.0548133 -0.107071,0.0805772 -0.0228245,0.025764 -0.0342175,0.0541024 -0.0342175,0.0849961 0,0.0220752 0.0066091,0.0415951 0.0198657,0.0585213 0.0132374,0.0169262 0.031643,0.0253797 0.0551975,0.0253797 0.00293951,0 0.00514895,0 0.0066091,0z"/>
  <path id="12345678" class="fil0" d="M8.66778 1.23308c0.0117773,-0.0132374 0.0239196,-0.0136217 0.0364269,-0.00109511 0.0125073,0.0125073 0.0128724,0.0253797 0.00109511,0.0386363 -0.0794821,0.0824216 -0.147187,0.143863 -0.203115,0.184344 -0.0559276,0.0404807 -0.114065,0.0607115 -0.174411,0.0607115l-0.00441888 0c-0.00146015,0 -0.00441888,0 -0.00881854,0 -0.0220944,0.0736031 -0.0441695,0.136524 -0.0662447,0.188763 -0.0220752,0.052258 -0.0404807,0.0908944 -0.0551975,0.115909 -0.0147168,0.0250339 -0.0301636,0.0445346 -0.0463598,0.0585021 -0.0161961,0.0139867 -0.0275892,0.0217101 -0.0342175,0.0231895 -0.00662831,0.00147936 -0.0136217,0.00220944 -0.0209801,0.00220944 -0.0515087,0 -0.0964084,-0.026494 -0.13468,-0.0794821 -0.0397315,-0.0544482 -0.0702793,-0.131356 -0.0916052,-0.230704 -0.0213451,-0.0993671 -0.0334874,-0.202019 -0.0364461,-0.307996 -0.0323731,0.108916 -0.0625367,0.194277 -0.0905101,0.256103 0,0.00147936 -0.000730075,0.00293951 -0.00220944,0.00441888 0,0 0,0.000365038 0,0.00109511 0,0.000749288 0,0.0018444 0,0.00332376 -0.0515087,0.111855 -0.103767,0.167783 -0.156755,0.167783 -0.063286,0 -0.117004,-0.0309129 -0.161174,-0.0927196 -0.0279542,-0.0382713 -0.0511437,-0.0868405 -0.0695301,-0.145727 -0.0184056,-0.0588671 -0.0305479,-0.117004 -0.0364269,-0.174411 -0.00589824,-0.0573878 -0.00774264,-0.11149 -0.0055332,-0.162269 0.00220944,-0.0507787 0.00847271,-0.0901451 0.0187706,-0.118118 0.00441888,-0.0176563 0.0150818,-0.0309129 0.032008,-0.0397315 0.0169262,-0.00883775 0.0346017,-0.0110472 0.0529881,-0.00662831 0.0184056,0.00441888 0.0331224,0.0150818 0.0441695,0.032008 0.011028,0.0169262 0.0150818,0.0393856 0.0121423,0.0673398 -0.0117773,0.0824216 -0.00920279,0.174046 0.00772343,0.274873 0.0169262,0.100827 0.0445154,0.174046 0.0827867,0.219676 0.0235545,0.0250147 0.0485692,0.0382713 0.0750633,0.0397315 0.0132566,-0.00735839 0.0323923,-0.0367919 0.057407,-0.0883007 0.00587903,-0.0147168 0.0117773,-0.0287035 0.0176563,-0.0419601 0.0294336,-0.0765234 0.0669748,-0.197216 0.112604,-0.362079 0.0117773,-0.0412108 0.0198657,-0.069165 0.0242846,-0.0838818 0,-0.00293951 0.000730075,-0.00662831 0.00220944,-0.0110472 0,-0.00146015 0.000730075,-0.00220944 0.00220944,-0.00220944 0.00587903,-0.0176563 0.0169262,-0.0301636 0.0331031,-0.037522 0.0161961,-0.00735839 0.0331224,-0.00956783 0.0507787,-0.00662831 0.0176755,0.00441888 0.0323923,0.0154469 0.0441695,0.0331224 0.0117773,0.0176563 0.0154469,0.0397315 0.011028,0.0662255 -0.0132374,0.0986178 -0.00920279,0.227399 0.0121423,0.386363 0.0213451,0.158964 0.0526231,0.262001 0.0938339,0.309091 0.0102979,0.0132566 0.020615,0.0198657 0.0309129,0.0198657 0.0161961,0 0.0390014,-0.0301636 0.0684349,-0.0905101 0.0235545,-0.0559276 0.0471091,-0.123632 0.0706636,-0.203115 0.00146015,-0.00295873 0.00219023,-0.00441888 0.00219023,-0.00441888 -0.0102979,-0.00735839 -0.0191164,-0.0169262 -0.026494,-0.0287035 -0.0338524,-0.0456297 -0.0526038,-0.117388 -0.0562926,-0.215257 -0.00366959,-0.0978877 0.00699335,-0.182884 0.032008,-0.255008 0.0235545,-0.0794821 0.0596164,-0.119214 0.108186,-0.119214 0.0250339,0 0.0456297,0.00808846 0.0618258,0.0242846 0.0220752,0.0220752 0.0331224,0.0559276 0.0331224,0.101557 0,0.0971384 -0.0294528,0.250224 -0.0883199,0.459217 0.026494,0 0.0529881,-0.00514895 0.0794821,-0.0154469 0.026494,-0.0102979 0.0544482,-0.0272433 0.083901,-0.0507787 0.0294336,-0.0235545 0.0566577,-0.046744 0.0816724,-0.0695493 0.0250339,-0.0228052 0.0559468,-0.0540832 0.0927388,-0.0938339zm-0.386363 0.205324c0.0559276,-0.200175 0.083901,-0.345153 0.083901,-0.434933 0,-0.0309129 -0.00589824,-0.052258 -0.0176755,-0.0640161 -0.00587903,-0.00589824 -0.0139867,-0.00883775 -0.0242846,-0.00883775 -0.0220752,0 -0.0412108,0.0272241 -0.057407,0.0816916 -0.0235353,0.0735839 -0.0334682,0.153431 -0.0297986,0.239542 0.0036888,0.0861104 0.0187706,0.147552 0.0452647,0.184344l0 0.00220944z"/>
  <path id="123456789" class="fil0" d="M9.59726 1.2375c0.00883775,-0.0147168 0.0209801,-0.0176563 0.0364269,-0.00883775 0.0154469,0.00883775 0.0187706,0.020615 0.00993287,0.0353318l-0.0154469 0.026494c-0.0750633,0.128051 -0.136159,0.22225 -0.183249,0.282597 -0.00147936,0.00146015 -0.00220944,0.00293951 -0.00220944,0.00441888l-0.00441888 0.00220944c0,0 0,0.000365038 0,0.00109511 0,0.000730075 -0.000730075,0.00111433 -0.00220944,0.00111433 -0.0735839,0.0912402 -0.139079,0.13687 -0.196486,0.13687 -0.0529881,0 -0.0956783,-0.0220752 -0.128051,-0.0662255 -0.0323731,-0.0456297 -0.052258,-0.114065 -0.0596164,-0.205324 -0.0132374,0.0338524 -0.0272241,0.0647654 -0.0419409,0.0927196 -0.0647654,0.119233 -0.141308,0.17883 -0.229609,0.17883 -0.0500486,0 -0.0938339,-0.0213451 -0.131375,-0.0640161 -0.037522,-0.0426902 -0.0562926,-0.108916 -0.0562926,-0.198715 0,-0.119214 0.0401157,-0.228859 0.120328,-0.328957 0.0802122,-0.100078 0.161539,-0.150127 0.24396,-0.150127 0.057407,0 0.101557,0.0139867 0.13247,0.0419409 0.00293951,0.00147936 0.00587903,0.0036888 0.00881854,0.00662831 0,0 0.000749288,0 0.00220944,0 0.00295873,-0.0132374 0.0106822,-0.0239196 0.0231895,-0.032008 0.0125073,-0.00808846 0.025764,-0.0128724 0.0397315,-0.0143517 0.0139867,-0.00147936 0.0276084,-0.000730075 0.0408458,0.00220944 0.020615,0.00587903 0.0364269,0.0176563 0.0474741,0.0353318 0.0110472,0.0176563 0.0128724,0.0390014 0.00551399,0.0640161 -0.0147168,0.057407 -0.026494,0.119214 -0.0353126,0.185458 -0.00883775,0.0662255 -0.0110472,0.131721 -0.00662831,0.196486 0.00441888,0.0647654 0.0176563,0.111125 0.0397315,0.139099 0.0161961,0.0191357 0.0360619,0.0279542 0.0596164,0.026494 0.0132566,-0.00441888 0.0412108,-0.031643 0.083901,-0.0816916l0.00220944 -0.00441888 0.00220944 0c0.0456105,-0.057407 0.105227,-0.150127 0.17883,-0.278178l0.0154469 -0.026494zm-0.543118 0.0507787c0.00441888,-0.0691842 0.0132566,-0.13468 0.026494,-0.196486 -0.00293951,-0.00589824 -0.00587903,-0.0110472 -0.00883775,-0.0154661 -0.00439966,-0.00587903 -0.00954862,-0.0117773 -0.0154469,-0.0176563 -0.0117773,-0.00589824 -0.0272241,-0.00662831 -0.0463598,-0.00220944 -0.057407,0.0161961 -0.1137,0.0651304 -0.168897,0.146822 -0.0551975,0.0816916 -0.0827867,0.171837 -0.0827867,0.270454 0,0.0515087 0.00772343,0.0916244 0.0231703,0.120328 0.0154661,0.0286843 0.031278,0.043036 0.0474741,0.043036 0.0220752,0 0.0456297,-0.0121423 0.0706444,-0.0364269 0.0250339,-0.0242846 0.0463598,-0.0533531 0.0640353,-0.0872056 0,0 0,-0.000730075 0,-0.00220944 0.026494,-0.0470899 0.0551975,-0.117004 0.0860912,-0.209743 0,-0.00146015 0.000365038,-0.00366959 0.00111433,-0.0066091 0.000730075,-0.00295873 0.0018444,-0.00514895 0.00330455,-0.00662831z"/>
  <path id="12345678910" class="fil1 str0" d="M1.61168 1.79827c0,0.00147936 0,0.00293951 0,0.00441888 0.00147936,0.00441888 0.00147936,0.00883775 0,0.0132374 -0.00146015,0.00147936 -0.00220944,0.00295873 -0.00220944,0.00441888 0,0 -0.000730075,0.000749288 -0.00220944,0.00220944 0,0.00147936 -0.000730075,0.00220944 -0.00220944,0.00220944 -0.0824216,0.0941989 -0.189128,0.141308 -0.320119,0.141308 -0.057407,0 -0.117388,-0.00995208 -0.179944,-0.0298178 -0.0625367,-0.0198657 -0.11222,-0.0397315 -0.149012,-0.0595972 -0.0367919,-0.0198849 -0.0883199,-0.0489535 -0.154545,-0.0872248 -0.0471091,-0.0279542 -0.0824216,-0.0485692 -0.105976,-0.0618066 -0.0691842,0.114795 -0.164113,0.173681 -0.284806,0.176621 -0.00293951,0 -0.00587903,0 -0.00883775,0 -0.0559276,0 -0.0938147,-0.0136217 -0.1137,-0.0408458 -0.0198657,-0.0272241 -0.0297986,-0.0585021 -0.0297986,-0.0938339 0,-0.0485692 0.0161961,-0.08905 0.0485692,-0.121423 0.0367919,-0.0353318 0.0853612,-0.052258 0.145708,-0.0507787 0.0500486,0 0.0986178,0.00366959 0.145727,0.011028 0.0485692,-0.163364 0.0728538,-0.390033 0.0728538,-0.679988 0,-0.512205 -0.0802122,-0.771997 -0.240656,-0.779355 -0.00293951,0 -0.00587903,0 -0.00881854,0 -0.0883199,0 -0.155295,0.046379 -0.200924,0.139099 -0.0470899,0.103037 -0.0654954,0.228514 -0.0551783,0.376431 0.0102979,0.147917 0.0419409,0.255738 0.094929,0.323443 0.0102979,0.0132374 0.0084535,0.0253797 -0.00551399,0.0364269 -0.0139867,0.011028 -0.026129,0.00993287 -0.0364461,-0.00332376 -0.0573878,-0.0750633 -0.0923545,-0.191702 -0.104862,-0.349917 -0.0125073,-0.158234 0.00699335,-0.293279 0.0585021,-0.405134 0.0559276,-0.113335 0.139099,-0.170011 0.249494,-0.170011 0.0677049,0 0.126937,0.0180405 0.177716,0.0541024 0.0507787,0.0360619 0.0934688,0.089415 0.128051,0.160059 0.0345825,0.0706444 0.0603465,0.158234 0.0772727,0.262731 0.0169262,0.104497 0.0253989,0.22592 0.0253989,0.364288 0,0.285536 -0.0250339,0.504098 -0.0750633,0.655704 -0.00589824,0.0176563 -0.0117773,0.0345825 -0.0176755,0.0507787 0.0441695,0.0161961 0.104516,0.0434203 0.181039,0.0816916 0.057407,0.0279734 0.102307,0.0489343 0.13468,0.062921 0.0323731,0.0139867 0.0780028,0.0279734 0.136889,0.0419409 0.0588671,0.0139867 0.119944,0.0209801 0.183249,0.0209801 0.0765234,0 0.139079,-0.0191357 0.187649,-0.057407 0.00589824,-0.00441888 0.00883775,-0.0066091 0.00883775,-0.0066091l0.00220944 -0.00220944c0,0 0.000730075,-0.000749288 0.00220944,-0.00220944 0.00146015,0 0.00293951,0 0.00441888,0 0.00146015,0 0.00257448,-0.000365038 0.00330455,-0.00111433 0.000730075,-0.000730075 0.00146015,-0.00109511 0.00220944,-0.00109511 0.000730075,0 0.0018444,0 0.00330455,0 0,0 0.000730075,0 0.00220944,0 0.00147936,0.00146015 0.0036888,0.00220944 0.00662831,0.00220944 0,0 0.000365038,0.000365038 0.00109511,0.00109511 0.000749288,0.000730075 0.00111433,0.00111433 0.00111433,0.00111433 0.00146015,0 0.00220944,0 0.00220944,0 0.00146015,0.00146015 0.00220944,0.00220944 0.00220944,0.00220944 0.00439966,0.00293951 0.00735839,0.0066091 0.00881854,0.011028zm-1.30038 -0.0287035c0,0.0294336 0.00699335,0.0504136 0.0209801,0.062921 0.0139675,0.0125073 0.037157,0.0187706 0.0695301,0.0187706 0.0706636,0 0.128801,-0.0588671 0.17443,-0.176621 -0.0441695,-0.0161961 -0.0853804,-0.0250147 -0.123652,-0.026494 -0.00146015,0 -0.00257448,0 -0.00330455,0 -0.000730075,0 -0.00109511,0 -0.00109511,0 -0.0441695,0 -0.0787521,0.0125073 -0.103767,0.037522 -0.0220944,0.0220944 -0.0331224,0.0500486 -0.0331224,0.083901z"/>
  <path id="1234567891011" class="fil1 str0" d="M2.01572 1.2375c0.0102979,-0.0147168 0.0228052,-0.0169262 0.037522,-0.00662831 0.0147168,0.0102979 0.0169262,0.0228245 0.00662831,0.0375412 -0.0441503,0.0603465 -0.106341,0.122153 -0.186553,0.185458 -0.0802314,0.063286 -0.15418,0.0978685 -0.221885,0.103748 -0.0191357,0.0338524 -0.0426902,0.0633052 -0.0706444,0.0883199 -0.0544675,0.0485692 -0.114814,0.0728538 -0.181039,0.0728538 -0.0117773,0 -0.0228245,-0.000365038 -0.0331224,-0.00109511 -0.0102979,-0.000749288 -0.0228245,-0.00293951 -0.0375412,-0.00662831 -0.0147168,-0.0036888 -0.0287035,-0.00920279 -0.0419409,-0.0165612 -0.0132566,-0.00735839 -0.0268591,-0.0165612 -0.0408458,-0.0275892 -0.0139867,-0.0110472 -0.026494,-0.0250339 -0.037522,-0.0419601 -0.0110472,-0.0169262 -0.0209801,-0.0360619 -0.0298178,-0.0573878 -0.00881854,-0.0213451 -0.0158119,-0.0474741 -0.0209801,-0.078387 -0.00514895,-0.0309129 -0.00772343,-0.0640161 -0.00772343,-0.0993479 0,-0.0588671 0.0128916,-0.119214 0.0386363,-0.181039 0.025764,-0.0618258 0.0662447,-0.115909 0.121442,-0.162269 0.0551783,-0.0463598 0.117369,-0.0695493 0.186553,-0.0695493 0.0250147,0 0.0489343,0.00551399 0.0717395,0.0165612 0.0228245,0.0110472 0.0445346,0.0283384 0.0651304,0.0518738 0.020615,0.0235545 0.0375412,0.052258 0.0507787,0.0861104l0 0.00220944c0,0 0.000749288,0.000730075 0.00220944,0.00220944l0 0.00220944c0.0161961,0.0485692 0.0242846,0.104497 0.0242846,0.167783 0,0.0721237 -0.011028,0.136889 -0.0331031,0.194296 0.0559276,-0.0132566 0.116639,-0.046744 0.182135,-0.100462 0.0654954,-0.0537182 0.117388,-0.107821 0.15566,-0.162269zm-0.373126 0.205324c0.0117773,-0.0426902 0.0176563,-0.0883199 0.0176563,-0.136889 0,-0.0588671 -0.00808846,-0.109646 -0.0242846,-0.152336 -0.0220752,-0.0485692 -0.0507787,-0.0728538 -0.0860912,-0.0728538 -0.0368112,0 -0.0721237,0.0117773 -0.105976,0.0353318 -0.0338524,0.0235353 -0.0621909,0.0592322 -0.0849961,0.107071 -0.0228245,0.0478391 -0.0342367,0.101192 -0.0342367,0.160059 0,0.0824216 0.0106822,0.147187 0.0320272,0.194296 0.0213451,0.0470899 0.0511437,0.0706444 0.089415,0.0706444 0.0279542,0 0.0551975,-0.00956783 0.0816916,-0.0287035 0.00881854,-0.00587903 0.0169262,-0.0125073 0.0242846,-0.0198657 0.00146015,0 0.00220944,-0.000730075 0.00220944,-0.00220944 0,0 0.000730075,-0.000730075 0.00219023,-0.00220944 0.014736,-0.0147168 0.0279734,-0.0301636 0.0397507,-0.0463598 -0.0132566,-0.00883775 -0.020615,-0.0213451 -0.0220752,-0.0375412 -0.00147936,-0.0161769 0.00366959,-0.0309129 0.0154469,-0.0441503 0.0117773,-0.0132374 0.026494,-0.0213451 0.0441503,-0.0242846 0.00295873,-0.00147936 0.00589824,-0.00147936 0.00883775,0z"/>
  <path id="123456789101112" class="fil1 str0" d="M2.90545 1.23087c0.0147168,-0.0102979 0.0275892,-0.00881854 0.0386363,0.00441888 0.011028,0.0132566 0.00918358,0.025764 -0.0055332,0.0375412 -0.00439966,0.00293951 -0.0132374,0.00956783 -0.026494,0.0198657 -0.126572,0.0986178 -0.241386,0.196486 -0.344403,0.293625 -0.00735839,0.172221 -0.0198657,0.33228 -0.0375412,0.480197 -0.0176563,0.147917 -0.0456297,0.292165 -0.0838818,0.432723 -0.0382713,0.140559 -0.0846311,0.238081 -0.139099,0.29253 -0.0382713,0.0397507 -0.0809615,0.0596164 -0.128051,0.0596164 -0.0235545,0 -0.0456297,-0.00366959 -0.0662255,-0.011028 -0.020615,-0.0073776 -0.0423251,-0.0213451 -0.0651304,-0.0419601 -0.0228245,-0.0205958 -0.0412108,-0.0529881 -0.0551975,-0.0971384 -0.0139867,-0.0441503 -0.0209801,-0.0986178 -0.0209801,-0.163383 0,-0.264921 0.144247,-0.551937 0.432723,-0.861028 0.00293951,-0.0736031 0.00514895,-0.148666 0.00662831,-0.22519 -0.0132566,0.0323731 -0.026494,0.0618066 -0.0397507,0.0883007 -0.00146015,0.00147936 -0.00293951,0.0036888 -0.00439966,0.00662831 -0.0633052,0.114795 -0.138368,0.172202 -0.225209,0.172202 -0.0500294,0 -0.0938147,-0.0213451 -0.131356,-0.0640161 -0.0375412,-0.0426902 -0.0562926,-0.108916 -0.0562926,-0.198715 0,-0.119214 0.037522,-0.225555 0.112585,-0.319024 0.0750633,-0.0934496 0.153815,-0.140194 0.236237,-0.140194 0.0471091,0 0.0846311,0.0125073 0.112604,0.0375412 0.0117773,-0.0323923 0.0338524,-0.0507787 0.0662255,-0.0551975 0.0235545,-0.00293951 0.0441503,0.00293951 0.0618258,0.0176563 0.0205958,0.0176755 0.031643,0.0441695 0.0331031,0.0794821 0.00295873,0.128051 0.00147936,0.273029 -0.00439966,0.434933 0.0927196,-0.0868405 0.195756,-0.173681 0.309091,-0.260522 0.0132374,-0.0102979 0.0213259,-0.0169262 0.0242846,-0.0198657zm-0.71313 1.49247c0.105976,-0.113335 0.17516,-0.434203 0.207533,-0.962585 -0.250204,0.279638 -0.375316,0.538699 -0.375316,0.777127 0,0.020615 0.000730075,0.0397507 0.00220944,0.057407 0.00587903,0.0441503 0.0180213,0.0827867 0.0364269,0.115909 0.0184056,0.0331224 0.037157,0.0496835 0.0562926,0.0496835 0.0250339,0 0.0493185,-0.0125266 0.0728538,-0.0375412zm0.218581 -1.42182c0,-0.00146015 0.000365038,-0.00366959 0.00109511,-0.0066091 0.000749288,-0.00295873 0.00111433,-0.00441888 0.00111433,-0.00441888 0,-0.0544675 0,-0.100827 0,-0.139099 -0.0176563,-0.0235353 -0.0463598,-0.0301636 -0.0861104,-0.0198657 -0.0500486,0.0132566 -0.0971384,0.0500486 -0.141289,0.110395 -0.0441695,0.0603465 -0.0662447,0.137619 -0.0662447,0.231818 0,0.0515087 0.00772343,0.0916244 0.0231895,0.120328 0.0154469,0.0286843 0.031278,0.043036 0.0474741,0.043036 0.0147168,0 0.0305287,-0.00624406 0.0474549,-0.0187514 0.0169262,-0.0125266 0.0327573,-0.0276084 0.0474741,-0.0452647 0.0147168,-0.0176563 0.0279542,-0.0375412 0.0397315,-0.0596164 0,0 0,-0.000730075 0,-0.00220944 0.0250339,-0.0470899 0.0537374,-0.117004 0.0861104,-0.209743z"/>
  <path id="12345678910111213" class="fil1 str0" d="M3.40884 1.2375c0.00881854,-0.0147168 0.0209608,-0.0176563 0.0364269,-0.00883775 0.0154469,0.00883775 0.0187514,0.020615 0.00993287,0.0353318l-0.0154661 0.026494c-0.0765234,0.129511 -0.137619,0.22371 -0.183249,0.282597 -0.00146015,0.00146015 -0.00219023,0.00293951 -0.00219023,0.00441888l-0.00441888 0.00220944c0,0 -0.000749288,0.000730075 -0.00220944,0.00220944 -0.0736031,0.0912402 -0.139099,0.13687 -0.196506,0.13687 -0.0529689,0 -0.0956591,-0.0220752 -0.128051,-0.0662255 -0.0323731,-0.0456297 -0.0515087,-0.112604 -0.0573878,-0.200905 -0.00589824,-0.0883199 -0.0036888,-0.170011 0.0066091,-0.245075 0.0103171,-0.0750633 0.0228245,-0.13541 0.0375412,-0.181039 0.00735839,-0.0205958 0.0217101,-0.0345825 0.0430552,-0.0419409 0.0213451,-0.00735839 0.0423059,-0.00810768 0.062921,-0.00220944 0.0205958,0.00587903 0.0364269,0.0176563 0.0474549,0.0353318 0.0110472,0.0176563 0.0128916,0.0390014 0.0055332,0.0640161 -0.0147168,0.057407 -0.026494,0.119214 -0.0353318,0.185458 -0.00883775,0.0662255 -0.011028,0.131721 -0.00662831,0.196486 0.00441888,0.0647654 0.0176755,0.111125 0.0397507,0.139099 0.0147168,0.0176563 0.0345825,0.026494 0.0596164,0.026494 0.0132374,-0.00441888 0.0412108,-0.031643 0.0838818,-0.0816916l0.00220944 -0.00441888c0.0456297,-0.057407 0.105976,-0.150127 0.181039,-0.278178l0.0154661 -0.026494zm-0.302482 -0.356565c-0.0220752,0.00662831 -0.0467248,0.00662831 -0.0739489,0 -0.0272433,-0.0066091 -0.0493185,-0.0176563 -0.0662447,-0.0331031 -0.0169262,-0.0154661 -0.0235353,-0.0309129 -0.0198657,-0.046379 0.0036888,-0.0154469 0.0161961,-0.026494 0.0375412,-0.0331031 0.0213259,-0.00662831 0.0459947,-0.00699335 0.0739489,-0.00111433 0.0279734,0.00589824 0.0504136,0.0169262 0.0673398,0.0331224 0.0169262,0.0161961 0.0235545,0.032008 0.0198657,0.0474741 -0.00366959,0.0154469 -0.0165612,0.026494 -0.0386363,0.0331031z"/>
  <path id="1234567891011121314" class="fil1 str0" d="M4.36921 1.23971c0.00735839,-0.0161961 0.0191357,-0.020615 0.0353318,-0.0132566 0.0161769,0.00735839 0.0205958,0.0191357 0.0132374,0.0353318 -0.00147936,0.00441888 -0.00514895,0.0132374 -0.011028,0.026494 -0.0927388,0.213413 -0.17443,0.370167 -0.245075,0.470264 -0.00147936,0.00146015 -0.00220944,0.00293951 -0.00220944,0.00439966 -0.0102979,0.0161961 -0.0213451,0.0301828 -0.0331224,0.0419601 0,0 -0.000730075,0.00146015 -0.00219023,0.00441888 -0.0529881,0.063286 -0.102307,0.094929 -0.147936,0.094929 -0.0338524,0 -0.0618066,-0.0117773 -0.0838818,-0.0353318 -0.0309129,-0.0338524 -0.046744,-0.0956591 -0.0474741,-0.185439 -0.000730075,-0.0897992 0.00626328,-0.1781 0.0209801,-0.26494 0.00293951,-0.0309129 0.00514895,-0.0544675 0.0066091,-0.0706444 0.00147936,-0.0161961 0.00332376,-0.0379063 0.0055332,-0.0651304 0.00220944,-0.0272433 0.00330455,-0.0489535 0.00330455,-0.0651304 0,-0.0161961 0,-0.0338524 0,-0.0529881 0,-0.0191357 -0.0018444,-0.0346017 -0.00551399,-0.0463598 -0.0036888,-0.0117773 -0.00847271,-0.020615 -0.0143517,-0.026494 -0.00293951,-0.00441888 -0.00810768,-0.00662831 -0.0154661,-0.00662831 -0.0338524,0 -0.0677049,0.0331224 -0.101557,0.0993479 -0.00146015,0.00441888 -0.00366959,0.00808846 -0.0066091,0.0110472 -0.057407,0.122153 -0.0964084,0.284057 -0.117023,0.485711 0,0.0161769 -0.00735839,0.0272241 -0.0220752,0.0331031 -0.00735839,0.00295873 -0.0154469,0.00441888 -0.0242846,0.00441888 -0.0220752,0 -0.0448996,-0.00735839 -0.0684349,-0.0220752 -0.0235545,-0.0147168 -0.0412108,-0.0338524 -0.0529881,-0.057407 -0.0353318,-0.0735839 -0.0551975,-0.176621 -0.0596164,-0.309091 -0.00441888,-0.13247 0.00662831,-0.234028 0.0331224,-0.304672 0.00587903,-0.0205958 0.0195007,-0.0345825 0.0408458,-0.0419409 0.0213259,-0.00735839 0.0423059,-0.00810768 0.062921,-0.00220944 0.0205958,0.00587903 0.0364269,0.0176563 0.0474549,0.0353318 0.0110472,0.0176563 0.0136217,0.0390014 0.00774264,0.0640161 -0.0397507,0.164843 -0.0404807,0.323808 -0.00220944,0.476874 0.0191357,-0.120674 0.0448804,-0.22519 0.0772727,-0.31349 0.00146015,0 0.00220944,-0.000749288 0.00220944,-0.00220944 0.0132374,-0.0367919 0.0279542,-0.0691842 0.0441503,-0.0971384 0,-0.00147936 0.000730075,-0.00295873 0.00220944,-0.00441888 0.0603465,-0.110395 0.127302,-0.165593 0.200905,-0.165593 0.0397315,0 0.0713745,0.0139867 0.094929,0.0419601 0.0220752,0.026494 0.0356968,0.0680699 0.0408458,0.124728 0.00514895,0.0566769 0.00514895,0.107456 0,0.152336 -0.00514895,0.0448996 -0.0136217,0.11003 -0.0253797,0.195391 -0.00735839,0.0441503 -0.0125266,0.078387 -0.0154661,0.102672 -0.00293951,0.0242846 -0.00587903,0.0540832 -0.00881854,0.089415 -0.00295873,0.0353126 -0.00332376,0.063286 -0.00111433,0.0838818 0.00220944,0.020615 0.00772343,0.0353318 0.0165612,0.0441695 0.00293951,0.00439966 0.00808846,0.0066091 0.0154469,0.0066091 0.0132566,0 0.0323923,-0.0139675 0.057407,-0.0419409 0.0117773,-0.0147168 0.0242846,-0.0309129 0.0375412,-0.0485692l0 -0.00220944c0,0 0.000730075,-0.000730075 0.00220944,-0.00220944 0.069165,-0.100078 0.147168,-0.250954 0.234008,-0.452589 0.00441888,-0.0117773 0.00810768,-0.0213451 0.0110472,-0.0287035z"/>
  <path id="123456789101112131415" class="fil1 str0" d="M6.15532 1.22645c0.0176563,-0.00293951 0.0279542,0.00405384 0.0309129,0.0209801 0.00293951,0.0169262 -0.00441888,0.0268591 -0.0220944,0.0297986 -0.0794821,0.0117773 -0.18323,0.0368112 -0.311281,0.0750633 0.0323731,0.04123 0.0492993,0.08905 0.0507787,0.143517 0.00146015,0.107436 -0.0309129,0.195026 -0.0971576,0.262731 -0.0927196,0.0956591 -0.236218,0.143498 -0.430514,0.143498 -0.063286,0 -0.114795,-0.0102979 -0.154545,-0.0309129 -0.0382713,-0.0191357 -0.063286,-0.0463598 -0.0750633,-0.0816916l-0.00220944 -0.00219023c0,0 0,0 0,0 -0.00441888,-0.0161961 -0.00662831,-0.0331224 -0.00662831,-0.0507787 0,-0.116293 0.150146,-0.232567 0.450399,-0.348841 0.0250147,-0.00883775 0.0500486,-0.0176563 0.0750633,-0.026494 -0.0353318,-0.0294336 -0.102287,-0.0706444 -0.200905,-0.123632 -0.0515279,-0.0279734 -0.0905293,-0.0496835 -0.117023,-0.0651304 -0.026494,-0.0154469 -0.057772,-0.037157 -0.0938339,-0.0651304 -0.0360427,-0.0279734 -0.063651,-0.0559276 -0.0827867,-0.083901 -0.0559276,-0.0647654 -0.0860912,-0.143498 -0.0905101,-0.236237 -0.00441888,-0.0809423 0.0128724,-0.166688 0.0518738,-0.257198 0.0390014,-0.0905101 0.094564,-0.173316 0.166688,-0.248379 0.117753,-0.123632 0.234758,-0.185458 0.351051,-0.185458 0.0397315,0 0.0754283,0.00662831 0.107071,0.0198849 0.031643,0.0132374 0.0585021,0.0338524 0.0805772,0.0618066 0.0426902,0.0500486 0.0691842,0.123632 0.0794821,0.22079 0.0102979,0.0971384 0.00293951,0.217831 -0.0220752,0.362079 -0.00293951,0.0161769 -0.0128724,0.0228052 -0.0297986,0.0198657 -0.0169262,-0.00293951 -0.0239196,-0.0125073 -0.0209801,-0.0287035 0.0235545,-0.136889 0.0301636,-0.252433 0.0198657,-0.346632 0,0 0,-0.000730075 0,-0.00220944 -0.00735839,-0.0677049 -0.0250147,-0.117004 -0.0529881,-0.147917 -0.0279542,-0.0309129 -0.0684349,-0.0463598 -0.121423,-0.0463598 -0.026494,0 -0.0585021,0.00847271 -0.0960433,0.0253989 -0.037522,0.0169262 -0.0765234,0.0419409 -0.117004,0.0750633 -0.0404807,0.0331031 -0.078022,0.0717395 -0.112604,0.115909 -0.0345825,0.0441503 -0.063286,0.0967734 -0.0860912,0.15785 -0.0228245,0.0610766 -0.0342367,0.123267 -0.0342367,0.186553 0,0.0397507 0.00626328,0.0772727 0.0187706,0.112604 0.0125073,0.0353126 0.031278,0.0680699 0.0562926,0.0982335 0.0250339,0.0301828 0.0493185,0.0563119 0.072873,0.078387 0.0235353,0.0220752 0.0544482,0.0448804 0.0927196,0.0684349 0.0382713,0.0235545 0.0691842,0.0415759 0.0927196,0.0541024 0.0235545,0.0125073 0.0551975,0.0283192 0.0949482,0.0474549 0.042671,0.0176755 0.0780028,0.0360619 0.105976,0.0551975 0,0 0.000730075,0 0.00219023,0 0.00735839,0.00589824 0.0139867,0.0110472 0.0198849,0.0154661 0.00439966,0.00293951 0.00956783,0.0066091 0.0154469,0.011028 0.147187,-0.0441503 0.261252,-0.0721237 0.342213,-0.083901zm-0.450399 0.17443c-0.147187,0.0529881 -0.269705,0.108551 -0.367593,0.166688 -0.0978685,0.058137 -0.146822,0.11443 -0.146822,0.168897 0,0.0117581 0.00147936,0.0228052 0.00441888,0.0331031 0.00589824,0.0161961 0.0187706,0.0298178 0.0386363,0.0408458 0.0198657,0.0110472 0.0430552,0.0191357 0.0695493,0.0242846 0.026494,0.00514895 0.0537182,0.00772343 0.0816916,0.00772343l0.00220944 0c0.0912402,0 0.175141,-0.0323731 0.251684,-0.0971384 0.0765426,-0.0647654 0.114795,-0.141289 0.114795,-0.229609 0,-0.0397315 -0.0161769,-0.0780028 -0.0485692,-0.114795z"/>
  <path id="12345678910111213141516" class="fil1 str0" d="M6.64766 1.2375c0.00881854,-0.0147168 0.0209608,-0.0176563 0.0364269,-0.00883775 0.0154469,0.00883775 0.0187514,0.020615 0.00993287,0.0353318l-0.0154661 0.026494c-0.0765234,0.129511 -0.137619,0.22371 -0.183249,0.282597 -0.00146015,0.00146015 -0.00219023,0.00293951 -0.00219023,0.00441888l-0.00441888 0.00220944c0,0 -0.000749288,0.000730075 -0.00220944,0.00220944 -0.0736031,0.0912402 -0.139099,0.13687 -0.196506,0.13687 -0.0529689,0 -0.0956591,-0.0220752 -0.128051,-0.0662255 -0.0323731,-0.0456297 -0.0515087,-0.112604 -0.0573878,-0.200905 -0.00589824,-0.0883199 -0.0036888,-0.170011 0.0066091,-0.245075 0.0103171,-0.0750633 0.0228245,-0.13541 0.0375412,-0.181039 0.00735839,-0.0205958 0.0217101,-0.0345825 0.0430552,-0.0419409 0.0213451,-0.00735839 0.0423059,-0.00810768 0.062921,-0.00220944 0.0205958,0.00587903 0.0364269,0.0176563 0.0474549,0.0353318 0.0110472,0.0176563 0.0128916,0.0390014 0.0055332,0.0640161 -0.0147168,0.057407 -0.026494,0.119214 -0.0353318,0.185458 -0.00883775,0.0662255 -0.011028,0.131721 -0.00662831,0.196486 0.00441888,0.0647654 0.0176755,0.111125 0.0397507,0.139099 0.0147168,0.0176563 0.0345825,0.026494 0.0596164,0.026494 0.0132374,-0.00441888 0.0412108,-0.031643 0.0838818,-0.0816916l0.00220944 -0.00441888c0.0456297,-0.057407 0.105976,-0.150127 0.181039,-0.278178l0.0154661 -0.026494zm-0.302482 -0.356565c-0.0220752,0.00662831 -0.0467248,0.00662831 -0.0739489,0 -0.0272433,-0.0066091 -0.0493185,-0.0176563 -0.0662447,-0.0331031 -0.0169262,-0.0154661 -0.0235353,-0.0309129 -0.0198657,-0.046379 0.0036888,-0.0154469 0.0161961,-0.026494 0.0375412,-0.0331031 0.0213259,-0.00662831 0.0459947,-0.00699335 0.0739489,-0.00111433 0.0279734,0.00589824 0.0504136,0.0169262 0.0673398,0.0331224 0.0169262,0.0161961 0.0235545,0.032008 0.0198657,0.0474741 -0.00366959,0.0154469 -0.0165612,0.026494 -0.0386363,0.0331031z"/>
  <path id="1234567891011121314151617" class="fil1 str0" d="M7.36077 1.23308c0.0132374,-0.0117773 0.0257448,-0.011028 0.037522,0.00220944 0.0117773,0.0132566 0.0110472,0.025764 -0.00220944,0.0375412 -0.0986178,0.0853612 -0.22446,0.169992 -0.377526,0.253893 0.0294336,0.0441503 0.0441503,0.08978 0.0441503,0.13687 0,0.0235545 -0.00366959,0.0482042 -0.011028,0.0739681 -0.00735839,0.025764 -0.0195007,0.0515087 -0.0364269,0.0772727 -0.0169262,0.025764 -0.0423251,0.0470899 -0.0761776,0.0640161 -0.0338524,0.0169262 -0.0728538,0.0253989 -0.117004,0.0253989 -0.0382713,0 -0.0691842,-0.0136217 -0.0927388,-0.0408458 -0.0235545,-0.0272241 -0.0353126,-0.0592322 -0.0353126,-0.0960433 0,-0.0412108 0.0132374,-0.0776377 0.0397315,-0.109281 0.026494,-0.031643 0.0662255,-0.063651 0.119214,-0.0960433 -0.0147168,-0.0147168 -0.0390014,-0.0345825 -0.0728538,-0.0595972 -0.026494,-0.020615 -0.0470899,-0.0371762 -0.0618066,-0.0496835 -0.0147168,-0.0125073 -0.0320272,-0.0305479 -0.051893,-0.0540832 -0.0198657,-0.0235545 -0.0342175,-0.0496835 -0.0430552,-0.078387 -0.00881854,-0.0287035 -0.0132374,-0.0599814 -0.0132374,-0.0938339 0,-0.0573878 0.0268591,-0.11295 0.0805772,-0.166688 0.0537182,-0.0537182 0.121807,-0.0805772 0.204229,-0.0805772 0.0544482,0 0.102287,0.00993287 0.143498,0.0297986 0.0412108,0.0198849 0.0713937,0.0474741 0.0905293,0.0828059 0,0.00146015 0.000730075,0.00293951 0.00220944,0.00439966 0,0.00147936 0,0.00441888 0,0.00883775 0,0 0,0.000730075 0,0.00220944 0,0.00147936 0,0.00257448 0,0.00330455 0,0.000749288 -0.000749288,0.0018444 -0.00220944,0.00332376 0,0.00146015 0,0.00220944 0,0.00220944 0,0 -0.000749288,0.000730075 -0.00220944,0.00220944 0,0 0,0.000730075 0,0.00219023l-0.00220944 0c0,0.00147936 0,0.00220944 0,0.00220944 -0.00147936,0.00147936 -0.00220944,0.00220944 -0.00220944,0.00220944l-0.00220944 0.00220944c-0.00147936,0 -0.00293951,0 -0.00441888,0 -0.00146015,0.00147936 -0.00220944,0.00220944 -0.00220944,0.00220944 -0.00293951,0 -0.00587903,0 -0.00881854,0 -0.00147936,0 -0.00257448,0 -0.00332376,0 -0.000730075,0 -0.0018444,0 -0.00330455,0 -0.00147936,0 -0.00220944,-0.000730075 -0.00220944,-0.00220944 -0.00147936,0 -0.00293951,0 -0.00441888,0 0,0 0,-0.000730075 0,-0.00220944 0,0 -0.000730075,0 -0.00220944,0 -0.0441503,-0.0353126 -0.0860912,-0.0529881 -0.125842,-0.0529881 -0.0588671,0 -0.104132,0.0165612 -0.135775,0.0496835 -0.031643,0.0331224 -0.0474741,0.0658605 -0.0474741,0.0982528 0,0.0250147 0.00699335,0.0496643 0.0209801,0.0739489 0.0139867,0.0242846 0.0279542,0.0437853 0.0419409,0.0585021 0.0139867,0.014736 0.0356968,0.0346017 0.0651304,0.0596164 0.0353318,0.0309129 0.0610958,0.0551975 0.0772727,0.0728538 0.154545,-0.0853612 0.279657,-0.169262 0.375336,-0.251684zm-0.53209 0.618182c0.020615,-0.00147936 0.0386363,-0.00808846 0.0541024,-0.0198657 0.0154469,-0.0117773 0.0272241,-0.026129 0.0353126,-0.0430552 0.00810768,-0.0169262 0.0121423,-0.0342175 0.0121423,-0.0518738 0,-0.0515279 -0.0139675,-0.0964084 -0.0419409,-0.13468 -0.0485692,0.0279542 -0.084266,0.0548133 -0.107071,0.0805772 -0.0228245,0.025764 -0.0342175,0.0541024 -0.0342175,0.0849961 0,0.0220752 0.0066091,0.0415951 0.0198657,0.0585213 0.0132374,0.0169262 0.031643,0.0253797 0.0551975,0.0253797 0.00293951,0 0.00514895,0 0.0066091,0z"/>
  <path id="123456789101112131415161718" class="fil1 str0" d="M8.66778 1.23308c0.0117773,-0.0132374 0.0239196,-0.0136217 0.0364269,-0.00109511 0.0125073,0.0125073 0.0128724,0.0253797 0.00109511,0.0386363 -0.0794821,0.0824216 -0.147187,0.143863 -0.203115,0.184344 -0.0559276,0.0404807 -0.114065,0.0607115 -0.174411,0.0607115l-0.00441888 0c-0.00146015,0 -0.00441888,0 -0.00881854,0 -0.0220944,0.0736031 -0.0441695,0.136524 -0.0662447,0.188763 -0.0220752,0.052258 -0.0404807,0.0908944 -0.0551975,0.115909 -0.0147168,0.0250339 -0.0301636,0.0445346 -0.0463598,0.0585021 -0.0161961,0.0139867 -0.0275892,0.0217101 -0.0342175,0.0231895 -0.00662831,0.00147936 -0.0136217,0.00220944 -0.0209801,0.00220944 -0.0515087,0 -0.0964084,-0.026494 -0.13468,-0.0794821 -0.0397315,-0.0544482 -0.0702793,-0.131356 -0.0916052,-0.230704 -0.0213451,-0.0993671 -0.0334874,-0.202019 -0.0364461,-0.307996 -0.0323731,0.108916 -0.0625367,0.194277 -0.0905101,0.256103 0,0.00147936 -0.000730075,0.00293951 -0.00220944,0.00441888 0,0 0,0.000365038 0,0.00109511 0,0.000749288 0,0.0018444 0,0.00332376 -0.0515087,0.111855 -0.103767,0.167783 -0.156755,0.167783 -0.063286,0 -0.117004,-0.0309129 -0.161174,-0.0927196 -0.0279542,-0.0382713 -0.0511437,-0.0868405 -0.0695301,-0.145727 -0.0184056,-0.0588671 -0.0305479,-0.117004 -0.0364269,-0.174411 -0.00589824,-0.0573878 -0.00774264,-0.11149 -0.0055332,-0.162269 0.00220944,-0.0507787 0.00847271,-0.0901451 0.0187706,-0.118118 0.00441888,-0.0176563 0.0150818,-0.0309129 0.032008,-0.0397315 0.0169262,-0.00883775 0.0346017,-0.0110472 0.0529881,-0.00662831 0.0184056,0.00441888 0.0331224,0.0150818 0.0441695,0.032008 0.011028,0.0169262 0.0150818,0.0393856 0.0121423,0.0673398 -0.0117773,0.0824216 -0.00920279,0.174046 0.00772343,0.274873 0.0169262,0.100827 0.0445154,0.174046 0.0827867,0.219676 0.0235545,0.0250147 0.0485692,0.0382713 0.0750633,0.0397315 0.0132566,-0.00735839 0.0323923,-0.0367919 0.057407,-0.0883007 0.00587903,-0.0147168 0.0117773,-0.0287035 0.0176563,-0.0419601 0.0294336,-0.0765234 0.0669748,-0.197216 0.112604,-0.362079 0.0117773,-0.0412108 0.0198657,-0.069165 0.0242846,-0.0838818 0,-0.00293951 0.000730075,-0.00662831 0.00220944,-0.0110472 0,-0.00146015 0.000730075,-0.00220944 0.00220944,-0.00220944 0.00587903,-0.0176563 0.0169262,-0.0301636 0.0331031,-0.037522 0.0161961,-0.00735839 0.0331224,-0.00956783 0.0507787,-0.00662831 0.0176755,0.00441888 0.0323923,0.0154469 0.0441695,0.0331224 0.0117773,0.0176563 0.0154469,0.0397315 0.011028,0.0662255 -0.0132374,0.0986178 -0.00920279,0.227399 0.0121423,0.386363 0.0213451,0.158964 0.0526231,0.262001 0.0938339,0.309091 0.0102979,0.0132566 0.020615,0.0198657 0.0309129,0.0198657 0.0161961,0 0.0390014,-0.0301636 0.0684349,-0.0905101 0.0235545,-0.0559276 0.0471091,-0.123632 0.0706636,-0.203115 0.00146015,-0.00295873 0.00219023,-0.00441888 0.00219023,-0.00441888 -0.0102979,-0.00735839 -0.0191164,-0.0169262 -0.026494,-0.0287035 -0.0338524,-0.0456297 -0.0526038,-0.117388 -0.0562926,-0.215257 -0.00366959,-0.0978877 0.00699335,-0.182884 0.032008,-0.255008 0.0235545,-0.0794821 0.0596164,-0.119214 0.108186,-0.119214 0.0250339,0 0.0456297,0.00808846 0.0618258,0.0242846 0.0220752,0.0220752 0.0331224,0.0559276 0.0331224,0.101557 0,0.0971384 -0.0294528,0.250224 -0.0883199,0.459217 0.026494,0 0.0529881,-0.00514895 0.0794821,-0.0154469 0.026494,-0.0102979 0.0544482,-0.0272433 0.083901,-0.0507787 0.0294336,-0.0235545 0.0566577,-0.046744 0.0816724,-0.0695493 0.0250339,-0.0228052 0.0559468,-0.0540832 0.0927388,-0.0938339zm-0.386363 0.205324c0.0559276,-0.200175 0.083901,-0.345153 0.083901,-0.434933 0,-0.0309129 -0.00589824,-0.052258 -0.0176755,-0.0640161 -0.00587903,-0.00589824 -0.0139867,-0.00883775 -0.0242846,-0.00883775 -0.0220752,0 -0.0412108,0.0272241 -0.057407,0.0816916 -0.0235353,0.0735839 -0.0334682,0.153431 -0.0297986,0.239542 0.0036888,0.0861104 0.0187706,0.147552 0.0452647,0.184344l0 0.00220944z"/>
  <path id="12345678910111213141516171819" class="fil1 str0" d="M9.59726 1.2375c0.00883775,-0.0147168 0.0209801,-0.0176563 0.0364269,-0.00883775 0.0154469,0.00883775 0.0187706,0.020615 0.00993287,0.0353318l-0.0154469 0.026494c-0.0750633,0.128051 -0.136159,0.22225 -0.183249,0.282597 -0.00147936,0.00146015 -0.00220944,0.00293951 -0.00220944,0.00441888l-0.00441888 0.00220944c0,0 0,0.000365038 0,0.00109511 0,0.000730075 -0.000730075,0.00111433 -0.00220944,0.00111433 -0.0735839,0.0912402 -0.139079,0.13687 -0.196486,0.13687 -0.0529881,0 -0.0956783,-0.0220752 -0.128051,-0.0662255 -0.0323731,-0.0456297 -0.052258,-0.114065 -0.0596164,-0.205324 -0.0132374,0.0338524 -0.0272241,0.0647654 -0.0419409,0.0927196 -0.0647654,0.119233 -0.141308,0.17883 -0.229609,0.17883 -0.0500486,0 -0.0938339,-0.0213451 -0.131375,-0.0640161 -0.037522,-0.0426902 -0.0562926,-0.108916 -0.0562926,-0.198715 0,-0.119214 0.0401157,-0.228859 0.120328,-0.328957 0.0802122,-0.100078 0.161539,-0.150127 0.24396,-0.150127 0.057407,0 0.101557,0.0139867 0.13247,0.0419409 0.00293951,0.00147936 0.00587903,0.0036888 0.00881854,0.00662831 0,0 0.000749288,0 0.00220944,0 0.00295873,-0.0132374 0.0106822,-0.0239196 0.0231895,-0.032008 0.0125073,-0.00808846 0.025764,-0.0128724 0.0397315,-0.0143517 0.0139867,-0.00147936 0.0276084,-0.000730075 0.0408458,0.00220944 0.020615,0.00587903 0.0364269,0.0176563 0.0474741,0.0353318 0.0110472,0.0176563 0.0128724,0.0390014 0.00551399,0.0640161 -0.0147168,0.057407 -0.026494,0.119214 -0.0353126,0.185458 -0.00883775,0.0662255 -0.0110472,0.131721 -0.00662831,0.196486 0.00441888,0.0647654 0.0176563,0.111125 0.0397315,0.139099 0.0161961,0.0191357 0.0360619,0.0279542 0.0596164,0.026494 0.0132566,-0.00441888 0.0412108,-0.031643 0.083901,-0.0816916l0.00220944 -0.00441888 0.00220944 0c0.0456105,-0.057407 0.105227,-0.150127 0.17883,-0.278178l0.0154469 -0.026494zm-0.543118 0.0507787c0.00441888,-0.0691842 0.0132566,-0.13468 0.026494,-0.196486 -0.00293951,-0.00589824 -0.00587903,-0.0110472 -0.00883775,-0.0154661 -0.00439966,-0.00587903 -0.00954862,-0.0117773 -0.0154469,-0.0176563 -0.0117773,-0.00589824 -0.0272241,-0.00662831 -0.0463598,-0.00220944 -0.057407,0.0161961 -0.1137,0.0651304 -0.168897,0.146822 -0.0551975,0.0816916 -0.0827867,0.171837 -0.0827867,0.270454 0,0.0515087 0.00772343,0.0916244 0.0231703,0.120328 0.0154661,0.0286843 0.031278,0.043036 0.0474741,0.043036 0.0220752,0 0.0456297,-0.0121423 0.0706444,-0.0364269 0.0250339,-0.0242846 0.0463598,-0.0533531 0.0640353,-0.0872056 0,0 0,-0.000730075 0,-0.00220944 0.026494,-0.0470899 0.0551975,-0.117004 0.0860912,-0.209743 0,-0.00146015 0.000365038,-0.00366959 0.00111433,-0.0066091 0.000730075,-0.00295873 0.0018444,-0.00514895 0.00330455,-0.00662831z"/>
  <path class="fil0" d="M1.61168 1.79827c0,0.00147936 0,0.00293951 0,0.00441888 0.00147936,0.00441888 0.00147936,0.00883775 0,0.0132374 -0.00146015,0.00147936 -0.00220944,0.00295873 -0.00220944,0.00441888 0,0 -0.000730075,0.000749288 -0.00220944,0.00220944 0,0.00147936 -0.000730075,0.00220944 -0.00220944,0.00220944 -0.0824216,0.0941989 -0.189128,0.141308 -0.320119,0.141308 -0.057407,0 -0.117388,-0.00995208 -0.179944,-0.0298178 -0.0625367,-0.0198657 -0.11222,-0.0397315 -0.149012,-0.0595972 -0.0367919,-0.0198849 -0.0883199,-0.0489535 -0.154545,-0.0872248 -0.0471091,-0.0279542 -0.0824216,-0.0485692 -0.105976,-0.0618066 -0.0691842,0.114795 -0.164113,0.173681 -0.284806,0.176621 -0.00293951,0 -0.00587903,0 -0.00883775,0 -0.0559276,0 -0.0938147,-0.0136217 -0.1137,-0.0408458 -0.0198657,-0.0272241 -0.0297986,-0.0585021 -0.0297986,-0.0938339 0,-0.0485692 0.0161961,-0.08905 0.0485692,-0.121423 0.0367919,-0.0353318 0.0853612,-0.052258 0.145708,-0.0507787 0.0500486,0 0.0986178,0.00366959 0.145727,0.011028 0.0485692,-0.163364 0.0728538,-0.390033 0.0728538,-0.679988 0,-0.512205 -0.0802122,-0.771997 -0.240656,-0.779355 -0.00293951,0 -0.00587903,0 -0.00881854,0 -0.0883199,0 -0.155295,0.046379 -0.200924,0.139099 -0.0470899,0.103037 -0.0654954,0.228514 -0.0551783,0.376431 0.0102979,0.147917 0.0419409,0.255738 0.094929,0.323443 0.0102979,0.0132374 0.0084535,0.0253797 -0.00551399,0.0364269 -0.0139867,0.011028 -0.026129,0.00993287 -0.0364461,-0.00332376 -0.0573878,-0.0750633 -0.0923545,-0.191702 -0.104862,-0.349917 -0.0125073,-0.158234 0.00699335,-0.293279 0.0585021,-0.405134 0.0559276,-0.113335 0.139099,-0.170011 0.249494,-0.170011 0.0677049,0 0.126937,0.0180405 0.177716,0.0541024 0.0507787,0.0360619 0.0934688,0.089415 0.128051,0.160059 0.0345825,0.0706444 0.0603465,0.158234 0.0772727,0.262731 0.0169262,0.104497 0.0253989,0.22592 0.0253989,0.364288 0,0.285536 -0.0250339,0.504098 -0.0750633,0.655704 -0.00589824,0.0176563 -0.0117773,0.0345825 -0.0176755,0.0507787 0.0441695,0.0161961 0.104516,0.0434203 0.181039,0.0816916 0.057407,0.0279734 0.102307,0.0489343 0.13468,0.062921 0.0323731,0.0139867 0.0780028,0.0279734 0.136889,0.0419409 0.0588671,0.0139867 0.119944,0.0209801 0.183249,0.0209801 0.0765234,0 0.139079,-0.0191357 0.187649,-0.057407 0.00589824,-0.00441888 0.00883775,-0.0066091 0.00883775,-0.0066091l0.00220944 -0.00220944c0,0 0.000730075,-0.000749288 0.00220944,-0.00220944 0.00146015,0 0.00293951,0 0.00441888,0 0.00146015,0 0.00257448,-0.000365038 0.00330455,-0.00111433 0.000730075,-0.000730075 0.00146015,-0.00109511 0.00220944,-0.00109511 0.000730075,0 0.0018444,0 0.00330455,0 0,0 0.000730075,0 0.00220944,0 0.00147936,0.00146015 0.0036888,0.00220944 0.00662831,0.00220944 0,0 0.000365038,0.000365038 0.00109511,0.00109511 0.000749288,0.000730075 0.00111433,0.00111433 0.00111433,0.00111433 0.00146015,0 0.00220944,0 0.00220944,0 0.00146015,0.00146015 0.00220944,0.00220944 0.00220944,0.00220944 0.00439966,0.00293951 0.00735839,0.0066091 0.00881854,0.011028zm-1.30038 -0.0287035c0,0.0294336 0.00699335,0.0504136 0.0209801,0.062921 0.0139675,0.0125073 0.037157,0.0187706 0.0695301,0.0187706 0.0706636,0 0.128801,-0.0588671 0.17443,-0.176621 -0.0441695,-0.0161961 -0.0853804,-0.0250147 -0.123652,-0.026494 -0.00146015,0 -0.00257448,0 -0.00330455,0 -0.000730075,0 -0.00109511,0 -0.00109511,0 -0.0441695,0 -0.0787521,0.0125073 -0.103767,0.037522 -0.0220944,0.0220944 -0.0331224,0.0500486 -0.0331224,0.083901z"/>
  <path id="1" class="fil0" d="M2.01572 1.2375c0.0102979,-0.0147168 0.0228052,-0.0169262 0.037522,-0.00662831 0.0147168,0.0102979 0.0169262,0.0228245 0.00662831,0.0375412 -0.0441503,0.0603465 -0.106341,0.122153 -0.186553,0.185458 -0.0802314,0.063286 -0.15418,0.0978685 -0.221885,0.103748 -0.0191357,0.0338524 -0.0426902,0.0633052 -0.0706444,0.0883199 -0.0544675,0.0485692 -0.114814,0.0728538 -0.181039,0.0728538 -0.0117773,0 -0.0228245,-0.000365038 -0.0331224,-0.00109511 -0.0102979,-0.000749288 -0.0228245,-0.00293951 -0.0375412,-0.00662831 -0.0147168,-0.0036888 -0.0287035,-0.00920279 -0.0419409,-0.0165612 -0.0132566,-0.00735839 -0.0268591,-0.0165612 -0.0408458,-0.0275892 -0.0139867,-0.0110472 -0.026494,-0.0250339 -0.037522,-0.0419601 -0.0110472,-0.0169262 -0.0209801,-0.0360619 -0.0298178,-0.0573878 -0.00881854,-0.0213451 -0.0158119,-0.0474741 -0.0209801,-0.078387 -0.00514895,-0.0309129 -0.00772343,-0.0640161 -0.00772343,-0.0993479 0,-0.0588671 0.0128916,-0.119214 0.0386363,-0.181039 0.025764,-0.0618258 0.0662447,-0.115909 0.121442,-0.162269 0.0551783,-0.0463598 0.117369,-0.0695493 0.186553,-0.0695493 0.0250147,0 0.0489343,0.00551399 0.0717395,0.0165612 0.0228245,0.0110472 0.0445346,0.0283384 0.0651304,0.0518738 0.020615,0.0235545 0.0375412,0.052258 0.0507787,0.0861104l0 0.00220944c0,0 0.000749288,0.000730075 0.00220944,0.00220944l0 0.00220944c0.0161961,0.0485692 0.0242846,0.104497 0.0242846,0.167783 0,0.0721237 -0.011028,0.136889 -0.0331031,0.194296 0.0559276,-0.0132566 0.116639,-0.046744 0.182135,-0.100462 0.0654954,-0.0537182 0.117388,-0.107821 0.15566,-0.162269zm-0.373126 0.205324c0.0117773,-0.0426902 0.0176563,-0.0883199 0.0176563,-0.136889 0,-0.0588671 -0.00808846,-0.109646 -0.0242846,-0.152336 -0.0220752,-0.0485692 -0.0507787,-0.0728538 -0.0860912,-0.0728538 -0.0368112,0 -0.0721237,0.0117773 -0.105976,0.0353318 -0.0338524,0.0235353 -0.0621909,0.0592322 -0.0849961,0.107071 -0.0228245,0.0478391 -0.0342367,0.101192 -0.0342367,0.160059 0,0.0824216 0.0106822,0.147187 0.0320272,0.194296 0.0213451,0.0470899 0.0511437,0.0706444 0.089415,0.0706444 0.0279542,0 0.0551975,-0.00956783 0.0816916,-0.0287035 0.00881854,-0.00587903 0.0169262,-0.0125073 0.0242846,-0.0198657 0.00146015,0 0.00220944,-0.000730075 0.00220944,-0.00220944 0,0 0.000730075,-0.000730075 0.00219023,-0.00220944 0.014736,-0.0147168 0.0279734,-0.0301636 0.0397507,-0.0463598 -0.0132566,-0.00883775 -0.020615,-0.0213451 -0.0220752,-0.0375412 -0.00147936,-0.0161769 0.00366959,-0.0309129 0.0154469,-0.0441503 0.0117773,-0.0132374 0.026494,-0.0213451 0.0441503,-0.0242846 0.00295873,-0.00147936 0.00589824,-0.00147936 0.00883775,0z"/>
  <path id="12" class="fil0" d="M2.90545 1.23087c0.0147168,-0.0102979 0.0275892,-0.00881854 0.0386363,0.00441888 0.011028,0.0132566 0.00918358,0.025764 -0.0055332,0.0375412 -0.00439966,0.00293951 -0.0132374,0.00956783 -0.026494,0.0198657 -0.126572,0.0986178 -0.241386,0.196486 -0.344403,0.293625 -0.00735839,0.172221 -0.0198657,0.33228 -0.0375412,0.480197 -0.0176563,0.147917 -0.0456297,0.292165 -0.0838818,0.432723 -0.0382713,0.140559 -0.0846311,0.238081 -0.139099,0.29253 -0.0382713,0.0397507 -0.0809615,0.0596164 -0.128051,0.0596164 -0.0235545,0 -0.0456297,-0.00366959 -0.0662255,-0.011028 -0.020615,-0.0073776 -0.0423251,-0.0213451 -0.0651304,-0.0419601 -0.0228245,-0.0205958 -0.0412108,-0.0529881 -0.0551975,-0.0971384 -0.0139867,-0.0441503 -0.0209801,-0.0986178 -0.0209801,-0.163383 0,-0.264921 0.144247,-0.551937 0.432723,-0.861028 0.00293951,-0.0736031 0.00514895,-0.148666 0.00662831,-0.22519 -0.0132566,0.0323731 -0.026494,0.0618066 -0.0397507,0.0883007 -0.00146015,0.00147936 -0.00293951,0.0036888 -0.00439966,0.00662831 -0.0633052,0.114795 -0.138368,0.172202 -0.225209,0.172202 -0.0500294,0 -0.0938147,-0.0213451 -0.131356,-0.0640161 -0.0375412,-0.0426902 -0.0562926,-0.108916 -0.0562926,-0.198715 0,-0.119214 0.037522,-0.225555 0.112585,-0.319024 0.0750633,-0.0934496 0.153815,-0.140194 0.236237,-0.140194 0.0471091,0 0.0846311,0.0125073 0.112604,0.0375412 0.0117773,-0.0323923 0.0338524,-0.0507787 0.0662255,-0.0551975 0.0235545,-0.00293951 0.0441503,0.00293951 0.0618258,0.0176563 0.0205958,0.0176755 0.031643,0.0441695 0.0331031,0.0794821 0.00295873,0.128051 0.00147936,0.273029 -0.00439966,0.434933 0.0927196,-0.0868405 0.195756,-0.173681 0.309091,-0.260522 0.0132374,-0.0102979 0.0213259,-0.0169262 0.0242846,-0.0198657zm-0.71313 1.49247c0.105976,-0.113335 0.17516,-0.434203 0.207533,-0.962585 -0.250204,0.279638 -0.375316,0.538699 -0.375316,0.777127 0,0.020615 0.000730075,0.0397507 0.00220944,0.057407 0.00587903,0.0441503 0.0180213,0.0827867 0.0364269,0.115909 0.0184056,0.0331224 0.037157,0.0496835 0.0562926,0.0496835 0.0250339,0 0.0493185,-0.0125266 0.0728538,-0.0375412zm0.218581 -1.42182c0,-0.00146015 0.000365038,-0.00366959 0.00109511,-0.0066091 0.000749288,-0.00295873 0.00111433,-0.00441888 0.00111433,-0.00441888 0,-0.0544675 0,-0.100827 0,-0.139099 -0.0176563,-0.0235353 -0.0463598,-0.0301636 -0.0861104,-0.0198657 -0.0500486,0.0132566 -0.0971384,0.0500486 -0.141289,0.110395 -0.0441695,0.0603465 -0.0662447,0.137619 -0.0662447,0.231818 0,0.0515087 0.00772343,0.0916244 0.0231895,0.120328 0.0154469,0.0286843 0.031278,0.043036 0.0474741,0.043036 0.0147168,0 0.0305287,-0.00624406 0.0474549,-0.0187514 0.0169262,-0.0125266 0.0327573,-0.0276084 0.0474741,-0.0452647 0.0147168,-0.0176563 0.0279542,-0.0375412 0.0397315,-0.0596164 0,0 0,-0.000730075 0,-0.00220944 0.0250339,-0.0470899 0.0537374,-0.117004 0.0861104,-0.209743z"/>
  <path id="123" class="fil0" d="M3.40884 1.2375c0.00881854,-0.0147168 0.0209608,-0.0176563 0.0364269,-0.00883775 0.0154469,0.00883775 0.0187514,0.020615 0.00993287,0.0353318l-0.0154661 0.026494c-0.0765234,0.129511 -0.137619,0.22371 -0.183249,0.282597 -0.00146015,0.00146015 -0.00219023,0.00293951 -0.00219023,0.00441888l-0.00441888 0.00220944c0,0 -0.000749288,0.000730075 -0.00220944,0.00220944 -0.0736031,0.0912402 -0.139099,0.13687 -0.196506,0.13687 -0.0529689,0 -0.0956591,-0.0220752 -0.128051,-0.0662255 -0.0323731,-0.0456297 -0.0515087,-0.112604 -0.0573878,-0.200905 -0.00589824,-0.0883199 -0.0036888,-0.170011 0.0066091,-0.245075 0.0103171,-0.0750633 0.0228245,-0.13541 0.0375412,-0.181039 0.00735839,-0.0205958 0.0217101,-0.0345825 0.0430552,-0.0419409 0.0213451,-0.00735839 0.0423059,-0.00810768 0.062921,-0.00220944 0.0205958,0.00587903 0.0364269,0.0176563 0.0474549,0.0353318 0.0110472,0.0176563 0.0128916,0.0390014 0.0055332,0.0640161 -0.0147168,0.057407 -0.026494,0.119214 -0.0353318,0.185458 -0.00883775,0.0662255 -0.011028,0.131721 -0.00662831,0.196486 0.00441888,0.0647654 0.0176755,0.111125 0.0397507,0.139099 0.0147168,0.0176563 0.0345825,0.026494 0.0596164,0.026494 0.0132374,-0.00441888 0.0412108,-0.031643 0.0838818,-0.0816916l0.00220944 -0.00441888c0.0456297,-0.057407 0.105976,-0.150127 0.181039,-0.278178l0.0154661 -0.026494zm-0.302482 -0.356565c-0.0220752,0.00662831 -0.0467248,0.00662831 -0.0739489,0 -0.0272433,-0.0066091 -0.0493185,-0.0176563 -0.0662447,-0.0331031 -0.0169262,-0.0154661 -0.0235353,-0.0309129 -0.0198657,-0.046379 0.0036888,-0.0154469 0.0161961,-0.026494 0.0375412,-0.0331031 0.0213259,-0.00662831 0.0459947,-0.00699335 0.0739489,-0.00111433 0.0279734,0.00589824 0.0504136,0.0169262 0.0673398,0.0331224 0.0169262,0.0161961 0.0235545,0.032008 0.0198657,0.0474741 -0.00366959,0.0154469 -0.0165612,0.026494 -0.0386363,0.0331031z"/>
  <path id="1234" class="fil0" d="M4.36921 1.23971c0.00735839,-0.0161961 0.0191357,-0.020615 0.0353318,-0.0132566 0.0161769,0.00735839 0.0205958,0.0191357 0.0132374,0.0353318 -0.00147936,0.00441888 -0.00514895,0.0132374 -0.011028,0.026494 -0.0927388,0.213413 -0.17443,0.370167 -0.245075,0.470264 -0.00147936,0.00146015 -0.00220944,0.00293951 -0.00220944,0.00439966 -0.0102979,0.0161961 -0.0213451,0.0301828 -0.0331224,0.0419601 0,0 -0.000730075,0.00146015 -0.00219023,0.00441888 -0.0529881,0.063286 -0.102307,0.094929 -0.147936,0.094929 -0.0338524,0 -0.0618066,-0.0117773 -0.0838818,-0.0353318 -0.0309129,-0.0338524 -0.046744,-0.0956591 -0.0474741,-0.185439 -0.000730075,-0.0897992 0.00626328,-0.1781 0.0209801,-0.26494 0.00293951,-0.0309129 0.00514895,-0.0544675 0.0066091,-0.0706444 0.00147936,-0.0161961 0.00332376,-0.0379063 0.0055332,-0.0651304 0.00220944,-0.0272433 0.00330455,-0.0489535 0.00330455,-0.0651304 0,-0.0161961 0,-0.0338524 0,-0.0529881 0,-0.0191357 -0.0018444,-0.0346017 -0.00551399,-0.0463598 -0.0036888,-0.0117773 -0.00847271,-0.020615 -0.0143517,-0.026494 -0.00293951,-0.00441888 -0.00810768,-0.00662831 -0.0154661,-0.00662831 -0.0338524,0 -0.0677049,0.0331224 -0.101557,0.0993479 -0.00146015,0.00441888 -0.00366959,0.00808846 -0.0066091,0.0110472 -0.057407,0.122153 -0.0964084,0.284057 -0.117023,0.485711 0,0.0161769 -0.00735839,0.0272241 -0.0220752,0.0331031 -0.00735839,0.00295873 -0.0154469,0.00441888 -0.0242846,0.00441888 -0.0220752,0 -0.0448996,-0.00735839 -0.0684349,-0.0220752 -0.0235545,-0.0147168 -0.0412108,-0.0338524 -0.0529881,-0.057407 -0.0353318,-0.0735839 -0.0551975,-0.176621 -0.0596164,-0.309091 -0.00441888,-0.13247 0.00662831,-0.234028 0.0331224,-0.304672 0.00587903,-0.0205958 0.0195007,-0.0345825 0.0408458,-0.0419409 0.0213259,-0.00735839 0.0423059,-0.00810768 0.062921,-0.00220944 0.0205958,0.00587903 0.0364269,0.0176563 0.0474549,0.0353318 0.0110472,0.0176563 0.0136217,0.0390014 0.00774264,0.0640161 -0.0397507,0.164843 -0.0404807,0.323808 -0.00220944,0.476874 0.0191357,-0.120674 0.0448804,-0.22519 0.0772727,-0.31349 0.00146015,0 0.00220944,-0.000749288 0.00220944,-0.00220944 0.0132374,-0.0367919 0.0279542,-0.0691842 0.0441503,-0.0971384 0,-0.00147936 0.000730075,-0.00295873 0.00220944,-0.00441888 0.0603465,-0.110395 0.127302,-0.165593 0.200905,-0.165593 0.0397315,0 0.0713745,0.0139867 0.094929,0.0419601 0.0220752,0.026494 0.0356968,0.0680699 0.0408458,0.124728 0.00514895,0.0566769 0.00514895,0.107456 0,0.152336 -0.00514895,0.0448996 -0.0136217,0.11003 -0.0253797,0.195391 -0.00735839,0.0441503 -0.0125266,0.078387 -0.0154661,0.102672 -0.00293951,0.0242846 -0.00587903,0.0540832 -0.00881854,0.089415 -0.00295873,0.0353126 -0.00332376,0.063286 -0.00111433,0.0838818 0.00220944,0.020615 0.00772343,0.0353318 0.0165612,0.0441695 0.00293951,0.00439966 0.00808846,0.0066091 0.0154469,0.0066091 0.0132566,0 0.0323923,-0.0139675 0.057407,-0.0419409 0.0117773,-0.0147168 0.0242846,-0.0309129 0.0375412,-0.0485692l0 -0.00220944c0,0 0.000730075,-0.000730075 0.00220944,-0.00220944 0.069165,-0.100078 0.147168,-0.250954 0.234008,-0.452589 0.00441888,-0.0117773 0.00810768,-0.0213451 0.0110472,-0.0287035z"/>
  <path id="12345" class="fil0" d="M6.15532 1.22645c0.0176563,-0.00293951 0.0279542,0.00405384 0.0309129,0.0209801 0.00293951,0.0169262 -0.00441888,0.0268591 -0.0220944,0.0297986 -0.0794821,0.0117773 -0.18323,0.0368112 -0.311281,0.0750633 0.0323731,0.04123 0.0492993,0.08905 0.0507787,0.143517 0.00146015,0.107436 -0.0309129,0.195026 -0.0971576,0.262731 -0.0927196,0.0956591 -0.236218,0.143498 -0.430514,0.143498 -0.063286,0 -0.114795,-0.0102979 -0.154545,-0.0309129 -0.0382713,-0.0191357 -0.063286,-0.0463598 -0.0750633,-0.0816916l-0.00220944 -0.00219023c0,0 0,0 0,0 -0.00441888,-0.0161961 -0.00662831,-0.0331224 -0.00662831,-0.0507787 0,-0.116293 0.150146,-0.232567 0.450399,-0.348841 0.0250147,-0.00883775 0.0500486,-0.0176563 0.0750633,-0.026494 -0.0353318,-0.0294336 -0.102287,-0.0706444 -0.200905,-0.123632 -0.0515279,-0.0279734 -0.0905293,-0.0496835 -0.117023,-0.0651304 -0.026494,-0.0154469 -0.057772,-0.037157 -0.0938339,-0.0651304 -0.0360427,-0.0279734 -0.063651,-0.0559276 -0.0827867,-0.083901 -0.0559276,-0.0647654 -0.0860912,-0.143498 -0.0905101,-0.236237 -0.00441888,-0.0809423 0.0128724,-0.166688 0.0518738,-0.257198 0.0390014,-0.0905101 0.094564,-0.173316 0.166688,-0.248379 0.117753,-0.123632 0.234758,-0.185458 0.351051,-0.185458 0.0397315,0 0.0754283,0.00662831 0.107071,0.0198849 0.031643,0.0132374 0.0585021,0.0338524 0.0805772,0.0618066 0.0426902,0.0500486 0.0691842,0.123632 0.0794821,0.22079 0.0102979,0.0971384 0.00293951,0.217831 -0.0220752,0.362079 -0.00293951,0.0161769 -0.0128724,0.0228052 -0.0297986,0.0198657 -0.0169262,-0.00293951 -0.0239196,-0.0125073 -0.0209801,-0.0287035 0.0235545,-0.136889 0.0301636,-0.252433 0.0198657,-0.346632 0,0 0,-0.000730075 0,-0.00220944 -0.00735839,-0.0677049 -0.0250147,-0.117004 -0.0529881,-0.147917 -0.0279542,-0.0309129 -0.0684349,-0.0463598 -0.121423,-0.0463598 -0.026494,0 -0.0585021,0.00847271 -0.0960433,0.0253989 -0.037522,0.0169262 -0.0765234,0.0419409 -0.117004,0.0750633 -0.0404807,0.0331031 -0.078022,0.0717395 -0.112604,0.115909 -0.0345825,0.0441503 -0.063286,0.0967734 -0.0860912,0.15785 -0.0228245,0.0610766 -0.0342367,0.123267 -0.0342367,0.186553 0,0.0397507 0.00626328,0.0772727 0.0187706,0.112604 0.0125073,0.0353126 0.031278,0.0680699 0.0562926,0.0982335 0.0250339,0.0301828 0.0493185,0.0563119 0.072873,0.078387 0.0235353,0.0220752 0.0544482,0.0448804 0.0927196,0.0684349 0.0382713,0.0235545 0.0691842,0.0415759 0.0927196,0.0541024 0.0235545,0.0125073 0.0551975,0.0283192 0.0949482,0.0474549 0.042671,0.0176755 0.0780028,0.0360619 0.105976,0.0551975 0,0 0.000730075,0 0.00219023,0 0.00735839,0.00589824 0.0139867,0.0110472 0.0198849,0.0154661 0.00439966,0.00293951 0.00956783,0.0066091 0.0154469,0.011028 0.147187,-0.0441503 0.261252,-0.0721237 0.342213,-0.083901zm-0.450399 0.17443c-0.147187,0.0529881 -0.269705,0.108551 -0.367593,0.166688 -0.0978685,0.058137 -0.146822,0.11443 -0.146822,0.168897 0,0.0117581 0.00147936,0.0228052 0.00441888,0.0331031 0.00589824,0.0161961 0.0187706,0.0298178 0.0386363,0.0408458 0.0198657,0.0110472 0.0430552,0.0191357 0.0695493,0.0242846 0.026494,0.00514895 0.0537182,0.00772343 0.0816916,0.00772343l0.00220944 0c0.0912402,0 0.175141,-0.0323731 0.251684,-0.0971384 0.0765426,-0.0647654 0.114795,-0.141289 0.114795,-0.229609 0,-0.0397315 -0.0161769,-0.0780028 -0.0485692,-0.114795z"/>
  <path id="123456" class="fil0" d="M6.64766 1.2375c0.00881854,-0.0147168 0.0209608,-0.0176563 0.0364269,-0.00883775 0.0154469,0.00883775 0.0187514,0.020615 0.00993287,0.0353318l-0.0154661 0.026494c-0.0765234,0.129511 -0.137619,0.22371 -0.183249,0.282597 -0.00146015,0.00146015 -0.00219023,0.00293951 -0.00219023,0.00441888l-0.00441888 0.00220944c0,0 -0.000749288,0.000730075 -0.00220944,0.00220944 -0.0736031,0.0912402 -0.139099,0.13687 -0.196506,0.13687 -0.0529689,0 -0.0956591,-0.0220752 -0.128051,-0.0662255 -0.0323731,-0.0456297 -0.0515087,-0.112604 -0.0573878,-0.200905 -0.00589824,-0.0883199 -0.0036888,-0.170011 0.0066091,-0.245075 0.0103171,-0.0750633 0.0228245,-0.13541 0.0375412,-0.181039 0.00735839,-0.0205958 0.0217101,-0.0345825 0.0430552,-0.0419409 0.0213451,-0.00735839 0.0423059,-0.00810768 0.062921,-0.00220944 0.0205958,0.00587903 0.0364269,0.0176563 0.0474549,0.0353318 0.0110472,0.0176563 0.0128916,0.0390014 0.0055332,0.0640161 -0.0147168,0.057407 -0.026494,0.119214 -0.0353318,0.185458 -0.00883775,0.0662255 -0.011028,0.131721 -0.00662831,0.196486 0.00441888,0.0647654 0.0176755,0.111125 0.0397507,0.139099 0.0147168,0.0176563 0.0345825,0.026494 0.0596164,0.026494 0.0132374,-0.00441888 0.0412108,-0.031643 0.0838818,-0.0816916l0.00220944 -0.00441888c0.0456297,-0.057407 0.105976,-0.150127 0.181039,-0.278178l0.0154661 -0.026494zm-0.302482 -0.356565c-0.0220752,0.00662831 -0.0467248,0.00662831 -0.0739489,0 -0.0272433,-0.0066091 -0.0493185,-0.0176563 -0.0662447,-0.0331031 -0.0169262,-0.0154661 -0.0235353,-0.0309129 -0.0198657,-0.046379 0.0036888,-0.0154469 0.0161961,-0.026494 0.0375412,-0.0331031 0.0213259,-0.00662831 0.0459947,-0.00699335 0.0739489,-0.00111433 0.0279734,0.00589824 0.0504136,0.0169262 0.0673398,0.0331224 0.0169262,0.0161961 0.0235545,0.032008 0.0198657,0.0474741 -0.00366959,0.0154469 -0.0165612,0.026494 -0.0386363,0.0331031z"/>
  <path id="1234567" class="fil0" d="M7.36077 1.23308c0.0132374,-0.0117773 0.0257448,-0.011028 0.037522,0.00220944 0.0117773,0.0132566 0.0110472,0.025764 -0.00220944,0.0375412 -0.0986178,0.0853612 -0.22446,0.169992 -0.377526,0.253893 0.0294336,0.0441503 0.0441503,0.08978 0.0441503,0.13687 0,0.0235545 -0.00366959,0.0482042 -0.011028,0.0739681 -0.00735839,0.025764 -0.0195007,0.0515087 -0.0364269,0.0772727 -0.0169262,0.025764 -0.0423251,0.0470899 -0.0761776,0.0640161 -0.0338524,0.0169262 -0.0728538,0.0253989 -0.117004,0.0253989 -0.0382713,0 -0.0691842,-0.0136217 -0.0927388,-0.0408458 -0.0235545,-0.0272241 -0.0353126,-0.0592322 -0.0353126,-0.0960433 0,-0.0412108 0.0132374,-0.0776377 0.0397315,-0.109281 0.026494,-0.031643 0.0662255,-0.063651 0.119214,-0.0960433 -0.0147168,-0.0147168 -0.0390014,-0.0345825 -0.0728538,-0.0595972 -0.026494,-0.020615 -0.0470899,-0.0371762 -0.0618066,-0.0496835 -0.0147168,-0.0125073 -0.0320272,-0.0305479 -0.051893,-0.0540832 -0.0198657,-0.0235545 -0.0342175,-0.0496835 -0.0430552,-0.078387 -0.00881854,-0.0287035 -0.0132374,-0.0599814 -0.0132374,-0.0938339 0,-0.0573878 0.0268591,-0.11295 0.0805772,-0.166688 0.0537182,-0.0537182 0.121807,-0.0805772 0.204229,-0.0805772 0.0544482,0 0.102287,0.00993287 0.143498,0.0297986 0.0412108,0.0198849 0.0713937,0.0474741 0.0905293,0.0828059 0,0.00146015 0.000730075,0.00293951 0.00220944,0.00439966 0,0.00147936 0,0.00441888 0,0.00883775 0,0 0,0.000730075 0,0.00220944 0,0.00147936 0,0.00257448 0,0.00330455 0,0.000749288 -0.000749288,0.0018444 -0.00220944,0.00332376 0,0.00146015 0,0.00220944 0,0.00220944 0,0 -0.000749288,0.000730075 -0.00220944,0.00220944 0,0 0,0.000730075 0,0.00219023l-0.00220944 0c0,0.00147936 0,0.00220944 0,0.00220944 -0.00147936,0.00147936 -0.00220944,0.00220944 -0.00220944,0.00220944l-0.00220944 0.00220944c-0.00147936,0 -0.00293951,0 -0.00441888,0 -0.00146015,0.00147936 -0.00220944,0.00220944 -0.00220944,0.00220944 -0.00293951,0 -0.00587903,0 -0.00881854,0 -0.00147936,0 -0.00257448,0 -0.00332376,0 -0.000730075,0 -0.0018444,0 -0.00330455,0 -0.00147936,0 -0.00220944,-0.000730075 -0.00220944,-0.00220944 -0.00147936,0 -0.00293951,0 -0.00441888,0 0,0 0,-0.000730075 0,-0.00220944 0,0 -0.000730075,0 -0.00220944,0 -0.0441503,-0.0353126 -0.0860912,-0.0529881 -0.125842,-0.0529881 -0.0588671,0 -0.104132,0.0165612 -0.135775,0.0496835 -0.031643,0.0331224 -0.0474741,0.0658605 -0.0474741,0.0982528 0,0.0250147 0.00699335,0.0496643 0.0209801,0.0739489 0.0139867,0.0242846 0.0279542,0.0437853 0.0419409,0.0585021 0.0139867,0.014736 0.0356968,0.0346017 0.0651304,0.0596164 0.0353318,0.0309129 0.0610958,0.0551975 0.0772727,0.0728538 0.154545,-0.0853612 0.279657,-0.169262 0.375336,-0.251684zm-0.53209 0.618182c0.020615,-0.00147936 0.0386363,-0.00808846 0.0541024,-0.0198657 0.0154469,-0.0117773 0.0272241,-0.026129 0.0353126,-0.0430552 0.00810768,-0.0169262 0.0121423,-0.0342175 0.0121423,-0.0518738 0,-0.0515279 -0.0139675,-0.0964084 -0.0419409,-0.13468 -0.0485692,0.0279542 -0.084266,0.0548133 -0.107071,0.0805772 -0.0228245,0.025764 -0.0342175,0.0541024 -0.0342175,0.0849961 0,0.0220752 0.0066091,0.0415951 0.0198657,0.0585213 0.0132374,0.0169262 0.031643,0.0253797 0.0551975,0.0253797 0.00293951,0 0.00514895,0 0.0066091,0z"/>
  <path id="12345678" class="fil0" d="M8.66778 1.23308c0.0117773,-0.0132374 0.0239196,-0.0136217 0.0364269,-0.00109511 0.0125073,0.0125073 0.0128724,0.0253797 0.00109511,0.0386363 -0.0794821,0.0824216 -0.147187,0.143863 -0.203115,0.184344 -0.0559276,0.0404807 -0.114065,0.0607115 -0.174411,0.0607115l-0.00441888 0c-0.00146015,0 -0.00441888,0 -0.00881854,0 -0.0220944,0.0736031 -0.0441695,0.136524 -0.0662447,0.188763 -0.0220752,0.052258 -0.0404807,0.0908944 -0.0551975,0.115909 -0.0147168,0.0250339 -0.0301636,0.0445346 -0.0463598,0.0585021 -0.0161961,0.0139867 -0.0275892,0.0217101 -0.0342175,0.0231895 -0.00662831,0.00147936 -0.0136217,0.00220944 -0.0209801,0.00220944 -0.0515087,0 -0.0964084,-0.026494 -0.13468,-0.0794821 -0.0397315,-0.0544482 -0.0702793,-0.131356 -0.0916052,-0.230704 -0.0213451,-0.0993671 -0.0334874,-0.202019 -0.0364461,-0.307996 -0.0323731,0.108916 -0.0625367,0.194277 -0.0905101,0.256103 0,0.00147936 -0.000730075,0.00293951 -0.00220944,0.00441888 0,0 0,0.000365038 0,0.00109511 0,0.000749288 0,0.0018444 0,0.00332376 -0.0515087,0.111855 -0.103767,0.167783 -0.156755,0.167783 -0.063286,0 -0.117004,-0.0309129 -0.161174,-0.0927196 -0.0279542,-0.0382713 -0.0511437,-0.0868405 -0.0695301,-0.145727 -0.0184056,-0.0588671 -0.0305479,-0.117004 -0.0364269,-0.174411 -0.00589824,-0.0573878 -0.00774264,-0.11149 -0.0055332,-0.162269 0.00220944,-0.0507787 0.00847271,-0.0901451 0.0187706,-0.118118 0.00441888,-0.0176563 0.0150818,-0.0309129 0.032008,-0.0397315 0.0169262,-0.00883775 0.0346017,-0.0110472 0.0529881,-0.00662831 0.0184056,0.00441888 0.0331224,0.0150818 0.0441695,0.032008 0.011028,0.0169262 0.0150818,0.0393856 0.0121423,0.0673398 -0.0117773,0.0824216 -0.00920279,0.174046 0.00772343,0.274873 0.0169262,0.100827 0.0445154,0.174046 0.0827867,0.219676 0.0235545,0.0250147 0.0485692,0.0382713 0.0750633,0.0397315 0.0132566,-0.00735839 0.0323923,-0.0367919 0.057407,-0.0883007 0.00587903,-0.0147168 0.0117773,-0.0287035 0.0176563,-0.0419601 0.0294336,-0.0765234 0.0669748,-0.197216 0.112604,-0.362079 0.0117773,-0.0412108 0.0198657,-0.069165 0.0242846,-0.0838818 0,-0.00293951 0.000730075,-0.00662831 0.00220944,-0.0110472 0,-0.00146015 0.000730075,-0.00220944 0.00220944,-0.00220944 0.00587903,-0.0176563 0.0169262,-0.0301636 0.0331031,-0.037522 0.0161961,-0.00735839 0.0331224,-0.00956783 0.0507787,-0.00662831 0.0176755,0.00441888 0.0323923,0.0154469 0.0441695,0.0331224 0.0117773,0.0176563 0.0154469,0.0397315 0.011028,0.0662255 -0.0132374,0.0986178 -0.00920279,0.227399 0.0121423,0.386363 0.0213451,0.158964 0.0526231,0.262001 0.0938339,0.309091 0.0102979,0.0132566 0.020615,0.0198657 0.0309129,0.0198657 0.0161961,0 0.0390014,-0.0301636 0.0684349,-0.0905101 0.0235545,-0.0559276 0.0471091,-0.123632 0.0706636,-0.203115 0.00146015,-0.00295873 0.00219023,-0.00441888 0.00219023,-0.00441888 -0.0102979,-0.00735839 -0.0191164,-0.0169262 -0.026494,-0.0287035 -0.0338524,-0.0456297 -0.0526038,-0.117388 -0.0562926,-0.215257 -0.00366959,-0.0978877 0.00699335,-0.182884 0.032008,-0.255008 0.0235545,-0.0794821 0.0596164,-0.119214 0.108186,-0.119214 0.0250339,0 0.0456297,0.00808846 0.0618258,0.0242846 0.0220752,0.0220752 0.0331224,0.0559276 0.0331224,0.101557 0,0.0971384 -0.0294528,0.250224 -0.0883199,0.459217 0.026494,0 0.0529881,-0.00514895 0.0794821,-0.0154469 0.026494,-0.0102979 0.0544482,-0.0272433 0.083901,-0.0507787 0.0294336,-0.0235545 0.0566577,-0.046744 0.0816724,-0.0695493 0.0250339,-0.0228052 0.0559468,-0.0540832 0.0927388,-0.0938339zm-0.386363 0.205324c0.0559276,-0.200175 0.083901,-0.345153 0.083901,-0.434933 0,-0.0309129 -0.00589824,-0.052258 -0.0176755,-0.0640161 -0.00587903,-0.00589824 -0.0139867,-0.00883775 -0.0242846,-0.00883775 -0.0220752,0 -0.0412108,0.0272241 -0.057407,0.0816916 -0.0235353,0.0735839 -0.0334682,0.153431 -0.0297986,0.239542 0.0036888,0.0861104 0.0187706,0.147552 0.0452647,0.184344l0 0.00220944z"/>
  <path id="123456789" class="fil0" d="M9.59726 1.2375c0.00883775,-0.0147168 0.0209801,-0.0176563 0.0364269,-0.00883775 0.0154469,0.00883775 0.0187706,0.020615 0.00993287,0.0353318l-0.0154469 0.026494c-0.0750633,0.128051 -0.136159,0.22225 -0.183249,0.282597 -0.00147936,0.00146015 -0.00220944,0.00293951 -0.00220944,0.00441888l-0.00441888 0.00220944c0,0 0,0.000365038 0,0.00109511 0,0.000730075 -0.000730075,0.00111433 -0.00220944,0.00111433 -0.0735839,0.0912402 -0.139079,0.13687 -0.196486,0.13687 -0.0529881,0 -0.0956783,-0.0220752 -0.128051,-0.0662255 -0.0323731,-0.0456297 -0.052258,-0.114065 -0.0596164,-0.205324 -0.0132374,0.0338524 -0.0272241,0.0647654 -0.0419409,0.0927196 -0.0647654,0.119233 -0.141308,0.17883 -0.229609,0.17883 -0.0500486,0 -0.0938339,-0.0213451 -0.131375,-0.0640161 -0.037522,-0.0426902 -0.0562926,-0.108916 -0.0562926,-0.198715 0,-0.119214 0.0401157,-0.228859 0.120328,-0.328957 0.0802122,-0.100078 0.161539,-0.150127 0.24396,-0.150127 0.057407,0 0.101557,0.0139867 0.13247,0.0419409 0.00293951,0.00147936 0.00587903,0.0036888 0.00881854,0.00662831 0,0 0.000749288,0 0.00220944,0 0.00295873,-0.0132374 0.0106822,-0.0239196 0.0231895,-0.032008 0.0125073,-0.00808846 0.025764,-0.0128724 0.0397315,-0.0143517 0.0139867,-0.00147936 0.0276084,-0.000730075 0.0408458,0.00220944 0.020615,0.00587903 0.0364269,0.0176563 0.0474741,0.0353318 0.0110472,0.0176563 0.0128724,0.0390014 0.00551399,0.0640161 -0.0147168,0.057407 -0.026494,0.119214 -0.0353126,0.185458 -0.00883775,0.0662255 -0.0110472,0.131721 -0.00662831,0.196486 0.00441888,0.0647654 0.0176563,0.111125 0.0397315,0.139099 0.0161961,0.0191357 0.0360619,0.0279542 0.0596164,0.026494 0.0132566,-0.00441888 0.0412108,-0.031643 0.083901,-0.0816916l0.00220944 -0.00441888 0.00220944 0c0.0456105,-0.057407 0.105227,-0.150127 0.17883,-0.278178l0.0154469 -0.026494zm-0.543118 0.0507787c0.00441888,-0.0691842 0.0132566,-0.13468 0.026494,-0.196486 -0.00293951,-0.00589824 -0.00587903,-0.0110472 -0.00883775,-0.0154661 -0.00439966,-0.00587903 -0.00954862,-0.0117773 -0.0154469,-0.0176563 -0.0117773,-0.00589824 -0.0272241,-0.00662831 -0.0463598,-0.00220944 -0.057407,0.0161961 -0.1137,0.0651304 -0.168897,0.146822 -0.0551975,0.0816916 -0.0827867,0.171837 -0.0827867,0.270454 0,0.0515087 0.00772343,0.0916244 0.0231703,0.120328 0.0154661,0.0286843 0.031278,0.043036 0.0474741,0.043036 0.0220752,0 0.0456297,-0.0121423 0.0706444,-0.0364269 0.0250339,-0.0242846 0.0463598,-0.0533531 0.0640353,-0.0872056 0,0 0,-0.000730075 0,-0.00220944 0.026494,-0.0470899 0.0551975,-0.117004 0.0860912,-0.209743 0,-0.00146015 0.000365038,-0.00366959 0.00111433,-0.0066091 0.000730075,-0.00295873 0.0018444,-0.00514895 0.00330455,-0.00662831z"/>
 </g>
</svg>
