<?xml version="1.0" encoding="UTF-8"?>
<!DOCTYPE svg PUBLIC "-//W3C//DTD SVG 1.1//EN" "http://www.w3.org/Graphics/SVG/1.1/DTD/svg11.dtd">
<!-- Creator: CorelDRAW -->
<svg xmlns="http://www.w3.org/2000/svg" xml:space="preserve" width="55.5059mm" height="12.8292mm" style="shape-rendering:geometricPrecision; text-rendering:geometricPrecision; image-rendering:optimizeQuality; fill-rule:evenodd; clip-rule:evenodd"
viewBox="0 0 561.594 129.802"
 xmlns:xlink="http://www.w3.org/1999/xlink">
 <defs>
  <style type="text/css">
   <![CDATA[
    .str0 {stroke:black;stroke-width:0.770971}
    .str1 {stroke:red;stroke-width:0.770971}
    .str2 {stroke:black;stroke-width:7.5883}
    .fil0 {fill:none}
    .fil7 {fill:none;fill-rule:nonzero}
    .fil5 {fill:black}
    .fil1 {fill:#05913A}
    .fil3 {fill:#138C3C}
    .fil2 {fill:yellow}
    .fil4 {fill:white}
    .fil6 {fill:black;fill-rule:nonzero}
    .fil8 {fill:yellow;fill-rule:nonzero}
   ]]>
  </style>
    <clipPath id="id0">
     <path d="M65.9262 42.0301c12.8374,0 23.2435,10.4061 23.2435,23.2435 0,12.8364 -10.4061,23.2425 -23.2435,23.2425 -12.8364,0 -23.2425,-10.4061 -23.2425,-23.2425 0,-12.8374 10.4061,-23.2435 23.2425,-23.2435z"/>
    </clipPath>
 </defs>
 <g id="Layer_x0020_1">
  <metadata id="CorelCorpID_0Corel-Layer"/>
  <g id="_41461824">
   <path id="_41464104" class="fil0 str0" d="M66.2772 0.39358c0,0 42.97,8.72857 65.1258,46.3271 0,0 2.68525,48.3405 -25.5129,74.5252 0,0 -30.2146,17.4561 -79.2269,1.34262 0,0 -31.5552,-28.8699 -25.5129,-75.8678 0,0 16.1135,-35.5851 65.1269,-46.3271z"/>
   <path id="_41464608" class="fil1 str0" d="M66.2519 5.09327c0,0 39.8386,8.09217 60.3806,42.9518 0,0 2.48997,44.8195 -23.6543,69.096 0,0 -28.013,16.1853 -73.4548,1.24549 0,0 -29.2564,-26.7675 -23.6543,-70.3415 0,0 14.9398,-32.9919 60.3826,-42.9518z"/>
   <circle id="_41463768" class="fil2 str0" cx="65.9267" cy="65.2731" r="37.9339"/>
   <path id="_41463840" class="fil3" d="M65.9262 42.0301c12.8374,0 23.2435,10.4061 23.2435,23.2435 0,12.8364 -10.4061,23.2425 -23.2435,23.2425 -12.8364,0 -23.2425,-10.4061 -23.2425,-23.2425 0,-12.8374 10.4061,-23.2435 23.2425,-23.2435z"/>
   <g style="clip-path:url(#id0)">
    <g>
     <path id="_414578641" class="fil2" d="M44.602 75.6554c0,0 -1.6067,-8.03045 0.963208,-10.6004 2.5699,-2.5699 -4.1766,-1.6067 -4.81908,-4.1766 -0.642476,-2.5699 3.21238,-2.56889 3.53413,-4.17559 0.321744,-1.6067 0.321744,-2.89165 2.24917,-2.89165 1.92743,0 2.5699,-4.81807 6.42476,-2.24816 3.85486,2.5699 -0.320732,2.5699 -0.642476,5.13981 -0.321744,2.5699 -0.321744,7.06623 0.320732,8.03045 0.642476,0.96422 -0.641464,7.38797 2.89165,2.5699 3.53311,-4.81807 1.28495,-7.06724 3.85486,-8.35219 2.5699,-1.28495 1.92642,-3.21137 6.10302,-4.17559 4.1766,-0.96422 1.92743,-5.7833 5.78229,-6.10403 3.85486,-0.320732 1.92743,-2.24816 3.21238,-3.53311 1.28495,-1.28495 5.46155,-3.53413 6.10403,-2.24917 0.642476,1.28495 -1.92743,5.13981 -1.92743,5.13981 0,0 -1.60568,3.53413 1.92743,2.89165 3.53311,-0.642476 3.85486,1.60568 3.85486,1.60568l4.17559 -0.963208 2.5699 8.03045c0,0 -3.21238,0.00101177 -5.13981,0.96422 -1.92743,0.963208 -0.963208,-1.92844 -4.81807,-0.96422 -3.85486,0.96422 -6.74651,4.17559 -3.53413,5.78229 3.21238,1.6067 2.89064,0.643488 3.85486,-0.320732 0.96422,-0.96422 2.24816,0.96422 2.5699,1.92743 0.321744,0.963208 4.81908,1.60568 4.81908,2.89064 0,1.28495 -7.06825,8.35219 -8.67394,5.13981 -1.60568,-3.21238 -2.89064,-2.56889 -4.17559,-1.60568 -1.28495,0.963208 -1.92743,0.96422 -3.21238,0 -1.28495,-0.96422 -1.92743,-0.321744 -1.92743,1.60568 0,1.92743 -0.643488,4.49835 -2.24917,4.81908 -1.60568,0.320732 -2.5699,2.5699 -3.85486,3.21238 -1.28495,0.642476 0.642476,2.5699 -0.642476,3.85486 -1.28495,1.28495 -8.03045,1.28394 -8.67292,0.963208 -0.642476,-0.320732 -13.492,-10.2796 -13.492,-10.2796l2.5699 -1.92743zm19.9168 -10.9221c0,0 -1.60568,-2.89165 1.92743,-3.85486 3.53311,-0.963208 5.46054,-5.46054 7.38797,-2.89064 1.92743,2.5699 -3.21238,6.10302 -3.21238,6.10302 0,0 -4.1766,1.92844 -2.5699,2.24917 1.6067,0.320732 6.42577,-0.00101177 6.74651,1.60568l0.320732 1.6067 -12.8495 -0.320732 12.8495 0.320732 -10.6004 -4.81908z"/>
     <g>
      <path id="_41457888" class="fil0 str0" d="M54.3626 41.5525c0,0 10.2796,7.70971 26.3415,0"/>
      <path id="_41457792" class="fil0 str0" d="M44.7255 44.7649c0,0 25.699,20.5592 42.4034,-1.28495"/>
      <path id="_41457240" class="fil0 str0" d="M40.2271 54.4021c0,0 33.4098,19.9168 50.1142,-1.92743"/>
      <line id="_41457000" class="fil0 str0" x1="38.2997" y1="65.3242" x2="93.5536" y2= "65.3242" />
      <path id="_41456832" class="fil0 str0" d="M54.3626 88.9936c0,0 10.2796,-7.70971 26.3415,0"/>
      <path id="_41456640" class="fil0 str0" d="M44.7255 85.7812c0,0 25.699,-20.5592 42.4034,1.28495"/>
      <path id="_41456784" class="fil0 str0" d="M40.2271 76.1441c0,0 33.4098,-19.9168 50.1142,1.92743"/>
      <line id="_41456448" class="fil0 str0" x1="66.1831" y1="44.9733" x2="66.1831" y2= "85.5677" />
      <path id="_41456976" class="fil0 str0" d="M62.6227 85.8955c0,0 -8.62031,-19.9896 0.554452,-41.161"/>
      <path id="_41456928" class="fil0 str0" d="M58.3844 86.9893c0,0 -19.1509,-20.2334 0.941961,-43.1147"/>
      <path id="_41456856" class="fil0 str0" d="M69.5584 85.8955c0,0 8.62031,-19.9896 -0.554452,-41.161"/>
      <path id="_41456952" class="fil0 str0" d="M73.7967 86.9893c0,0 19.1509,-20.2334 -0.941961,-43.1147"/>
     </g>
    </g>
   </g>
   <path class="fil0 str0" d="M65.9262 42.0301c12.8374,0 23.2435,10.4061 23.2435,23.2435 0,12.8364 -10.4061,23.2425 -23.2435,23.2425 -12.8364,0 -23.2425,-10.4061 -23.2425,-23.2425 0,-12.8374 10.4061,-23.2435 23.2425,-23.2435z"/>
   <circle id="_41463480" class="fil4" cx="32.8523" cy="94.0828" r="2.24816"/>
   <circle id="_41463432" class="fil4" cx="99.9916" cy="94.0828" r="2.24816"/>
   <path id="_41463888" class="fil4 str1" d="M53.0898 98.7349c0,0 6.13641,-3.54323 12.8505,0.166943 0,0 7.38898,-3.85385 13.1713,-0.320732l0 -4.81908c0,0 -5.13981,-4.49733 -12.5288,-1.28495 0,0 -7.44159,-3.49365 -13.1703,1.28495l-0.322756 4.97287z"/>
   <path id="_41462880" class="fil4 str1" d="M40.562 70.6329c0,0 1.9507,15.6198 21.2139,20.6594 0,0 -13.3959,3.5665 -21.2139,-2.02759l7.71073 -0.642476c0,0 -10.2806,0.642476 -12.8505,-6.42476 0,0 4.04406,3.28725 8.3532,2.5699 0,0 -8.99568,-1.28495 -7.71073,-8.99467 0,0 2.57092,5.13981 6.42577,5.13981 0,0 -5.34722,-3.4289 -1.92844,-10.2796z"/>
   <path id="_41463000" class="fil4 str1" d="M91.9611 70.6329c0,0 -1.9507,15.6198 -21.2139,20.6594 0,0 13.3959,3.5665 21.2139,-2.02759l-7.71073 -0.642476c0,0 10.2806,0.642476 12.8505,-6.42476 0,0 -4.04406,3.28725 -8.3532,2.5699 0,0 8.99568,-1.28495 7.71073,-8.99467 0,0 -2.57092,5.13981 -6.42577,5.13981 0,0 5.34722,-3.4289 1.92844,-10.2796z"/>
   <polygon id="_41462544" class="fil5 str0" points="65.6236,29.1381 66.7366,32.2159 70.0987,32.3899 67.5146,34.3983 68.3888,37.6481 65.6803,35.8138 62.8585,37.6481 63.768,34.5055 61.1496,32.3899 64.4196,32.2816 "/>
   <polygon id="_41462688" class="fil5 str0" points="79.9949,34.7706 80.693,36.7041 82.8046,36.8134 81.1827,38.0741 81.7311,40.1158 80.0303,38.9634 78.2577,40.1158 78.8283,38.1418 77.1842,36.8134 79.2381,36.7456 "/>
   <polygon id="_41463048" class="fil5 str0" points="52.2409,34.7706 52.939,36.7041 55.0506,36.8134 53.4287,38.0741 53.9771,40.1158 52.2763,38.9634 50.5037,40.1158 51.0743,38.1418 49.4302,36.8134 51.4841,36.7456 "/>
   <polygon id="_41463288" class="fil5 str0" points="90.2259,42.2071 90.924,44.1406 93.0356,44.2499 91.4137,45.5106 91.9621,47.5523 90.2613,46.3999 88.4887,47.5523 89.0593,45.5784 87.4152,44.2499 89.4691,44.1821 "/>
   <polygon id="_41463144" class="fil5 str0" points="41.848,42.2071 42.5461,44.1406 44.6577,44.2499 43.0358,45.5106 43.5842,47.5523 41.8834,46.3999 40.1108,47.5523 40.6814,45.5784 39.0373,44.2499 41.0912,44.1821 "/>
   <polygon id="_41463096" class="fil5 str0" points="96.4584,51.9849 97.1566,53.9184 99.2681,54.0277 97.6463,55.2884 98.1947,57.3301 96.4939,56.1777 94.7212,57.3301 95.2919,55.3562 93.6477,54.0277 95.7016,53.9599 "/>
   <polygon id="_41462424" class="fil5 str0" points="36.0647,51.9849 36.7628,53.9184 38.8744,54.0277 37.2525,55.2884 37.8009,57.3301 36.1001,56.1777 34.3275,57.3301 34.8981,55.3562 33.254,54.0277 35.3079,53.9599 "/>
   <polygon id="_41462304" class="fil5 str0" points="97.8567,62.4446 98.5548,64.3781 100.666,64.4874 99.0445,65.7481 99.5929,67.7898 97.8921,66.6374 96.1195,67.7898 96.6901,65.8159 95.046,64.4874 97.0999,64.4196 "/>
   <polygon id="_41462064" class="fil5 str0" points="33.6081,62.4446 34.3062,64.3781 36.4178,64.4874 34.7959,65.7481 35.3443,67.7898 33.6435,66.6374 31.8709,67.7898 32.4415,65.8159 30.7974,64.4874 32.8513,64.4196 "/>
   <path id="_41462232" class="fil6" d="M26.8889 83.1992m-0.59897 -1.55914l-1.9679 0.754783 -2.10449 2.60734 -0.389533 -1.01279 1.46302 -1.71799 -2.22894 -0.277226 -0.38245 -0.996597 3.31862 0.532193 1.96082 -0.75276 0.33085 0.863043zm-0.842807 -1.86875m-1.19086 -4.44573l0.261038 0.974338 -0.995585 0.680924 0.474522 1.7706 1.19693 0.0708242 0.253955 0.949044 -5.29967 -0.430004 -0.252943 -0.944997 4.36176 -3.07073zm-1.47213 2.16014l-1.63098 1.09069 1.95475 0.118378 -0.323768 -1.20907zm1.64009 -1.56117m-0.375368 -1.62693l-2.0539 0.47351 -2.44748 2.28863 -0.243837 -1.0573 1.68663 -1.49742 -2.16823 -0.584805 -0.23979 -1.0401 3.21137 0.989515 2.04682 -0.472498 0.208425 0.900479zm-0.488687 -2.01039m-0.480592 -4.57726l0.105224 1.00267 -1.09069 0.517016 0.192237 1.82322 1.17062 0.25699 0.103201 0.977373 -5.16713 -1.25359 -0.102189 -0.973326 4.78872 -2.35035zm-1.79286 1.90315l-1.78072 0.822572 1.91225 0.422921 -0.131531 -1.24549zm1.77364 -1.94159m-1.633 -0.203366l-0.111295 -0.898455c0.33085,-0.0596946 0.57064,-0.174025 0.722406,-0.342991 0.150754,-0.168966 0.225626,-0.39358 0.220567,-0.674853 -0.00505887,-0.297461 -0.0779066,-0.522075 -0.219555,-0.669794 -0.139625,-0.149742 -0.30252,-0.22259 -0.486663,-0.219555 -0.117366,0.00202355 -0.218543,0.0354121 -0.299485,0.101177 -0.0829654,0.0647535 -0.15379,0.17706 -0.212472,0.336921 -0.0384474,0.10826 -0.107248,0.357156 -0.204378,0.744665 -0.126472,0.498804 -0.28532,0.84989 -0.478569,1.05326 -0.269132,0.286332 -0.603017,0.433039 -0.998621,0.440122 -0.255979,0.00404709 -0.494757,-0.0576711 -0.719371,-0.186166 -0.224614,-0.128495 -0.396615,-0.316685 -0.517016,-0.562546 -0.119389,-0.247885 -0.184143,-0.54737 -0.189202,-0.899467 -0.0101177,-0.576711 0.119389,-1.01177 0.389533,-1.30721 0.271155,-0.29645 0.635394,-0.455298 1.09575,-0.478569l0.0607064 0.924761c-0.258002,0.044518 -0.441133,0.133554 -0.549393,0.266096 -0.111295,0.131531 -0.163907,0.327815 -0.15986,0.588852 0.00607064,0.269132 0.0677888,0.479581 0.192237,0.628311 0.0779066,0.0971303 0.183131,0.144684 0.311626,0.141648 0.119389,-0.00202355 0.219555,-0.0485651 0.301509,-0.141648 0.106236,-0.119389 0.213484,-0.404709 0.320732,-0.857984 0.10826,-0.452263 0.22259,-0.78716 0.341979,-1.0057 0.121413,-0.217531 0.287344,-0.389533 0.50184,-0.514993 0.212472,-0.126472 0.476545,-0.191225 0.794242,-0.196284 0.28532,-0.00505887 0.555464,0.0617182 0.808407,0.204378 0.252943,0.141648 0.443157,0.344003 0.569629,0.609088 0.126472,0.265085 0.193249,0.596946 0.200331,0.994573 0.0101177,0.580758 -0.128495,1.02796 -0.415839,1.34465 -0.287344,0.314662 -0.710265,0.50791 -1.26978,0.577723zm1.61479 -4.06328m0.401674 -4.58536l-0.0880243 1.00469 -1.1686 0.299485 -0.15986 1.82625 1.0998 0.476545 -0.084989 0.978385 -4.83223 -2.2168 0.084989 -0.974338 5.14892 -1.39422zm-2.1227 1.52677l-1.90517 0.467439 1.7959 0.780077 0.109272 -1.24752zm2.11865 -1.55813m0.106236 -0.463392l-4.87877 -1.1261 0.203366 -0.878219 3.68083 -1.07754 -3.25791 -0.751748 0.192237 -0.837749 4.87978 1.1261 -0.209437 0.905537 -3.59686 1.06742 3.18102 0.734548 -0.194261 0.837749zm1.43166 -5.76104m0.487675 -1.41648l-3.93276 -1.35375 -0.443157 1.28596 -0.801325 -0.276214 1.1858 -3.4461 0.802336 0.276214 -0.442145 1.28293 3.93276 1.35375 -0.301509 0.877208zm0.579746 -1.80096m1.94564 -4.17154l-0.426968 0.913632 -1.20098 -0.117366 -0.775019 1.66133 0.872149 0.823584 -0.414827 0.890361 -3.78302 -3.73547 0.413815 -0.887325 5.31485 0.451251zm-2.51628 0.708242l-1.9507 -0.211461 1.42154 1.34667 0.529158 -1.13521zm2.44242 -0.803348m0.247885 -0.380427l-4.19987 -2.72774 0.754783 -1.16152 3.31862 1.16152 -2.41713 -2.54967 0.756807 -1.16455 4.19886 2.72673 -0.468451 0.721395 -3.30546 -2.14597 2.8097 2.90885 -0.485651 0.747701 -3.79921 -1.38411 3.30546 2.14597 -0.468451 0.721395zm2.65489 -4.09667m2.83398 -3.62721l-0.620217 0.795254 -1.1433 -0.385486 -1.12914 1.44481 0.664735 0.998621 -0.606052 0.774007 -2.84511 -4.49126 0.603017 -0.770971 5.07607 1.63503zm-2.61139 0.124448l-1.85256 -0.645512 1.08159 1.63199 0.770971 -0.986479zm2.67412 -0.133554m0.329838 -0.341979l-3.60191 -3.47848 0.626288 -0.647535 3.71017 0.971303 -2.40499 -2.32202 0.596946 -0.619205 3.60191 3.47848 -0.645512 0.668782 -3.63328 -0.937914 2.34833 2.26738 -0.597958 0.619205zm4.22011 -4.13512m0.367274 -0.287344l-3.08287 -3.94592 1.17062 -0.914643c0.444169,-0.346027 0.749724,-0.551417 0.914643,-0.617182 0.252943,-0.103201 0.527134,-0.111295 0.822572,-0.0212472 0.294426,0.0890361 0.56457,0.291391 0.808407,0.604029 0.190213,0.242826 0.308591,0.477557 0.357156,0.706218 0.0485651,0.227649 0.0475534,0.437086 -0.00303532,0.628311 -0.0495769,0.191225 -0.127483,0.352097 -0.232708,0.482616 -0.144684,0.173013 -0.381439,0.389533 -0.712289,0.648547l-0.475534 0.371321 1.16253 1.48832 -0.729489 0.569629zm-1.83131 -3.84778l0.874172 1.11902 0.399651 -0.312638c0.287344,-0.224614 0.464404,-0.394592 0.528146,-0.511957 0.0637417,-0.116354 0.0910596,-0.23979 0.0768948,-0.371321 -0.0141648,-0.131531 -0.0657653,-0.253955 -0.156825,-0.371321 -0.111295,-0.14266 -0.242826,-0.231696 -0.394592,-0.265085 -0.148731,-0.0323768 -0.293414,-0.0141648 -0.428992,0.0546358 -0.102189,0.0495769 -0.282285,0.178072 -0.545346,0.383462l-0.353109 0.275202zm4.84032 1.54801m0.395603 -0.246873l-2.65287 -4.24641 2.88254 -1.80197 0.450239 0.718359 -2.09842 1.31227 0.586829 0.940949 1.95373 -1.2202 0.446192 0.715324 -1.95272 1.21919 0.722406 1.15646 2.17228 -1.3578 0.447204 0.715324 -2.95741 1.84851zm3.23768 -2.06199m0.434051 -0.193249l-2.0367 -4.57423 0.822572 -0.366262 3.07579 2.29066 -1.35982 -3.05454 0.786148 -0.350074 2.03569 4.57423 -0.848878 0.378403 -3.0161 -2.23096 1.32644 2.98271 -0.785136 0.350074zm3.74356 -1.76453m-1.19187 -4.88484l1.59961 -0.551417c0.362215,-0.124448 0.646523,-0.18819 0.857984,-0.193249 0.281273,-0.00607064 0.550405,0.0637417 0.802336,0.211461 0.252943,0.145695 0.480592,0.354121 0.6789,0.623253 0.199319,0.271155 0.374356,0.626288 0.528146,1.07147 0.133554,0.388521 0.204378,0.740618 0.212472,1.05326 0.0101177,0.380427 -0.0475534,0.7133 -0.17706,0.994573 -0.0951067,0.214496 -0.25699,0.41078 -0.48464,0.589864 -0.168966,0.133554 -0.416851,0.255979 -0.740618,0.368286l-1.64616 0.566593 -1.63098 -4.73409zm1.1514 0.499816l1.07956 3.13447 0.652594 -0.224614c0.244849,-0.0839772 0.416851,-0.158848 0.514993,-0.227649 0.128495,-0.0880243 0.223602,-0.193249 0.287344,-0.317697 0.0607064,-0.12546 0.0839772,-0.304544 0.0698124,-0.537252 -0.0141648,-0.231696 -0.0829654,-0.531181 -0.209437,-0.896431 -0.12546,-0.367274 -0.252943,-0.637417 -0.379415,-0.812454 -0.126472,-0.176049 -0.262049,-0.300497 -0.405721,-0.373344 -0.144684,-0.0728477 -0.305556,-0.100166 -0.481604,-0.0829654 -0.133554,0.0111295 -0.377392,0.0799301 -0.735559,0.202355l-0.392568 0.135578zm4.47507 2.91593m0.42191 -0.113319l-1.29507 -4.83628 0.894408 -0.23979 1.29507 4.83628 -0.894408 0.23979zm1.23032 -0.446192m-0.413815 -5.01131l1.6674 -0.294426c0.375368,-0.0657653 0.667771,-0.084989 0.876196,-0.0566593 0.280261,0.0374356 0.534216,0.149742 0.759842,0.333885 0.228661,0.184143 0.418874,0.424945 0.573676,0.722406 0.152778,0.298473 0.271155,0.677888 0.353109,1.14128 0.0708242,0.403698 0.0860008,0.762877 0.0455298,1.07349 -0.0495769,0.377392 -0.158848,0.697112 -0.329838,0.955114 -0.127483,0.196284 -0.318709,0.36525 -0.57064,0.505887 -0.189202,0.105224 -0.452263,0.18819 -0.790195,0.247885l-1.71496 0.301509 -0.870125 -4.93037zm1.05933 0.673841l0.575699 3.26499 0.680924 -0.119389c0.254967,-0.0455298 0.436074,-0.0930832 0.543322,-0.144684 0.140637,-0.0667771 0.251932,-0.155813 0.332874,-0.269132 0.0809419,-0.113319 0.130519,-0.287344 0.15379,-0.51904 0.022259,-0.230684 0,-0.538264 -0.0667771,-0.91869 -0.0677888,-0.38245 -0.149742,-0.668782 -0.246873,-0.862031 -0.098142,-0.193249 -0.212472,-0.337932 -0.341979,-0.432027 -0.131531,-0.0951067 -0.286332,-0.146707 -0.463392,-0.157837 -0.133554,-0.00910596 -0.385486,0.0202355 -0.75883,0.0860008l-0.408757 0.0718359zm3.91759 3.4977m0.434051 -0.0455298l-0.522075 -4.97995 0.919702 -0.0971303 0.524099 4.97995 -0.921726 0.0971303zm1.34566 -0.23372m0.478569 -0.00809419l-0.0870125 -5.00626 0.924761 -0.0161884 0.0394592 2.22287 1.83232 -2.25626 1.24448 -0.0212472 -1.6927 1.98004 1.8738 3.02419 -1.19794 0.0212472 -1.30114 -2.32809 -0.736571 0.84989 0.0263061 1.51361 -0.925773 0.0161884zm4.14827 -0.131531m4.59143 0.320732l-1.0057 -0.0698124 -0.320732 -1.16354 -1.82827 -0.127483 -0.457322 1.1089 -0.979397 -0.0688006 2.13181 -4.87068 0.977373 0.0688006 1.48225 5.12261zm-1.56319 -2.09437l-0.500828 -1.89809 -0.747701 1.81006 1.24853 0.0880243zm1.5986 2.1227m0.468451 0.0829654l0.869114 -4.93138 0.887325 0.155813 1.26876 3.61911 0.580758 -3.29231 0.846855 0.148731 -0.869114 4.93138 -0.915655 -0.160872 -1.2546 -3.53716 -0.566593 3.21542 -0.846855 -0.148731zm5.81062 1.17669m0.420898 0.120401l1.38006 -4.81301 0.889349 0.254967 -1.38006 4.81301 -0.889349 -0.254967zm1.29507 0.368286m0.799301 -1.43773l0.876196 0.232708c-0.0688006,0.328826 -0.0526122,0.594923 0.0475534,0.798289 0.0991538,0.203366 0.27925,0.356144 0.542311,0.457322 0.278238,0.106236 0.513981,0.123436 0.704194,0.0475534 0.190213,-0.0738595 0.318709,-0.197296 0.384474,-0.369297 0.0424945,-0.110283 0.0485651,-0.215508 0.0192237,-0.315673 -0.0283297,-0.101177 -0.106236,-0.208425 -0.23372,-0.322756 -0.0860008,-0.0768948 -0.290379,-0.23372 -0.613135,-0.469463 -0.415839,-0.303532 -0.680924,-0.58177 -0.797278,-0.836737 -0.164919,-0.358168 -0.176049,-0.722406 -0.0344003,-1.0917 0.0920714,-0.238779 0.238779,-0.437086 0.442145,-0.596946 0.203366,-0.15986 0.442145,-0.248896 0.715324,-0.269132 0.275202,-0.0172002 0.576711,0.0354121 0.905537,0.161884 0.538264,0.206402 0.892384,0.489698 1.06641,0.850902 0.172002,0.362215 0.183131,0.759842 0.0323768,1.1949l-0.880243 -0.290379c0.0556475,-0.254967 0.0424945,-0.458333 -0.0404709,-0.609088 -0.0809419,-0.151766 -0.242826,-0.274191 -0.486663,-0.367274 -0.25092,-0.0971303 -0.469463,-0.118378 -0.653606,-0.0586829 -0.120401,0.0364238 -0.203366,0.116354 -0.249908,0.236755 -0.0414827,0.111295 -0.0364238,0.221578 0.0192237,0.332874 0.0708242,0.141648 0.29645,0.34805 0.675865,0.618194 0.378403,0.270144 0.646523,0.50184 0.803348,0.694077 0.156825,0.193249 0.253955,0.411792 0.290379,0.657653 0.0374356,0.244849 -0.00202355,0.513981 -0.115342,0.809419 -0.102189,0.26812 -0.266096,0.492734 -0.492734,0.673841 -0.225626,0.182119 -0.485651,0.282285 -0.777042,0.299485 -0.294426,0.0192237 -0.6273,-0.044518 -0.998621,-0.186166 -0.541299,-0.208425 -0.904526,-0.503863 -1.08968,-0.889349 -0.185155,-0.384474 -0.20539,-0.848878 -0.0617182,-1.39321zm3.21845 2.97664m0.441133 0.215508l2.17734 -4.46293 0.831678 0.405721 -1.80703 3.7041 2.06908 1.00975 -0.369297 0.757818 -2.90177 -1.41446zm3.02419 1.46302m3.90241 2.43939l-0.853937 -0.535228 0.263061 -1.17669 -1.55408 -0.971303 -0.924761 0.764901 -0.83269 -0.521063 4.16851 -3.29939 0.830666 0.51904 -1.09676 5.21974zm-0.395603 -2.58407l0.448216 -1.91023 -1.51058 1.24651 1.06236 0.663723zm0.414827 2.66299m0.363227 0.273179l3.01407 -3.99853 1.10587 0.833701 -1.39119 3.22857 2.71257 -2.23298 1.1089 0.835725 -3.01306 3.99954 -0.686994 -0.518028 2.37261 -3.14763 -3.09906 2.60026 -0.712289 -0.537252 1.64717 -3.69399 -2.37261 3.14763 -0.685983 -0.517016zm5.21772 4.20291m0.297461 0.342991l3.77999 -3.28523 0.908573 1.04516 -2.03265 2.86939 3.11829 -1.61985 0.910596 1.0482 -3.77796 3.28523 -0.56457 -0.649559 2.9736 -2.58508 -3.57055 1.89809 -0.584805 -0.672829 2.37767 -3.27106 -2.9736 2.58609 -0.56457 -0.648547zm3.11829 3.71422m0.275202 0.339956l3.89128 -3.15066 0.58177 0.719371 -3.89027 3.15066 -0.582782 -0.719371zm0.863043 1.05933m0.25699 0.395603l4.19987 -2.72673 1.71192 2.63668 -0.710265 0.462381 -1.20806 -1.86065 -0.993562 0.645512 1.04314 1.60568 -0.711277 0.461369 -1.04213 -1.60568 -1.78477 1.15848 -0.504875 -0.777042zm1.92743 2.82184m0.680924 1.33453l3.70511 -1.88797 -0.617182 -1.2121 0.755795 -0.384474 1.65526 3.24678 -0.756807 0.385486 -0.615158 -1.20907 -3.70613 1.88797 -0.420898 -0.826619zm0.899467 1.74227m1.94564 4.17154l-0.425957 -0.913632 0.862031 -0.844831 -0.775019 -1.66133 -1.19086 0.138613 -0.415839 -0.890361 5.2936 -0.496781 0.413815 0.887325 -3.76177 3.781zm1.0745 -2.38273l1.41648 -1.3578 -1.94564 0.22259 0.529158 1.13521zm-1.14836 2.40802m0.128495 0.451251l4.81402 -1.38107 0.254967 0.891373 -1.89404 0.543322 0.499816 1.74329 1.89505 -0.543322 0.253955 0.890361 -4.81301 1.38006 -0.253955 -0.890361 2.10348 -0.603017 -0.499816 -1.74329 -2.10449 0.603017 -0.255979 -0.890361zm1.16657 4.02484m5.00322 -0.502851l0.17706 0.908573 -2.66198 0.517016c-0.422921,0.0829654 -0.695088,0.146707 -0.816501,0.193249 -0.192237,0.0779066 -0.335909,0.203366 -0.428992,0.372333 -0.0930832,0.169978 -0.11433,0.381439 -0.0657653,0.635394 0.0505887,0.258002 0.144684,0.442145 0.286332,0.550405 0.139625,0.109272 0.29645,0.15986 0.469463,0.15379 0.172002,-0.00505887 0.453275,-0.0465416 0.841796,-0.122425l2.71965 -0.528146 0.17706 0.908573 -2.58205 0.50184c-0.590876,0.11433 -1.01177,0.17099 -1.26573,0.168966 -0.252943,-0.00101177 -0.474522,-0.0516005 -0.668782,-0.150754 -0.192237,-0.100166 -0.361203,-0.25092 -0.502851,-0.451251 -0.143672,-0.202355 -0.248896,-0.481604 -0.318709,-0.83876 -0.0829654,-0.430004 -0.0920714,-0.765913 -0.0273179,-1.00975 0.0657653,-0.242826 0.173013,-0.446192 0.320732,-0.608076 0.147719,-0.161884 0.31365,-0.283297 0.494757,-0.360191 0.271155,-0.11433 0.679912,-0.224614 1.23032,-0.331862l2.62151 -0.508922zm-4.15637 5.04976m0.0424945 0.489698l4.94757 -0.433039 0.0799301 0.922738 -4.10679 0.35918 0.201343 2.29268 -0.840784 0.0738595 -0.281273 -3.21542zm0.411792 5.10541m4.96275 0.808407l-0.0647535 0.923749 -2.70447 -0.189202c-0.430004,-0.0293414 -0.710265,-0.0384474 -0.83876,-0.0252943 -0.206402,0.0263061 -0.377392,0.109272 -0.510946,0.248896 -0.134566,0.140637 -0.210449,0.338944 -0.228661,0.596946 -0.0182119,0.262049 0.0252943,0.464404 0.134566,0.606052 0.106236,0.141648 0.244849,0.230684 0.412804,0.270144 0.168966,0.0394592 0.450239,0.0718359 0.846855,0.0991538l2.76214 0.193249 -0.0637417 0.923749 -2.62454 -0.183131c-0.599982,-0.0414827 -1.02189,-0.0961185 -1.26573,-0.163907 -0.242826,-0.0667771 -0.446192,-0.173013 -0.607064,-0.318709 -0.15986,-0.147719 -0.284308,-0.335909 -0.369297,-0.566593 -0.0860008,-0.232708 -0.115342,-0.530169 -0.0900479,-0.892384 0.0303532,-0.437086 0.10826,-0.763889 0.234731,-0.982432 0.12546,-0.217531 0.282285,-0.385486 0.467439,-0.504875 0.184143,-0.118378 0.375368,-0.192237 0.57064,-0.219555 0.290379,-0.0404709 0.715324,-0.0404709 1.27382,-0.00202355l2.66501 0.186166zm-5.33508 3.7385m-0.0505887 0.488687l4.93847 0.51904 -0.0971303 0.920714 -4.09869 -0.431016 -0.241814 2.28964 -0.83876 -0.0880243 0.337932 -3.21036zm-0.520052 3.42789m4.80188 1.49135l-0.192237 0.905537 -2.65186 -0.563558c-0.42191,-0.0890361 -0.697112,-0.136589 -0.826619,-0.141648 -0.208425,-0.00303532 -0.389533,0.0556475 -0.541299,0.175037 -0.152778,0.120401 -0.254967,0.306567 -0.308591,0.559511 -0.0556475,0.25699 -0.0404709,0.463392 0.0475534,0.619205 0.0860008,0.154801 0.211461,0.262049 0.371321,0.323768 0.161884,0.06273 0.436074,0.134566 0.824595,0.217531l2.70953 0.575699 -0.192237 0.905537 -2.57294 -0.54737c-0.588852,-0.124448 -0.998621,-0.237767 -1.23133,-0.337932 -0.231696,-0.100166 -0.417862,-0.23372 -0.556475,-0.400662 -0.138613,-0.167954 -0.234731,-0.372333 -0.286332,-0.612123 -0.053624,-0.241814 -0.0414827,-0.540287 0.0354121,-0.89542 0.0900479,-0.428992 0.212472,-0.742642 0.367274,-0.940949 0.155813,-0.197296 0.333885,-0.342991 0.534216,-0.435063 0.199319,-0.0910596 0.398639,-0.137601 0.595935,-0.137601 0.293414,0 0.7133,0.0586829 1.26168,0.175037l2.6124 0.555464zm-5.87739 2.98473m-0.162896 0.423933l4.67541 1.79489 -0.496781 1.29305 -3.48657 -0.447204 2.89367 1.99218 -0.497793 1.29709 -4.67439 -1.79489 0.307579 -0.803348 3.67982 1.41244 -3.35403 -2.26131 0.31972 -0.83269 4.00561 0.56457 -3.67982 -1.41244 0.307579 -0.802336z"/>
   <path id="_41462112" class="fil6" d="M36.3176 100.89m0.368286 0.26812l2.70245 -3.72029 1.12408 0.816501 -1.16961 3.02824 2.51122 -2.05289 1.1261 0.818525 -2.70245 3.71928 -0.6961 -0.506899 2.12675 -2.92706 -2.86635 2.39082 -0.722406 -0.525111 1.39018 -3.4633 -2.12675 2.92807 -0.697112 -0.505887zm3.95502 2.8785m0.400662 0.240802l2.36755 -3.94086 2.922 1.75543 -0.400662 0.666759 -2.12574 -1.27686 -0.524099 0.873161 1.97802 1.18883 -0.398639 0.663723 -1.97802 -1.18883 -0.645512 1.07248 2.20162 1.32239 -0.399651 0.664735 -2.99687 -1.80096zm3.24071 1.94362m0.446192 0.208425l1.92743 -4.1331 0.840784 0.392568 -1.59961 3.42991 2.09134 0.97535 -0.326803 0.702171 -2.93313 -1.36691zm3.15572 1.39726m0.403698 0.172002l1.79691 -4.23225 0.853937 0.362215 -1.7959 4.23225 -0.854949 -0.362215zm1.25258 0.534216m0.444169 0.152778l1.49641 -4.34658 1.84851 0.636406c0.464404,0.15986 0.788172,0.314662 0.971303,0.465416 0.184143,0.150754 0.305556,0.347038 0.363227,0.589864 0.0576711,0.244849 0.0414827,0.493746 -0.0465416,0.750736 -0.112307,0.325791 -0.301509,0.563558 -0.565581,0.710265 -0.264073,0.144684 -0.59897,0.181107 -0.998621,0.104213 0.151766,0.176049 0.267108,0.352097 0.345015,0.527134 0.0768948,0.176049 0.162896,0.467439 0.255979,0.877208l0.238779 1.031 -1.04921 -0.361203 -0.308591 -1.16455c-0.109272,-0.415839 -0.190213,-0.681935 -0.242826,-0.798289 -0.0526122,-0.116354 -0.119389,-0.206402 -0.202355,-0.272167 -0.0809419,-0.0637417 -0.221578,-0.130519 -0.424945,-0.200331l-0.17706 -0.0607064 -0.624264 1.81411 -0.879231 -0.30252zm1.74329 -2.20668l0.648547 0.223602c0.420898,0.144684 0.69003,0.218543 0.807395,0.218543 0.116354,0.00101177 0.219555,-0.0323768 0.308591,-0.098142 0.0890361,-0.0667771 0.156825,-0.165931 0.201343,-0.29645 0.0505887,-0.145695 0.0516005,-0.277226 0.00505887,-0.39358 -0.0475534,-0.117366 -0.137601,-0.212472 -0.272167,-0.28532 -0.0667771,-0.0344003 -0.280261,-0.112307 -0.635394,-0.234731l-0.683959 -0.235743 -0.379415 1.10182zm2.19454 3.46634m4.49531 1.03808l-0.984456 -0.227649 -0.156825 -1.1089 -1.78983 -0.412804 -0.605041 0.932855 -0.959161 -0.221578 2.77934 -4.07644 0.956126 0.220567 0.759842 4.89395zm-1.25662 -2.1571l-0.23372 -1.805 -0.988503 1.52272 1.22222 0.282285zm1.33453 2.14698m0.472498 0.0576711l0.560523 -4.5631 0.897443 0.110283 1.49338 3.27612 0.374356 -3.04645 0.854949 0.105224 -0.559511 4.5631 -0.925773 -0.11433 -1.47314 -3.20125 -0.36525 2.97563 -0.856972 -0.105224zm4.10173 0.391556m2.69132 -1.55206l0.0404709 -0.774007 1.99825 0.105224 -0.0951067 1.82929c-0.20539,0.178072 -0.494757,0.328826 -0.871137,0.453275 -0.37638,0.121413 -0.75276,0.174025 -1.13116,0.15379 -0.479581,-0.0242826 -0.893396,-0.146707 -1.23942,-0.366262 -0.346027,-0.220567 -0.599982,-0.523087 -0.759842,-0.907561 -0.15986,-0.383462 -0.227649,-0.797278 -0.20539,-1.23639 0.0252943,-0.477557 0.147719,-0.898455 0.367274,-1.26067 0.220567,-0.360191 0.528146,-0.629323 0.925773,-0.807395 0.30252,-0.136589 0.672829,-0.193249 1.10992,-0.17099 0.57064,0.0303532 1.00975,0.173013 1.31733,0.42798 0.307579,0.255979 0.496781,0.597958 0.566593,1.02493l-0.92982 0.123436c-0.0526122,-0.228661 -0.165931,-0.413815 -0.336921,-0.55344 -0.172002,-0.139625 -0.390545,-0.21652 -0.658665,-0.230684 -0.404709,-0.0212472 -0.732524,0.0900479 -0.985467,0.334897 -0.252943,0.243837 -0.392568,0.618194 -0.418874,1.12509 -0.0283297,0.543322 0.0708242,0.959161 0.299485,1.24448 0.226637,0.28532 0.538264,0.437086 0.930832,0.457322 0.193249,0.0111295 0.390545,-0.0172002 0.590876,-0.0829654 0.197296,-0.0657653 0.370309,-0.149742 0.516005,-0.25092l0.0303532 -0.582782 -1.06135 -0.0556475zm4.08959 1.55206m-0.0940949 -4.62077l1.82423 -0.223602c0.362215,-0.044518 0.63337,-0.06273 0.814478,-0.0546358 0.181107,0.00910596 0.347038,0.0516005 0.498804,0.130519 0.152778,0.0789183 0.283297,0.191225 0.396615,0.337932 0.112307,0.147719 0.182119,0.31972 0.20539,0.517016 0.0263061,0.212472 -0.00607064,0.416851 -0.0991538,0.609088 -0.0940949,0.192237 -0.23372,0.346027 -0.419886,0.459345 0.287344,0.0465416 0.51904,0.158848 0.692053,0.334897 0.173013,0.17706 0.276214,0.396615 0.308591,0.660688 0.0252943,0.207414 0.00303532,0.414827 -0.0708242,0.623253 -0.0718359,0.208425 -0.184143,0.380427 -0.336921,0.518028 -0.151766,0.137601 -0.350074,0.235743 -0.591888,0.292403 -0.150754,0.0354121 -0.521063,0.0920714 -1.10789,0.167954l-1.55307 0.190213 -0.560523 -4.5631zm1.01582 0.646523l0.129507 1.05528 0.604029 -0.0738595c0.358168,-0.044518 0.58177,-0.0768948 0.666759,-0.098142 0.154801,-0.0374356 0.273179,-0.107248 0.352097,-0.208425 0.0799301,-0.102189 0.109272,-0.225626 0.0910596,-0.373344 -0.0172002,-0.141648 -0.0698124,-0.251932 -0.157837,-0.33085 -0.0900479,-0.0779066 -0.212472,-0.117366 -0.367274,-0.116354 -0.0920714,0.00101177 -0.356144,0.0273179 -0.789183,0.0799301l-0.529158 0.0657653zm0.22259 1.81411l0.149742 1.2202 0.851913 -0.104213c0.332874,-0.0414827 0.542311,-0.0748712 0.629323,-0.106236 0.133554,-0.0404709 0.237767,-0.115342 0.311626,-0.221578 0.0748712,-0.10826 0.102189,-0.242826 0.0819537,-0.404709 -0.0161884,-0.136589 -0.0647535,-0.247885 -0.141648,-0.335909 -0.0789183,-0.0870125 -0.183131,-0.145695 -0.31365,-0.174025 -0.131531,-0.0273179 -0.406733,-0.0161884 -0.825607,0.0354121l-0.743654 0.0910596zm3.49365 1.51867m-0.664735 -4.5722l0.900479 -0.224614 0.602005 2.41612c0.0961185,0.38245 0.169978,0.629323 0.219555,0.736571 0.0839772,0.174025 0.212472,0.297461 0.385486,0.371321 0.173013,0.0738595 0.384474,0.0799301 0.636406,0.0172002 0.254967,-0.0637417 0.435063,-0.163907 0.539275,-0.301509 0.103201,-0.135578 0.149742,-0.283297 0.137601,-0.442145 -0.0101177,-0.158848 -0.0617182,-0.414827 -0.149742,-0.766924l-0.615158 -2.46873 0.90149 -0.224614 0.583793 2.34327c0.133554,0.53624 0.203366,0.920714 0.210449,1.15342 0.00607064,0.232708 -0.0374356,0.442145 -0.129507,0.626288 -0.0940949,0.185155 -0.238779,0.351085 -0.434051,0.495769 -0.197296,0.144684 -0.472498,0.260026 -0.825607,0.34805 -0.425957,0.106236 -0.761866,0.138613 -1.0057,0.0940949 -0.244849,-0.0435063 -0.450239,-0.128495 -0.617182,-0.252943 -0.166943,-0.124448 -0.292403,-0.269132 -0.375368,-0.431016 -0.122425,-0.240802 -0.245861,-0.610099 -0.370309,-1.10992l-0.593911 -2.37969zm5.17421 3.54424m0.448216 -0.162896l-1.57331 -4.32027 0.84989 -0.308591 2.81779 2.24007 -1.05022 -2.88457 0.810431 -0.294426 1.5723 4.32027 -0.875184 0.318709 -2.76619 -2.18341 1.02493 2.81678 -0.810431 0.295438zm3.93276 -1.37905m1.64717 -2.63365l-0.326803 -0.702171 1.8131 -0.845843 0.775019 1.66032c-0.098142,0.252943 -0.282285,0.522075 -0.556475,0.808407 -0.275202,0.284308 -0.582782,0.50791 -0.925773,0.667771 -0.435063,0.202355 -0.857984,0.289367 -1.26674,0.258002 -0.409768,-0.0323768 -0.775019,-0.180096 -1.09777,-0.444169 -0.320732,-0.264073 -0.574687,-0.596946 -0.760854,-0.995585 -0.202355,-0.434051 -0.291391,-0.862031 -0.26812,-1.28495 0.0263061,-0.42191 0.17099,-0.80436 0.43911,-1.14836 0.202355,-0.263061 0.502851,-0.486663 0.899467,-0.671818 0.517016,-0.240802 0.972314,-0.321744 1.36387,-0.240802 0.391556,0.0819537 0.719371,0.294426 0.98142,0.639441l-0.762877 0.545346c-0.15379,-0.17706 -0.340968,-0.288355 -0.557487,-0.33085 -0.217531,-0.0424945 -0.446192,-0.00708242 -0.689018,0.106236 -0.368286,0.17099 -0.605041,0.423933 -0.714312,0.757818 -0.10826,0.333885 -0.0556475,0.730501 0.158848,1.18985 0.229673,0.492734 0.512969,0.813466 0.848878,0.95815 0.333885,0.145695 0.680924,0.133554 1.03606,-0.0323768 0.176049,-0.0819537 0.336921,-0.199319 0.482616,-0.351085 0.144684,-0.150754 0.25699,-0.306567 0.338944,-0.463392l-0.246873 -0.529158 -0.96422 0.449227zm2.83499 0.514993m3.95502 -2.37666l-0.86709 0.521063 -0.882267 -0.689018 -1.57533 0.946008 0.213484 1.0917 -0.843819 0.506899 -0.83269 -4.8636 0.840784 -0.504875 3.94693 2.99181zm-2.40296 -0.677888l-1.42154 -1.13622 0.346027 1.78173 1.07552 -0.645512zm2.50819 0.677888m0.36525 -0.295438l-2.89367 -3.57257 0.722406 -0.585817 1.13825 1.40637 1.41345 -1.14432 -1.13825 -1.40637 0.721395 -0.583793 2.89367 3.57257 -0.722406 0.584805 -1.26472 -1.56218 -1.41345 1.1433 1.26573 1.56319 -0.722406 0.584805z"/>
   <path id="_41461992" class="fil6" d="M50.6858 117.72m3.67071 -1.33352l0.219555 -0.949044 2.4495 0.565581 -0.518028 2.24411c-0.291391,0.175037 -0.682947,0.298473 -1.17568,0.370309 -0.492734,0.0698124 -0.970291,0.0516005 -1.43368,-0.0546358 -0.588852,-0.136589 -1.07349,-0.378403 -1.45493,-0.725442 -0.381439,-0.349062 -0.629323,-0.778054 -0.742642,-1.289 -0.11433,-0.510946 -0.10826,-1.03606 0.0161884,-1.57533 0.135578,-0.586829 0.379415,-1.07956 0.728477,-1.48022 0.352097,-0.398639 0.792219,-0.665747 1.32239,-0.798289 0.404709,-0.104213 0.875184,-0.0930832 1.41345,0.031365 0.698124,0.160872 1.21109,0.434051 1.53688,0.816501 0.324779,0.384474 0.483628,0.847866 0.477557,1.3922l-1.1777 -0.0495769c-0.0151766,-0.294426 -0.115342,-0.548381 -0.29645,-0.759842 -0.182119,-0.209437 -0.437086,-0.353109 -0.763889,-0.42798 -0.496781,-0.115342 -0.928808,-0.0485651 -1.29507,0.198308 -0.367274,0.247885 -0.619205,0.680924 -0.762877,1.30114 -0.15379,0.667771 -0.122425,1.20401 0.098142,1.6067 0.219555,0.403698 0.57064,0.659676 1.05224,0.770971 0.237767,0.0556475 0.487675,0.06273 0.748712,0.0242826 0.260026,-0.0374356 0.492734,-0.104213 0.694077,-0.196284l0.165931 -0.715324 -1.30215 -0.300497zm2.44748 2.78642m0.586829 0.0718359l0.704194 -5.73574 2.43837 0.299485c0.613135,0.0748712 1.05123,0.182119 1.31632,0.318709 0.265085,0.136589 0.466428,0.347038 0.599982,0.631347 0.135578,0.284308 0.181107,0.594923 0.139625,0.933867 -0.0526122,0.430004 -0.223602,0.770971 -0.510946,1.02088 -0.286332,0.248896 -0.688006,0.378403 -1.19996,0.389533 0.23372,0.178072 0.420898,0.363227 0.561534,0.557487 0.14266,0.196284 0.323768,0.532193 0.544334,1.01177l0.563558 1.20603 -1.38411 -0.169978 -0.684971 -1.35173c-0.241814,-0.482616 -0.411792,-0.788172 -0.506899,-0.917679 -0.0951067,-0.129507 -0.200331,-0.22259 -0.318709,-0.282285 -0.117366,-0.0566593 -0.308591,-0.103201 -0.575699,-0.135578l-0.23372 -0.0283297 -0.294426 2.39487 -1.15848 -0.14266zm1.56521 -3.16887l0.85596 0.105224c0.555464,0.0688006 0.906549,0.0880243 1.05022,0.0586829 0.143672,-0.0303532 0.262049,-0.098142 0.354121,-0.203366 0.0930832,-0.105224 0.149742,-0.242826 0.17099,-0.415839 0.0232708,-0.193249 -0.00910596,-0.355133 -0.098142,-0.485651 -0.0870125,-0.131531 -0.223602,-0.224614 -0.408757,-0.280261 -0.0920714,-0.0232708 -0.372333,-0.0637417 -0.842807,-0.121413l-0.903514 -0.111295 -0.178072 1.45392zm3.59787 3.66262m0.586829 0.0303532l0.30252 -5.77116 4.27879 0.224614 -0.0505887 0.977373 -3.11424 -0.163907 -0.0667771 1.27989 2.89772 0.151766 -0.0516005 0.970291 -2.89772 -0.151766 -0.0819537 1.57128 3.22452 0.168966 -0.0516005 0.973326 -4.38907 -0.230684zm4.79884 0.130519m0.127483 -1.89809l1.12105 -0.209437c0.101177,0.373344 0.263061,0.640453 0.487675,0.801325 0.22259,0.157837 0.510946,0.223602 0.865066,0.193249 0.373344,-0.0333885 0.65057,-0.137601 0.825607,-0.31365 0.176049,-0.174025 0.254967,-0.368286 0.236755,-0.579746 -0.0121413,-0.137601 -0.06273,-0.248896 -0.151766,-0.335909 -0.0870125,-0.0900479 -0.23372,-0.161884 -0.440122,-0.213484 -0.138613,-0.0364238 -0.457322,-0.0920714 -0.952079,-0.17099 -0.636406,-0.0991538 -1.09069,-0.251932 -1.36084,-0.454286 -0.381439,-0.286332 -0.591888,-0.656641 -0.631347,-1.11194 -0.0263061,-0.293414 0.0323768,-0.574687 0.17706,-0.845843 0.143672,-0.26812 0.366262,-0.483628 0.666759,-0.6445 0.30252,-0.160872 0.673841,-0.260026 1.11599,-0.299485 0.723418,-0.06273 1.28091,0.0465416 1.67449,0.33085 0.392568,0.287344 0.621229,0.692053 0.684971,1.2202l-1.15747 0.151766c-0.0748712,-0.291391 -0.200331,-0.494757 -0.37638,-0.610099 -0.174025,-0.115342 -0.424945,-0.158848 -0.75276,-0.129507 -0.337932,0.0293414 -0.596946,0.121413 -0.775019,0.277226 -0.115342,0.0991538 -0.166943,0.224614 -0.15379,0.372333 0.0111295,0.137601 0.0799301,0.248896 0.203366,0.335909 0.156825,0.110283 0.525111,0.207414 1.10182,0.290379 0.577723,0.084989 1.00773,0.186166 1.29203,0.304544 0.282285,0.120401 0.511957,0.295438 0.688006,0.530169 0.174025,0.234731 0.277226,0.534216 0.308591,0.896431 0.0293414,0.329838 -0.0344003,0.648547 -0.194261,0.951067 -0.157837,0.303532 -0.398639,0.541299 -0.720383,0.709253 -0.323768,0.17099 -0.735559,0.277226 -1.23538,0.320732 -0.728477,0.0637417 -1.30114,-0.0546358 -1.72103,-0.357156 -0.418874,-0.30252 -0.6961,-0.772995 -0.826619,-1.4094zm5.25819 1.49439m0.539275 -0.11433l-1.20199 -5.65278 1.14128 -0.242826 1.20199 5.65278 -1.14128 0.242826zm1.70383 -0.289367m0.584805 -0.145695l-1.39827 -5.60826 1.13217 -0.281273 0.621229 2.48896 1.66639 -3.0596 1.52272 -0.379415 -1.56724 2.71054 3.07984 2.86838 -1.46404 0.36525 -2.19757 -2.24816 -0.685983 1.16657 0.422921 1.69472 -1.13217 0.282285z"/>
  </g>
  <path class="fil6" d="M256.626 54.2169c0.0495769,0.424945 -0.0485651,0.751748 -0.277226,0.96422 -0.228661,0.220567 -0.563558,0.326803 -0.997609,0.326803l-6.3165 0c-0.400662,0 -0.694077,-0.098142 -0.898455,-0.28532 -0.196284,-0.196284 -0.318709,-0.506899 -0.368286,-0.931843l-2.01039 -19.253 -5.31889 18.7957c-0.123436,0.449227 -0.286332,0.759842 -0.474522,0.930832 -0.196284,0.180096 -0.481604,0.262049 -0.866078,0.262049l-6.41464 0c-0.384474,0 -0.670806,-0.0819537 -0.857984,-0.245861 -0.196284,-0.17099 -0.352097,-0.489698 -0.482616,-0.94702l-5.28652 -18.7461 -2.04378 19.2035c-0.0404709,0.424945 -0.17099,0.735559 -0.375368,0.931843 -0.212472,0.187178 -0.514993,0.28532 -0.915655,0.28532l-6.29222 0c-0.433039,0 -0.759842,-0.106236 -0.996597,-0.326803 -0.228661,-0.212472 -0.318709,-0.539275 -0.270144,-0.96422l3.8498 -32.4911c0.0971303,-0.824595 0.513981,-1.24145 1.24954,-1.24145l8.11442 0c0.760854,0 1.25055,0.399651 1.45493,1.19288l6.06356 21.1157 6.05547 -21.1157c0.098142,-0.400662 0.261038,-0.695088 0.489698,-0.899467 0.228661,-0.195272 0.556475,-0.293414 0.972314,-0.293414l8.11544 0c0.734548,0 1.1433,0.416851 1.24145,1.24145l3.85688 32.4911z"/>
  <path id="1" class="fil6" d="M292.46 54.1188c0.0819537,0.204378 0.122425,0.392568 0.122425,0.54737 0,0.262049 -0.0900479,0.466428 -0.278238,0.629323 -0.179084,0.155813 -0.441133,0.236755 -0.77603,0.236755l-6.79912 0c-0.334897,0 -0.645512,-0.106236 -0.922738,-0.326803 -0.278238,-0.212472 -0.482616,-0.489698 -0.613135,-0.824595l-1.57736 -4.59244 -12.1352 0 -1.56015 4.56715c-0.0900479,0.335909 -0.286332,0.613135 -0.572664,0.825607 -0.28532,0.220567 -0.613135,0.326803 -0.980409,0.326803l-6.77484 0c-0.334897,0 -0.595935,-0.0728477 -0.77603,-0.228661 -0.18819,-0.146707 -0.277226,-0.35918 -0.277226,-0.637417 0,-0.154801 0.0404709,-0.342991 0.122425,-0.54737l12.7807 -32.4415c0.162896,-0.368286 0.383462,-0.654618 0.677888,-0.857984 0.30252,-0.212472 0.613135,-0.310614 0.948032,-0.310614l5.04976 0c0.334897,0 0.653606,0.106236 0.948032,0.318709 0.294426,0.220567 0.506899,0.497793 0.637417,0.84989l12.7564 32.4658zm-13.3119 -11.5625l-3.61203 -10.6074 -3.61203 10.6074 7.22406 0z"/>
  <path id="12" class="fil6" d="M348.273 54.2169c0.0495769,0.424945 -0.0485651,0.751748 -0.277226,0.96422 -0.228661,0.220567 -0.563558,0.326803 -0.997609,0.326803l-6.3165 0c-0.400662,0 -0.694077,-0.098142 -0.898455,-0.28532 -0.196284,-0.196284 -0.318709,-0.506899 -0.368286,-0.931843l-2.01039 -19.253 -5.31889 18.7957c-0.123436,0.449227 -0.286332,0.759842 -0.474522,0.930832 -0.196284,0.180096 -0.481604,0.262049 -0.866078,0.262049l-6.41464 0c-0.384474,0 -0.670806,-0.0819537 -0.857984,-0.245861 -0.196284,-0.17099 -0.352097,-0.489698 -0.482616,-0.94702l-5.28652 -18.7461 -2.04378 19.2035c-0.0404709,0.424945 -0.17099,0.735559 -0.375368,0.931843 -0.212472,0.187178 -0.514993,0.28532 -0.915655,0.28532l-6.29222 0c-0.433039,0 -0.759842,-0.106236 -0.996597,-0.326803 -0.228661,-0.212472 -0.318709,-0.539275 -0.270144,-0.96422l3.8498 -32.4911c0.0971303,-0.824595 0.513981,-1.24145 1.24954,-1.24145l8.11442 0c0.760854,0 1.25055,0.399651 1.45493,1.19288l6.06356 21.1157 6.05547 -21.1157c0.098142,-0.400662 0.261038,-0.695088 0.489698,-0.899467 0.228661,-0.195272 0.556475,-0.293414 0.972314,-0.293414l8.11544 0c0.734548,0 1.1433,0.416851 1.24145,1.24145l3.85688 32.4911z"/>
  <path id="123" class="fil6" d="M384.107 54.1188c0.0819537,0.204378 0.122425,0.392568 0.122425,0.54737 0,0.262049 -0.0900479,0.466428 -0.278238,0.629323 -0.179084,0.155813 -0.441133,0.236755 -0.77603,0.236755l-6.79912 0c-0.334897,0 -0.645512,-0.106236 -0.922738,-0.326803 -0.278238,-0.212472 -0.482616,-0.489698 -0.613135,-0.824595l-1.57736 -4.59244 -12.1352 0 -1.56015 4.56715c-0.0900479,0.335909 -0.286332,0.613135 -0.572664,0.825607 -0.28532,0.220567 -0.613135,0.326803 -0.980409,0.326803l-6.77484 0c-0.334897,0 -0.595935,-0.0728477 -0.77603,-0.228661 -0.18819,-0.146707 -0.277226,-0.35918 -0.277226,-0.637417 0,-0.154801 0.0404709,-0.342991 0.122425,-0.54737l12.7807 -32.4415c0.162896,-0.368286 0.383462,-0.654618 0.677888,-0.857984 0.30252,-0.212472 0.613135,-0.310614 0.948032,-0.310614l5.04976 0c0.334897,0 0.653606,0.106236 0.948032,0.318709 0.294426,0.220567 0.506899,0.497793 0.637417,0.84989l12.7564 32.4658zm-13.3119 -11.5625l-3.61203 -10.6074 -3.61203 10.6074 7.22406 0z"/>
  <path id="1234" class="fil6" d="M386.885 23.5733c0,-0.735559 0.180096,-1.40637 0.531181,-2.0023 0.352097,-0.596946 0.825607,-1.07046 1.43874,-1.42255 0.604029,-0.351085 1.28293,-0.530169 2.03468,-0.530169 0.77603,0 1.4954,0.220567 2.14901,0.6617 0.653606,0.441133 1.17669,1.03707 1.56117,1.79792 0.383462,0.751748 0.571652,1.59354 0.571652,2.52438 0,1.59354 -0.204378,2.9989 -0.621229,4.22517 -0.416851,1.21716 -1.07855,2.54967 -1.9851,3.9874 -0.098142,0.139625 -0.220567,0.253955 -0.37638,0.334897 -0.146707,0.0738595 -0.310614,0.115342 -0.49071,0.115342 -0.17099,0 -0.342991,-0.0495769 -0.497793,-0.139625l-1.92035 -0.980409c-0.220567,-0.130519 -0.334897,-0.342991 -0.334897,-0.653606 0,-0.252943 0.0890361,-0.531181 0.269132,-0.833701 0.0576711,-0.11433 0.236755,-0.408757 0.531181,-0.898455 0.30252,-0.49071 0.523087,-0.907561 0.686994,-1.26674 0.154801,-0.360191 0.236755,-0.629323 0.236755,-0.801325 0,-0.179084 -0.0414827,-0.318709 -0.11433,-0.433039 -0.098142,0.0495769 -0.278238,0.0738595 -0.531181,0.0738595 -0.572664,0 -1.10385,-0.172002 -1.57736,-0.506899 -0.482616,-0.334897 -0.857984,-0.792219 -1.13622,-1.36488 -0.28532,-0.571652 -0.424945,-1.20098 -0.424945,-1.88696z"/>
  <path id="12345" class="fil6" d="M431.724 54.1188c0.0819537,0.204378 0.122425,0.392568 0.122425,0.54737 0,0.262049 -0.0900479,0.466428 -0.278238,0.629323 -0.179084,0.155813 -0.441133,0.236755 -0.77603,0.236755l-6.79912 0c-0.334897,0 -0.645512,-0.106236 -0.922738,-0.326803 -0.278238,-0.212472 -0.482616,-0.489698 -0.613135,-0.824595l-1.57736 -4.59244 -12.1352 0 -1.56015 4.56715c-0.0900479,0.335909 -0.286332,0.613135 -0.572664,0.825607 -0.28532,0.220567 -0.613135,0.326803 -0.980409,0.326803l-6.77484 0c-0.334897,0 -0.595935,-0.0728477 -0.77603,-0.228661 -0.18819,-0.146707 -0.277226,-0.35918 -0.277226,-0.637417 0,-0.154801 0.0404709,-0.342991 0.122425,-0.54737l12.7807 -32.4415c0.162896,-0.368286 0.383462,-0.654618 0.677888,-0.857984 0.30252,-0.212472 0.613135,-0.310614 0.948032,-0.310614l5.04976 0c0.334897,0 0.653606,0.106236 0.948032,0.318709 0.294426,0.220567 0.506899,0.497793 0.637417,0.84989l12.7564 32.4658zm-13.3119 -11.5625l-3.61203 -10.6074 -3.61203 10.6074 7.22406 0z"/>
  <path id="123456" class="fil6" d="M461.968 54.0459c0.0900479,0.162896 0.138613,0.334897 0.138613,0.530169 0,0.253955 -0.0809419,0.474522 -0.261038,0.654618 -0.172002,0.187178 -0.408757,0.277226 -0.695088,0.277226l-7.1583 0c-0.351085,0 -0.629323,-0.0728477 -0.825607,-0.228661 -0.195272,-0.146707 -0.407745,-0.433039 -0.637417,-0.84989l-5.12362 -9.86277 -3.56245 0 0 9.67458c0,0.392568 -0.11433,0.711277 -0.351085,0.931843 -0.229673,0.220567 -0.54737,0.334897 -0.96422,0.334897l-6.12932 0c-0.400662,0 -0.711277,-0.11433 -0.923749,-0.334897 -0.212472,-0.220567 -0.326803,-0.539275 -0.326803,-0.931843l0 -32.4658c0,-0.368286 0.123436,-0.670806 0.352097,-0.907561 0.228661,-0.244849 0.531181,-0.35918 0.898455,-0.35918l1.57736 0 4.62482 0 6.07975 0c2.45153,0 4.63392,0.498804 6.53808,1.4954 1.89505,0.996597 3.37426,2.41106 4.43663,4.24945 1.06236,1.8303 1.59354,3.96312 1.59354,6.39036 0,2.18948 -0.47351,4.15131 -1.42964,5.89156 -0.948032,1.74025 -2.27143,3.12132 -3.98032,4.14321l6.12932 11.3673zm-18.1249 -16.9735l4.47811 0c0.809419,0 1.54397,-0.196284 2.19049,-0.595935 0.645512,-0.400662 1.1514,-0.939938 1.51968,-1.62693 0.367274,-0.685983 0.54737,-1.43773 0.54737,-2.25524 0,-0.808407 -0.180096,-1.54397 -0.54737,-2.18948 -0.368286,-0.645512 -0.874172,-1.14432 -1.51968,-1.5035 -0.646523,-0.360191 -1.38107,-0.539275 -2.19049,-0.539275l-4.47811 0 0 8.71036z"/>
  <path id="1234567" class="fil6" d="M475.059 54.5518c0,0.621229 -0.30252,0.931843 -0.907561,0.931843l-6.8234 0c-0.30252,0 -0.539275,-0.0819537 -0.694077,-0.236755 -0.163907,-0.163907 -0.245861,-0.392568 -0.245861,-0.695088l0 -33.1113c0,-0.605041 0.318709,-0.907561 0.939938,-0.907561l6.8234 0c0.605041,0 0.907561,0.30252 0.907561,0.907561l0 33.1113z"/>
  <path id="12345678" class="fil6" d="M480.917 21.7754c0,-0.416851 0.11433,-0.727465 0.335909,-0.948032 0.228661,-0.212472 0.539275,-0.318709 0.938926,-0.318709l21.6884 0c0.416851,0 0.735559,0.106236 0.956126,0.334897 0.228661,0.220567 0.334897,0.531181 0.334897,0.931843l0 5.60523c0,0.392568 -0.106236,0.703183 -0.334897,0.931843 -0.220567,0.220567 -0.539275,0.334897 -0.956126,0.334897l-14.2437 0 0 7.77953 11.0567 0c0.416851,0 0.735559,0.11433 0.96422,0.334897 0.220567,0.220567 0.334897,0.531181 0.334897,0.931843l0 4.55197c0,0.400662 -0.11433,0.710265 -0.334897,0.931843 -0.228661,0.220567 -0.54737,0.334897 -0.96422,0.334897l-11.0567 0 0 10.7046c0,0.400662 -0.11433,0.711277 -0.334897,0.931843 -0.228661,0.220567 -0.539275,0.334897 -0.931843,0.334897l-6.17789 0c-0.399651,0 -0.710265,-0.11433 -0.938926,-0.334897 -0.221578,-0.220567 -0.335909,-0.531181 -0.335909,-0.931843l0 -32.4415z"/>
  <path id="123456789" class="fil6" d="M203.559 105.8c0.0495769,0.424945 -0.0485651,0.751748 -0.277226,0.96422 -0.228661,0.220567 -0.563558,0.326803 -0.997609,0.326803l-6.3165 0c-0.400662,0 -0.694077,-0.098142 -0.898455,-0.28532 -0.196284,-0.196284 -0.318709,-0.506899 -0.368286,-0.931843l-2.01039 -19.253 -5.31889 18.7957c-0.123436,0.449227 -0.286332,0.759842 -0.474522,0.930832 -0.196284,0.180096 -0.481604,0.262049 -0.866078,0.262049l-6.41464 0c-0.384474,0 -0.670806,-0.0819537 -0.857984,-0.245861 -0.196284,-0.17099 -0.352097,-0.489698 -0.482616,-0.94702l-5.28652 -18.7461 -2.04378 19.2035c-0.0404709,0.424945 -0.17099,0.735559 -0.375368,0.931843 -0.212472,0.187178 -0.514993,0.28532 -0.915655,0.28532l-6.29222 0c-0.433039,0 -0.759842,-0.106236 -0.996597,-0.326803 -0.228661,-0.212472 -0.318709,-0.539275 -0.270144,-0.96422l3.8498 -32.4911c0.0971303,-0.824595 0.513981,-1.24145 1.24954,-1.24145l8.11442 0c0.760854,0 1.25055,0.399651 1.45493,1.19288l6.06356 21.1157 6.05547 -21.1157c0.098142,-0.400662 0.261038,-0.695088 0.489698,-0.899467 0.228661,-0.195272 0.556475,-0.293414 0.972314,-0.293414l8.11544 0c0.734548,0 1.1433,0.416851 1.24145,1.24145l3.85688 32.4911z"/>
  <path id="12345678910" class="fil6" d="M216.675 106.135c0,0.621229 -0.30252,0.931843 -0.907561,0.931843l-6.8234 0c-0.30252,0 -0.539275,-0.0819537 -0.694077,-0.236755 -0.163907,-0.163907 -0.245861,-0.392568 -0.245861,-0.695088l0 -33.1113c0,-0.605041 0.318709,-0.907561 0.939938,-0.907561l6.8234 0c0.605041,0 0.907561,0.30252 0.907561,0.907561l0 33.1113z"/>
  <path id="1234567891011" class="fil6" d="M222.534 73.3586c0,-0.416851 0.11433,-0.727465 0.335909,-0.948032 0.228661,-0.212472 0.539275,-0.318709 0.938926,-0.318709l21.6884 0c0.416851,0 0.735559,0.106236 0.956126,0.334897 0.228661,0.220567 0.334897,0.531181 0.334897,0.931843l0 5.60523c0,0.392568 -0.106236,0.703183 -0.334897,0.931843 -0.220567,0.220567 -0.539275,0.334897 -0.956126,0.334897l-14.2437 0 0 7.77953 11.0567 0c0.416851,0 0.735559,0.11433 0.96422,0.334897 0.220567,0.220567 0.334897,0.531181 0.334897,0.931843l0 4.55197c0,0.400662 -0.11433,0.710265 -0.334897,0.931843 -0.228661,0.220567 -0.54737,0.334897 -0.96422,0.334897l-11.0567 0 0 10.7046c0,0.400662 -0.11433,0.711277 -0.334897,0.931843 -0.228661,0.220567 -0.539275,0.334897 -0.931843,0.334897l-6.17789 0c-0.399651,0 -0.710265,-0.11433 -0.938926,-0.334897 -0.221578,-0.220567 -0.335909,-0.531181 -0.335909,-0.931843l0 -32.4415z"/>
  <path id="123456789101112" class="fil6" d="M248.969 73.3586c0,-0.400662 0.106236,-0.711277 0.334897,-0.931843 0.221578,-0.228661 0.531181,-0.334897 0.931843,-0.334897l23.3629 0c0.400662,0 0.711277,0.106236 0.939938,0.334897 0.220567,0.220567 0.334897,0.531181 0.334897,0.931843l0 5.76913c0,0.400662 -0.11433,0.711277 -0.334897,0.948032 -0.228661,0.228661 -0.539275,0.342991 -0.939938,0.342991l-7.34649 0 0 25.692c0,0.416851 -0.11433,0.727465 -0.334897,0.948032 -0.220567,0.212472 -0.539275,0.318709 -0.956126,0.318709l-6.12831 0c-0.400662,0 -0.711277,-0.11433 -0.931843,-0.334897 -0.228661,-0.220567 -0.334897,-0.531181 -0.334897,-0.931843l0 -25.692 -7.3303 0c-0.400662,0 -0.710265,-0.11433 -0.931843,-0.342991 -0.228661,-0.236755 -0.334897,-0.54737 -0.334897,-0.948032l0 -5.76913z"/>
  <path id="12345678910111213" class="fil6" d="M310.275 105.702c0.0819537,0.204378 0.122425,0.392568 0.122425,0.54737 0,0.262049 -0.0900479,0.466428 -0.278238,0.629323 -0.179084,0.155813 -0.441133,0.236755 -0.77603,0.236755l-6.79912 0c-0.334897,0 -0.645512,-0.106236 -0.922738,-0.326803 -0.278238,-0.212472 -0.482616,-0.489698 -0.613135,-0.824595l-1.57736 -4.59244 -12.1352 0 -1.56015 4.56715c-0.0900479,0.335909 -0.286332,0.613135 -0.572664,0.825607 -0.28532,0.220567 -0.613135,0.326803 -0.980409,0.326803l-6.77484 0c-0.334897,0 -0.595935,-0.0728477 -0.77603,-0.228661 -0.18819,-0.146707 -0.277226,-0.35918 -0.277226,-0.637417 0,-0.154801 0.0404709,-0.342991 0.122425,-0.54737l12.7807 -32.4415c0.162896,-0.368286 0.383462,-0.654618 0.677888,-0.857984 0.30252,-0.212472 0.613135,-0.310614 0.948032,-0.310614l5.04976 0c0.334897,0 0.653606,0.106236 0.948032,0.318709 0.294426,0.220567 0.506899,0.497793 0.637417,0.84989l12.7564 32.4658zm-13.3119 -11.5625l-3.61203 -10.6074 -3.61203 10.6074 7.22406 0z"/>
  <path id="1234567891011121314" class="fil6" d="M343.076 72.0919c0.286332,0 0.514993,0.0738595 0.669794,0.236755 0.163907,0.163907 0.236755,0.392568 0.236755,0.695088l0 33.1356c0,0.30252 -0.0728477,0.531181 -0.236755,0.695088 -0.154801,0.154801 -0.383462,0.236755 -0.669794,0.236755l-6.77484 0c-0.28532,0 -0.505887,-0.0819537 -0.669794,-0.236755 -0.162896,-0.163907 -0.236755,-0.392568 -0.236755,-0.695088l0 -13.1723 -13.0994 0 0 13.1723c0,0.30252 -0.0819537,0.531181 -0.236755,0.695088 -0.163907,0.154801 -0.384474,0.236755 -0.669794,0.236755l-6.75055 0c-0.28532,0 -0.514993,-0.0819537 -0.685983,-0.236755 -0.163907,-0.163907 -0.253955,-0.392568 -0.253955,-0.695088l0 -33.1356c0,-0.30252 0.0900479,-0.531181 0.253955,-0.695088 0.17099,-0.162896 0.400662,-0.236755 0.685983,-0.236755l6.75055 0c0.28532,0 0.505887,0.0738595 0.669794,0.236755 0.154801,0.163907 0.236755,0.392568 0.236755,0.695088l0 12.0856 13.0994 0 0 -12.0856c0,-0.30252 0.0738595,-0.531181 0.236755,-0.695088 0.163907,-0.162896 0.384474,-0.236755 0.669794,-0.236755l6.77484 0z"/>
  <path id="123456789101112131415" class="fil6" d="M357.638 92.6279c0,2.02658 0.498804,3.6606 1.4954,4.88585 0.997609,1.22627 2.49301,1.8475 4.48722,1.8475 1.97701,0 3.46431,-0.621229 4.45282,-1.8475 0.989515,-1.22526 1.48731,-2.85927 1.48731,-4.88585l0 -19.5556c0,-0.30252 0.0819537,-0.54737 0.262049,-0.719371 0.17099,-0.179084 0.416851,-0.261038 0.718359,-0.261038l6.62813 0c0.318709,0 0.579746,0.0819537 0.767936,0.261038 0.18819,0.172002 0.286332,0.416851 0.286332,0.719371l0 19.5141c0,3.20328 -0.572664,5.94923 -1.72507,8.22875 -1.1433,2.28863 -2.8188,4.02888 -5.0012,5.22176 -2.18948,1.20199 -4.81301,1.79792 -7.87666,1.79792 -4.80592,0 -8.45033,-1.3234 -10.9261,-3.96312 -2.4839,-2.63972 -3.72636,-6.41464 -3.72636,-11.3096l0 -19.4898c0,-0.30252 0.0819537,-0.54737 0.236755,-0.719371 0.163907,-0.179084 0.37638,-0.261038 0.645512,-0.261038l6.87298 0c0.286332,0 0.514993,0.0819537 0.669794,0.261038 0.163907,0.172002 0.244849,0.416851 0.244849,0.719371l0 19.5556z"/>
  <path id="12345678910111213141516" class="fil6" d="M405.541 98.83c0.30252,0 0.531181,0.0809419 0.694077,0.236755 0.155813,0.162896 0.237767,0.384474 0.237767,0.677888l0 6.41464c0,0.286332 -0.0819537,0.506899 -0.237767,0.670806 -0.162896,0.154801 -0.391556,0.236755 -0.694077,0.236755l-21.402 0c-0.28532,0 -0.514993,-0.0819537 -0.685983,-0.236755 -0.163907,-0.163907 -0.253955,-0.384474 -0.253955,-0.670806l0 -33.1356c0,-0.30252 0.0900479,-0.531181 0.253955,-0.695088 0.17099,-0.162896 0.400662,-0.236755 0.685983,-0.236755l6.8234 0c0.286332,0 0.514993,0.0738595 0.6789,0.236755 0.17099,0.163907 0.252943,0.392568 0.252943,0.695088l0 25.8063 13.6468 0z"/>
  <path id="1234567891011121314151617" class="fil6" d="M431.044 92.6279c0,2.02658 0.498804,3.6606 1.4954,4.88585 0.997609,1.22627 2.49301,1.8475 4.48722,1.8475 1.97701,0 3.46431,-0.621229 4.45282,-1.8475 0.989515,-1.22526 1.48731,-2.85927 1.48731,-4.88585l0 -19.5556c0,-0.30252 0.0819537,-0.54737 0.262049,-0.719371 0.17099,-0.179084 0.416851,-0.261038 0.718359,-0.261038l6.62813 0c0.318709,0 0.579746,0.0819537 0.767936,0.261038 0.18819,0.172002 0.286332,0.416851 0.286332,0.719371l0 19.5141c0,3.20328 -0.572664,5.94923 -1.72507,8.22875 -1.1433,2.28863 -2.8188,4.02888 -5.0012,5.22176 -2.18948,1.20199 -4.81301,1.79792 -7.87666,1.79792 -4.80592,0 -8.45033,-1.3234 -10.9261,-3.96312 -2.4839,-2.63972 -3.72636,-6.41464 -3.72636,-11.3096l0 -19.4898c0,-0.30252 0.0819537,-0.54737 0.236755,-0.719371 0.163907,-0.179084 0.37638,-0.261038 0.645512,-0.261038l6.87298 0c0.286332,0 0.514993,0.0819537 0.669794,0.261038 0.163907,0.172002 0.244849,0.416851 0.244849,0.719371l0 19.5556z"/>
  <path id="123456789101112131415161718" class="fil6" d="M478.947 98.83c0.30252,0 0.531181,0.0809419 0.694077,0.236755 0.155813,0.162896 0.237767,0.384474 0.237767,0.677888l0 6.41464c0,0.286332 -0.0819537,0.506899 -0.237767,0.670806 -0.162896,0.154801 -0.391556,0.236755 -0.694077,0.236755l-21.402 0c-0.28532,0 -0.514993,-0.0819537 -0.685983,-0.236755 -0.163907,-0.163907 -0.253955,-0.384474 -0.253955,-0.670806l0 -33.1356c0,-0.30252 0.0900479,-0.531181 0.253955,-0.695088 0.17099,-0.162896 0.400662,-0.236755 0.685983,-0.236755l6.8234 0c0.286332,0 0.514993,0.0738595 0.6789,0.236755 0.17099,0.163907 0.252943,0.392568 0.252943,0.695088l0 25.8063 13.6468 0z"/>
  <path id="12345678910111213141516171819" class="fil6" d="M492.144 92.6279c0,2.02658 0.498804,3.6606 1.4954,4.88585 0.997609,1.22627 2.49301,1.8475 4.48722,1.8475 1.97701,0 3.46431,-0.621229 4.45282,-1.8475 0.989515,-1.22526 1.48731,-2.85927 1.48731,-4.88585l0 -19.5556c0,-0.30252 0.0819537,-0.54737 0.262049,-0.719371 0.17099,-0.179084 0.416851,-0.261038 0.718359,-0.261038l6.62813 0c0.318709,0 0.579746,0.0819537 0.767936,0.261038 0.18819,0.172002 0.286332,0.416851 0.286332,0.719371l0 19.5141c0,3.20328 -0.572664,5.94923 -1.72507,8.22875 -1.1433,2.28863 -2.8188,4.02888 -5.0012,5.22176 -2.18948,1.20199 -4.81301,1.79792 -7.87666,1.79792 -4.80592,0 -8.45033,-1.3234 -10.9261,-3.96312 -2.4839,-2.63972 -3.72636,-6.41464 -3.72636,-11.3096l0 -19.4898c0,-0.30252 0.0819537,-0.54737 0.236755,-0.719371 0.163907,-0.179084 0.37638,-0.261038 0.645512,-0.261038l6.87298 0c0.286332,0 0.514993,0.0819537 0.669794,0.261038 0.163907,0.172002 0.244849,0.416851 0.244849,0.719371l0 19.5556z"/>
  <path id="1234567891011121314151617181920" class="fil6" d="M557.788 105.8c0.0495769,0.424945 -0.0485651,0.751748 -0.277226,0.96422 -0.228661,0.220567 -0.563558,0.326803 -0.997609,0.326803l-6.3165 0c-0.400662,0 -0.694077,-0.098142 -0.898455,-0.28532 -0.196284,-0.196284 -0.318709,-0.506899 -0.368286,-0.931843l-2.01039 -19.253 -5.31889 18.7957c-0.123436,0.449227 -0.286332,0.759842 -0.474522,0.930832 -0.196284,0.180096 -0.481604,0.262049 -0.866078,0.262049l-6.41464 0c-0.384474,0 -0.670806,-0.0819537 -0.857984,-0.245861 -0.196284,-0.17099 -0.352097,-0.489698 -0.482616,-0.94702l-5.28652 -18.7461 -2.04378 19.2035c-0.0404709,0.424945 -0.17099,0.735559 -0.375368,0.931843 -0.212472,0.187178 -0.514993,0.28532 -0.915655,0.28532l-6.29222 0c-0.433039,0 -0.759842,-0.106236 -0.996597,-0.326803 -0.228661,-0.212472 -0.318709,-0.539275 -0.270144,-0.96422l3.8498 -32.4911c0.0971303,-0.824595 0.513981,-1.24145 1.24954,-1.24145l8.11442 0c0.760854,0 1.25055,0.399651 1.45493,1.19288l6.06356 21.1157 6.05547 -21.1157c0.098142,-0.400662 0.261038,-0.695088 0.489698,-0.899467 0.228661,-0.195272 0.556475,-0.293414 0.972314,-0.293414l8.11544 0c0.734548,0 1.1433,0.416851 1.24145,1.24145l3.85688 32.4911z"/>
  <path id="123456789101112131415161718192021" class="fil7 str2" d="M256.626 54.2169c0.0495769,0.424945 -0.0485651,0.751748 -0.277226,0.96422 -0.228661,0.220567 -0.563558,0.326803 -0.997609,0.326803l-6.3165 0c-0.400662,0 -0.694077,-0.098142 -0.898455,-0.28532 -0.196284,-0.196284 -0.318709,-0.506899 -0.368286,-0.931843l-2.01039 -19.253 -5.31889 18.7957c-0.123436,0.449227 -0.286332,0.759842 -0.474522,0.930832 -0.196284,0.180096 -0.481604,0.262049 -0.866078,0.262049l-6.41464 0c-0.384474,0 -0.670806,-0.0819537 -0.857984,-0.245861 -0.196284,-0.17099 -0.352097,-0.489698 -0.482616,-0.94702l-5.28652 -18.7461 -2.04378 19.2035c-0.0404709,0.424945 -0.17099,0.735559 -0.375368,0.931843 -0.212472,0.187178 -0.514993,0.28532 -0.915655,0.28532l-6.29222 0c-0.433039,0 -0.759842,-0.106236 -0.996597,-0.326803 -0.228661,-0.212472 -0.318709,-0.539275 -0.270144,-0.96422l3.8498 -32.4911c0.0971303,-0.824595 0.513981,-1.24145 1.24954,-1.24145l8.11442 0c0.760854,0 1.25055,0.399651 1.45493,1.19288l6.06356 21.1157 6.05547 -21.1157c0.098142,-0.400662 0.261038,-0.695088 0.489698,-0.899467 0.228661,-0.195272 0.556475,-0.293414 0.972314,-0.293414l8.11544 0c0.734548,0 1.1433,0.416851 1.24145,1.24145l3.85688 32.4911z"/>
  <path id="12345678910111213141516171819202122" class="fil7 str2" d="M292.46 54.1188c0.0819537,0.204378 0.122425,0.392568 0.122425,0.54737 0,0.262049 -0.0900479,0.466428 -0.278238,0.629323 -0.179084,0.155813 -0.441133,0.236755 -0.77603,0.236755l-6.79912 0c-0.334897,0 -0.645512,-0.106236 -0.922738,-0.326803 -0.278238,-0.212472 -0.482616,-0.489698 -0.613135,-0.824595l-1.57736 -4.59244 -12.1352 0 -1.56015 4.56715c-0.0900479,0.335909 -0.286332,0.613135 -0.572664,0.825607 -0.28532,0.220567 -0.613135,0.326803 -0.980409,0.326803l-6.77484 0c-0.334897,0 -0.595935,-0.0728477 -0.77603,-0.228661 -0.18819,-0.146707 -0.277226,-0.35918 -0.277226,-0.637417 0,-0.154801 0.0404709,-0.342991 0.122425,-0.54737l12.7807 -32.4415c0.162896,-0.368286 0.383462,-0.654618 0.677888,-0.857984 0.30252,-0.212472 0.613135,-0.310614 0.948032,-0.310614l5.04976 0c0.334897,0 0.653606,0.106236 0.948032,0.318709 0.294426,0.220567 0.506899,0.497793 0.637417,0.84989l12.7564 32.4658zm-13.3119 -11.5625l-3.61203 -10.6074 -3.61203 10.6074 7.22406 0z"/>
  <path id="1234567891011121314151617181920212223" class="fil7 str2" d="M348.273 54.2169c0.0495769,0.424945 -0.0485651,0.751748 -0.277226,0.96422 -0.228661,0.220567 -0.563558,0.326803 -0.997609,0.326803l-6.3165 0c-0.400662,0 -0.694077,-0.098142 -0.898455,-0.28532 -0.196284,-0.196284 -0.318709,-0.506899 -0.368286,-0.931843l-2.01039 -19.253 -5.31889 18.7957c-0.123436,0.449227 -0.286332,0.759842 -0.474522,0.930832 -0.196284,0.180096 -0.481604,0.262049 -0.866078,0.262049l-6.41464 0c-0.384474,0 -0.670806,-0.0819537 -0.857984,-0.245861 -0.196284,-0.17099 -0.352097,-0.489698 -0.482616,-0.94702l-5.28652 -18.7461 -2.04378 19.2035c-0.0404709,0.424945 -0.17099,0.735559 -0.375368,0.931843 -0.212472,0.187178 -0.514993,0.28532 -0.915655,0.28532l-6.29222 0c-0.433039,0 -0.759842,-0.106236 -0.996597,-0.326803 -0.228661,-0.212472 -0.318709,-0.539275 -0.270144,-0.96422l3.8498 -32.4911c0.0971303,-0.824595 0.513981,-1.24145 1.24954,-1.24145l8.11442 0c0.760854,0 1.25055,0.399651 1.45493,1.19288l6.06356 21.1157 6.05547 -21.1157c0.098142,-0.400662 0.261038,-0.695088 0.489698,-0.899467 0.228661,-0.195272 0.556475,-0.293414 0.972314,-0.293414l8.11544 0c0.734548,0 1.1433,0.416851 1.24145,1.24145l3.85688 32.4911z"/>
  <path id="123456789101112131415161718192021222324" class="fil7 str2" d="M384.107 54.1188c0.0819537,0.204378 0.122425,0.392568 0.122425,0.54737 0,0.262049 -0.0900479,0.466428 -0.278238,0.629323 -0.179084,0.155813 -0.441133,0.236755 -0.77603,0.236755l-6.79912 0c-0.334897,0 -0.645512,-0.106236 -0.922738,-0.326803 -0.278238,-0.212472 -0.482616,-0.489698 -0.613135,-0.824595l-1.57736 -4.59244 -12.1352 0 -1.56015 4.56715c-0.0900479,0.335909 -0.286332,0.613135 -0.572664,0.825607 -0.28532,0.220567 -0.613135,0.326803 -0.980409,0.326803l-6.77484 0c-0.334897,0 -0.595935,-0.0728477 -0.77603,-0.228661 -0.18819,-0.146707 -0.277226,-0.35918 -0.277226,-0.637417 0,-0.154801 0.0404709,-0.342991 0.122425,-0.54737l12.7807 -32.4415c0.162896,-0.368286 0.383462,-0.654618 0.677888,-0.857984 0.30252,-0.212472 0.613135,-0.310614 0.948032,-0.310614l5.04976 0c0.334897,0 0.653606,0.106236 0.948032,0.318709 0.294426,0.220567 0.506899,0.497793 0.637417,0.84989l12.7564 32.4658zm-13.3119 -11.5625l-3.61203 -10.6074 -3.61203 10.6074 7.22406 0z"/>
  <path id="12345678910111213141516171819202122232425" class="fil7 str2" d="M386.885 23.5733c0,-0.735559 0.180096,-1.40637 0.531181,-2.0023 0.352097,-0.596946 0.825607,-1.07046 1.43874,-1.42255 0.604029,-0.351085 1.28293,-0.530169 2.03468,-0.530169 0.77603,0 1.4954,0.220567 2.14901,0.6617 0.653606,0.441133 1.17669,1.03707 1.56117,1.79792 0.383462,0.751748 0.571652,1.59354 0.571652,2.52438 0,1.59354 -0.204378,2.9989 -0.621229,4.22517 -0.416851,1.21716 -1.07855,2.54967 -1.9851,3.9874 -0.098142,0.139625 -0.220567,0.253955 -0.37638,0.334897 -0.146707,0.0738595 -0.310614,0.115342 -0.49071,0.115342 -0.17099,0 -0.342991,-0.0495769 -0.497793,-0.139625l-1.92035 -0.980409c-0.220567,-0.130519 -0.334897,-0.342991 -0.334897,-0.653606 0,-0.252943 0.0890361,-0.531181 0.269132,-0.833701 0.0576711,-0.11433 0.236755,-0.408757 0.531181,-0.898455 0.30252,-0.49071 0.523087,-0.907561 0.686994,-1.26674 0.154801,-0.360191 0.236755,-0.629323 0.236755,-0.801325 0,-0.179084 -0.0414827,-0.318709 -0.11433,-0.433039 -0.098142,0.0495769 -0.278238,0.0738595 -0.531181,0.0738595 -0.572664,0 -1.10385,-0.172002 -1.57736,-0.506899 -0.482616,-0.334897 -0.857984,-0.792219 -1.13622,-1.36488 -0.28532,-0.571652 -0.424945,-1.20098 -0.424945,-1.88696z"/>
  <path id="1234567891011121314151617181920212223242526" class="fil7 str2" d="M431.724 54.1188c0.0819537,0.204378 0.122425,0.392568 0.122425,0.54737 0,0.262049 -0.0900479,0.466428 -0.278238,0.629323 -0.179084,0.155813 -0.441133,0.236755 -0.77603,0.236755l-6.79912 0c-0.334897,0 -0.645512,-0.106236 -0.922738,-0.326803 -0.278238,-0.212472 -0.482616,-0.489698 -0.613135,-0.824595l-1.57736 -4.59244 -12.1352 0 -1.56015 4.56715c-0.0900479,0.335909 -0.286332,0.613135 -0.572664,0.825607 -0.28532,0.220567 -0.613135,0.326803 -0.980409,0.326803l-6.77484 0c-0.334897,0 -0.595935,-0.0728477 -0.77603,-0.228661 -0.18819,-0.146707 -0.277226,-0.35918 -0.277226,-0.637417 0,-0.154801 0.0404709,-0.342991 0.122425,-0.54737l12.7807 -32.4415c0.162896,-0.368286 0.383462,-0.654618 0.677888,-0.857984 0.30252,-0.212472 0.613135,-0.310614 0.948032,-0.310614l5.04976 0c0.334897,0 0.653606,0.106236 0.948032,0.318709 0.294426,0.220567 0.506899,0.497793 0.637417,0.84989l12.7564 32.4658zm-13.3119 -11.5625l-3.61203 -10.6074 -3.61203 10.6074 7.22406 0z"/>
  <path id="123456789101112131415161718192021222324252627" class="fil7 str2" d="M461.968 54.0459c0.0900479,0.162896 0.138613,0.334897 0.138613,0.530169 0,0.253955 -0.0809419,0.474522 -0.261038,0.654618 -0.172002,0.187178 -0.408757,0.277226 -0.695088,0.277226l-7.1583 0c-0.351085,0 -0.629323,-0.0728477 -0.825607,-0.228661 -0.195272,-0.146707 -0.407745,-0.433039 -0.637417,-0.84989l-5.12362 -9.86277 -3.56245 0 0 9.67458c0,0.392568 -0.11433,0.711277 -0.351085,0.931843 -0.229673,0.220567 -0.54737,0.334897 -0.96422,0.334897l-6.12932 0c-0.400662,0 -0.711277,-0.11433 -0.923749,-0.334897 -0.212472,-0.220567 -0.326803,-0.539275 -0.326803,-0.931843l0 -32.4658c0,-0.368286 0.123436,-0.670806 0.352097,-0.907561 0.228661,-0.244849 0.531181,-0.35918 0.898455,-0.35918l1.57736 0 4.62482 0 6.07975 0c2.45153,0 4.63392,0.498804 6.53808,1.4954 1.89505,0.996597 3.37426,2.41106 4.43663,4.24945 1.06236,1.8303 1.59354,3.96312 1.59354,6.39036 0,2.18948 -0.47351,4.15131 -1.42964,5.89156 -0.948032,1.74025 -2.27143,3.12132 -3.98032,4.14321l6.12932 11.3673zm-18.1249 -16.9735l4.47811 0c0.809419,0 1.54397,-0.196284 2.19049,-0.595935 0.645512,-0.400662 1.1514,-0.939938 1.51968,-1.62693 0.367274,-0.685983 0.54737,-1.43773 0.54737,-2.25524 0,-0.808407 -0.180096,-1.54397 -0.54737,-2.18948 -0.368286,-0.645512 -0.874172,-1.14432 -1.51968,-1.5035 -0.646523,-0.360191 -1.38107,-0.539275 -2.19049,-0.539275l-4.47811 0 0 8.71036z"/>
  <path id="12345678910111213141516171819202122232425262728" class="fil7 str2" d="M475.059 54.5518c0,0.621229 -0.30252,0.931843 -0.907561,0.931843l-6.8234 0c-0.30252,0 -0.539275,-0.0819537 -0.694077,-0.236755 -0.163907,-0.163907 -0.245861,-0.392568 -0.245861,-0.695088l0 -33.1113c0,-0.605041 0.318709,-0.907561 0.939938,-0.907561l6.8234 0c0.605041,0 0.907561,0.30252 0.907561,0.907561l0 33.1113z"/>
  <path id="1234567891011121314151617181920212223242526272829" class="fil7 str2" d="M480.917 21.7754c0,-0.416851 0.11433,-0.727465 0.335909,-0.948032 0.228661,-0.212472 0.539275,-0.318709 0.938926,-0.318709l21.6884 0c0.416851,0 0.735559,0.106236 0.956126,0.334897 0.228661,0.220567 0.334897,0.531181 0.334897,0.931843l0 5.60523c0,0.392568 -0.106236,0.703183 -0.334897,0.931843 -0.220567,0.220567 -0.539275,0.334897 -0.956126,0.334897l-14.2437 0 0 7.77953 11.0567 0c0.416851,0 0.735559,0.11433 0.96422,0.334897 0.220567,0.220567 0.334897,0.531181 0.334897,0.931843l0 4.55197c0,0.400662 -0.11433,0.710265 -0.334897,0.931843 -0.228661,0.220567 -0.54737,0.334897 -0.96422,0.334897l-11.0567 0 0 10.7046c0,0.400662 -0.11433,0.711277 -0.334897,0.931843 -0.228661,0.220567 -0.539275,0.334897 -0.931843,0.334897l-6.17789 0c-0.399651,0 -0.710265,-0.11433 -0.938926,-0.334897 -0.221578,-0.220567 -0.335909,-0.531181 -0.335909,-0.931843l0 -32.4415z"/>
  <path id="123456789101112131415161718192021222324252627282930" class="fil7 str2" d="M203.559 105.8c0.0495769,0.424945 -0.0485651,0.751748 -0.277226,0.96422 -0.228661,0.220567 -0.563558,0.326803 -0.997609,0.326803l-6.3165 0c-0.400662,0 -0.694077,-0.098142 -0.898455,-0.28532 -0.196284,-0.196284 -0.318709,-0.506899 -0.368286,-0.931843l-2.01039 -19.253 -5.31889 18.7957c-0.123436,0.449227 -0.286332,0.759842 -0.474522,0.930832 -0.196284,0.180096 -0.481604,0.262049 -0.866078,0.262049l-6.41464 0c-0.384474,0 -0.670806,-0.0819537 -0.857984,-0.245861 -0.196284,-0.17099 -0.352097,-0.489698 -0.482616,-0.94702l-5.28652 -18.7461 -2.04378 19.2035c-0.0404709,0.424945 -0.17099,0.735559 -0.375368,0.931843 -0.212472,0.187178 -0.514993,0.28532 -0.915655,0.28532l-6.29222 0c-0.433039,0 -0.759842,-0.106236 -0.996597,-0.326803 -0.228661,-0.212472 -0.318709,-0.539275 -0.270144,-0.96422l3.8498 -32.4911c0.0971303,-0.824595 0.513981,-1.24145 1.24954,-1.24145l8.11442 0c0.760854,0 1.25055,0.399651 1.45493,1.19288l6.06356 21.1157 6.05547 -21.1157c0.098142,-0.400662 0.261038,-0.695088 0.489698,-0.899467 0.228661,-0.195272 0.556475,-0.293414 0.972314,-0.293414l8.11544 0c0.734548,0 1.1433,0.416851 1.24145,1.24145l3.85688 32.4911z"/>
  <path id="12345678910111213141516171819202122232425262728293031" class="fil7 str2" d="M216.675 106.135c0,0.621229 -0.30252,0.931843 -0.907561,0.931843l-6.8234 0c-0.30252,0 -0.539275,-0.0819537 -0.694077,-0.236755 -0.163907,-0.163907 -0.245861,-0.392568 -0.245861,-0.695088l0 -33.1113c0,-0.605041 0.318709,-0.907561 0.939938,-0.907561l6.8234 0c0.605041,0 0.907561,0.30252 0.907561,0.907561l0 33.1113z"/>
  <path id="1234567891011121314151617181920212223242526272829303132" class="fil7 str2" d="M222.534 73.3586c0,-0.416851 0.11433,-0.727465 0.335909,-0.948032 0.228661,-0.212472 0.539275,-0.318709 0.938926,-0.318709l21.6884 0c0.416851,0 0.735559,0.106236 0.956126,0.334897 0.228661,0.220567 0.334897,0.531181 0.334897,0.931843l0 5.60523c0,0.392568 -0.106236,0.703183 -0.334897,0.931843 -0.220567,0.220567 -0.539275,0.334897 -0.956126,0.334897l-14.2437 0 0 7.77953 11.0567 0c0.416851,0 0.735559,0.11433 0.96422,0.334897 0.220567,0.220567 0.334897,0.531181 0.334897,0.931843l0 4.55197c0,0.400662 -0.11433,0.710265 -0.334897,0.931843 -0.228661,0.220567 -0.54737,0.334897 -0.96422,0.334897l-11.0567 0 0 10.7046c0,0.400662 -0.11433,0.711277 -0.334897,0.931843 -0.228661,0.220567 -0.539275,0.334897 -0.931843,0.334897l-6.17789 0c-0.399651,0 -0.710265,-0.11433 -0.938926,-0.334897 -0.221578,-0.220567 -0.335909,-0.531181 -0.335909,-0.931843l0 -32.4415z"/>
  <path id="123456789101112131415161718192021222324252627282930313233" class="fil7 str2" d="M248.969 73.3586c0,-0.400662 0.106236,-0.711277 0.334897,-0.931843 0.221578,-0.228661 0.531181,-0.334897 0.931843,-0.334897l23.3629 0c0.400662,0 0.711277,0.106236 0.939938,0.334897 0.220567,0.220567 0.334897,0.531181 0.334897,0.931843l0 5.76913c0,0.400662 -0.11433,0.711277 -0.334897,0.948032 -0.228661,0.228661 -0.539275,0.342991 -0.939938,0.342991l-7.34649 0 0 25.692c0,0.416851 -0.11433,0.727465 -0.334897,0.948032 -0.220567,0.212472 -0.539275,0.318709 -0.956126,0.318709l-6.12831 0c-0.400662,0 -0.711277,-0.11433 -0.931843,-0.334897 -0.228661,-0.220567 -0.334897,-0.531181 -0.334897,-0.931843l0 -25.692 -7.3303 0c-0.400662,0 -0.710265,-0.11433 -0.931843,-0.342991 -0.228661,-0.236755 -0.334897,-0.54737 -0.334897,-0.948032l0 -5.76913z"/>
  <path id="12345678910111213141516171819202122232425262728293031323334" class="fil7 str2" d="M310.275 105.702c0.0819537,0.204378 0.122425,0.392568 0.122425,0.54737 0,0.262049 -0.0900479,0.466428 -0.278238,0.629323 -0.179084,0.155813 -0.441133,0.236755 -0.77603,0.236755l-6.79912 0c-0.334897,0 -0.645512,-0.106236 -0.922738,-0.326803 -0.278238,-0.212472 -0.482616,-0.489698 -0.613135,-0.824595l-1.57736 -4.59244 -12.1352 0 -1.56015 4.56715c-0.0900479,0.335909 -0.286332,0.613135 -0.572664,0.825607 -0.28532,0.220567 -0.613135,0.326803 -0.980409,0.326803l-6.77484 0c-0.334897,0 -0.595935,-0.0728477 -0.77603,-0.228661 -0.18819,-0.146707 -0.277226,-0.35918 -0.277226,-0.637417 0,-0.154801 0.0404709,-0.342991 0.122425,-0.54737l12.7807 -32.4415c0.162896,-0.368286 0.383462,-0.654618 0.677888,-0.857984 0.30252,-0.212472 0.613135,-0.310614 0.948032,-0.310614l5.04976 0c0.334897,0 0.653606,0.106236 0.948032,0.318709 0.294426,0.220567 0.506899,0.497793 0.637417,0.84989l12.7564 32.4658zm-13.3119 -11.5625l-3.61203 -10.6074 -3.61203 10.6074 7.22406 0z"/>
  <path id="1234567891011121314151617181920212223242526272829303132333435" class="fil7 str2" d="M343.076 72.0919c0.286332,0 0.514993,0.0738595 0.669794,0.236755 0.163907,0.163907 0.236755,0.392568 0.236755,0.695088l0 33.1356c0,0.30252 -0.0728477,0.531181 -0.236755,0.695088 -0.154801,0.154801 -0.383462,0.236755 -0.669794,0.236755l-6.77484 0c-0.28532,0 -0.505887,-0.0819537 -0.669794,-0.236755 -0.162896,-0.163907 -0.236755,-0.392568 -0.236755,-0.695088l0 -13.1723 -13.0994 0 0 13.1723c0,0.30252 -0.0819537,0.531181 -0.236755,0.695088 -0.163907,0.154801 -0.384474,0.236755 -0.669794,0.236755l-6.75055 0c-0.28532,0 -0.514993,-0.0819537 -0.685983,-0.236755 -0.163907,-0.163907 -0.253955,-0.392568 -0.253955,-0.695088l0 -33.1356c0,-0.30252 0.0900479,-0.531181 0.253955,-0.695088 0.17099,-0.162896 0.400662,-0.236755 0.685983,-0.236755l6.75055 0c0.28532,0 0.505887,0.0738595 0.669794,0.236755 0.154801,0.163907 0.236755,0.392568 0.236755,0.695088l0 12.0856 13.0994 0 0 -12.0856c0,-0.30252 0.0738595,-0.531181 0.236755,-0.695088 0.163907,-0.162896 0.384474,-0.236755 0.669794,-0.236755l6.77484 0z"/>
  <path id="123456789101112131415161718192021222324252627282930313233343536" class="fil7 str2" d="M357.638 92.6279c0,2.02658 0.498804,3.6606 1.4954,4.88585 0.997609,1.22627 2.49301,1.8475 4.48722,1.8475 1.97701,0 3.46431,-0.621229 4.45282,-1.8475 0.989515,-1.22526 1.48731,-2.85927 1.48731,-4.88585l0 -19.5556c0,-0.30252 0.0819537,-0.54737 0.262049,-0.719371 0.17099,-0.179084 0.416851,-0.261038 0.718359,-0.261038l6.62813 0c0.318709,0 0.579746,0.0819537 0.767936,0.261038 0.18819,0.172002 0.286332,0.416851 0.286332,0.719371l0 19.5141c0,3.20328 -0.572664,5.94923 -1.72507,8.22875 -1.1433,2.28863 -2.8188,4.02888 -5.0012,5.22176 -2.18948,1.20199 -4.81301,1.79792 -7.87666,1.79792 -4.80592,0 -8.45033,-1.3234 -10.9261,-3.96312 -2.4839,-2.63972 -3.72636,-6.41464 -3.72636,-11.3096l0 -19.4898c0,-0.30252 0.0819537,-0.54737 0.236755,-0.719371 0.163907,-0.179084 0.37638,-0.261038 0.645512,-0.261038l6.87298 0c0.286332,0 0.514993,0.0819537 0.669794,0.261038 0.163907,0.172002 0.244849,0.416851 0.244849,0.719371l0 19.5556z"/>
  <path id="12345678910111213141516171819202122232425262728293031323334353637" class="fil7 str2" d="M405.541 98.83c0.30252,0 0.531181,0.0809419 0.694077,0.236755 0.155813,0.162896 0.237767,0.384474 0.237767,0.677888l0 6.41464c0,0.286332 -0.0819537,0.506899 -0.237767,0.670806 -0.162896,0.154801 -0.391556,0.236755 -0.694077,0.236755l-21.402 0c-0.28532,0 -0.514993,-0.0819537 -0.685983,-0.236755 -0.163907,-0.163907 -0.253955,-0.384474 -0.253955,-0.670806l0 -33.1356c0,-0.30252 0.0900479,-0.531181 0.253955,-0.695088 0.17099,-0.162896 0.400662,-0.236755 0.685983,-0.236755l6.8234 0c0.286332,0 0.514993,0.0738595 0.6789,0.236755 0.17099,0.163907 0.252943,0.392568 0.252943,0.695088l0 25.8063 13.6468 0z"/>
  <path id="1234567891011121314151617181920212223242526272829303132333435363738" class="fil7 str2" d="M431.044 92.6279c0,2.02658 0.498804,3.6606 1.4954,4.88585 0.997609,1.22627 2.49301,1.8475 4.48722,1.8475 1.97701,0 3.46431,-0.621229 4.45282,-1.8475 0.989515,-1.22526 1.48731,-2.85927 1.48731,-4.88585l0 -19.5556c0,-0.30252 0.0819537,-0.54737 0.262049,-0.719371 0.17099,-0.179084 0.416851,-0.261038 0.718359,-0.261038l6.62813 0c0.318709,0 0.579746,0.0819537 0.767936,0.261038 0.18819,0.172002 0.286332,0.416851 0.286332,0.719371l0 19.5141c0,3.20328 -0.572664,5.94923 -1.72507,8.22875 -1.1433,2.28863 -2.8188,4.02888 -5.0012,5.22176 -2.18948,1.20199 -4.81301,1.79792 -7.87666,1.79792 -4.80592,0 -8.45033,-1.3234 -10.9261,-3.96312 -2.4839,-2.63972 -3.72636,-6.41464 -3.72636,-11.3096l0 -19.4898c0,-0.30252 0.0819537,-0.54737 0.236755,-0.719371 0.163907,-0.179084 0.37638,-0.261038 0.645512,-0.261038l6.87298 0c0.286332,0 0.514993,0.0819537 0.669794,0.261038 0.163907,0.172002 0.244849,0.416851 0.244849,0.719371l0 19.5556z"/>
  <path id="123456789101112131415161718192021222324252627282930313233343536373839" class="fil7 str2" d="M478.947 98.83c0.30252,0 0.531181,0.0809419 0.694077,0.236755 0.155813,0.162896 0.237767,0.384474 0.237767,0.677888l0 6.41464c0,0.286332 -0.0819537,0.506899 -0.237767,0.670806 -0.162896,0.154801 -0.391556,0.236755 -0.694077,0.236755l-21.402 0c-0.28532,0 -0.514993,-0.0819537 -0.685983,-0.236755 -0.163907,-0.163907 -0.253955,-0.384474 -0.253955,-0.670806l0 -33.1356c0,-0.30252 0.0900479,-0.531181 0.253955,-0.695088 0.17099,-0.162896 0.400662,-0.236755 0.685983,-0.236755l6.8234 0c0.286332,0 0.514993,0.0738595 0.6789,0.236755 0.17099,0.163907 0.252943,0.392568 0.252943,0.695088l0 25.8063 13.6468 0z"/>
  <path id="12345678910111213141516171819202122232425262728293031323334353637383940" class="fil7 str2" d="M492.144 92.6279c0,2.02658 0.498804,3.6606 1.4954,4.88585 0.997609,1.22627 2.49301,1.8475 4.48722,1.8475 1.97701,0 3.46431,-0.621229 4.45282,-1.8475 0.989515,-1.22526 1.48731,-2.85927 1.48731,-4.88585l0 -19.5556c0,-0.30252 0.0819537,-0.54737 0.262049,-0.719371 0.17099,-0.179084 0.416851,-0.261038 0.718359,-0.261038l6.62813 0c0.318709,0 0.579746,0.0819537 0.767936,0.261038 0.18819,0.172002 0.286332,0.416851 0.286332,0.719371l0 19.5141c0,3.20328 -0.572664,5.94923 -1.72507,8.22875 -1.1433,2.28863 -2.8188,4.02888 -5.0012,5.22176 -2.18948,1.20199 -4.81301,1.79792 -7.87666,1.79792 -4.80592,0 -8.45033,-1.3234 -10.9261,-3.96312 -2.4839,-2.63972 -3.72636,-6.41464 -3.72636,-11.3096l0 -19.4898c0,-0.30252 0.0819537,-0.54737 0.236755,-0.719371 0.163907,-0.179084 0.37638,-0.261038 0.645512,-0.261038l6.87298 0c0.286332,0 0.514993,0.0819537 0.669794,0.261038 0.163907,0.172002 0.244849,0.416851 0.244849,0.719371l0 19.5556z"/>
  <path id="1234567891011121314151617181920212223242526272829303132333435363738394041" class="fil7 str2" d="M557.788 105.8c0.0495769,0.424945 -0.0485651,0.751748 -0.277226,0.96422 -0.228661,0.220567 -0.563558,0.326803 -0.997609,0.326803l-6.3165 0c-0.400662,0 -0.694077,-0.098142 -0.898455,-0.28532 -0.196284,-0.196284 -0.318709,-0.506899 -0.368286,-0.931843l-2.01039 -19.253 -5.31889 18.7957c-0.123436,0.449227 -0.286332,0.759842 -0.474522,0.930832 -0.196284,0.180096 -0.481604,0.262049 -0.866078,0.262049l-6.41464 0c-0.384474,0 -0.670806,-0.0819537 -0.857984,-0.245861 -0.196284,-0.17099 -0.352097,-0.489698 -0.482616,-0.94702l-5.28652 -18.7461 -2.04378 19.2035c-0.0404709,0.424945 -0.17099,0.735559 -0.375368,0.931843 -0.212472,0.187178 -0.514993,0.28532 -0.915655,0.28532l-6.29222 0c-0.433039,0 -0.759842,-0.106236 -0.996597,-0.326803 -0.228661,-0.212472 -0.318709,-0.539275 -0.270144,-0.96422l3.8498 -32.4911c0.0971303,-0.824595 0.513981,-1.24145 1.24954,-1.24145l8.11442 0c0.760854,0 1.25055,0.399651 1.45493,1.19288l6.06356 21.1157 6.05547 -21.1157c0.098142,-0.400662 0.261038,-0.695088 0.489698,-0.899467 0.228661,-0.195272 0.556475,-0.293414 0.972314,-0.293414l8.11544 0c0.734548,0 1.1433,0.416851 1.24145,1.24145l3.85688 32.4911z"/>
  <path class="fil8" d="M256.626 54.2169c0.0495769,0.424945 -0.0485651,0.751748 -0.277226,0.96422 -0.228661,0.220567 -0.563558,0.326803 -0.997609,0.326803l-6.3165 0c-0.400662,0 -0.694077,-0.098142 -0.898455,-0.28532 -0.196284,-0.196284 -0.318709,-0.506899 -0.368286,-0.931843l-2.01039 -19.253 -5.31889 18.7957c-0.123436,0.449227 -0.286332,0.759842 -0.474522,0.930832 -0.196284,0.180096 -0.481604,0.262049 -0.866078,0.262049l-6.41464 0c-0.384474,0 -0.670806,-0.0819537 -0.857984,-0.245861 -0.196284,-0.17099 -0.352097,-0.489698 -0.482616,-0.94702l-5.28652 -18.7461 -2.04378 19.2035c-0.0404709,0.424945 -0.17099,0.735559 -0.375368,0.931843 -0.212472,0.187178 -0.514993,0.28532 -0.915655,0.28532l-6.29222 0c-0.433039,0 -0.759842,-0.106236 -0.996597,-0.326803 -0.228661,-0.212472 -0.318709,-0.539275 -0.270144,-0.96422l3.8498 -32.4911c0.0971303,-0.824595 0.513981,-1.24145 1.24954,-1.24145l8.11442 0c0.760854,0 1.25055,0.399651 1.45493,1.19288l6.06356 21.1157 6.05547 -21.1157c0.098142,-0.400662 0.261038,-0.695088 0.489698,-0.899467 0.228661,-0.195272 0.556475,-0.293414 0.972314,-0.293414l8.11544 0c0.734548,0 1.1433,0.416851 1.24145,1.24145l3.85688 32.4911z"/>
  <path id="1" class="fil8" d="M292.46 54.1188c0.0819537,0.204378 0.122425,0.392568 0.122425,0.54737 0,0.262049 -0.0900479,0.466428 -0.278238,0.629323 -0.179084,0.155813 -0.441133,0.236755 -0.77603,0.236755l-6.79912 0c-0.334897,0 -0.645512,-0.106236 -0.922738,-0.326803 -0.278238,-0.212472 -0.482616,-0.489698 -0.613135,-0.824595l-1.57736 -4.59244 -12.1352 0 -1.56015 4.56715c-0.0900479,0.335909 -0.286332,0.613135 -0.572664,0.825607 -0.28532,0.220567 -0.613135,0.326803 -0.980409,0.326803l-6.77484 0c-0.334897,0 -0.595935,-0.0728477 -0.77603,-0.228661 -0.18819,-0.146707 -0.277226,-0.35918 -0.277226,-0.637417 0,-0.154801 0.0404709,-0.342991 0.122425,-0.54737l12.7807 -32.4415c0.162896,-0.368286 0.383462,-0.654618 0.677888,-0.857984 0.30252,-0.212472 0.613135,-0.310614 0.948032,-0.310614l5.04976 0c0.334897,0 0.653606,0.106236 0.948032,0.318709 0.294426,0.220567 0.506899,0.497793 0.637417,0.84989l12.7564 32.4658zm-13.3119 -11.5625l-3.61203 -10.6074 -3.61203 10.6074 7.22406 0z"/>
  <path id="12" class="fil8" d="M348.273 54.2169c0.0495769,0.424945 -0.0485651,0.751748 -0.277226,0.96422 -0.228661,0.220567 -0.563558,0.326803 -0.997609,0.326803l-6.3165 0c-0.400662,0 -0.694077,-0.098142 -0.898455,-0.28532 -0.196284,-0.196284 -0.318709,-0.506899 -0.368286,-0.931843l-2.01039 -19.253 -5.31889 18.7957c-0.123436,0.449227 -0.286332,0.759842 -0.474522,0.930832 -0.196284,0.180096 -0.481604,0.262049 -0.866078,0.262049l-6.41464 0c-0.384474,0 -0.670806,-0.0819537 -0.857984,-0.245861 -0.196284,-0.17099 -0.352097,-0.489698 -0.482616,-0.94702l-5.28652 -18.7461 -2.04378 19.2035c-0.0404709,0.424945 -0.17099,0.735559 -0.375368,0.931843 -0.212472,0.187178 -0.514993,0.28532 -0.915655,0.28532l-6.29222 0c-0.433039,0 -0.759842,-0.106236 -0.996597,-0.326803 -0.228661,-0.212472 -0.318709,-0.539275 -0.270144,-0.96422l3.8498 -32.4911c0.0971303,-0.824595 0.513981,-1.24145 1.24954,-1.24145l8.11442 0c0.760854,0 1.25055,0.399651 1.45493,1.19288l6.06356 21.1157 6.05547 -21.1157c0.098142,-0.400662 0.261038,-0.695088 0.489698,-0.899467 0.228661,-0.195272 0.556475,-0.293414 0.972314,-0.293414l8.11544 0c0.734548,0 1.1433,0.416851 1.24145,1.24145l3.85688 32.4911z"/>
  <path id="123" class="fil8" d="M384.107 54.1188c0.0819537,0.204378 0.122425,0.392568 0.122425,0.54737 0,0.262049 -0.0900479,0.466428 -0.278238,0.629323 -0.179084,0.155813 -0.441133,0.236755 -0.77603,0.236755l-6.79912 0c-0.334897,0 -0.645512,-0.106236 -0.922738,-0.326803 -0.278238,-0.212472 -0.482616,-0.489698 -0.613135,-0.824595l-1.57736 -4.59244 -12.1352 0 -1.56015 4.56715c-0.0900479,0.335909 -0.286332,0.613135 -0.572664,0.825607 -0.28532,0.220567 -0.613135,0.326803 -0.980409,0.326803l-6.77484 0c-0.334897,0 -0.595935,-0.0728477 -0.77603,-0.228661 -0.18819,-0.146707 -0.277226,-0.35918 -0.277226,-0.637417 0,-0.154801 0.0404709,-0.342991 0.122425,-0.54737l12.7807 -32.4415c0.162896,-0.368286 0.383462,-0.654618 0.677888,-0.857984 0.30252,-0.212472 0.613135,-0.310614 0.948032,-0.310614l5.04976 0c0.334897,0 0.653606,0.106236 0.948032,0.318709 0.294426,0.220567 0.506899,0.497793 0.637417,0.84989l12.7564 32.4658zm-13.3119 -11.5625l-3.61203 -10.6074 -3.61203 10.6074 7.22406 0z"/>
  <path id="1234" class="fil8" d="M386.885 23.5733c0,-0.735559 0.180096,-1.40637 0.531181,-2.0023 0.352097,-0.596946 0.825607,-1.07046 1.43874,-1.42255 0.604029,-0.351085 1.28293,-0.530169 2.03468,-0.530169 0.77603,0 1.4954,0.220567 2.14901,0.6617 0.653606,0.441133 1.17669,1.03707 1.56117,1.79792 0.383462,0.751748 0.571652,1.59354 0.571652,2.52438 0,1.59354 -0.204378,2.9989 -0.621229,4.22517 -0.416851,1.21716 -1.07855,2.54967 -1.9851,3.9874 -0.098142,0.139625 -0.220567,0.253955 -0.37638,0.334897 -0.146707,0.0738595 -0.310614,0.115342 -0.49071,0.115342 -0.17099,0 -0.342991,-0.0495769 -0.497793,-0.139625l-1.92035 -0.980409c-0.220567,-0.130519 -0.334897,-0.342991 -0.334897,-0.653606 0,-0.252943 0.0890361,-0.531181 0.269132,-0.833701 0.0576711,-0.11433 0.236755,-0.408757 0.531181,-0.898455 0.30252,-0.49071 0.523087,-0.907561 0.686994,-1.26674 0.154801,-0.360191 0.236755,-0.629323 0.236755,-0.801325 0,-0.179084 -0.0414827,-0.318709 -0.11433,-0.433039 -0.098142,0.0495769 -0.278238,0.0738595 -0.531181,0.0738595 -0.572664,0 -1.10385,-0.172002 -1.57736,-0.506899 -0.482616,-0.334897 -0.857984,-0.792219 -1.13622,-1.36488 -0.28532,-0.571652 -0.424945,-1.20098 -0.424945,-1.88696z"/>
  <path id="12345" class="fil8" d="M431.724 54.1188c0.0819537,0.204378 0.122425,0.392568 0.122425,0.54737 0,0.262049 -0.0900479,0.466428 -0.278238,0.629323 -0.179084,0.155813 -0.441133,0.236755 -0.77603,0.236755l-6.79912 0c-0.334897,0 -0.645512,-0.106236 -0.922738,-0.326803 -0.278238,-0.212472 -0.482616,-0.489698 -0.613135,-0.824595l-1.57736 -4.59244 -12.1352 0 -1.56015 4.56715c-0.0900479,0.335909 -0.286332,0.613135 -0.572664,0.825607 -0.28532,0.220567 -0.613135,0.326803 -0.980409,0.326803l-6.77484 0c-0.334897,0 -0.595935,-0.0728477 -0.77603,-0.228661 -0.18819,-0.146707 -0.277226,-0.35918 -0.277226,-0.637417 0,-0.154801 0.0404709,-0.342991 0.122425,-0.54737l12.7807 -32.4415c0.162896,-0.368286 0.383462,-0.654618 0.677888,-0.857984 0.30252,-0.212472 0.613135,-0.310614 0.948032,-0.310614l5.04976 0c0.334897,0 0.653606,0.106236 0.948032,0.318709 0.294426,0.220567 0.506899,0.497793 0.637417,0.84989l12.7564 32.4658zm-13.3119 -11.5625l-3.61203 -10.6074 -3.61203 10.6074 7.22406 0z"/>
  <path id="123456" class="fil8" d="M461.968 54.0459c0.0900479,0.162896 0.138613,0.334897 0.138613,0.530169 0,0.253955 -0.0809419,0.474522 -0.261038,0.654618 -0.172002,0.187178 -0.408757,0.277226 -0.695088,0.277226l-7.1583 0c-0.351085,0 -0.629323,-0.0728477 -0.825607,-0.228661 -0.195272,-0.146707 -0.407745,-0.433039 -0.637417,-0.84989l-5.12362 -9.86277 -3.56245 0 0 9.67458c0,0.392568 -0.11433,0.711277 -0.351085,0.931843 -0.229673,0.220567 -0.54737,0.334897 -0.96422,0.334897l-6.12932 0c-0.400662,0 -0.711277,-0.11433 -0.923749,-0.334897 -0.212472,-0.220567 -0.326803,-0.539275 -0.326803,-0.931843l0 -32.4658c0,-0.368286 0.123436,-0.670806 0.352097,-0.907561 0.228661,-0.244849 0.531181,-0.35918 0.898455,-0.35918l1.57736 0 4.62482 0 6.07975 0c2.45153,0 4.63392,0.498804 6.53808,1.4954 1.89505,0.996597 3.37426,2.41106 4.43663,4.24945 1.06236,1.8303 1.59354,3.96312 1.59354,6.39036 0,2.18948 -0.47351,4.15131 -1.42964,5.89156 -0.948032,1.74025 -2.27143,3.12132 -3.98032,4.14321l6.12932 11.3673zm-18.1249 -16.9735l4.47811 0c0.809419,0 1.54397,-0.196284 2.19049,-0.595935 0.645512,-0.400662 1.1514,-0.939938 1.51968,-1.62693 0.367274,-0.685983 0.54737,-1.43773 0.54737,-2.25524 0,-0.808407 -0.180096,-1.54397 -0.54737,-2.18948 -0.368286,-0.645512 -0.874172,-1.14432 -1.51968,-1.5035 -0.646523,-0.360191 -1.38107,-0.539275 -2.19049,-0.539275l-4.47811 0 0 8.71036z"/>
  <path id="1234567" class="fil8" d="M475.059 54.5518c0,0.621229 -0.30252,0.931843 -0.907561,0.931843l-6.8234 0c-0.30252,0 -0.539275,-0.0819537 -0.694077,-0.236755 -0.163907,-0.163907 -0.245861,-0.392568 -0.245861,-0.695088l0 -33.1113c0,-0.605041 0.318709,-0.907561 0.939938,-0.907561l6.8234 0c0.605041,0 0.907561,0.30252 0.907561,0.907561l0 33.1113z"/>
  <path id="12345678" class="fil8" d="M480.917 21.7754c0,-0.416851 0.11433,-0.727465 0.335909,-0.948032 0.228661,-0.212472 0.539275,-0.318709 0.938926,-0.318709l21.6884 0c0.416851,0 0.735559,0.106236 0.956126,0.334897 0.228661,0.220567 0.334897,0.531181 0.334897,0.931843l0 5.60523c0,0.392568 -0.106236,0.703183 -0.334897,0.931843 -0.220567,0.220567 -0.539275,0.334897 -0.956126,0.334897l-14.2437 0 0 7.77953 11.0567 0c0.416851,0 0.735559,0.11433 0.96422,0.334897 0.220567,0.220567 0.334897,0.531181 0.334897,0.931843l0 4.55197c0,0.400662 -0.11433,0.710265 -0.334897,0.931843 -0.228661,0.220567 -0.54737,0.334897 -0.96422,0.334897l-11.0567 0 0 10.7046c0,0.400662 -0.11433,0.711277 -0.334897,0.931843 -0.228661,0.220567 -0.539275,0.334897 -0.931843,0.334897l-6.17789 0c-0.399651,0 -0.710265,-0.11433 -0.938926,-0.334897 -0.221578,-0.220567 -0.335909,-0.531181 -0.335909,-0.931843l0 -32.4415z"/>
  <path id="123456789" class="fil8" d="M203.559 105.8c0.0495769,0.424945 -0.0485651,0.751748 -0.277226,0.96422 -0.228661,0.220567 -0.563558,0.326803 -0.997609,0.326803l-6.3165 0c-0.400662,0 -0.694077,-0.098142 -0.898455,-0.28532 -0.196284,-0.196284 -0.318709,-0.506899 -0.368286,-0.931843l-2.01039 -19.253 -5.31889 18.7957c-0.123436,0.449227 -0.286332,0.759842 -0.474522,0.930832 -0.196284,0.180096 -0.481604,0.262049 -0.866078,0.262049l-6.41464 0c-0.384474,0 -0.670806,-0.0819537 -0.857984,-0.245861 -0.196284,-0.17099 -0.352097,-0.489698 -0.482616,-0.94702l-5.28652 -18.7461 -2.04378 19.2035c-0.0404709,0.424945 -0.17099,0.735559 -0.375368,0.931843 -0.212472,0.187178 -0.514993,0.28532 -0.915655,0.28532l-6.29222 0c-0.433039,0 -0.759842,-0.106236 -0.996597,-0.326803 -0.228661,-0.212472 -0.318709,-0.539275 -0.270144,-0.96422l3.8498 -32.4911c0.0971303,-0.824595 0.513981,-1.24145 1.24954,-1.24145l8.11442 0c0.760854,0 1.25055,0.399651 1.45493,1.19288l6.06356 21.1157 6.05547 -21.1157c0.098142,-0.400662 0.261038,-0.695088 0.489698,-0.899467 0.228661,-0.195272 0.556475,-0.293414 0.972314,-0.293414l8.11544 0c0.734548,0 1.1433,0.416851 1.24145,1.24145l3.85688 32.4911z"/>
  <path id="12345678910" class="fil8" d="M216.675 106.135c0,0.621229 -0.30252,0.931843 -0.907561,0.931843l-6.8234 0c-0.30252,0 -0.539275,-0.0819537 -0.694077,-0.236755 -0.163907,-0.163907 -0.245861,-0.392568 -0.245861,-0.695088l0 -33.1113c0,-0.605041 0.318709,-0.907561 0.939938,-0.907561l6.8234 0c0.605041,0 0.907561,0.30252 0.907561,0.907561l0 33.1113z"/>
  <path id="1234567891011" class="fil8" d="M222.534 73.3586c0,-0.416851 0.11433,-0.727465 0.335909,-0.948032 0.228661,-0.212472 0.539275,-0.318709 0.938926,-0.318709l21.6884 0c0.416851,0 0.735559,0.106236 0.956126,0.334897 0.228661,0.220567 0.334897,0.531181 0.334897,0.931843l0 5.60523c0,0.392568 -0.106236,0.703183 -0.334897,0.931843 -0.220567,0.220567 -0.539275,0.334897 -0.956126,0.334897l-14.2437 0 0 7.77953 11.0567 0c0.416851,0 0.735559,0.11433 0.96422,0.334897 0.220567,0.220567 0.334897,0.531181 0.334897,0.931843l0 4.55197c0,0.400662 -0.11433,0.710265 -0.334897,0.931843 -0.228661,0.220567 -0.54737,0.334897 -0.96422,0.334897l-11.0567 0 0 10.7046c0,0.400662 -0.11433,0.711277 -0.334897,0.931843 -0.228661,0.220567 -0.539275,0.334897 -0.931843,0.334897l-6.17789 0c-0.399651,0 -0.710265,-0.11433 -0.938926,-0.334897 -0.221578,-0.220567 -0.335909,-0.531181 -0.335909,-0.931843l0 -32.4415z"/>
  <path id="123456789101112" class="fil8" d="M248.969 73.3586c0,-0.400662 0.106236,-0.711277 0.334897,-0.931843 0.221578,-0.228661 0.531181,-0.334897 0.931843,-0.334897l23.3629 0c0.400662,0 0.711277,0.106236 0.939938,0.334897 0.220567,0.220567 0.334897,0.531181 0.334897,0.931843l0 5.76913c0,0.400662 -0.11433,0.711277 -0.334897,0.948032 -0.228661,0.228661 -0.539275,0.342991 -0.939938,0.342991l-7.34649 0 0 25.692c0,0.416851 -0.11433,0.727465 -0.334897,0.948032 -0.220567,0.212472 -0.539275,0.318709 -0.956126,0.318709l-6.12831 0c-0.400662,0 -0.711277,-0.11433 -0.931843,-0.334897 -0.228661,-0.220567 -0.334897,-0.531181 -0.334897,-0.931843l0 -25.692 -7.3303 0c-0.400662,0 -0.710265,-0.11433 -0.931843,-0.342991 -0.228661,-0.236755 -0.334897,-0.54737 -0.334897,-0.948032l0 -5.76913z"/>
  <path id="12345678910111213" class="fil8" d="M310.275 105.702c0.0819537,0.204378 0.122425,0.392568 0.122425,0.54737 0,0.262049 -0.0900479,0.466428 -0.278238,0.629323 -0.179084,0.155813 -0.441133,0.236755 -0.77603,0.236755l-6.79912 0c-0.334897,0 -0.645512,-0.106236 -0.922738,-0.326803 -0.278238,-0.212472 -0.482616,-0.489698 -0.613135,-0.824595l-1.57736 -4.59244 -12.1352 0 -1.56015 4.56715c-0.0900479,0.335909 -0.286332,0.613135 -0.572664,0.825607 -0.28532,0.220567 -0.613135,0.326803 -0.980409,0.326803l-6.77484 0c-0.334897,0 -0.595935,-0.0728477 -0.77603,-0.228661 -0.18819,-0.146707 -0.277226,-0.35918 -0.277226,-0.637417 0,-0.154801 0.0404709,-0.342991 0.122425,-0.54737l12.7807 -32.4415c0.162896,-0.368286 0.383462,-0.654618 0.677888,-0.857984 0.30252,-0.212472 0.613135,-0.310614 0.948032,-0.310614l5.04976 0c0.334897,0 0.653606,0.106236 0.948032,0.318709 0.294426,0.220567 0.506899,0.497793 0.637417,0.84989l12.7564 32.4658zm-13.3119 -11.5625l-3.61203 -10.6074 -3.61203 10.6074 7.22406 0z"/>
  <path id="1234567891011121314" class="fil8" d="M343.076 72.0919c0.286332,0 0.514993,0.0738595 0.669794,0.236755 0.163907,0.163907 0.236755,0.392568 0.236755,0.695088l0 33.1356c0,0.30252 -0.0728477,0.531181 -0.236755,0.695088 -0.154801,0.154801 -0.383462,0.236755 -0.669794,0.236755l-6.77484 0c-0.28532,0 -0.505887,-0.0819537 -0.669794,-0.236755 -0.162896,-0.163907 -0.236755,-0.392568 -0.236755,-0.695088l0 -13.1723 -13.0994 0 0 13.1723c0,0.30252 -0.0819537,0.531181 -0.236755,0.695088 -0.163907,0.154801 -0.384474,0.236755 -0.669794,0.236755l-6.75055 0c-0.28532,0 -0.514993,-0.0819537 -0.685983,-0.236755 -0.163907,-0.163907 -0.253955,-0.392568 -0.253955,-0.695088l0 -33.1356c0,-0.30252 0.0900479,-0.531181 0.253955,-0.695088 0.17099,-0.162896 0.400662,-0.236755 0.685983,-0.236755l6.75055 0c0.28532,0 0.505887,0.0738595 0.669794,0.236755 0.154801,0.163907 0.236755,0.392568 0.236755,0.695088l0 12.0856 13.0994 0 0 -12.0856c0,-0.30252 0.0738595,-0.531181 0.236755,-0.695088 0.163907,-0.162896 0.384474,-0.236755 0.669794,-0.236755l6.77484 0z"/>
  <path id="123456789101112131415" class="fil8" d="M357.638 92.6279c0,2.02658 0.498804,3.6606 1.4954,4.88585 0.997609,1.22627 2.49301,1.8475 4.48722,1.8475 1.97701,0 3.46431,-0.621229 4.45282,-1.8475 0.989515,-1.22526 1.48731,-2.85927 1.48731,-4.88585l0 -19.5556c0,-0.30252 0.0819537,-0.54737 0.262049,-0.719371 0.17099,-0.179084 0.416851,-0.261038 0.718359,-0.261038l6.62813 0c0.318709,0 0.579746,0.0819537 0.767936,0.261038 0.18819,0.172002 0.286332,0.416851 0.286332,0.719371l0 19.5141c0,3.20328 -0.572664,5.94923 -1.72507,8.22875 -1.1433,2.28863 -2.8188,4.02888 -5.0012,5.22176 -2.18948,1.20199 -4.81301,1.79792 -7.87666,1.79792 -4.80592,0 -8.45033,-1.3234 -10.9261,-3.96312 -2.4839,-2.63972 -3.72636,-6.41464 -3.72636,-11.3096l0 -19.4898c0,-0.30252 0.0819537,-0.54737 0.236755,-0.719371 0.163907,-0.179084 0.37638,-0.261038 0.645512,-0.261038l6.87298 0c0.286332,0 0.514993,0.0819537 0.669794,0.261038 0.163907,0.172002 0.244849,0.416851 0.244849,0.719371l0 19.5556z"/>
  <path id="12345678910111213141516" class="fil8" d="M405.541 98.83c0.30252,0 0.531181,0.0809419 0.694077,0.236755 0.155813,0.162896 0.237767,0.384474 0.237767,0.677888l0 6.41464c0,0.286332 -0.0819537,0.506899 -0.237767,0.670806 -0.162896,0.154801 -0.391556,0.236755 -0.694077,0.236755l-21.402 0c-0.28532,0 -0.514993,-0.0819537 -0.685983,-0.236755 -0.163907,-0.163907 -0.253955,-0.384474 -0.253955,-0.670806l0 -33.1356c0,-0.30252 0.0900479,-0.531181 0.253955,-0.695088 0.17099,-0.162896 0.400662,-0.236755 0.685983,-0.236755l6.8234 0c0.286332,0 0.514993,0.0738595 0.6789,0.236755 0.17099,0.163907 0.252943,0.392568 0.252943,0.695088l0 25.8063 13.6468 0z"/>
  <path id="1234567891011121314151617" class="fil8" d="M431.044 92.6279c0,2.02658 0.498804,3.6606 1.4954,4.88585 0.997609,1.22627 2.49301,1.8475 4.48722,1.8475 1.97701,0 3.46431,-0.621229 4.45282,-1.8475 0.989515,-1.22526 1.48731,-2.85927 1.48731,-4.88585l0 -19.5556c0,-0.30252 0.0819537,-0.54737 0.262049,-0.719371 0.17099,-0.179084 0.416851,-0.261038 0.718359,-0.261038l6.62813 0c0.318709,0 0.579746,0.0819537 0.767936,0.261038 0.18819,0.172002 0.286332,0.416851 0.286332,0.719371l0 19.5141c0,3.20328 -0.572664,5.94923 -1.72507,8.22875 -1.1433,2.28863 -2.8188,4.02888 -5.0012,5.22176 -2.18948,1.20199 -4.81301,1.79792 -7.87666,1.79792 -4.80592,0 -8.45033,-1.3234 -10.9261,-3.96312 -2.4839,-2.63972 -3.72636,-6.41464 -3.72636,-11.3096l0 -19.4898c0,-0.30252 0.0819537,-0.54737 0.236755,-0.719371 0.163907,-0.179084 0.37638,-0.261038 0.645512,-0.261038l6.87298 0c0.286332,0 0.514993,0.0819537 0.669794,0.261038 0.163907,0.172002 0.244849,0.416851 0.244849,0.719371l0 19.5556z"/>
  <path id="123456789101112131415161718" class="fil8" d="M478.947 98.83c0.30252,0 0.531181,0.0809419 0.694077,0.236755 0.155813,0.162896 0.237767,0.384474 0.237767,0.677888l0 6.41464c0,0.286332 -0.0819537,0.506899 -0.237767,0.670806 -0.162896,0.154801 -0.391556,0.236755 -0.694077,0.236755l-21.402 0c-0.28532,0 -0.514993,-0.0819537 -0.685983,-0.236755 -0.163907,-0.163907 -0.253955,-0.384474 -0.253955,-0.670806l0 -33.1356c0,-0.30252 0.0900479,-0.531181 0.253955,-0.695088 0.17099,-0.162896 0.400662,-0.236755 0.685983,-0.236755l6.8234 0c0.286332,0 0.514993,0.0738595 0.6789,0.236755 0.17099,0.163907 0.252943,0.392568 0.252943,0.695088l0 25.8063 13.6468 0z"/>
  <path id="12345678910111213141516171819" class="fil8" d="M492.144 92.6279c0,2.02658 0.498804,3.6606 1.4954,4.88585 0.997609,1.22627 2.49301,1.8475 4.48722,1.8475 1.97701,0 3.46431,-0.621229 4.45282,-1.8475 0.989515,-1.22526 1.48731,-2.85927 1.48731,-4.88585l0 -19.5556c0,-0.30252 0.0819537,-0.54737 0.262049,-0.719371 0.17099,-0.179084 0.416851,-0.261038 0.718359,-0.261038l6.62813 0c0.318709,0 0.579746,0.0819537 0.767936,0.261038 0.18819,0.172002 0.286332,0.416851 0.286332,0.719371l0 19.5141c0,3.20328 -0.572664,5.94923 -1.72507,8.22875 -1.1433,2.28863 -2.8188,4.02888 -5.0012,5.22176 -2.18948,1.20199 -4.81301,1.79792 -7.87666,1.79792 -4.80592,0 -8.45033,-1.3234 -10.9261,-3.96312 -2.4839,-2.63972 -3.72636,-6.41464 -3.72636,-11.3096l0 -19.4898c0,-0.30252 0.0819537,-0.54737 0.236755,-0.719371 0.163907,-0.179084 0.37638,-0.261038 0.645512,-0.261038l6.87298 0c0.286332,0 0.514993,0.0819537 0.669794,0.261038 0.163907,0.172002 0.244849,0.416851 0.244849,0.719371l0 19.5556z"/>
  <path id="1234567891011121314151617181920" class="fil8" d="M557.788 105.8c0.0495769,0.424945 -0.0485651,0.751748 -0.277226,0.96422 -0.228661,0.220567 -0.563558,0.326803 -0.997609,0.326803l-6.3165 0c-0.400662,0 -0.694077,-0.098142 -0.898455,-0.28532 -0.196284,-0.196284 -0.318709,-0.506899 -0.368286,-0.931843l-2.01039 -19.253 -5.31889 18.7957c-0.123436,0.449227 -0.286332,0.759842 -0.474522,0.930832 -0.196284,0.180096 -0.481604,0.262049 -0.866078,0.262049l-6.41464 0c-0.384474,0 -0.670806,-0.0819537 -0.857984,-0.245861 -0.196284,-0.17099 -0.352097,-0.489698 -0.482616,-0.94702l-5.28652 -18.7461 -2.04378 19.2035c-0.0404709,0.424945 -0.17099,0.735559 -0.375368,0.931843 -0.212472,0.187178 -0.514993,0.28532 -0.915655,0.28532l-6.29222 0c-0.433039,0 -0.759842,-0.106236 -0.996597,-0.326803 -0.228661,-0.212472 -0.318709,-0.539275 -0.270144,-0.96422l3.8498 -32.4911c0.0971303,-0.824595 0.513981,-1.24145 1.24954,-1.24145l8.11442 0c0.760854,0 1.25055,0.399651 1.45493,1.19288l6.06356 21.1157 6.05547 -21.1157c0.098142,-0.400662 0.261038,-0.695088 0.489698,-0.899467 0.228661,-0.195272 0.556475,-0.293414 0.972314,-0.293414l8.11544 0c0.734548,0 1.1433,0.416851 1.24145,1.24145l3.85688 32.4911z"/>
 </g>
</svg>
