<?xml version="1.0" encoding="UTF-8"?>
<!DOCTYPE svg PUBLIC "-//W3C//DTD SVG 1.1//EN" "http://www.w3.org/Graphics/SVG/1.1/DTD/svg11.dtd">
<!-- Creator: CorelDRAW -->
<svg xmlns="http://www.w3.org/2000/svg" xml:space="preserve" width="58.5239mm" height="12.8292mm" style="shape-rendering:geometricPrecision; text-rendering:geometricPrecision; image-rendering:optimizeQuality; fill-rule:evenodd; clip-rule:evenodd"
viewBox="0 0 545.459 119.572"
 xmlns:xlink="http://www.w3.org/1999/xlink">
 <defs>
  <style type="text/css">
   <![CDATA[
    .str1 {stroke:black;stroke-width:0.710205}
    .str2 {stroke:#FF9696;stroke-width:0.710205}
    .str0 {stroke:black;stroke-width:6.99021}
    .fil2 {fill:none}
    .fil7 {fill:black}
    .fil3 {fill:#05913A}
    .fil5 {fill:#138C3C}
    .fil4 {fill:yellow}
    .fil6 {fill:white}
    .fil0 {fill:black;fill-rule:nonzero}
    .fil1 {fill:yellow;fill-rule:nonzero}
   ]]>
  </style>
   <clipPath id="id0">
    <path d="M60.73 38.7174c11.8256,0 21.4115,9.58591 21.4115,21.4115 0,11.8246 -9.58591,21.4105 -21.4115,21.4105 -11.8246,0 -21.4105,-9.58591 -21.4105,-21.4105 0,-11.8256 9.58591,-21.4115 21.4105,-21.4115z"/>
   </clipPath>
 </defs>
 <g id="Layer_x0020_1">
  <metadata id="CorelCorpID_0Corel-Layer"/>
  <path class="fil0 str0" d="M347.674 49.9437c0.0456694,0.391452 -0.0447373,0.692497 -0.255376,0.888223 -0.210638,0.203182 -0.51914,0.301045 -0.91898,0.301045l-5.81865 0c-0.369083,0 -0.639371,-0.0904067 -0.827641,-0.262832 -0.180813,-0.180813 -0.293589,-0.466946 -0.339258,-0.858398l-1.85194 -17.7356 -4.89967 17.3143c-0.113707,0.41382 -0.263764,0.699953 -0.437121,0.857466 -0.180813,0.165901 -0.443645,0.241395 -0.797816,0.241395l-5.90906 0c-0.354171,0 -0.617935,-0.0754943 -0.79036,-0.226483 -0.180813,-0.157513 -0.324346,-0.451102 -0.444577,-0.872378l-4.86985 -17.2686 -1.8827 17.6899c-0.0372811,0.391452 -0.157513,0.677584 -0.345782,0.858398 -0.195726,0.172425 -0.474402,0.262832 -0.843485,0.262832l-5.79628 0c-0.398908,0 -0.699953,-0.0978629 -0.918048,-0.301045 -0.210638,-0.195726 -0.293589,-0.496771 -0.248851,-0.888223l3.54637 -29.9302c0.0894747,-0.759603 0.47347,-1.1436 1.15105,-1.1436l7.47486 0c0.700885,0 1.15199,0.368151 1.34026,1.09886l5.58564 19.4514 5.57819 -19.4514c0.0904067,-0.369083 0.240463,-0.640303 0.451102,-0.828573 0.210638,-0.179881 0.512615,-0.270288 0.895679,-0.270288l7.4758 0c0.676652,0 1.05319,0.383996 1.1436,1.1436l3.55289 29.9302zm12.0828 0.308501c0,0.572265 -0.278676,0.858398 -0.836029,0.858398l-6.2856 0c-0.278676,0 -0.496771,-0.0754943 -0.639371,-0.218095 -0.150989,-0.150989 -0.226483,-0.361627 -0.226483,-0.640303l0 -30.5015c0,-0.557353 0.293589,-0.836029 0.865854,-0.836029l6.2856 0c0.557353,0 0.836029,0.278676 0.836029,0.836029l0 30.5015zm-194.29 47.2091c0.0456694,0.391452 -0.0447373,0.692497 -0.255376,0.888223 -0.210638,0.203182 -0.51914,0.301045 -0.91898,0.301045l-5.81865 0c-0.369083,0 -0.639371,-0.0904067 -0.827641,-0.262832 -0.180813,-0.180813 -0.293589,-0.466946 -0.339258,-0.858398l-1.85194 -17.7356 -4.89967 17.3143c-0.113707,0.41382 -0.263764,0.699953 -0.437121,0.857466 -0.180813,0.165901 -0.443645,0.241395 -0.797816,0.241395l-5.90906 0c-0.354171,0 -0.617935,-0.0754943 -0.79036,-0.226483 -0.180813,-0.157513 -0.324346,-0.451102 -0.444577,-0.872378l-4.86985 -17.2686 -1.8827 17.6899c-0.0372811,0.391452 -0.157513,0.677584 -0.345782,0.858398 -0.195726,0.172425 -0.474402,0.262832 -0.843485,0.262832l-5.79628 0c-0.398908,0 -0.699953,-0.0978629 -0.918048,-0.301045 -0.210638,-0.195726 -0.293589,-0.496771 -0.248851,-0.888223l3.54637 -29.9302c0.0894747,-0.759603 0.47347,-1.1436 1.15105,-1.1436l7.47486 0c0.700885,0 1.15199,0.368151 1.34026,1.09886l5.58564 19.4514 5.57819 -19.4514c0.0904067,-0.369083 0.240463,-0.640303 0.451102,-0.828573 0.210638,-0.179881 0.512615,-0.270288 0.895679,-0.270288l7.4758 0c0.676652,0 1.05319,0.383996 1.1436,1.1436l3.55289 29.9302zm12.0828 0.308501c0,0.572265 -0.278676,0.858398 -0.836029,0.858398l-6.2856 0c-0.278676,0 -0.496771,-0.0754943 -0.639371,-0.218095 -0.150989,-0.150989 -0.226483,-0.361627 -0.226483,-0.640303l0 -30.5015c0,-0.557353 0.293589,-0.836029 0.865854,-0.836029l6.2856 0c0.557353,0 0.836029,0.278676 0.836029,0.836029l0 30.5015zm5.39644 -30.193c0,-0.383996 0.105319,-0.670128 0.309433,-0.87331 0.210638,-0.195726 0.496771,-0.293589 0.864922,-0.293589l19.979 0c0.383996,0 0.677584,0.0978629 0.880766,0.308501 0.210638,0.203182 0.308501,0.489315 0.308501,0.858398l0 5.16343c0,0.361627 -0.0978629,0.647759 -0.308501,0.858398 -0.203182,0.203182 -0.496771,0.308501 -0.880766,0.308501l-13.1211 0 0 7.16636 10.1852 0c0.383996,0 0.677584,0.105319 0.888223,0.308501 0.203182,0.203182 0.308501,0.489315 0.308501,0.858398l0 4.19319c0,0.369083 -0.105319,0.654284 -0.308501,0.858398 -0.210638,0.203182 -0.504227,0.308501 -0.888223,0.308501l-10.1852 0 0 9.86086c0,0.369083 -0.105319,0.655216 -0.308501,0.858398 -0.210638,0.203182 -0.496771,0.308501 -0.858398,0.308501l-5.69096 0c-0.368151,0 -0.654284,-0.105319 -0.864922,-0.308501 -0.204114,-0.203182 -0.309433,-0.489315 -0.309433,-0.858398l0 -29.8845zm24.352 0c0,-0.369083 0.0978629,-0.655216 0.308501,-0.858398 0.204114,-0.210638 0.489315,-0.308501 0.858398,-0.308501l21.5215 0c0.369083,0 0.655216,0.0978629 0.865854,0.308501 0.203182,0.203182 0.308501,0.489315 0.308501,0.858398l0 5.31442c0,0.369083 -0.105319,0.655216 -0.308501,0.87331 -0.210638,0.210638 -0.496771,0.315957 -0.865854,0.315957l-6.76746 0 0 23.667c0,0.383996 -0.105319,0.670128 -0.308501,0.87331 -0.203182,0.195726 -0.496771,0.293589 -0.880766,0.293589l-5.64529 0c-0.369083,0 -0.655216,-0.105319 -0.858398,-0.308501 -0.210638,-0.203182 -0.308501,-0.489315 -0.308501,-0.858398l0 -23.667 -6.75254 0c-0.369083,0 -0.654284,-0.105319 -0.858398,-0.315957 -0.210638,-0.218095 -0.308501,-0.504227 -0.308501,-0.87331l0 -5.31442zm56.4734 29.7941c0.0754943,0.18827 0.112775,0.361627 0.112775,0.504227 0,0.241395 -0.0829505,0.429665 -0.256308,0.579721 -0.164969,0.143532 -0.406364,0.218095 -0.714865,0.218095l-6.26323 0c-0.308501,0 -0.594634,-0.0978629 -0.85001,-0.301045 -0.256308,-0.195726 -0.444577,-0.451102 -0.564809,-0.759603l-1.45303 -4.23047 -11.1787 0 -1.43719 4.20717c-0.0829505,0.309433 -0.263764,0.564809 -0.527528,0.760535 -0.262832,0.203182 -0.564809,0.301045 -0.903135,0.301045l-6.24086 0c-0.308501,0 -0.548964,-0.067106 -0.714865,-0.210638 -0.173357,-0.135144 -0.255376,-0.33087 -0.255376,-0.587178 0,-0.1426 0.0372811,-0.315957 0.112775,-0.504227l11.7734 -29.8845c0.150057,-0.339258 0.353239,-0.603022 0.624459,-0.79036 0.278676,-0.195726 0.564809,-0.286133 0.87331,-0.286133l4.65175 0c0.308501,0 0.60209,0.0978629 0.87331,0.293589 0.27122,0.203182 0.466946,0.458558 0.587178,0.782903l11.751 29.9069zm-12.2627 -10.6512l-3.32734 -9.77138 -3.32734 9.77138 6.65468 0zm42.479 -20.3098c0.263764,0 0.474402,0.068038 0.617003,0.218095 0.150989,0.150989 0.218095,0.361627 0.218095,0.640303l0 30.5239c0,0.278676 -0.067106,0.489315 -0.218095,0.640303 -0.1426,0.1426 -0.353239,0.218095 -0.617003,0.218095l-6.24086 0c-0.262832,0 -0.466014,-0.0754943 -0.617003,-0.218095 -0.150057,-0.150989 -0.218095,-0.361627 -0.218095,-0.640303l0 -12.1341 -12.067 0 0 12.1341c0,0.278676 -0.0754943,0.489315 -0.218095,0.640303 -0.150989,0.1426 -0.354171,0.218095 -0.617003,0.218095l-6.21849 0c-0.262832,0 -0.474402,-0.0754943 -0.631915,-0.218095 -0.150989,-0.150989 -0.233939,-0.361627 -0.233939,-0.640303l0 -30.5239c0,-0.278676 0.0829505,-0.489315 0.233939,-0.640303 0.157513,-0.150057 0.369083,-0.218095 0.631915,-0.218095l6.21849 0c0.262832,0 0.466014,0.068038 0.617003,0.218095 0.1426,0.150989 0.218095,0.361627 0.218095,0.640303l0 11.1331 12.067 0 0 -11.1331c0,-0.278676 0.068038,-0.489315 0.218095,-0.640303 0.150989,-0.150057 0.354171,-0.218095 0.617003,-0.218095l6.24086 0zm13.4137 18.9174c0,1.86685 0.45949,3.37208 1.37754,4.50076 0.91898,1.12962 2.29652,1.70188 4.13354,1.70188 1.82118,0 3.19126,-0.572265 4.10186,-1.70188 0.911523,-1.12869 1.37008,-2.63391 1.37008,-4.50076l0 -18.0142c0,-0.278676 0.0754943,-0.504227 0.241395,-0.662672 0.157513,-0.164969 0.383996,-0.240463 0.66174,-0.240463l6.10572 0c0.293589,0 0.534052,0.0754943 0.707409,0.240463 0.173357,0.158445 0.263764,0.383996 0.263764,0.662672l0 17.976c0,2.9508 -0.527528,5.48032 -1.58911,7.58018 -1.05319,2.10825 -2.59663,3.71134 -4.60701,4.8102 -2.01691,1.10725 -4.43366,1.65621 -7.25584,1.65621 -4.42713,0 -7.7843,-1.21909 -10.065,-3.65075 -2.28813,-2.43166 -3.43266,-5.90906 -3.43266,-10.4182l0 -17.9537c0,-0.278676 0.0754943,-0.504227 0.218095,-0.662672 0.150989,-0.164969 0.346714,-0.240463 0.594634,-0.240463l6.33127 0c0.263764,0 0.474402,0.0754943 0.617003,0.240463 0.150989,0.158445 0.225551,0.383996 0.225551,0.662672l0 18.0142zm44.1278 5.71333c0.278676,0 0.489315,0.0745622 0.639371,0.218095 0.143532,0.150057 0.219027,0.354171 0.219027,0.624459l0 5.90906c0,0.263764 -0.0754943,0.466946 -0.219027,0.617935 -0.150057,0.1426 -0.360695,0.218095 -0.639371,0.218095l-19.7152 0c-0.262832,0 -0.474402,-0.0754943 -0.631915,-0.218095 -0.150989,-0.150989 -0.233939,-0.354171 -0.233939,-0.617935l0 -30.5239c0,-0.278676 0.0829505,-0.489315 0.233939,-0.640303 0.157513,-0.150057 0.369083,-0.218095 0.631915,-0.218095l6.2856 0c0.263764,0 0.474402,0.068038 0.625391,0.218095 0.157513,0.150989 0.233007,0.361627 0.233007,0.640303l0 23.7723 12.5712 0zm23.4927 -5.71333c0,1.86685 0.45949,3.37208 1.37754,4.50076 0.91898,1.12962 2.29652,1.70188 4.13354,1.70188 1.82118,0 3.19126,-0.572265 4.10186,-1.70188 0.911523,-1.12869 1.37008,-2.63391 1.37008,-4.50076l0 -18.0142c0,-0.278676 0.0754943,-0.504227 0.241395,-0.662672 0.157513,-0.164969 0.383996,-0.240463 0.66174,-0.240463l6.10572 0c0.293589,0 0.534052,0.0754943 0.707409,0.240463 0.173357,0.158445 0.263764,0.383996 0.263764,0.662672l0 17.976c0,2.9508 -0.527528,5.48032 -1.58911,7.58018 -1.05319,2.10825 -2.59663,3.71134 -4.60701,4.8102 -2.01691,1.10725 -4.43366,1.65621 -7.25584,1.65621 -4.42713,0 -7.7843,-1.21909 -10.065,-3.65075 -2.28813,-2.43166 -3.43266,-5.90906 -3.43266,-10.4182l0 -17.9537c0,-0.278676 0.0754943,-0.504227 0.218095,-0.662672 0.150989,-0.164969 0.346714,-0.240463 0.594634,-0.240463l6.33127 0c0.263764,0 0.474402,0.0754943 0.617003,0.240463 0.150989,0.158445 0.225551,0.383996 0.225551,0.662672l0 18.0142zm44.1278 5.71333c0.278676,0 0.489315,0.0745622 0.639371,0.218095 0.143532,0.150057 0.219027,0.354171 0.219027,0.624459l0 5.90906c0,0.263764 -0.0754943,0.466946 -0.219027,0.617935 -0.150057,0.1426 -0.360695,0.218095 -0.639371,0.218095l-19.7152 0c-0.262832,0 -0.474402,-0.0754943 -0.631915,-0.218095 -0.150989,-0.150989 -0.233939,-0.354171 -0.233939,-0.617935l0 -30.5239c0,-0.278676 0.0829505,-0.489315 0.233939,-0.640303 0.157513,-0.150057 0.369083,-0.218095 0.631915,-0.218095l6.2856 0c0.263764,0 0.474402,0.068038 0.625391,0.218095 0.157513,0.150989 0.233007,0.361627 0.233007,0.640303l0 23.7723 12.5712 0zm12.1564 -5.71333c0,1.86685 0.45949,3.37208 1.37754,4.50076 0.91898,1.12962 2.29652,1.70188 4.13354,1.70188 1.82118,0 3.19126,-0.572265 4.10186,-1.70188 0.911523,-1.12869 1.37008,-2.63391 1.37008,-4.50076l0 -18.0142c0,-0.278676 0.0754943,-0.504227 0.241395,-0.662672 0.157513,-0.164969 0.383996,-0.240463 0.66174,-0.240463l6.10572 0c0.293589,0 0.534052,0.0754943 0.707409,0.240463 0.173357,0.158445 0.263764,0.383996 0.263764,0.662672l0 17.976c0,2.9508 -0.527528,5.48032 -1.58911,7.58018 -1.05319,2.10825 -2.59663,3.71134 -4.60701,4.8102 -2.01691,1.10725 -4.43366,1.65621 -7.25584,1.65621 -4.42713,0 -7.7843,-1.21909 -10.065,-3.65075 -2.28813,-2.43166 -3.43266,-5.90906 -3.43266,-10.4182l0 -17.9537c0,-0.278676 0.0754943,-0.504227 0.218095,-0.662672 0.150989,-0.164969 0.346714,-0.240463 0.594634,-0.240463l6.33127 0c0.263764,0 0.474402,0.0754943 0.617003,0.240463 0.150989,0.158445 0.225551,0.383996 0.225551,0.662672l0 18.0142zm60.47 12.1341c0.0456694,0.391452 -0.0447373,0.692497 -0.255376,0.888223 -0.210638,0.203182 -0.51914,0.301045 -0.91898,0.301045l-5.81865 0c-0.369083,0 -0.639371,-0.0904067 -0.827641,-0.262832 -0.180813,-0.180813 -0.293589,-0.466946 -0.339258,-0.858398l-1.85194 -17.7356 -4.89967 17.3143c-0.113707,0.41382 -0.263764,0.699953 -0.437121,0.857466 -0.180813,0.165901 -0.443645,0.241395 -0.797816,0.241395l-5.90906 0c-0.354171,0 -0.617935,-0.0754943 -0.79036,-0.226483 -0.180813,-0.157513 -0.324346,-0.451102 -0.444577,-0.872378l-4.86985 -17.2686 -1.8827 17.6899c-0.0372811,0.391452 -0.157513,0.677584 -0.345782,0.858398 -0.195726,0.172425 -0.474402,0.262832 -0.843485,0.262832l-5.79628 0c-0.398908,0 -0.699953,-0.0978629 -0.918048,-0.301045 -0.210638,-0.195726 -0.293589,-0.496771 -0.248851,-0.888223l3.54637 -29.9302c0.0894747,-0.759603 0.47347,-1.1436 1.15105,-1.1436l7.47486 0c0.700885,0 1.15199,0.368151 1.34026,1.09886l5.58564 19.4514 5.57819 -19.4514c0.0904067,-0.369083 0.240463,-0.640303 0.451102,-0.828573 0.210638,-0.179881 0.512615,-0.270288 0.895679,-0.270288l7.4758 0c0.676652,0 1.05319,0.383996 1.1436,1.1436l3.55289 29.9302zm23.4191 0.308501c0,0.572265 -0.278676,0.858398 -0.836029,0.858398l-6.2856 0c-0.278676,0 -0.496771,-0.0754943 -0.639371,-0.218095 -0.150989,-0.150989 -0.226483,-0.361627 -0.226483,-0.640303l0 -30.5015c0,-0.557353 0.293589,-0.836029 0.865854,-0.836029l6.2856 0c0.557353,0 0.836029,0.278676 0.836029,0.836029l0 30.5015zm13.3839 0c0,0.572265 -0.278676,0.858398 -0.836029,0.858398l-6.2856 0c-0.278676,0 -0.496771,-0.0754943 -0.639371,-0.218095 -0.150989,-0.150989 -0.226483,-0.361627 -0.226483,-0.640303l0 -30.5015c0,-0.557353 0.293589,-0.836029 0.865854,-0.836029l6.2856 0c0.557353,0 0.836029,0.278676 0.836029,0.836029l0 30.5015zm13.3839 0c0,0.572265 -0.278676,0.858398 -0.836029,0.858398l-6.2856 0c-0.278676,0 -0.496771,-0.0754943 -0.639371,-0.218095 -0.150989,-0.150989 -0.226483,-0.361627 -0.226483,-0.640303l0 -30.5015c0,-0.557353 0.293589,-0.836029 0.865854,-0.836029l6.2856 0c0.557353,0 0.836029,0.278676 0.836029,0.836029l0 30.5015z"/>
  <path class="fil1" d="M347.674 49.9437c0.0456694,0.391452 -0.0447373,0.692497 -0.255376,0.888223 -0.210638,0.203182 -0.51914,0.301045 -0.91898,0.301045l-5.81865 0c-0.369083,0 -0.639371,-0.0904067 -0.827641,-0.262832 -0.180813,-0.180813 -0.293589,-0.466946 -0.339258,-0.858398l-1.85194 -17.7356 -4.89967 17.3143c-0.113707,0.41382 -0.263764,0.699953 -0.437121,0.857466 -0.180813,0.165901 -0.443645,0.241395 -0.797816,0.241395l-5.90906 0c-0.354171,0 -0.617935,-0.0754943 -0.79036,-0.226483 -0.180813,-0.157513 -0.324346,-0.451102 -0.444577,-0.872378l-4.86985 -17.2686 -1.8827 17.6899c-0.0372811,0.391452 -0.157513,0.677584 -0.345782,0.858398 -0.195726,0.172425 -0.474402,0.262832 -0.843485,0.262832l-5.79628 0c-0.398908,0 -0.699953,-0.0978629 -0.918048,-0.301045 -0.210638,-0.195726 -0.293589,-0.496771 -0.248851,-0.888223l3.54637 -29.9302c0.0894747,-0.759603 0.47347,-1.1436 1.15105,-1.1436l7.47486 0c0.700885,0 1.15199,0.368151 1.34026,1.09886l5.58564 19.4514 5.57819 -19.4514c0.0904067,-0.369083 0.240463,-0.640303 0.451102,-0.828573 0.210638,-0.179881 0.512615,-0.270288 0.895679,-0.270288l7.4758 0c0.676652,0 1.05319,0.383996 1.1436,1.1436l3.55289 29.9302zm12.0828 0.308501c0,0.572265 -0.278676,0.858398 -0.836029,0.858398l-6.2856 0c-0.278676,0 -0.496771,-0.0754943 -0.639371,-0.218095 -0.150989,-0.150989 -0.226483,-0.361627 -0.226483,-0.640303l0 -30.5015c0,-0.557353 0.293589,-0.836029 0.865854,-0.836029l6.2856 0c0.557353,0 0.836029,0.278676 0.836029,0.836029l0 30.5015zm-194.29 47.2091c0.0456694,0.391452 -0.0447373,0.692497 -0.255376,0.888223 -0.210638,0.203182 -0.51914,0.301045 -0.91898,0.301045l-5.81865 0c-0.369083,0 -0.639371,-0.0904067 -0.827641,-0.262832 -0.180813,-0.180813 -0.293589,-0.466946 -0.339258,-0.858398l-1.85194 -17.7356 -4.89967 17.3143c-0.113707,0.41382 -0.263764,0.699953 -0.437121,0.857466 -0.180813,0.165901 -0.443645,0.241395 -0.797816,0.241395l-5.90906 0c-0.354171,0 -0.617935,-0.0754943 -0.79036,-0.226483 -0.180813,-0.157513 -0.324346,-0.451102 -0.444577,-0.872378l-4.86985 -17.2686 -1.8827 17.6899c-0.0372811,0.391452 -0.157513,0.677584 -0.345782,0.858398 -0.195726,0.172425 -0.474402,0.262832 -0.843485,0.262832l-5.79628 0c-0.398908,0 -0.699953,-0.0978629 -0.918048,-0.301045 -0.210638,-0.195726 -0.293589,-0.496771 -0.248851,-0.888223l3.54637 -29.9302c0.0894747,-0.759603 0.47347,-1.1436 1.15105,-1.1436l7.47486 0c0.700885,0 1.15199,0.368151 1.34026,1.09886l5.58564 19.4514 5.57819 -19.4514c0.0904067,-0.369083 0.240463,-0.640303 0.451102,-0.828573 0.210638,-0.179881 0.512615,-0.270288 0.895679,-0.270288l7.4758 0c0.676652,0 1.05319,0.383996 1.1436,1.1436l3.55289 29.9302zm12.0828 0.308501c0,0.572265 -0.278676,0.858398 -0.836029,0.858398l-6.2856 0c-0.278676,0 -0.496771,-0.0754943 -0.639371,-0.218095 -0.150989,-0.150989 -0.226483,-0.361627 -0.226483,-0.640303l0 -30.5015c0,-0.557353 0.293589,-0.836029 0.865854,-0.836029l6.2856 0c0.557353,0 0.836029,0.278676 0.836029,0.836029l0 30.5015zm5.39644 -30.193c0,-0.383996 0.105319,-0.670128 0.309433,-0.87331 0.210638,-0.195726 0.496771,-0.293589 0.864922,-0.293589l19.979 0c0.383996,0 0.677584,0.0978629 0.880766,0.308501 0.210638,0.203182 0.308501,0.489315 0.308501,0.858398l0 5.16343c0,0.361627 -0.0978629,0.647759 -0.308501,0.858398 -0.203182,0.203182 -0.496771,0.308501 -0.880766,0.308501l-13.1211 0 0 7.16636 10.1852 0c0.383996,0 0.677584,0.105319 0.888223,0.308501 0.203182,0.203182 0.308501,0.489315 0.308501,0.858398l0 4.19319c0,0.369083 -0.105319,0.654284 -0.308501,0.858398 -0.210638,0.203182 -0.504227,0.308501 -0.888223,0.308501l-10.1852 0 0 9.86086c0,0.369083 -0.105319,0.655216 -0.308501,0.858398 -0.210638,0.203182 -0.496771,0.308501 -0.858398,0.308501l-5.69096 0c-0.368151,0 -0.654284,-0.105319 -0.864922,-0.308501 -0.204114,-0.203182 -0.309433,-0.489315 -0.309433,-0.858398l0 -29.8845zm24.352 0c0,-0.369083 0.0978629,-0.655216 0.308501,-0.858398 0.204114,-0.210638 0.489315,-0.308501 0.858398,-0.308501l21.5215 0c0.369083,0 0.655216,0.0978629 0.865854,0.308501 0.203182,0.203182 0.308501,0.489315 0.308501,0.858398l0 5.31442c0,0.369083 -0.105319,0.655216 -0.308501,0.87331 -0.210638,0.210638 -0.496771,0.315957 -0.865854,0.315957l-6.76746 0 0 23.667c0,0.383996 -0.105319,0.670128 -0.308501,0.87331 -0.203182,0.195726 -0.496771,0.293589 -0.880766,0.293589l-5.64529 0c-0.369083,0 -0.655216,-0.105319 -0.858398,-0.308501 -0.210638,-0.203182 -0.308501,-0.489315 -0.308501,-0.858398l0 -23.667 -6.75254 0c-0.369083,0 -0.654284,-0.105319 -0.858398,-0.315957 -0.210638,-0.218095 -0.308501,-0.504227 -0.308501,-0.87331l0 -5.31442zm56.4734 29.7941c0.0754943,0.18827 0.112775,0.361627 0.112775,0.504227 0,0.241395 -0.0829505,0.429665 -0.256308,0.579721 -0.164969,0.143532 -0.406364,0.218095 -0.714865,0.218095l-6.26323 0c-0.308501,0 -0.594634,-0.0978629 -0.85001,-0.301045 -0.256308,-0.195726 -0.444577,-0.451102 -0.564809,-0.759603l-1.45303 -4.23047 -11.1787 0 -1.43719 4.20717c-0.0829505,0.309433 -0.263764,0.564809 -0.527528,0.760535 -0.262832,0.203182 -0.564809,0.301045 -0.903135,0.301045l-6.24086 0c-0.308501,0 -0.548964,-0.067106 -0.714865,-0.210638 -0.173357,-0.135144 -0.255376,-0.33087 -0.255376,-0.587178 0,-0.1426 0.0372811,-0.315957 0.112775,-0.504227l11.7734 -29.8845c0.150057,-0.339258 0.353239,-0.603022 0.624459,-0.79036 0.278676,-0.195726 0.564809,-0.286133 0.87331,-0.286133l4.65175 0c0.308501,0 0.60209,0.0978629 0.87331,0.293589 0.27122,0.203182 0.466946,0.458558 0.587178,0.782903l11.751 29.9069zm-12.2627 -10.6512l-3.32734 -9.77138 -3.32734 9.77138 6.65468 0zm42.479 -20.3098c0.263764,0 0.474402,0.068038 0.617003,0.218095 0.150989,0.150989 0.218095,0.361627 0.218095,0.640303l0 30.5239c0,0.278676 -0.067106,0.489315 -0.218095,0.640303 -0.1426,0.1426 -0.353239,0.218095 -0.617003,0.218095l-6.24086 0c-0.262832,0 -0.466014,-0.0754943 -0.617003,-0.218095 -0.150057,-0.150989 -0.218095,-0.361627 -0.218095,-0.640303l0 -12.1341 -12.067 0 0 12.1341c0,0.278676 -0.0754943,0.489315 -0.218095,0.640303 -0.150989,0.1426 -0.354171,0.218095 -0.617003,0.218095l-6.21849 0c-0.262832,0 -0.474402,-0.0754943 -0.631915,-0.218095 -0.150989,-0.150989 -0.233939,-0.361627 -0.233939,-0.640303l0 -30.5239c0,-0.278676 0.0829505,-0.489315 0.233939,-0.640303 0.157513,-0.150057 0.369083,-0.218095 0.631915,-0.218095l6.21849 0c0.262832,0 0.466014,0.068038 0.617003,0.218095 0.1426,0.150989 0.218095,0.361627 0.218095,0.640303l0 11.1331 12.067 0 0 -11.1331c0,-0.278676 0.068038,-0.489315 0.218095,-0.640303 0.150989,-0.150057 0.354171,-0.218095 0.617003,-0.218095l6.24086 0zm13.4137 18.9174c0,1.86685 0.45949,3.37208 1.37754,4.50076 0.91898,1.12962 2.29652,1.70188 4.13354,1.70188 1.82118,0 3.19126,-0.572265 4.10186,-1.70188 0.911523,-1.12869 1.37008,-2.63391 1.37008,-4.50076l0 -18.0142c0,-0.278676 0.0754943,-0.504227 0.241395,-0.662672 0.157513,-0.164969 0.383996,-0.240463 0.66174,-0.240463l6.10572 0c0.293589,0 0.534052,0.0754943 0.707409,0.240463 0.173357,0.158445 0.263764,0.383996 0.263764,0.662672l0 17.976c0,2.9508 -0.527528,5.48032 -1.58911,7.58018 -1.05319,2.10825 -2.59663,3.71134 -4.60701,4.8102 -2.01691,1.10725 -4.43366,1.65621 -7.25584,1.65621 -4.42713,0 -7.7843,-1.21909 -10.065,-3.65075 -2.28813,-2.43166 -3.43266,-5.90906 -3.43266,-10.4182l0 -17.9537c0,-0.278676 0.0754943,-0.504227 0.218095,-0.662672 0.150989,-0.164969 0.346714,-0.240463 0.594634,-0.240463l6.33127 0c0.263764,0 0.474402,0.0754943 0.617003,0.240463 0.150989,0.158445 0.225551,0.383996 0.225551,0.662672l0 18.0142zm44.1278 5.71333c0.278676,0 0.489315,0.0745622 0.639371,0.218095 0.143532,0.150057 0.219027,0.354171 0.219027,0.624459l0 5.90906c0,0.263764 -0.0754943,0.466946 -0.219027,0.617935 -0.150057,0.1426 -0.360695,0.218095 -0.639371,0.218095l-19.7152 0c-0.262832,0 -0.474402,-0.0754943 -0.631915,-0.218095 -0.150989,-0.150989 -0.233939,-0.354171 -0.233939,-0.617935l0 -30.5239c0,-0.278676 0.0829505,-0.489315 0.233939,-0.640303 0.157513,-0.150057 0.369083,-0.218095 0.631915,-0.218095l6.2856 0c0.263764,0 0.474402,0.068038 0.625391,0.218095 0.157513,0.150989 0.233007,0.361627 0.233007,0.640303l0 23.7723 12.5712 0zm23.4927 -5.71333c0,1.86685 0.45949,3.37208 1.37754,4.50076 0.91898,1.12962 2.29652,1.70188 4.13354,1.70188 1.82118,0 3.19126,-0.572265 4.10186,-1.70188 0.911523,-1.12869 1.37008,-2.63391 1.37008,-4.50076l0 -18.0142c0,-0.278676 0.0754943,-0.504227 0.241395,-0.662672 0.157513,-0.164969 0.383996,-0.240463 0.66174,-0.240463l6.10572 0c0.293589,0 0.534052,0.0754943 0.707409,0.240463 0.173357,0.158445 0.263764,0.383996 0.263764,0.662672l0 17.976c0,2.9508 -0.527528,5.48032 -1.58911,7.58018 -1.05319,2.10825 -2.59663,3.71134 -4.60701,4.8102 -2.01691,1.10725 -4.43366,1.65621 -7.25584,1.65621 -4.42713,0 -7.7843,-1.21909 -10.065,-3.65075 -2.28813,-2.43166 -3.43266,-5.90906 -3.43266,-10.4182l0 -17.9537c0,-0.278676 0.0754943,-0.504227 0.218095,-0.662672 0.150989,-0.164969 0.346714,-0.240463 0.594634,-0.240463l6.33127 0c0.263764,0 0.474402,0.0754943 0.617003,0.240463 0.150989,0.158445 0.225551,0.383996 0.225551,0.662672l0 18.0142zm44.1278 5.71333c0.278676,0 0.489315,0.0745622 0.639371,0.218095 0.143532,0.150057 0.219027,0.354171 0.219027,0.624459l0 5.90906c0,0.263764 -0.0754943,0.466946 -0.219027,0.617935 -0.150057,0.1426 -0.360695,0.218095 -0.639371,0.218095l-19.7152 0c-0.262832,0 -0.474402,-0.0754943 -0.631915,-0.218095 -0.150989,-0.150989 -0.233939,-0.354171 -0.233939,-0.617935l0 -30.5239c0,-0.278676 0.0829505,-0.489315 0.233939,-0.640303 0.157513,-0.150057 0.369083,-0.218095 0.631915,-0.218095l6.2856 0c0.263764,0 0.474402,0.068038 0.625391,0.218095 0.157513,0.150989 0.233007,0.361627 0.233007,0.640303l0 23.7723 12.5712 0zm12.1564 -5.71333c0,1.86685 0.45949,3.37208 1.37754,4.50076 0.91898,1.12962 2.29652,1.70188 4.13354,1.70188 1.82118,0 3.19126,-0.572265 4.10186,-1.70188 0.911523,-1.12869 1.37008,-2.63391 1.37008,-4.50076l0 -18.0142c0,-0.278676 0.0754943,-0.504227 0.241395,-0.662672 0.157513,-0.164969 0.383996,-0.240463 0.66174,-0.240463l6.10572 0c0.293589,0 0.534052,0.0754943 0.707409,0.240463 0.173357,0.158445 0.263764,0.383996 0.263764,0.662672l0 17.976c0,2.9508 -0.527528,5.48032 -1.58911,7.58018 -1.05319,2.10825 -2.59663,3.71134 -4.60701,4.8102 -2.01691,1.10725 -4.43366,1.65621 -7.25584,1.65621 -4.42713,0 -7.7843,-1.21909 -10.065,-3.65075 -2.28813,-2.43166 -3.43266,-5.90906 -3.43266,-10.4182l0 -17.9537c0,-0.278676 0.0754943,-0.504227 0.218095,-0.662672 0.150989,-0.164969 0.346714,-0.240463 0.594634,-0.240463l6.33127 0c0.263764,0 0.474402,0.0754943 0.617003,0.240463 0.150989,0.158445 0.225551,0.383996 0.225551,0.662672l0 18.0142zm60.47 12.1341c0.0456694,0.391452 -0.0447373,0.692497 -0.255376,0.888223 -0.210638,0.203182 -0.51914,0.301045 -0.91898,0.301045l-5.81865 0c-0.369083,0 -0.639371,-0.0904067 -0.827641,-0.262832 -0.180813,-0.180813 -0.293589,-0.466946 -0.339258,-0.858398l-1.85194 -17.7356 -4.89967 17.3143c-0.113707,0.41382 -0.263764,0.699953 -0.437121,0.857466 -0.180813,0.165901 -0.443645,0.241395 -0.797816,0.241395l-5.90906 0c-0.354171,0 -0.617935,-0.0754943 -0.79036,-0.226483 -0.180813,-0.157513 -0.324346,-0.451102 -0.444577,-0.872378l-4.86985 -17.2686 -1.8827 17.6899c-0.0372811,0.391452 -0.157513,0.677584 -0.345782,0.858398 -0.195726,0.172425 -0.474402,0.262832 -0.843485,0.262832l-5.79628 0c-0.398908,0 -0.699953,-0.0978629 -0.918048,-0.301045 -0.210638,-0.195726 -0.293589,-0.496771 -0.248851,-0.888223l3.54637 -29.9302c0.0894747,-0.759603 0.47347,-1.1436 1.15105,-1.1436l7.47486 0c0.700885,0 1.15199,0.368151 1.34026,1.09886l5.58564 19.4514 5.57819 -19.4514c0.0904067,-0.369083 0.240463,-0.640303 0.451102,-0.828573 0.210638,-0.179881 0.512615,-0.270288 0.895679,-0.270288l7.4758 0c0.676652,0 1.05319,0.383996 1.1436,1.1436l3.55289 29.9302zm23.4191 0.308501c0,0.572265 -0.278676,0.858398 -0.836029,0.858398l-6.2856 0c-0.278676,0 -0.496771,-0.0754943 -0.639371,-0.218095 -0.150989,-0.150989 -0.226483,-0.361627 -0.226483,-0.640303l0 -30.5015c0,-0.557353 0.293589,-0.836029 0.865854,-0.836029l6.2856 0c0.557353,0 0.836029,0.278676 0.836029,0.836029l0 30.5015zm13.3839 0c0,0.572265 -0.278676,0.858398 -0.836029,0.858398l-6.2856 0c-0.278676,0 -0.496771,-0.0754943 -0.639371,-0.218095 -0.150989,-0.150989 -0.226483,-0.361627 -0.226483,-0.640303l0 -30.5015c0,-0.557353 0.293589,-0.836029 0.865854,-0.836029l6.2856 0c0.557353,0 0.836029,0.278676 0.836029,0.836029l0 30.5015zm13.3839 0c0,0.572265 -0.278676,0.858398 -0.836029,0.858398l-6.2856 0c-0.278676,0 -0.496771,-0.0754943 -0.639371,-0.218095 -0.150989,-0.150989 -0.226483,-0.361627 -0.226483,-0.640303l0 -30.5015c0,-0.557353 0.293589,-0.836029 0.865854,-0.836029l6.2856 0c0.557353,0 0.836029,0.278676 0.836029,0.836029l0 30.5015z"/>
  <path class="fil2 str1" d="M61.0534 0.362559c0,0 39.5832,8.04061 59.9928,42.6757 0,0 2.4736,44.5304 -23.502,68.6513 0,0 -27.8332,16.0803 -72.9824,1.2368 0,0 -29.0681,-26.5945 -23.502,-69.8881 0,0 14.8435,-32.7804 59.9937,-42.6757z"/>
  <path class="fil3 str1" d="M61.0301 4.69183c0,0 36.6986,7.45436 55.6216,39.5665 0,0 2.29372,41.287 -21.7899,63.6501 0,0 -25.8051,14.9097 -67.6652,1.14733 0,0 -26.9505,-24.6577 -21.7899,-64.7974 0,0 13.7623,-30.3916 55.6234,-39.5665z"/>
  <circle class="fil4 str1" cx="60.7808" cy="60.1284" r="34.9441"/>
  <path class="fil5" d="M60.73 38.7174c11.8256,0 21.4115,9.58591 21.4115,21.4115 0,11.8246 -9.58591,21.4105 -21.4115,21.4105 -11.8246,0 -21.4105,-9.58591 -21.4105,-21.4105 0,-11.8256 9.58591,-21.4115 21.4105,-21.4115z"/>
  <g style="clip-path:url(#id0)">
   <g id="_493655920">
    <path id="_2499864161" class="fil4" d="M41.0866 69.6924c0,0 -1.48006,-7.39751 0.887291,-9.76486 2.36735,-2.36735 -3.84741,-1.48006 -4.43925,-3.84741 -0.591838,-2.36735 2.95919,-2.36642 3.25557,-3.84648 0.296385,-1.48006 0.296385,-2.66374 2.0719,-2.66374 1.77551,0 2.36735,-4.43832 5.91838,-2.07097 3.55103,2.36735 -0.295453,2.36735 -0.591838,4.7347 -0.296385,2.36735 -0.296385,6.50928 0.295453,7.39751 0.591838,0.888223 -0.590906,6.80567 2.66374,2.36735 3.25464,-4.43832 1.18368,-6.51022 3.55103,-7.69389 2.36735,-1.18368 1.77458,-2.95826 5.62199,-3.84648 3.84741,-0.888223 1.77551,-5.32747 5.32654,-5.62292 3.55103,-0.295453 1.77551,-2.07097 2.95919,-3.25464 1.18368,-1.18368 5.03109,-3.25557 5.62292,-2.0719 0.591838,1.18368 -1.77551,4.7347 -1.77551,4.7347 0,0 -1.47913,3.25557 1.77551,2.66374 3.25464,-0.591838 3.55103,1.47913 3.55103,1.47913l3.84648 -0.887291 2.36735 7.39751c0,0 -2.95919,0.000932028 -4.7347,0.888223 -1.77551,0.887291 -0.887291,-1.77645 -4.43832,-0.888223 -3.55103,0.888223 -6.21476,3.84648 -3.25557,5.32654 2.95919,1.48006 2.6628,0.59277 3.55103,-0.295453 0.888223,-0.888223 2.07097,0.888223 2.36735,1.77551 0.296385,0.887291 4.43925,1.47913 4.43925,2.6628 0,1.18368 -6.51115,7.69389 -7.99028,4.7347 -1.47913,-2.95919 -2.6628,-2.36642 -3.84648,-1.47913 -1.18368,0.887291 -1.77551,0.888223 -2.95919,0 -1.18368,-0.888223 -1.77551,-0.296385 -1.77551,1.47913 0,1.77551 -0.59277,4.1438 -2.0719,4.43925 -1.47913,0.295453 -2.36735,2.36735 -3.55103,2.95919 -1.18368,0.591838 0.591838,2.36735 -0.591838,3.55103 -1.18368,1.18368 -7.39751,1.18274 -7.98934,0.887291 -0.591838,-0.295453 -12.4286,-9.4694 -12.4286,-9.4694l2.36735 -1.77551zm18.347 -10.0612c0,0 -1.47913,-2.66374 1.77551,-3.55103 3.25464,-0.887291 5.03015,-5.03015 6.80567,-2.6628 1.77551,2.36735 -2.95919,5.62199 -2.95919,5.62199 0,0 -3.84741,1.77645 -2.36735,2.0719 1.48006,0.295453 5.91931,-0.000932028 6.21476,1.47913l0.295453 1.48006 -11.8368 -0.295453 11.8368 0.295453 -9.76486 -4.43925z"/>
    <g>
     <path id="_250703232" class="fil2 str1" d="M50.0779 38.2775c0,0 9.4694,7.10205 24.2653,0"/>
     <path id="_493654336" class="fil2 str1" d="M41.2003 41.2366c0,0 23.6735,18.9388 39.0613,-1.18368"/>
     <path id="_493654168" class="fil2 str1" d="M37.0565 50.1142c0,0 30.7765,18.347 46.1643,-1.77551"/>
     <line id="_493654552" class="fil2 str1" x1="35.281" y1="60.1755" x2="86.18" y2= "60.1755" />
     <path id="_493654432" class="fil2 str1" d="M50.0779 81.9793c0,0 9.4694,-7.10205 24.2653,0"/>
     <path id="_250233816" class="fil2 str1" d="M41.2003 79.0201c0,0 23.6735,-18.9388 39.0613,1.18368"/>
     <path id="_249976288" class="fil2 str1" d="M37.0565 70.1426c0,0 30.7765,-18.347 46.1643,1.77551"/>
     <line id="_493654936" class="fil2 str1" x1="60.9667" y1="41.4286" x2="60.9667" y2= "78.8235" />
     <path id="_493655584" class="fil2 str1" d="M57.6869 79.1254c0,0 -7.94088,-18.4141 0.510751,-37.9168"/>
     <path id="_493655560" class="fil2 str1" d="M53.7827 80.133c0,0 -17.6414,-18.6387 0.867718,-39.7165"/>
     <path id="_493655200" class="fil2 str1" d="M64.076 79.1254c0,0 7.94088,-18.4141 -0.510751,-37.9168"/>
     <path id="_493655416" class="fil2 str1" d="M67.9803 80.133c0,0 17.6414,-18.6387 -0.867718,-39.7165"/>
    </g>
   </g>
  </g>
  <path class="fil2 str1" d="M60.73 38.7174c11.8256,0 21.4115,9.58591 21.4115,21.4115 0,11.8246 -9.58591,21.4105 -21.4115,21.4105 -11.8246,0 -21.4105,-9.58591 -21.4105,-21.4105 0,-11.8256 9.58591,-21.4115 21.4105,-21.4115z"/>
  <circle class="fil6" cx="24.0361" cy="82.1322" r="2.07097"/>
  <circle class="fil6" cx="97.4687" cy="82.1322" r="2.07097"/>
  <path class="fil6 str2" d="M53.1414 92.1431c0,0 3.65448,-2.63578 7.65381,0.12396 0,0 4.40104,-2.86692 7.84581,-0.238599l0 -3.58458c0,0 -3.06171,-3.34505 -7.46275,-0.955329 0,0 -4.43273,-2.59943 -7.84488,0.955329l-0.191998 3.69922z"/>
  <path class="fil6 str2" d="M37.365 65.0658c0,0 1.79695,14.3886 19.5418,19.0311 0,0 -12.3401,3.2854 -19.5418,-1.86778l7.10299 -0.591838c0,0 -9.47034,0.591838 -11.8377,-5.91838 0,0 3.72532,3.02816 7.69482,2.36735 0,0 -8.28666,-1.18368 -7.10299,-8.28573 0,0 2.36828,4.7347 5.91931,4.7347 0,0 -4.92577,-3.15864 -1.77645,-9.4694z"/>
  <path class="fil6 str2" d="M84.713 65.0658c0,0 -1.79695,14.3886 -19.5418,19.0311 0,0 12.3401,3.2854 19.5418,-1.86778l-7.10299 -0.591838c0,0 9.47034,0.591838 11.8377,-5.91838 0,0 -3.72532,3.02816 -7.69482,2.36735 0,0 8.28666,-1.18368 7.10299,-8.28573 0,0 -2.36828,4.7347 -5.91931,4.7347 0,0 4.92577,-3.15864 1.77645,-9.4694z"/>
  <polygon class="fil7 str1" points="60.4513,26.8415 61.4766,29.6767 64.5737,29.837 62.1933,31.6871 62.9986,34.6808 60.5035,32.991 57.9041,34.6808 58.742,31.7859 56.3299,29.837 59.3422,29.7373 "/>
  <polygon class="fil7 str1" points="73.6899,32.0301 74.333,33.8112 76.2781,33.9118 74.7841,35.0731 75.2892,36.954 73.7225,35.8924 72.0896,36.954 72.6152,35.1356 71.1007,33.9118 72.9927,33.8494 "/>
  <polygon class="fil7 str1" points="48.1234,32.0301 48.7665,33.8112 50.7116,33.9118 49.2176,35.0731 49.7228,36.954 48.156,35.8924 46.5231,36.954 47.0488,35.1356 45.5342,33.9118 47.4262,33.8494 "/>
  <polygon class="fil7 str1" points="83.1145,38.8805 83.7576,40.6616 85.7028,40.7622 84.2087,41.9235 84.7139,43.8044 83.1471,42.7428 81.5142,43.8044 82.0399,41.986 80.5254,40.7622 82.4174,40.6998 "/>
  <polygon class="fil7 str1" points="38.5496,38.8805 39.1927,40.6616 41.1379,40.7622 39.6438,41.9235 40.149,43.8044 38.5822,42.7428 36.9493,43.8044 37.475,41.986 35.9604,40.7622 37.8525,40.6998 "/>
  <polygon class="fil7 str1" points="88.8558,47.8876 89.4989,49.6687 91.4441,49.7694 89.95,50.9307 90.4552,52.8115 88.8884,51.7499 87.2555,52.8115 87.7812,50.9931 86.2666,49.7694 88.1587,49.7069 "/>
  <polygon class="fil7 str1" points="33.2221,47.8876 33.8652,49.6687 35.8104,49.7694 34.3163,50.9307 34.8215,52.8115 33.2548,51.7499 31.6218,52.8115 32.1475,50.9931 30.633,49.7694 32.525,49.7069 "/>
  <polygon class="fil7 str1" points="90.1439,57.5229 90.787,59.304 92.7321,59.4047 91.2381,60.566 91.7432,62.4468 90.1765,61.3852 88.5436,62.4468 89.0693,60.6284 87.5547,59.4047 89.4467,59.3422 "/>
  <polygon class="fil7 str1" points="30.9592,57.5229 31.6023,59.304 33.5474,59.4047 32.0534,60.566 32.5585,62.4468 30.9918,61.3852 29.3589,62.4468 29.8845,60.6284 28.37,59.4047 30.262,59.3422 "/>
  <path class="fil0" d="M23.3287 77.2819m-0.550829 -1.43532l-1.81186 0.695293 -1.93862 2.39997 -0.357899 -0.93296 1.34585 -1.58258 -2.05139 -0.254444 -0.352307 -0.918048 3.05519 0.491179 1.80534 -0.693429 0.305705 0.79502zm-0.65708 -1.72052m-1.3794 -4.00679l0.301977 0.877038 -0.870514 0.689701 0.549896 1.59656 1.10352 -0.0121164 0.294521 0.855602 -4.89501 -0.0540576 -0.293589 -0.852806 3.8092 -3.09993zm-1.2135 2.07749l-1.42787 1.10818 1.80254 -0.0177085 -0.374675 -1.09047zm1.47354 -1.61334m-0.345782 -1.49777l-1.89202 0.436189 -2.25271 2.10732 -0.224619 -0.973969 1.55276 -1.3794 -1.9964 -0.538712 -0.220891 -0.957193 2.95639 0.911523 1.88642 -0.435257 0.191066 0.829505zm-0.45017 -1.78763m-0.442713 -4.21463l0.0969309 0.922708 -1.00286 0.476266 0.176153 1.67951 1.07836 0.235803 0.0941348 0.900339 -4.75707 -1.15385 -0.0941348 -0.896611 4.40849 -2.16417zm-1.64969 1.75221l-1.64037 0.757739 1.7606 0.388656 -0.120232 -1.14639zm1.5742 -1.78856m-1.50336 -0.187338l-0.103455 -0.827641c0.303841,-0.0549896 0.525664,-0.160309 0.665468,-0.315957 0.138872,-0.155649 0.207842,-0.361627 0.203182,-0.620731 -0.00559217,-0.274948 -0.0717662,-0.481858 -0.20225,-0.617935 -0.12862,-0.137008 -0.277744,-0.205046 -0.447373,-0.20225 -0.109047,0.00186406 -0.201318,0.033553 -0.276812,0.0941348 -0.0764263,0.0596498 -0.140736,0.163105 -0.193862,0.310365 -0.0372811,0.099727 -0.099727,0.329006 -0.190134,0.685973 -0.115571,0.45949 -0.262832,0.781971 -0.438985,0.969309 -0.248851,0.263764 -0.556421,0.39984 -0.920844,0.406364 -0.235803,0.00372811 -0.455762,-0.0540576 -0.662672,-0.172425 -0.205046,-0.118368 -0.363491,-0.291725 -0.476266,-0.518208 -0.110911,-0.229279 -0.168697,-0.503295 -0.173357,-0.827641 -0.00932028,-0.531256 0.109979,-0.932028 0.358831,-1.20511 0.249783,-0.272152 0.584382,-0.417549 1.00845,-0.438985l0.0559217 0.850942c-0.235803,0.0410092 -0.406364,0.123028 -0.507023,0.244191 -0.101591,0.122096 -0.150057,0.302909 -0.145396,0.54244 0.00372811,0.247919 0.0624459,0.441781 0.176153,0.579721 0.0717662,0.0894747 0.168697,0.132348 0.287997,0.130484 0.109047,-0.00186406 0.201318,-0.0456694 0.276812,-0.131416 0.0969309,-0.109047 0.196658,-0.372811 0.295453,-0.789428 0.099727,-0.416617 0.205046,-0.725118 0.315025,-0.926436 0.111843,-0.200386 0.264696,-0.358831 0.461354,-0.474402 0.195726,-0.115571 0.439917,-0.176153 0.731642,-0.181745 0.262832,-0.00372811 0.511683,0.0577857 0.74469,0.189202 0.233007,0.130484 0.408228,0.31689 0.524732,0.561081 0.116503,0.244191 0.178017,0.548964 0.184542,0.916183 0.00932028,0.534052 -0.118368,0.94694 -0.383063,1.23773 -0.264696,0.289861 -0.653352,0.46881 -1.16876,0.532188zm1.42787 -3.74209m0.369083 -4.22209l-0.0810864 0.924572 -1.07556 0.27588 -0.146328 1.68231 1.01218 0.438053 -0.0782903 0.901271 -4.45043 -2.04114 0.0792224 -0.897543 4.74029 -1.2834zm-1.95353 1.4055l-1.75594 0.430597 1.65528 0.717662 0.100659 -1.14826zm1.89202 -1.43439m0.0829505 -0.429665l-4.52593 -0.879834 0.158445 -0.814592 3.35157 -1.11005 -3.02163 -0.587178 0.151921 -0.778243 4.525 0.879834 -0.163105 0.840689 -3.27608 1.09793 2.95173 0.573197 -0.151921 0.778243zm1.097 -5.36755m0.448305 -1.30484l-3.62093 -1.24705 -0.408228 1.18461 -0.738166 -0.254444 1.09327 -3.17262 0.737234 0.253512 -0.407296 1.18181 3.62279 1.24705 -0.278676 0.807136zm0.475334 -1.7867m1.79136 -3.84089l-0.393316 0.840689 -1.10445 -0.108115 -0.713933 1.53039 0.802476 0.757739 -0.382131 0.820185 -3.48392 -3.44012 0.381199 -0.816456 4.89408 0.415684zm-2.31795 0.65242l-1.79602 -0.195726 1.3095 1.2396 0.486519 -1.04387zm2.1912 -0.740962m0.215298 -0.358831l-3.95273 -2.37481 0.658012 -1.0942 3.0906 0.963717 -2.30584 -2.26856 0.658944 -1.097 3.9518 2.37481 -0.408228 0.678516 -3.11018 -1.86872 2.67865 2.58731 -0.423141 0.704613 -3.54077 -1.15292 3.11111 1.86872 -0.408228 0.678516zm2.28067 -3.89215m2.49131 -3.42893l-0.545236 0.751215 -1.06438 -0.317822 -0.99261 1.36635 0.643099 0.896611 -0.532188 0.732574 -2.76253 -4.04127 0.529392 -0.728846 4.72445 1.34119zm-2.39904 0.198522l-1.72612 -0.534984 1.04946 1.46701 0.676652 -0.932028zm2.39904 -0.18361m0.287997 -0.33087l-3.48019 -3.02443 0.544304 -0.626323 3.45782 0.714865 -2.32355 -2.0197 0.520072 -0.598362 3.48019 3.02536 -0.562013 0.645895 -3.38606 -0.687837 2.26856 1.9731 -0.51914 0.59743zm3.72438 -3.98535m0.329006 -0.27588l-2.96385 -3.53239 1.04853 -0.879834c0.397044,-0.332734 0.67106,-0.532188 0.821117,-0.59743 0.229279,-0.103455 0.48279,-0.118368 0.756807,-0.0456694 0.273084,0.0717662 0.529392,0.248851 0.764263,0.529392 0.182677,0.217163 0.298249,0.429665 0.34951,0.637507 0.0521936,0.209706 0.0577857,0.401704 0.0177085,0.579721 -0.0410092,0.177085 -0.105319,0.328074 -0.19759,0.451102 -0.12862,0.164969 -0.34019,0.371879 -0.635643,0.619799l-0.425937 0.356967 1.11843 1.3328 -0.653352 0.548032zm-1.80907 -3.48299l0.840689 1.00193 0.356967 -0.300113c0.25724,-0.21623 0.415684,-0.378403 0.469742,-0.488383 0.0568537,-0.109979 0.0764263,-0.223687 0.0596498,-0.34485 -0.0177085,-0.120232 -0.0689701,-0.231143 -0.157513,-0.336462 -0.106251,-0.127688 -0.230211,-0.205046 -0.370015,-0.230211 -0.138872,-0.0260968 -0.27122,-0.00559217 -0.394248,0.0633779 -0.0913387,0.0484655 -0.254444,0.172425 -0.489315,0.370015l-0.315957 0.264696zm4.47187 1.18274m0.356035 -0.240463l-2.57892 -3.82225 2.59663 -1.75128 0.436189 0.646827 -1.88922 1.27408 0.572265 0.848145 1.75687 -1.18554 0.434325 0.643099 -1.7578 1.18554 0.701817 1.04014 1.95633 -1.31882 0.434325 0.644031 -2.6628 1.79602zm2.87158 -2.01411m0.379335 -0.219027l-2.30491 -3.99281 0.718594 -0.414752 3.03562 1.80161 -1.53785 -2.66653 0.685041 -0.396112 2.30584 3.99281 -0.741894 0.428733 -2.97783 -1.75314 1.50336 2.60409 -0.685973 0.396112zm3.35064 -1.84169m-1.48565 -4.38612l1.42414 -0.633779c0.32155,-0.1426 0.577857,-0.224619 0.770787,-0.246987 0.258172,-0.0270288 0.509819,0.0158445 0.754011,0.129552 0.244191,0.113707 0.467878,0.286133 0.671992,0.518208 0.203182,0.233007 0.393316,0.545236 0.568537,0.940416 0.154717,0.346714 0.248851,0.662672 0.281472,0.948804 0.0400772,0.348578 0.0139804,0.658012 -0.0820185,0.927368 -0.0708341,0.204114 -0.203182,0.397976 -0.397976,0.579721 -0.145396,0.136076 -0.361627,0.268424 -0.649623,0.397044l-1.46515 0.65242 -1.87617 -4.21277zm1.097 0.366287l1.24239 2.78956 0.580653 -0.259104c0.218095,-0.0969309 0.369083,-0.179881 0.453898,-0.249783 0.110911,-0.0904067 0.190134,-0.194794 0.236735,-0.315025 0.0466014,-0.1193 0.0531256,-0.285201 0.0223687,-0.497703 -0.031689,-0.21157 -0.120232,-0.480926 -0.265628,-0.807136 -0.143532,-0.325278 -0.281472,-0.562945 -0.411956,-0.713933 -0.130484,-0.150989 -0.264696,-0.254444 -0.402636,-0.309433 -0.13794,-0.0559217 -0.287997,-0.068038 -0.448305,-0.0382131 -0.121164,0.0214366 -0.34019,0.103455 -0.658012,0.245123l-0.34951 0.155649zm4.29572 2.40929m0.381199 -0.131416l-1.5015 -4.35909 0.807136 -0.277744 1.50057 4.35909 -0.806204 0.277744zm1.1408 -0.512615m-0.781971 -4.56414l1.50616 -0.403568c0.339258,-0.0904067 0.604886,-0.132348 0.79968,-0.123028 0.259104,0.0130484 0.500499,0.0950669 0.723254,0.246055 0.223687,0.150057 0.418481,0.356035 0.58345,0.61607 0.164969,0.2619 0.302909,0.600226 0.414752,1.01777 0.098795,0.366287 0.141668,0.693429 0.129552,0.981425 -0.0149124,0.350443 -0.0904067,0.65242 -0.225551,0.903135 -0.102523,0.190134 -0.262832,0.360695 -0.484655,0.510751 -0.164037,0.111843 -0.398908,0.207842 -0.702749,0.289861l-1.54996 0.414752 -1.19393 -4.45323zm1.02616 0.53312l0.79036 2.94894 0.614206 -0.164969c0.230211,-0.0615138 0.392384,-0.1193 0.486519,-0.175221 0.12396,-0.0717662 0.219027,-0.163105 0.284269,-0.274016 0.0643099,-0.110911 0.0969309,-0.274016 0.099727,-0.488383 0.00279608,-0.213434 -0.0428733,-0.493975 -0.135144,-0.838825 -0.0922708,-0.343918 -0.191066,-0.600226 -0.296385,-0.769855 -0.104387,-0.169629 -0.220891,-0.292657 -0.348578,-0.368151 -0.12862,-0.0764263 -0.274948,-0.111843 -0.437121,-0.108115 -0.12396,0.00279608 -0.352307,0.0493975 -0.688769,0.138872l-0.369083 0.099727zm3.89867 3.0002m0.397044 -0.0699021l-0.800612 -4.54084 0.839757 -0.148192 0.800612 4.54084 -0.839757 0.148192zm1.24239 -0.31689m0.438053 -0.0456694l-0.481858 -4.58558 0.848145 -0.0894747 0.214366 2.03555 1.4987 -2.21543 1.1408 -0.120232 -1.39431 1.9526 1.96192 2.62366 -1.097 0.115571 -1.38033 -2.03089 -0.607682 0.838825 0.145396 1.38593 -0.848145 0.0894747zm3.76446 -0.4045m4.237 -0.0736302l-0.9283 0.0158445 -0.386792 -1.04108 -1.68883 0.0298249 -0.328074 1.05319 -0.904999 0.0158445 1.56394 -4.6387 0.901271 -0.0158445 1.77179 4.58092zm-1.60216 -1.79695l-0.61141 -1.70002 -0.540576 1.72052 1.15199 -0.0205046zm1.62639 1.87058m0.437121 0.0307569l0.320618 -4.59956 0.828573 0.0577857 1.50989 3.19126 0.214366 -3.07103 0.79036 0.0559217 -0.32155 4.59956 -0.853738 -0.0605818 -1.48938 -3.11763 -0.209706 2.99927 -0.789428 -0.0549896zm5.4039 0.613274m0.397044 0.0699021l0.800612 -4.54084 0.839757 0.148192 -0.800612 4.54084 -0.839757 -0.148192zm1.24239 0.187338m0.617935 -1.38313l0.822981 0.143532c-0.0363491,0.306637 -0.00186406,0.548964 0.107183,0.728846 0.108115,0.178017 0.285201,0.303841 0.534052,0.374675 0.264696,0.0764263 0.481858,0.0726982 0.649623,-0.0121164 0.169629,-0.0838825 0.277744,-0.205978 0.324346,-0.369083 0.0298249,-0.105319 0.0270288,-0.20225 -0.00838825,-0.291725 -0.034485,-0.0904067 -0.115571,-0.182677 -0.240463,-0.276812 -0.0848145,-0.065242 -0.285201,-0.191066 -0.600226,-0.382131 -0.405432,-0.245123 -0.67106,-0.479994 -0.798748,-0.703681 -0.178949,-0.315025 -0.219959,-0.648691 -0.1193,-0.998202 0.065242,-0.227415 0.184542,-0.420345 0.358831,-0.584382 0.173357,-0.161241 0.384928,-0.262832 0.634711,-0.303841 0.250716,-0.0382131 0.530324,-0.0130484 0.842553,0.0764263 0.509819,0.146328 0.858398,0.377471 1.04667,0.695293 0.187338,0.318754 0.229279,0.681312 0.124892,1.09327l-0.829505 -0.195726c0.0298249,-0.237667 0.00186406,-0.424073 -0.0857466,-0.555489 -0.0866786,-0.134212 -0.246055,-0.233007 -0.476266,-0.299181 -0.237667,-0.068038 -0.440849,-0.0689701 -0.604886,-0.000932028 -0.107183,0.0438053 -0.177085,0.123028 -0.210638,0.237667 -0.0298249,0.105319 -0.0139804,0.205978 0.0456694,0.303841 0.0754943,0.124892 0.298249,0.296385 0.668264,0.512615 0.370015,0.217163 0.633779,0.40916 0.793156,0.573197 0.159377,0.164969 0.26656,0.356967 0.320618,0.578789 0.0521936,0.221823 0.0391452,0.47347 -0.0410092,0.752147 -0.0726982,0.254444 -0.205046,0.474402 -0.397976,0.658012 -0.193862,0.185474 -0.424073,0.297317 -0.689701,0.337394 -0.268424,0.0410092 -0.578789,0.0102523 -0.931096,-0.0913387 -0.512615,-0.14726 -0.870514,-0.389588 -1.07183,-0.727914 -0.200386,-0.337394 -0.256308,-0.762399 -0.167765,-1.27315zm3.19872 2.41395m0.423141 0.162173l1.63851 -4.26962 0.79502 0.305705 -1.35983 3.54357 1.98056 0.759603 -0.278676 0.72605 -2.77558 -1.06531zm2.94521 1.12589m3.81013 1.85753l-0.834165 -0.406364 0.126756 -1.10352 -1.51827 -0.74003 -0.770787 0.789428 -0.81366 -0.397044 3.49977 -3.42334 0.810864 0.396112 -0.500499 4.88476zm-0.612342 -2.32727l0.226483 -1.79322 -1.26197 1.28806 1.03548 0.505159zm0.591838 2.33753m0.355103 0.221823l2.44191 -3.90986 1.08302 0.67572 -1.01777 3.07383 2.30957 -2.26669 1.08395 0.677584 -2.44285 3.91079 -0.67106 -0.419413 1.92277 -3.07849 -2.63391 2.63391 -0.696225 -0.435257 1.21443 -3.52027 -1.92277 3.07756 -0.67106 -0.419413zm5.07769 3.45037m0.320618 0.269356l2.96385 -3.53239 0.977697 0.820185 -1.43532 2.90234 2.60222 -1.92277 0.979561 0.822049 -2.96385 3.53145 -0.605818 -0.508887 2.33287 -2.78024 -2.97597 2.24153 -0.629119 -0.527528 1.69349 -3.31802 -2.3338 2.78024 -0.605818 -0.507955zm3.35623 3.01511m0.279608 0.289861l3.31709 -3.20245 0.59277 0.613274 -3.31709 3.20245 -0.59277 -0.613274zm0.887291 0.869582m0.285201 0.328074l3.48019 -3.02536 1.89947 2.18561 -0.589042 0.512615 -1.34026 -1.54157 -0.823913 0.715797 1.15758 1.33094 -0.58811 0.511683 -1.15758 -1.33094 -1.4782 1.28527 -0.560149 -0.644031zm2.0197 2.44191m0.791292 1.13055l3.13814 -2.19772 -0.718594 -1.02616 0.639371 -0.447373 1.92464 2.74948 -0.638439 0.447373 -0.71673 -1.02337 -3.13907 2.19679 -0.489315 -0.699021zm1.07649 1.44558m2.18374 3.63305l-0.47813 -0.795952 0.707409 -0.855602 -0.869582 -1.44744 -1.07649 0.241395 -0.466946 -0.775447 4.79994 -0.964649 0.46415 0.772651 -3.08035 3.82504zm0.754943 -2.28533l1.16597 -1.38033 -1.7606 0.392384 0.594634 0.98795zm-0.801544 2.32448m0.182677 0.391452l4.17828 -1.94887 0.361627 0.773583 -1.6441 0.766127 0.705545 1.51455 1.6441 -0.767059 0.360695 0.773583 -4.17921 1.94887 -0.360695 -0.773583 1.82771 -0.851874 -0.706477 -1.51455 -1.82677 0.851874 -0.360695 -0.772651zm1.54157 3.53705m4.47653 -1.17902l0.292657 0.801544 -2.34685 0.853738c-0.371879,0.136076 -0.610478,0.233939 -0.713001,0.293589 -0.164969,0.098795 -0.277744,0.233007 -0.337394,0.39984 -0.0615138,0.168697 -0.0512615,0.364423 0.0307569,0.58811 0.0829505,0.228347 0.196658,0.381199 0.339258,0.460422 0.143532,0.0782903 0.293589,0.101591 0.45017,0.0708341 0.156581,-0.0298249 0.405432,-0.107183 0.748418,-0.232075l2.39718 -0.872378 0.290793 0.800612 -2.27508 0.828573c-0.521004,0.189202 -0.895679,0.301977 -1.12589,0.336462 -0.231143,0.0354171 -0.440849,0.0205046 -0.630983,-0.0419413 -0.190134,-0.0624459 -0.364423,-0.175221 -0.522868,-0.337394 -0.159377,-0.163105 -0.295453,-0.402636 -0.410092,-0.71673 -0.137008,-0.378403 -0.193862,-0.683176 -0.170561,-0.914319 0.0251648,-0.231143 0.0932028,-0.430597 0.204114,-0.599294 0.109979,-0.168697 0.244191,-0.302909 0.397976,-0.39984 0.229279,-0.1426 0.585314,-0.301977 1.0709,-0.47813l2.3105 -0.841621zm-3.16517 5.17276m0.109047 0.438985l4.43832 -1.10632 0.205046 0.826709 -3.68244 0.918048 0.512615 2.05792 -0.754011 0.18827 -0.719526 -2.88463zm1.01498 4.58558m4.63031 0.0195726l0.0745622 0.85001 -2.48758 0.218095c-0.394248,0.034485 -0.651488,0.068038 -0.765195,0.0978629 -0.184542,0.0531256 -0.328074,0.153785 -0.428733,0.299181 -0.103455,0.14726 -0.143532,0.339258 -0.123028,0.576925 0.0214366,0.241395 0.0904067,0.418481 0.208774,0.531256 0.118368,0.113707 0.25724,0.175221 0.415684,0.185474 0.159377,0.0121164 0.420345,0.000932028 0.782903,-0.0307569l2.54164 -0.221823 0.0745622 0.849077 -2.41209 0.210638c-0.552693,0.0484655 -0.943212,0.0605818 -1.17529,0.034485 -0.232075,-0.0260968 -0.431529,-0.0941348 -0.598362,-0.204114 -0.166833,-0.109979 -0.306637,-0.263764 -0.417549,-0.461354 -0.111843,-0.198522 -0.180813,-0.465082 -0.210638,-0.798748 -0.034485,-0.400772 -0.0111843,-0.710205 0.0708341,-0.927368 0.0848145,-0.21623 0.203182,-0.391452 0.353239,-0.525664 0.150057,-0.134212 0.314093,-0.229279 0.488383,-0.283337 0.25724,-0.0782903 0.643099,-0.139804 1.15758,-0.185474l2.4503 -0.214366zm-4.20438 4.23141m-0.00745622 0.452034l4.57253 0.0801544 -0.0149124 0.851874 -3.79522 -0.066174 -0.0372811 2.12036 -0.777311 -0.0130484 0.0521936 -2.97317zm-0.106251 3.15491m4.57067 0.743758l-0.0596498 0.850942 -2.49038 -0.174289c-0.39518,-0.0270288 -0.654284,-0.034485 -0.771719,-0.0223687 -0.191066,0.0242327 -0.347646,0.100659 -0.470674,0.228347 -0.125824,0.129552 -0.194794,0.312229 -0.21157,0.549896 -0.0167765,0.242327 0.0242327,0.428733 0.12396,0.558285 0.098795,0.130484 0.225551,0.212502 0.381199,0.248851 0.155649,0.0363491 0.414752,0.066174 0.779175,0.0913387l2.5435 0.178017 -0.0587178 0.85001 -2.41582 -0.168697c-0.553625,-0.0382131 -0.941348,-0.0876106 -1.16597,-0.150057 -0.224619,-0.0615138 -0.411024,-0.160309 -0.560149,-0.294521 -0.146328,-0.135144 -0.260968,-0.308501 -0.339258,-0.521004 -0.0792224,-0.213434 -0.106251,-0.487451 -0.0829505,-0.822049 0.0279608,-0.401704 0.099727,-0.702749 0.21623,-0.904999 0.116503,-0.200386 0.260036,-0.354171 0.429665,-0.46415 0.169629,-0.109047 0.345782,-0.177085 0.526596,-0.203182 0.26656,-0.0363491 0.658012,-0.0372811 1.17249,-0.00186406l2.45403 0.171493zm-4.91086 3.50722m-0.0866786 0.40916l4.51008 0.959057 -0.265628 1.24799 -3.23693 0.0950669 2.92004 1.39525 -0.26656 1.25078 -4.50915 -0.959057 0.164969 -0.773583 3.55009 0.754011 -3.37581 -1.5742 0.170561 -0.803408 3.72345 -0.0633779 -3.55009 -0.754011 0.164969 -0.774515zm-1.50243 5.96778m-0.12396 0.383063l4.38426 1.42507 -0.262832 0.810864 -4.38612 -1.42414 0.264696 -0.811796zm-0.360695 1.16317m-0.144464 0.376539l4.30504 1.65155 -0.305705 0.796884 -4.30504 -1.65249 0.305705 -0.795952zm-0.458558 1.1697m-0.164037 0.368151l4.21277 1.87524 -0.347646 0.779175 -4.21183 -1.87524 0.346714 -0.779175z"/>
  <path class="fil0" d="M26.0539 86.8026m0.301045 0.358831l3.52679 -2.95826 0.958125 1.1408c0.362559,0.433393 0.582517,0.73071 0.65708,0.891951 0.117436,0.246055 0.144464,0.512615 0.0820185,0.796884 -0.0633779,0.286133 -0.235803,0.546168 -0.515411,0.781039 -0.21623,0.181745 -0.432461,0.295453 -0.645895,0.34019 -0.213434,0.0447373 -0.412888,0.0428733 -0.598362,-0.00745622 -0.185474,-0.0503295 -0.34485,-0.126756 -0.477198,-0.229279 -0.176153,-0.141668 -0.39984,-0.373743 -0.67106,-0.696225l-0.388656 -0.463218 -1.33 1.11564 -0.59743 -0.712069zm3.52679 -1.74569l-0.999134 0.838825 0.32621 0.388656c0.235803,0.28054 0.411024,0.453898 0.527528,0.517276 0.115571,0.0633779 0.234871,0.0885427 0.359763,0.0773583 0.12396,-0.0130484 0.237667,-0.0624459 0.341122,-0.150057 0.12862,-0.107183 0.203182,-0.233939 0.222755,-0.379335 0.0214366,-0.144464 -0.00745622,-0.285201 -0.0829505,-0.417549 -0.0559217,-0.098795 -0.191998,-0.27588 -0.407296,-0.532188l-0.287997 -0.342986zm-1.01777 4.66666m0.337394 0.325278l3.19779 -3.31056 2.45403 2.37015 -0.540576 0.560149 -1.7867 -1.72425 -0.708341 0.733506 1.66181 1.60495 -0.53778 0.557353 -1.66274 -1.60495 -0.869582 0.901271 1.84914 1.78577 -0.539644 0.558285 -2.51741 -2.43166zm2.72991 2.69729m0.370947 0.289861l2.8343 -3.62745 1.54251 1.20511c0.387724,0.302909 0.643099,0.555489 0.767991,0.757739 0.12396,0.20225 0.175221,0.427801 0.150989,0.676652 -0.0251648,0.249783 -0.121164,0.480926 -0.288929,0.695293 -0.212502,0.272152 -0.46881,0.435257 -0.767059,0.487451 -0.298249,0.0521936 -0.625391,-0.0242327 -0.979561,-0.226483 0.0866786,0.217163 0.13794,0.420345 0.153785,0.61141 0.0177085,0.191066 0.00279608,0.494907 -0.0428733,0.914319l-0.109047 1.05412 -0.876106 -0.684109 0.0876106 -1.20325c0.031689,-0.429665 0.0419413,-0.707409 0.0298249,-0.835097 -0.0111843,-0.126756 -0.0456694,-0.234871 -0.101591,-0.323414 -0.0568537,-0.0876106 -0.168697,-0.196658 -0.338326,-0.329006l-0.14726 -0.115571 -1.18368 1.51455 -0.732574 -0.572265zm2.36922 -1.52107l0.540576 0.422209c0.352307,0.274948 0.582517,0.432461 0.693429,0.470674 0.110911,0.0391452 0.219027,0.0410092 0.325278,0.00745622 0.105319,-0.034485 0.20225,-0.105319 0.287065,-0.213434 0.0959989,-0.123028 0.138872,-0.246055 0.132348,-0.372811 -0.00559217,-0.125824 -0.0605818,-0.245123 -0.164037,-0.358831 -0.0531256,-0.0531256 -0.228347,-0.196658 -0.525664,-0.428733l-0.571333 -0.446441 -0.717662 0.919912zm0.939484 4.06085m0.393316 0.255376l2.50716 -3.86046 2.86133 1.85846 -0.424073 0.653352 -2.08215 -1.35237 -0.556421 0.855602 1.93769 1.25824 -0.421277 0.649623 -1.93769 -1.25824 -0.682244 1.0504 2.15578 1.39991 -0.423141 0.651488 -2.93496 -1.906zm3.18847 2.05978m0.425005 0.21623l2.08961 -4.10092 0.806204 0.410092 0.283337 3.59483 1.39525 -2.73923 0.769855 0.392384 -2.08961 4.10186 -0.832301 -0.424073 -0.289861 -3.51747 -1.36262 2.67492 -0.769855 -0.392384zm3.76912 1.77738m3.06358 -0.538712l0.302909 -0.713001 1.84448 0.782903 -0.715797 1.68697c-0.254444,0.0978629 -0.578789,0.140736 -0.974901,0.12862 -0.396112,-0.0139804 -0.768923,-0.0941348 -1.11657,-0.241395 -0.442713,-0.18827 -0.79036,-0.444577 -1.04108,-0.769855 -0.250716,-0.327142 -0.38586,-0.697157 -0.4045,-1.11471 -0.0186406,-0.415684 0.0577857,-0.827641 0.230211,-1.23307 0.187338,-0.441781 0.446441,-0.79502 0.777311,-1.05972 0.329938,-0.263764 0.713001,-0.411956 1.14733,-0.443645 0.331802,-0.0260968 0.699953,0.0484655 1.10352,0.219959 0.526596,0.222755 0.891019,0.508887 1.09234,0.852806 0.20225,0.346714 0.262832,0.732574 0.182677,1.15851l-0.917116 -0.20225c0.0288929,-0.233007 -0.0139804,-0.445509 -0.127688,-0.636575 -0.113707,-0.190134 -0.292657,-0.336462 -0.539644,-0.441781 -0.374675,-0.158445 -0.72139,-0.166833 -1.04387,-0.0233007 -0.320618,0.143532 -0.579721,0.448305 -0.778243,0.914319 -0.213434,0.503295 -0.2619,0.9283 -0.144464,1.27408 0.115571,0.347646 0.356035,0.59743 0.718594,0.751215 0.178949,0.0754943 0.373743,0.115571 0.584382,0.123028 0.208774,0.00559217 0.400772,-0.0139804 0.571333,-0.0587178l0.228347 -0.53778 -0.979561 -0.416617zm1.61707 2.33939m0.467878 0.108115l1.03548 -4.48585 0.904999 0.209706 -0.45949 1.99174 2.28999 -1.56954 1.21723 0.281472 -2.0924 1.35703 1.14919 3.14932 -1.17156 -0.270288 -0.746554 -2.38972 -0.908727 0.578789 -0.313161 1.3561 -0.904999 -0.208774zm4.0478 1.04946m1.01964 -4.51288l0.922708 0.113707 -0.303841 2.47453c-0.0484655,0.392384 -0.0689701,0.648691 -0.0596498,0.767059 0.0158445,0.19293 0.0913387,0.354171 0.225551,0.485587 0.135144,0.131416 0.331802,0.213434 0.589042,0.245123 0.2619,0.031689 0.466014,0.00279608 0.612342,-0.0885427 0.146328,-0.0904067 0.242327,-0.21157 0.287997,-0.363491 0.0466014,-0.153785 0.0913387,-0.411024 0.135144,-0.772651l0.310365 -2.52673 0.922708 0.112775 -0.294521 2.39997c-0.068038,0.548964 -0.138872,0.93296 -0.217163,1.15385 -0.0773583,0.219959 -0.19293,0.39984 -0.345782,0.539644 -0.153785,0.138872 -0.347646,0.240463 -0.58345,0.305705 -0.234871,0.066174 -0.534984,0.0754943 -0.896611,0.0307569 -0.436189,-0.0540576 -0.760535,-0.144464 -0.973969,-0.273084 -0.213434,-0.129552 -0.374675,-0.281472 -0.485587,-0.458558 -0.111843,-0.176153 -0.177085,-0.356035 -0.196658,-0.53778 -0.0279608,-0.269356 -0.0102523,-0.658944 0.0521936,-1.17063l0.299181 -2.43725zm3.56035 5.02736m0.492111 0.0260968l0.239531 -4.56041 0.927368 0.0493975 -0.19759 3.78403 2.30677 0.121164 -0.0400772 0.775447 -3.236 -0.169629zm3.43639 0.231143m0.0801544 -2.28906c-0.0410092,-0.467878 -0.00559217,-0.865854 0.107183,-1.19486 0.0838825,-0.242327 0.20691,-0.465082 0.371879,-0.6664 0.164037,-0.200386 0.34951,-0.355103 0.556421,-0.46415 0.274948,-0.14726 0.599294,-0.234871 0.973037,-0.267492 0.67572,-0.0596498 1.23494,0.102523 1.67672,0.486519 0.442713,0.383063 0.696225,0.948804 0.761467,1.69536 0.065242,0.740962 -0.0857466,1.33653 -0.452034,1.79043 -0.366287,0.452966 -0.886359,0.709273 -1.55835,0.767991 -0.682244,0.0596498 -1.24333,-0.100659 -1.68231,-0.481858 -0.438985,-0.380267 -0.689701,-0.936688 -0.754011,-1.66553zm0.950669 -0.114639c0.0456694,0.51914 0.201318,0.903135 0.46415,1.14919 0.262832,0.247919 0.578789,0.354171 0.948804,0.322482 0.368151,-0.032621 0.659876,-0.191998 0.874242,-0.479062 0.212502,-0.287065 0.296385,-0.696225 0.249783,-1.22655 -0.0456694,-0.525664 -0.196658,-0.907795 -0.448305,-1.14733 -0.253512,-0.237667 -0.570401,-0.34019 -0.952533,-0.306637 -0.382131,0.033553 -0.678516,0.191066 -0.889155,0.47347 -0.209706,0.281472 -0.292657,0.685973 -0.246987,1.21443zm3.97137 2.08215m0.46881 -0.0913387l-0.878902 -4.51847 0.887291 -0.172425 2.43725 2.65814 -0.587178 -3.01791 0.848145 -0.164969 0.878902 4.5194 -0.917116 0.178017 -2.39345 -2.5929 0.573197 2.94614 -0.848145 0.164969zm5.89787 -1.13055m-1.13241 -4.48678l1.72891 -0.629119c0.342986,-0.124892 0.603954,-0.204114 0.782903,-0.236735 0.178949,-0.032621 0.350443,-0.0279608 0.516343,0.0149124 0.165901,0.0419413 0.318754,0.122096 0.462286,0.241395 0.143532,0.117436 0.249783,0.270288 0.317822,0.456694 0.0736302,0.20225 0.0866786,0.408228 0.0400772,0.617003 -0.0493975,0.209706 -0.150989,0.39052 -0.306637,0.543372 0.291725,-0.0195726 0.54244,0.0372811 0.750283,0.169629 0.209706,0.134212 0.359763,0.32621 0.45017,0.575061 0.0717662,0.196658 0.0959989,0.4045 0.0717662,0.624459 -0.0242327,0.218095 -0.0941348,0.41382 -0.212502,0.581585 -0.117436,0.168697 -0.287997,0.308501 -0.511683,0.419413 -0.139804,0.068038 -0.487451,0.205046 -1.04294,0.411956l-1.47167 0.535916 -1.57513 -4.32554zm1.13614 0.401704l0.364423 1.00007 0.571333 -0.207842c0.341122,-0.12396 0.549896,-0.205978 0.630051,-0.246055 0.1426,-0.0717662 0.242327,-0.165901 0.295453,-0.282404 0.0549896,-0.116503 0.0559217,-0.245123 0.00466014,-0.384928 -0.0484655,-0.134212 -0.12396,-0.230211 -0.227415,-0.286133 -0.105319,-0.0568537 -0.233007,-0.067106 -0.384928,-0.031689 -0.0904067,0.0214366 -0.341122,0.107183 -0.751215,0.256308l-0.502363 0.182677zm0.626323 1.72052l0.420345 1.15571 0.808068 -0.293589c0.315025,-0.114639 0.511683,-0.195726 0.589974,-0.245123 0.121164,-0.0699021 0.205978,-0.166833 0.254444,-0.287065 0.0484655,-0.121164 0.0447373,-0.259104 -0.0111843,-0.411956 -0.0466014,-0.129552 -0.1193,-0.228347 -0.214366,-0.296385 -0.0959989,-0.068038 -0.21157,-0.100659 -0.345782,-0.098795 -0.13328,0.00186406 -0.39984,0.0764263 -0.796884,0.219959l-0.704613 0.25724zm3.757 0.821117m-1.52666 -4.36748l0.842553 -0.392384 1.05319 2.25924c0.166833,0.357899 0.286133,0.586246 0.356967,0.682244 0.114639,0.154717 0.264696,0.251648 0.448305,0.291725 0.184542,0.0410092 0.394248,0.00559217 0.629119,-0.104387 0.238599,-0.110911 0.397044,-0.244191 0.472538,-0.398908 0.0764263,-0.153785 0.0932028,-0.307569 0.0512615,-0.461354 -0.0419413,-0.153785 -0.139804,-0.396112 -0.294521,-0.72605l-1.07556 -2.3077 0.841621 -0.393316 1.02243 2.1912c0.233939,0.502363 0.376539,0.864922 0.426869,1.09327 0.0512615,0.228347 0.0484655,0.441781 -0.00745622,0.641235 -0.0559217,0.199454 -0.166833,0.388656 -0.331802,0.568537 -0.164969,0.180813 -0.414752,0.347646 -0.74469,0.501431 -0.397976,0.185474 -0.72139,0.28054 -0.970241,0.285201 -0.249783,0.00279608 -0.466946,-0.0410092 -0.655216,-0.132348 -0.18827,-0.0904067 -0.338326,-0.207842 -0.452034,-0.351375 -0.165901,-0.213434 -0.356967,-0.553625 -0.575993,-1.0215l-1.03735 -2.22475zm5.72079 2.43819m0.40916 -0.246055l-2.37108 -3.94527 0.775447 -0.466014 3.19779 1.6646 -1.58258 -2.63484 0.74003 -0.445509 2.37108 3.94621 -0.800612 0.480926 -3.13534 -1.618 1.5453 2.57333 -0.74003 0.444577zm3.65635 -2.00479m0.962785 -2.95732l-0.487451 -0.603022 1.55649 -1.26103 1.15385 1.42507c-0.032621,0.270288 -0.14726,0.575993 -0.343918,0.919912 -0.198522,0.343918 -0.443645,0.634711 -0.737234,0.87331 -0.373743,0.302909 -0.764263,0.489315 -1.16876,0.557353 -0.406364,0.068038 -0.796884,0.0130484 -1.17342,-0.165901 -0.376539,-0.178949 -0.703681,-0.439917 -0.981425,-0.782903 -0.301977,-0.371879 -0.492111,-0.767059 -0.570401,-1.18274 -0.0782903,-0.415684 -0.0288929,-0.823913 0.14726,-1.22189 0.132348,-0.304773 0.370947,-0.595566 0.712069,-0.871446 0.443645,-0.359763 0.866786,-0.548032 1.26569,-0.563877 0.400772,-0.0149124 0.769855,0.111843 1.10818,0.383063l-0.608614 0.713933c-0.19293,-0.134212 -0.39984,-0.195726 -0.621663,-0.185474 -0.220891,0.0111843 -0.435257,0.100659 -0.644031,0.269356 -0.315957,0.256308 -0.485587,0.559217 -0.510751,0.909659 -0.0233007,0.351375 0.12396,0.723254 0.442713,1.1175 0.343918,0.424073 0.696225,0.6664 1.05692,0.72605 0.360695,0.0596498 0.694361,-0.034485 1.00007,-0.282404 0.150989,-0.122096 0.277744,-0.27588 0.383063,-0.457626 0.103455,-0.182677 0.176153,-0.360695 0.21623,-0.53312l-0.367219 -0.453898 -0.827641 0.670128zm3.01045 -0.129552m3.32361 -3.20897l-0.727914 0.702749 -1.01591 -0.47347 -1.32441 1.27874 0.453898 1.01591 -0.709273 0.685041 -1.90786 -4.55668 0.707409 -0.683176 4.52406 2.03089zm-2.4969 -0.121164l-1.64317 -0.787564 0.739098 1.65994 0.904067 -0.872378zm2.53139 0.114639m0.308501 -0.355103l-3.47367 -3.01977 0.610478 -0.702749 1.36635 1.18834 1.19486 -1.37474 -1.36729 -1.1874 0.610478 -0.701817 3.47367 3.0207 -0.609546 0.700885 -1.51921 -1.32068 -1.19486 1.37474 1.51921 1.32068 -0.610478 0.701817z"/>
  <path class="fil0" d="M46.6666 110.524m3.3814 -1.22841l0.20225 -0.874242 2.25644 0.521004 -0.477198 2.06724c-0.268424,0.161241 -0.629119,0.274948 -1.08302,0.341122 -0.453898,0.0643099 -0.893815,0.0475334 -1.32068,-0.0503295 -0.54244,-0.125824 -0.988882,-0.348578 -1.34026,-0.668264 -0.351375,-0.32155 -0.579721,-0.71673 -0.684109,-1.1874 -0.105319,-0.470674 -0.099727,-0.954397 0.0149124,-1.45117 0.124892,-0.540576 0.34951,-0.994474 0.67106,-1.36356 0.324346,-0.367219 0.729778,-0.613274 1.21816,-0.73537 0.372811,-0.0959989 0.806204,-0.0857466 1.30204,0.0288929 0.643099,0.148192 1.11564,0.39984 1.41575,0.752147 0.299181,0.354171 0.445509,0.781039 0.439917,1.28247l-1.08488 -0.0456694c-0.0139804,-0.27122 -0.106251,-0.505159 -0.273084,-0.699953 -0.167765,-0.19293 -0.402636,-0.325278 -0.703681,-0.394248 -0.457626,-0.106251 -0.855602,-0.0447373 -1.193,0.182677 -0.338326,0.228347 -0.570401,0.627255 -0.702749,1.19859 -0.141668,0.615138 -0.112775,1.10911 0.0904067,1.48006 0.20225,0.371879 0.525664,0.607682 0.969309,0.710205 0.219027,0.0512615 0.449237,0.0577857 0.689701,0.0223687 0.239531,-0.034485 0.453898,-0.0959989 0.639371,-0.180813l0.152853 -0.658944 -1.19952 -0.276812zm2.25458 2.49317m0.540576 0.066174l0.648691 -5.28367 2.24619 0.27588c0.564809,0.0689701 0.968377,0.167765 1.21257,0.293589 0.244191,0.125824 0.429665,0.319686 0.552693,0.581585 0.124892,0.2619 0.166833,0.548032 0.12862,0.860262 -0.0484655,0.396112 -0.205978,0.710205 -0.470674,0.940416 -0.263764,0.229279 -0.633779,0.348578 -1.10539,0.358831 0.215298,0.164037 0.387724,0.334598 0.517276,0.513547 0.131416,0.180813 0.298249,0.490247 0.501431,0.932028l0.51914 1.11098 -1.27501 -0.156581 -0.630983 -1.24519c-0.222755,-0.444577 -0.379335,-0.72605 -0.466946,-0.845349 -0.0876106,-0.1193 -0.184542,-0.205046 -0.293589,-0.260036 -0.108115,-0.0521936 -0.284269,-0.0950669 -0.530324,-0.124892l-0.215298 -0.0260968 -0.27122 2.20611 -1.06717 -0.131416zm1.44185 -2.91911l0.788496 0.0969309c0.511683,0.0633779 0.835097,0.0810864 0.967445,0.0540576 0.132348,-0.0279608 0.241395,-0.0904067 0.32621,-0.187338 0.0857466,-0.0969309 0.13794,-0.223687 0.157513,-0.383063 0.0214366,-0.178017 -0.00838825,-0.327142 -0.0904067,-0.447373 -0.0801544,-0.121164 -0.205978,-0.20691 -0.376539,-0.258172 -0.0848145,-0.0214366 -0.342986,-0.0587178 -0.776379,-0.111843l-0.832301 -0.102523 -0.164037 1.33932zm3.38885 3.44757m0.540576 0.0279608l0.278676 -5.31629 3.94155 0.20691 -0.0466014 0.900339 -2.86878 -0.150989 -0.0615138 1.17902 2.66933 0.139804 -0.0475334 0.893815 -2.66933 -0.139804 -0.0754943 1.44744 2.97037 0.155649 -0.0475334 0.896611 -4.04314 -0.212502zm4.42061 0.0466014m0.117436 -1.74848l1.03269 -0.19293c0.0932028,0.343918 0.242327,0.589974 0.449237,0.738166 0.205046,0.145396 0.470674,0.205978 0.796884,0.178017 0.343918,-0.0307569 0.599294,-0.126756 0.760535,-0.288929 0.162173,-0.160309 0.234871,-0.339258 0.218095,-0.534052 -0.0111843,-0.126756 -0.0577857,-0.229279 -0.139804,-0.309433 -0.0801544,-0.0829505 -0.215298,-0.149124 -0.405432,-0.196658 -0.127688,-0.033553 -0.421277,-0.0848145 -0.877038,-0.157513 -0.586246,-0.0913387 -1.00473,-0.232075 -1.25358,-0.418481 -0.351375,-0.263764 -0.545236,-0.604886 -0.581585,-1.0243 -0.0242327,-0.270288 0.0298249,-0.529392 0.163105,-0.779175 0.132348,-0.246987 0.337394,-0.445509 0.614206,-0.593702 0.278676,-0.148192 0.620731,-0.239531 1.02803,-0.27588 0.6664,-0.0577857 1.17995,0.0428733 1.54251,0.304773 0.361627,0.264696 0.572265,0.637507 0.630983,1.12403l-1.06624 0.139804c-0.0689701,-0.268424 -0.184542,-0.455762 -0.346714,-0.562013 -0.160309,-0.106251 -0.391452,-0.146328 -0.693429,-0.1193 -0.311297,0.0270288 -0.549896,0.111843 -0.713933,0.255376 -0.106251,0.0913387 -0.153785,0.20691 -0.141668,0.342986 0.0102523,0.126756 0.0736302,0.229279 0.187338,0.309433 0.144464,0.101591 0.483723,0.191066 1.01498,0.267492 0.532188,0.0782903 0.9283,0.171493 1.1902,0.28054 0.260036,0.110911 0.471606,0.272152 0.633779,0.488383 0.160309,0.21623 0.255376,0.492111 0.284269,0.825777 0.0270288,0.303841 -0.031689,0.59743 -0.178949,0.876106 -0.145396,0.279608 -0.367219,0.498635 -0.663604,0.653352 -0.298249,0.157513 -0.677584,0.255376 -1.13801,0.295453 -0.67106,0.0587178 -1.19859,-0.0503295 -1.58538,-0.329006 -0.38586,-0.278676 -0.641235,-0.712069 -0.761467,-1.29831zm4.76919 1.30204m0.504227 -0.0615138l-0.648691 -5.2846 1.06624 -0.130484 0.648691 5.28367 -1.06624 0.131416zm1.56208 -0.161241m0.538712 -0.134212l-1.28806 -5.16623 1.04294 -0.259104 0.572265 2.29279 1.53505 -2.81845 1.4027 -0.34951 -1.44371 2.4969 2.83709 2.6423 -1.34864 0.336462 -2.02436 -2.07097 -0.631915 1.07463 0.389588 1.56115 -1.04294 0.260036z"/>
 </g>
</svg>
