<?xml version="1.0" encoding="UTF-8"?>
<!DOCTYPE svg PUBLIC "-//W3C//DTD SVG 1.1//EN" "http://www.w3.org/Graphics/SVG/1.1/DTD/svg11.dtd">
<!-- Creator: CorelDRAW -->
<svg xmlns="http://www.w3.org/2000/svg" xml:space="preserve" width="17.4049mm" height="17.133mm" style="shape-rendering:geometricPrecision; text-rendering:geometricPrecision; image-rendering:optimizeQuality; fill-rule:evenodd; clip-rule:evenodd"
viewBox="0 0 18.5565 18.2666"
 xmlns:xlink="http://www.w3.org/1999/xlink">
 <defs>
  <style type="text/css">
   <![CDATA[
    .str0 {stroke:black;stroke-width:0.0812416}
    .str1 {stroke:red;stroke-width:0.0812416}
    .fil4 {fill:none}
    .fil5 {fill:black}
    .fil1 {fill:#05913A}
    .fil3 {fill:#138C3C}
    .fil2 {fill:yellow}
    .fil0 {fill:white}
    .fil6 {fill:black;fill-rule:nonzero}
   ]]>
  </style>
   <clipPath id="id0">
    <path d="M9.27796 5.90974c1.80928,0 3.27589,1.46661 3.27589,3.27579 0,1.80928 -1.46661,3.27589 -3.27589,3.27589 -1.80928,0 -3.27589,-1.46661 -3.27589,-3.27589 0,-1.80917 1.46661,-3.27579 3.27589,-3.27579z"/>
   </clipPath>
 </defs>
 <g id="Layer_x0020_1">
  <metadata id="CorelCorpID_0Corel-Layer"/>
  <path class="fil0 str0" d="M9.32743 0.0414737c0,0 6.05602,1.23014 9.17871,6.52929 0,0 0.378595,6.8131 -3.59574,10.5035 0,0 -4.25836,2.46028 -11.1661,0.189244 0,0 -4.4475,-4.06891 -3.59585,-10.6928 0,0 2.27103,-5.01523 9.17902,-6.52929z"/>
  <path class="fil1 str0" d="M9.32381 0.703881c0,0 5.61495,1.14047 8.51011,6.05357 0,0 0.350874,6.3168 -3.33389,9.73844 0,0 -3.94811,2.28106 -10.3527,0.175384 0,0 -4.12349,-3.77251 -3.33389,-9.91382 0,0 2.10567,-4.64986 8.51033,-6.05357z"/>
  <circle class="fil2 str0" cx="9.27799" cy="9.18554" r="5.34638"/>
  <path class="fil3" d="M9.27796 5.90974c1.80928,0 3.27589,1.46661 3.27589,3.27579 0,1.80928 -1.46661,3.27589 -3.27589,3.27589 -1.80928,0 -3.27589,-1.46661 -3.27589,-3.27589 0,-1.80917 1.46661,-3.27579 3.27589,-3.27579z"/>
  <g style="clip-path:url(#id0)">
   <g id="_40676936">
    <path id="_406777521" class="fil2" d="M6.27256 10.6488c0,0 -0.226453,-1.13184 0.135723,-1.49401 0.362176,-0.362176 -0.588629,-0.226453 -0.679253,-0.588629 -0.0905173,-0.362282 0.452799,-0.362069 0.498111,-0.588522 0.0454185,-0.226453 0.0454185,-0.407594 0.31697,-0.407594 0.271658,0 0.362282,-0.679039 0.905599,-0.316864 0.54321,0.362282 -0.0452053,0.362282 -0.0906239,0.724458 -0.0453119,0.362176 -0.0453119,0.995903 0.0452053,1.13184 0.0906239,0.135829 -0.0904106,1.04121 0.407594,0.362176 0.497898,-0.679039 0.181035,-0.996116 0.543317,-1.17715 0.362176,-0.181141 0.271445,-0.452586 0.860074,-0.588522 0.588735,-0.135936 0.271658,-0.815082 0.814975,-0.860287 0.543317,-0.0452053 0.271658,-0.316864 0.452799,-0.498005 0.181035,-0.181035 0.769663,-0.498111 0.860287,-0.31697 0.0905173,0.181141 -0.271658,0.724458 -0.271658,0.724458 0,0 -0.226346,0.498005 0.271658,0.407488 0.497898,-0.0905173 0.543317,0.226346 0.543317,0.226346l0.588415 -0.135829 0.362282 1.13184c0,0 -0.452799,0.000106616 -0.724458,0.135936 -0.271658,0.135723 -0.135723,-0.271872 -0.679039,-0.135936 -0.543317,0.135936 -0.950804,0.588522 -0.498111,0.814975 0.452799,0.226453 0.407381,0.0907305 0.543317,-0.0452053 0.135936,-0.135936 0.316864,0.135936 0.362176,0.271658 0.0454185,0.135723 0.679253,0.22624 0.679253,0.407381 0,0.181141 -0.996223,1.17715 -1.22257,0.724458 -0.22624,-0.452799 -0.407381,-0.362069 -0.588415,-0.226346 -0.181141,0.135723 -0.271658,0.135936 -0.452799,0 -0.181141,-0.135936 -0.271658,-0.0453119 -0.271658,0.226346 0,0.271552 -0.0906239,0.633941 -0.31697,0.679146 -0.226346,0.0452053 -0.362176,0.362176 -0.543317,0.452799 -0.181141,0.0905173 0.0905173,0.362176 -0.0905173,0.54321 -0.181141,0.181141 -1.13184,0.181035 -1.22236,0.135829 -0.0906239,-0.0452053 -1.90161,-1.44881 -1.90161,-1.44881l0.362282 -0.271658zm2.80699 -1.53933c0,0 -0.226346,-0.407594 0.271658,-0.543317 0.498005,-0.135829 0.769557,-0.769663 1.04121,-0.407381 0.271658,0.362176 -0.452693,0.860074 -0.452693,0.860074 0,0 -0.588629,0.271872 -0.362176,0.317077 0.226453,0.0452053 0.905599,-0.000213233 0.950804,0.22624l0.0452053 0.226453 -1.81098 -0.0452053 1.81098 0.0452053 -1.49401 -0.679146z"/>
    <g>
     <path id="_40677656" class="fil4 str0" d="M7.64812 5.84236c0,0 1.44881,1.08663 3.71259,0"/>
     <path id="_40677848" class="fil4 str0" d="M6.28994 6.29516c0,0 3.62197,2.89762 5.97627,-0.181141"/>
     <path id="_40677632" class="fil4 str0" d="M5.65589 7.65335c0,0 4.70882,2.8071 7.06312,-0.271658"/>
     <line id="_40678040" class="fil4 str0" x1="5.38423" y1="9.19278" x2="13.1717" y2= "9.19278" />
     <path id="_40677440" class="fil4 str0" d="M7.64812 12.5287c0,0 1.44881,-1.08663 3.71259,0"/>
     <path id="_40677824" class="fil4 str0" d="M6.28994 12.0759c0,0 3.62197,-2.89751 5.97627,0.181141"/>
     <path id="_40677368" class="fil4 str0" d="M5.65589 10.7177c0,0 4.70882,-2.8071 7.06312,0.271658"/>
     <line id="_40676744" class="fil4 str0" x1="9.31411" y1="6.32448" x2="9.31411" y2= "12.0458" />
     <path id="_40677320" class="fil4 str0" d="M8.81237 12.0921c0,0 -1.215,-2.81734 0.0781498,-5.80121"/>
     <path id="_40677296" class="fil4 str0" d="M8.215 12.2462c0,0 -2.6991,-2.85167 0.132737,-6.07649"/>
     <path id="_40677200" class="fil4 str0" d="M9.78983 12.0921c0,0 1.215,-2.81734 -0.0781498,-5.80121"/>
     <path id="_40677248" class="fil4 str0" d="M10.3872 12.2462c0,0 2.6991,-2.85167 -0.132737,-6.07649"/>
    </g>
   </g>
  </g>
  <path class="fil4 str0" d="M9.27796 5.90974c1.80928,0 3.27589,1.46661 3.27589,3.27579 0,1.80928 -1.46661,3.27589 -3.27589,3.27589 -1.80928,0 -3.27589,-1.46661 -3.27589,-3.27589 0,-1.80917 1.46661,-3.27579 3.27589,-3.27579z"/>
  <circle class="fil0" cx="4.61651" cy="13.246" r="0.316854"/>
  <circle class="fil0" cx="14.0791" cy="13.246" r="0.316854"/>
  <path class="fil0 str1" d="M7.46879 13.9016c0,0 0.864872,-0.499391 1.81109,0.0235622 0,0 1.04143,-0.543104 1.8564,-0.0452053l0 -0.679146c0,0 -0.724458,-0.633941 -1.76578,-0.181141 0,0 -1.04889,-0.492354 -1.8563,0.181141l-0.0454185 0.700789z"/>
  <path class="fil0 str1" d="M5.70312 9.94101c0,0 0.274963,2.20141 2.98984,2.91169 0,0 -1.88796,0.502589 -2.98984,-0.285838l1.08674 -0.0905173c0,0 -1.44892,0.0905173 -1.8112,-0.905492 0,0 0.569971,0.463354 1.17736,0.362176 0,0 -1.26788,-0.181035 -1.08674,-1.26767 0,0 0.362282,0.724351 0.905599,0.724351 0,0 -0.753564,-0.483185 -0.271765,-1.4487z"/>
  <path class="fil0 str1" d="M12.9473 9.94101c0,0 -0.274963,2.20141 -2.98984,2.91169 0,0 1.88796,0.502589 2.98984,-0.285838l-1.08674 -0.0905173c0,0 1.44892,0.0905173 1.81109,-0.905492 0,0 -0.569971,0.463354 -1.17726,0.362176 0,0 1.26788,-0.181035 1.08674,-1.26767 0,0 -0.362282,0.724351 -0.905599,0.724351 0,0 0.753564,-0.483185 0.271765,-1.4487z"/>
  <polygon class="fil5 str0" points="9.23532,4.09279 9.39215,4.5265 9.86595,4.55102 9.50186,4.83409 9.625,5.29211 9.24331,5.03357 8.84564,5.29211 8.97379,4.84923 8.60468,4.55102 9.06559,4.53578 "/>
  <polygon class="fil5 str0" points="11.2607,4.88655 11.3592,5.15906 11.6568,5.17441 11.4281,5.35214 11.5055,5.6399 11.2657,5.47752 11.0159,5.6399 11.0964,5.36173 10.8646,5.17441 11.1541,5.16492 "/>
  <polygon class="fil5 str0" points="7.34906,4.88655 7.44758,5.15906 7.74514,5.17441 7.51645,5.35214 7.59385,5.6399 7.35407,5.47752 7.10427,5.6399 7.18477,5.36173 6.95298,5.17441 7.24245,5.16492 "/>
  <polygon class="fil5 str0" points="12.7027,5.93469 12.8011,6.2071 13.0988,6.22255 12.8701,6.40028 12.9475,6.68804 12.7077,6.52556 12.4579,6.68804 12.5384,6.40977 12.3066,6.22255 12.5961,6.21296 "/>
  <polygon class="fil5 str0" points="5.88426,5.93469 5.98277,6.2071 6.28045,6.22255 6.05176,6.40028 6.12905,6.68804 5.88927,6.52556 5.63947,6.68804 5.71997,6.40977 5.48818,6.22255 5.77775,6.21296 "/>
  <polygon class="fil5 str0" points="13.5811,7.31271 13.6795,7.58522 13.9772,7.60057 13.7485,7.77841 13.8259,8.06606 13.5861,7.90368 13.3363,8.06606 13.4168,7.7879 13.185,7.60057 13.4745,7.59108 "/>
  <polygon class="fil5 str0" points="5.06918,7.31271 5.16769,7.58522 5.46526,7.60057 5.23657,7.77841 5.31397,8.06606 5.07419,7.90368 4.82439,8.06606 4.90488,7.7879 4.6731,7.60057 4.96267,7.59108 "/>
  <polygon class="fil5 str0" points="13.7781,8.78689 13.8766,9.0594 14.1742,9.07475 13.9455,9.25259 14.0229,9.54024 13.7831,9.37786 13.5333,9.54024 13.6138,9.26208 13.3821,9.07475 13.6715,9.06527 "/>
  <polygon class="fil5 str0" points="4.723,8.78689 4.82151,9.0594 5.11908,9.07475 4.89038,9.25259 4.96779,9.54024 4.72801,9.37786 4.47821,9.54024 4.5587,9.26208 4.32692,9.07475 4.61638,9.06527 "/>
  <path class="fil6" d="M3.77614 11.712m-0.0843335 -0.219736l-0.277309 0.106403 -0.296713 0.367506 -0.0548008 -0.142866 0.206196 -0.242126 -0.314198 -0.0390216 -0.0538412 -0.140414 0.467513 0.0750579 0.276563 -0.106083 0.0465913 0.121543zm-0.118557 -0.263342m-0.167921 -0.626584l0.0367826 0.137215 -0.140307 0.0960613 0.0668484 0.249589 0.168667 0.00991532 0.0359297 0.133803 -0.746847 -0.0605581 -0.0357165 -0.13327 0.614643 -0.432756zm-0.207475 0.30439l-0.229865 0.153954 0.275603 0.0164189 -0.0457384 -0.170373zm0.222082 -0.229865m-0.0489369 -0.230185l-0.290529 0.0617308 -0.350448 0.316544 -0.0318783 -0.149689 0.241486 -0.206942 -0.30407 -0.0877452 -0.0312386 -0.147024 0.450027 0.147344 0.289677 -0.0616242 0.0269739 0.127406zm-0.0637566 -0.272511m-0.0677014 -0.645135l0.0148197 0.141373 -0.153634 0.0728189 0.0270805 0.257052 0.165042 0.0361429 0.0143932 0.137748 -0.728189 -0.176663 -0.0142866 -0.137215 0.674775 -0.331257zm-0.252467 0.268247l-0.251188 0.115999 0.269526 0.0593853 -0.018338 -0.175384zm0.249909 -0.273684m-0.230078 -0.0285732l-0.0158858 -0.126873c0.0464847,-0.00831607 0.0803887,-0.0244151 0.101925,-0.0481906 0.0212166,-0.0237754 0.031665,-0.0554405 0.0310253,-0.0951018 -0.000746314,-0.0420068 -0.0110881,-0.0735653 -0.0309187,-0.0944621 -0.0198306,-0.0210034 -0.0426465,-0.0313452 -0.0685543,-0.0309187 -0.0167388,0.000319849 -0.0308121,0.00511758 -0.0422201,0.0142866 -0.0117278,0.00906239 -0.0217497,0.0249482 -0.0298526,0.0475509 -0.00565066,0.0153527 -0.0152461,0.0503229 -0.0291063,0.10491 -0.0175917,0.0703668 -0.0400877,0.11973 -0.0672749,0.148517 -0.0379554,0.040301 -0.0849732,0.0609845 -0.14084,0.0619441 -0.0359297,0.000639698 -0.0696205,-0.00810284 -0.101392,-0.0262276 -0.0314518,-0.0181248 -0.0557603,-0.0446722 -0.0727123,-0.0794292 -0.016952,-0.0348635 -0.0259078,-0.076977 -0.0267607,-0.12666 -0.00149263,-0.0812416 0.0168454,-0.142546 0.0549074,-0.18434 0.0382753,-0.0415804 0.0896643,-0.0639698 0.154487,-0.0672749l0.00852931 0.130392c-0.0361429,0.00618375 -0.0621573,0.0186579 -0.0776167,0.0373157 -0.015566,0.0186579 -0.0230291,0.0462715 -0.0223894,0.0829475 0.000639698,0.038062 0.00959547,0.0677014 0.0269739,0.0888114 0.0111947,0.0135403 0.0259078,0.0202571 0.0441392,0.0199373 0.0167388,-0.000319849 0.0309187,-0.00703668 0.0425399,-0.0202571 0.0148197,-0.0165255 0.0298526,-0.0568265 0.0450987,-0.12069 0.0153527,-0.0637566 0.0313452,-0.111094 0.0482972,-0.141693 0.0170586,-0.0307055 0.0404076,-0.0549074 0.0704734,-0.0727123 0.0300658,-0.0178049 0.0674881,-0.0269739 0.111947,-0.0278269 0.0404076,-0.000639698 0.0784696,0.00895577 0.114079,0.028893 0.0356098,0.0200439 0.0624772,0.048617 0.0801755,0.0859327 0.0178049,0.0373157 0.0271872,0.0841203 0.0282533,0.140307 0.00138601,0.0816681 -0.0181248,0.144785 -0.0584257,0.189351 -0.0405142,0.044459 -0.100219,0.0716462 -0.178902,0.0815615zm0.227306 -0.572743m0.0565066 -0.646201l-0.0123675 0.141586 -0.164616 0.0422201 -0.0226027 0.257478 0.155233 0.066955 -0.0121543 0.137962 -0.681065 -0.312279 0.0120476 -0.137535 0.725524 -0.196387zm-0.298952 0.215045l-0.268673 0.0659955 0.25332 0.109815 0.0153527 -0.17581zm0.28957 -0.219523m0.0162057 -0.065036l-0.684797 -0.170693 0.0307055 -0.123142 0.521354 -0.142759 -0.457277 -0.113973 0.0293195 -0.117704 0.68469 0.170693 -0.031665 0.127193 -0.509519 0.141373 0.446403 0.111307 -0.0292129 0.117704zm0.209501 -0.81231m0.0687675 -0.199692l-0.554192 -0.190843 -0.0623705 0.181354 -0.113013 -0.038915 0.167174 -0.485637 0.113013 0.038915 -0.0622639 0.180821 0.554192 0.190843 -0.0425399 0.123462zm0.0817747 -0.263556m0.274111 -0.587882l-0.060025 0.128793 -0.1692 -0.0166321 -0.109175 0.234236 0.122822 0.115999 -0.0585324 0.125487 -0.533188 -0.526471 0.0583191 -0.125061 0.74898 0.0636499zm-0.354499 0.0997929l-0.27507 -0.0298526 0.200545 0.189777 0.0745248 -0.159924zm0.344157 -0.113227m0.0348635 -0.053628l-0.591827 -0.384352 0.106403 -0.163869 0.467726 0.163869 -0.340746 -0.359297 0.106616 -0.164296 0.591827 0.384352 -0.0659955 0.101712 -0.465913 -0.302577 0.39608 0.410153 -0.0684477 0.105444 -0.53564 -0.195214 0.465913 0.30247 -0.0659955 0.101605zm0.374223 -0.577327m0.399278 -0.511225l-0.0874254 0.112054 -0.161097 -0.0542677 -0.159072 0.203637 0.0935025 0.140627 -0.0851864 0.109175 -0.401091 -0.632874 0.0848666 -0.108749 0.715502 0.230398zm-0.367826 0.0175917l-0.261423 -0.0909437 0.152781 0.229971 0.108642 -0.139028zm0.376889 -0.0189777m0.0465913 -0.0481906l-0.507707 -0.490222 0.0881717 -0.0913702 0.522846 0.137109 -0.33904 -0.327419 0.0842269 -0.0872121 0.5076 0.490222 -0.0909437 0.0942488 -0.511972 -0.132311 0.330937 0.319742 -0.0841203 0.0872121zm0.603555 -0.572849m0.0517089 -0.0405142l-0.434355 -0.556004 0.164935 -0.129006c0.0624772,-0.0487237 0.10555,-0.0778299 0.128899,-0.0869989 0.0356098,-0.0146064 0.0743116,-0.015566 0.115892,-0.00298526 0.0415804,0.0125807 0.0795358,0.0410473 0.113973,0.0851864 0.0267607,0.0341172 0.0434995,0.0673815 0.0502163,0.099473 0.00682344,0.0320915 0.00671683,0.0615176 -0.000319849,0.0885982 -0.00714329,0.0268673 -0.0181248,0.0495766 -0.0327312,0.0679146 -0.0204703,0.0245218 -0.0538412,0.055014 -0.100433,0.0914768l-0.066955 0.0523486 0.163763 0.209714 -0.102885 0.0802821zm-0.258011 -0.542144l0.123142 0.157686 0.0564 -0.0440325c0.0405142,-0.031665 0.0653558,-0.0557603 0.0745248,-0.0722859 0.00906239,-0.0164189 0.0126873,-0.0337974 0.0106616,-0.0524552 -0.00191909,-0.0184446 -0.00927562,-0.0358231 -0.0220696,-0.052242 -0.0157792,-0.0202571 -0.0343305,-0.0326246 -0.0555471,-0.0373157 -0.0210034,-0.0045845 -0.0413671,-0.00202571 -0.0604514,0.00756976 -0.0143932,0.00714329 -0.0399811,0.0252681 -0.076977,0.0541611l-0.0496832 0.038915zm0.682238 0.208115m0.0557603 -0.0348635l-0.37401 -0.598437 0.406421 -0.25396 0.0633301 0.101392 -0.295754 0.184766 0.0828409 0.132631 0.275283 -0.171972 0.0629036 0.100752 -0.275283 0.171972 0.101819 0.162803 0.306095 -0.19127 0.0631169 0.100859 -0.416763 0.260464zm0.447149 -0.290423m0.0611978 -0.0272938l-0.287011 -0.644602 0.115999 -0.0517089 0.433395 0.322941 -0.191696 -0.430517 0.110774 -0.0493634 0.287118 0.644709 -0.11973 0.0533082 -0.425186 -0.314412 0.187112 0.420388 -0.110774 0.0492567zm0.536707 -0.248736m-0.168027 -0.688528l0.2256 -0.0776167c0.0507494,-0.0174851 0.0909437,-0.0266541 0.12069,-0.0272938 0.0398745,-0.000852931 0.0775101,0.00906239 0.113227,0.0298526 0.0357165,0.0204703 0.0675947,0.0498964 0.0956348,0.0877452 0.0279335,0.0382753 0.0526685,0.0884915 0.074205,0.151075 0.0188711,0.0548008 0.0289996,0.104377 0.0301724,0.14841 0.00138601,0.0537346 -0.00682344,0.100539 -0.0249482,0.140307 -0.0134337,0.0301724 -0.0362495,0.057786 -0.0682344,0.0831607 -0.0239887,0.0187645 -0.0587456,0.0359297 -0.104484,0.0517089l-0.231997 0.0798556 -0.229865 -0.667205zm0.162377 0.07058l0.152035 0.441711 0.0921165 -0.031665c0.0343305,-0.011941 0.058639,-0.022496 0.0724991,-0.0320915 0.0180182,-0.0123675 0.0315584,-0.0272938 0.040301,-0.0447789 0.00884915,-0.0176983 0.011941,-0.0429664 0.0100219,-0.0756976 -0.00202571,-0.0326246 -0.0117278,-0.0749513 -0.0294261,-0.126447 -0.0178049,-0.0516023 -0.0357165,-0.0895577 -0.0534148,-0.114399 -0.0180182,-0.024735 -0.0369959,-0.0423267 -0.0573596,-0.0525618 -0.0203637,-0.0103418 -0.043073,-0.01418 -0.0680212,-0.0117278 -0.0186579,0.00159924 -0.0530949,0.0111947 -0.103524,0.0285732l-0.0552273 0.0190843zm0.62168 0.410899m0.0594919 -0.0159924l-0.182634 -0.681598 0.126127 -0.0337974 0.182634 0.681598 -0.126127 0.0337974zm0.182314 -0.0629036m-0.0582125 -0.706333l0.234876 -0.0413671c0.0528817,-0.00938224 0.0940356,-0.0120476 0.123462,-0.00799622 0.0395547,0.00533082 0.0751645,0.0210034 0.107043,0.0471244 0.0321981,0.0258011 0.0591721,0.0598118 0.0809218,0.101712 0.0215365,0.0420068 0.0381686,0.0955282 0.0495766,0.160777 0.0102352,0.0570397 0.0124741,0.107576 0.00661021,0.151182 -0.00693006,0.0533082 -0.0223894,0.0983002 -0.0464847,0.134656 -0.0181248,0.0278269 -0.0449921,0.0514957 -0.0804953,0.0715395 -0.0266541,0.0148197 -0.0636499,0.0263342 -0.111307,0.0347569l-0.241699 0.0426465 -0.122502 -0.695032zm0.149156 0.0951018l0.0812416 0.460049 0.0958481 -0.016952c0.0358231,-0.00629036 0.0613044,-0.0129006 0.0766571,-0.0202571 0.019724,-0.00938224 0.0353966,-0.021963 0.0466979,-0.0379554 0.0115146,-0.0160991 0.0185512,-0.0405142 0.0218563,-0.0731388 0.00309187,-0.032518 0.000106616,-0.0759108 -0.00938224,-0.129539 -0.00948885,-0.0537346 -0.02111,-0.0940356 -0.0348635,-0.121436 -0.0138601,-0.0271872 -0.0298526,-0.0475509 -0.0482972,-0.0607713 -0.0185512,-0.0134337 -0.040301,-0.0207902 -0.0654624,-0.0221762 -0.0186579,-0.00138601 -0.0540545,0.00266541 -0.106616,0.011941l-0.0576794 0.0102352zm0.552166 0.502803m0.061411 -0.0065036l-0.0738851 -0.701749 0.129859 -0.0136469 0.0736719 0.701855 -0.129645 0.0135403zm0.180501 -0.0329444m0.0673815 -0.00117278l-0.0123675 -0.705587 0.130498 -0.00223894 0.00554405 0.313239 0.258118 -0.31793 0.17549 -0.00298526 -0.238607 0.279015 0.264195 0.426359 -0.16888 0.00287864 -0.18338 -0.328058 -0.103844 0.119837 0.00373157 0.213233 -0.130498 0.00223894zm0.59364 -0.0184446m0.647161 0.0452053l-0.1418 -0.00991532 -0.0450987 -0.163869 -0.257798 -0.0180182 -0.064183 0.1563 -0.138281 -0.00970208 0.300445 -0.686396 0.137642 0.00959547 0.209075 0.722006zm-0.220376 -0.295114l-0.07058 -0.267607 -0.10523 0.255239 0.17581 0.0123675zm0.216325 0.299165m0.0661021 0.0116212l0.122396 -0.694925 0.125168 0.021963 0.178689 0.510052 0.0817747 -0.464101 0.119517 0.02111 -0.122502 0.694925 -0.129112 -0.0227093 -0.176663 -0.498431 -0.0798556 0.453226 -0.11941 -0.02111zm0.81892 0.165788m0.0594919 0.0159924l0.18274 -0.681705 0.12602 0.0337974 -0.182634 0.681705 -0.126127 -0.0337974zm0.182314 0.0529883m0.112693 -0.202571l0.123568 0.0327312c-0.0098087,0.0462715 -0.00746314,0.0836938 0.0065036,0.112587 0.0140734,0.0285732 0.039448,0.0501097 0.0765505,0.0643963 0.0392348,0.0150329 0.0722859,0.0173785 0.0991532,0.00671683 0.0268673,-0.0104484 0.0449921,-0.0278269 0.0542677,-0.0519221 0.00607713,-0.0156726 0.00682344,-0.0305989 0.00266541,-0.0446722 -0.00405142,-0.01418 -0.0150329,-0.0293195 -0.0329444,-0.0453119 -0.0120476,-0.0109815 -0.0409407,-0.0330511 -0.0863592,-0.0663153 -0.058639,-0.0427531 -0.0960613,-0.0820946 -0.11248,-0.118024 -0.0231357,-0.0503229 -0.024735,-0.101605 -0.00479773,-0.153741 0.0129006,-0.0335841 0.0336908,-0.0616242 0.0623705,-0.0841203 0.0285732,-0.022496 0.0622639,-0.0350768 0.100859,-0.0378488 0.0387017,-0.00255879 0.081135,0.00490435 0.127513,0.0227093 0.0759108,0.0291063 0.125807,0.0690874 0.150329,0.119943 0.0242019,0.0510692 0.0258011,0.107043 0.00447789,0.168454l-0.123995 -0.0409407c0.00778299,-0.0359297 0.00597051,-0.0646095 -0.00554405,-0.0859327 -0.0114079,-0.0214299 -0.0343305,-0.0387017 -0.0685543,-0.0518155 -0.0355032,-0.0136469 -0.0663153,-0.0165255 -0.0924363,-0.00820946 -0.0166321,0.0052242 -0.0283599,0.0164189 -0.0349702,0.0333709 -0.00607713,0.0156726 -0.00501097,0.0312386 0.00277202,0.0470178 0.0098087,0.0199373 0.0414737,0.0490435 0.0949951,0.0869989 0.0534148,0.0381686 0.0912636,0.0706866 0.113333,0.0978738 0.0220696,0.0272938 0.0358231,0.0581059 0.0410473,0.0926496 0.00511758,0.0345437 -0.000213233,0.0726057 -0.0162057,0.114079 -0.0144998,0.0377422 -0.0376356,0.0695138 -0.0695138,0.0949951 -0.0318783,0.0255879 -0.0684477,0.0397679 -0.109708,0.0422201 -0.0412605,0.00255879 -0.0882783,-0.00629036 -0.140627,-0.0264408 -0.0763373,-0.0292129 -0.127513,-0.0708998 -0.153634,-0.125061 -0.026121,-0.0541611 -0.0289996,-0.11973 -0.00863592,-0.196387zm0.453439 0.419429m0.0622639 0.0303856l0.306842 -0.629143 0.117278 0.057253 -0.254706 0.5221 0.291596 0.142226 -0.0521354 0.106936 -0.408874 -0.199373zm0.435208 0.206196m0.55014 0.343731l-0.120476 -0.0752711 0.0371025 -0.165895 -0.219203 -0.137002 -0.130072 0.107789 -0.117491 -0.073352 0.587456 -0.46506 0.117171 0.0731388 -0.154487 0.735653zm-0.0559736 -0.364095l0.0632235 -0.269313 -0.2127 0.175917 0.149476 0.0933959zm0.058639 0.375289m0.0504295 0.0393414l0.434461 -0.556004 0.153954 0.120157 -0.204064 0.451627 0.387764 -0.308015 0.154274 0.120476 -0.434461 0.556111 -0.0955282 -0.0746314 0.342025 -0.43766 -0.443097 0.358657 -0.0990466 -0.0772968 0.241166 -0.516556 -0.342025 0.437767 -0.0954216 -0.0746314zm0.72691 0.591507m0.0420068 0.0482972l0.532548 -0.463035 0.128153 0.14745 -0.286478 0.404396 0.439366 -0.228479 0.128579 0.14777 -0.532655 0.463035 -0.0795358 -0.0914768 0.419322 -0.364415 -0.503549 0.267607 -0.0824144 -0.0948885 0.335308 -0.461009 -0.419322 0.364415 -0.0793225 -0.0913702zm0.439259 0.523486m0.038915 0.0479773l0.548328 -0.444164 0.0822012 0.101499 -0.548434 0.444057 -0.0820946 -0.101392zm0.121756 0.149156m0.0362495 0.0557603l0.591827 -0.384352 0.241273 0.371771 -0.100113 0.065036 -0.170266 -0.262063 -0.139987 0.0908371 0.147024 0.226346 -0.100219 0.065036 -0.147024 -0.22624 -0.251295 0.16323 -0.0712197 -0.109602zm0.271445 0.397785m0.0959547 0.188178l0.522207 -0.266114 -0.0869989 -0.170906 0.106403 -0.0542677 0.233276 0.457704 -0.10651 0.0542677 -0.0867857 -0.170373 -0.522313 0.266114 -0.0592787 -0.116425zm0.126873 0.245537m0.274111 0.587882l-0.060025 -0.128793 0.121436 -0.118877 -0.109175 -0.234236 -0.167814 0.0195108 -0.0585324 -0.125487 0.745994 -0.0700469 0.0582125 0.125061 -0.530096 0.532868zm0.151395 -0.335735l0.199692 -0.19159 -0.274217 0.031665 0.0745248 0.159924zm-0.161737 0.349168m0.0181248 0.0634367l0.6784 -0.194468 0.0360363 0.125594 -0.266967 0.0765505 0.0704734 0.245751 0.267074 -0.0765505 0.0359297 0.125487 -0.6784 0.194468 -0.0359297 -0.125381 0.296607 -0.0850798 -0.07058 -0.245751 -0.296607 0.0849732 -0.0360363 -0.125594zm0.164402 0.557603m0.70516 -0.0710065l0.0248416 0.128046 -0.375183 0.0729256c-0.0594919,0.0116212 -0.0978738,0.0207902 -0.114826,0.0272938 -0.0272938,0.0109815 -0.0475509,0.0285732 -0.0606647,0.0524552 -0.0132204,0.0239887 -0.0163123,0.0539479 -0.00938224,0.0896643 0.00703668,0.0363562 0.0204703,0.0622639 0.0404076,0.0775101 0.0196174,0.0153527 0.0417936,0.022496 0.0661021,0.0216431 0.0244151,-0.000746314 0.0639698,-0.0065036 0.118771,-0.0171652l0.383392 -0.0745248 0.0248416 0.128046 -0.363881 0.0707932c-0.0831607,0.0160991 -0.142546,0.0240953 -0.178262,0.0238821 -0.0357165,-0.000319849 -0.0670617,-0.00735653 -0.0943554,-0.0213233 -0.0272938,-0.01418 -0.0509626,-0.0353966 -0.0708998,-0.0637566 -0.0201505,-0.0284666 -0.0349702,-0.067808 -0.0447789,-0.118024 -0.0117278,-0.0606647 -0.0132204,-0.108002 -0.00405142,-0.142333 0.00938224,-0.0342238 0.0244151,-0.062797 0.0453119,-0.0857195 0.0207902,-0.0229225 0.0441392,-0.0398745 0.0697271,-0.050856 0.038062,-0.0160991 0.0957414,-0.031665 0.173358,-0.0466979l0.369532 -0.0718594zm-0.58575 0.711771m0.00597051 0.0689808l0.697271 -0.0609845 0.0114079 0.129965 -0.578713 0.0506427 0.0281467 0.323154 -0.118451 0.0104484 -0.0396613 -0.453226zm0.0578927 0.719554m0.699403 0.113866l-0.00906239 0.130179 -0.38126 -0.0266541c-0.0604514,-0.00415804 -0.0998995,-0.00533082 -0.118024,-0.00330511 -0.0293195,0.00351834 -0.0533082,0.0152461 -0.0721792,0.0348635 -0.0189777,0.0198306 -0.0296393,0.0478707 -0.0321981,0.0842269 -0.00266541,0.0368892 0.00362495,0.0654624 0.0188711,0.0852931 0.0151395,0.0199373 0.0346503,0.0326246 0.0583191,0.038062 0.0237754,0.00554405 0.0634367,0.0102352 0.119197,0.0140734l0.389469 0.0272938 -0.00906239 0.130179 -0.369852 -0.0259078c-0.0845467,-0.0058639 -0.143932,-0.0135403 -0.178369,-0.0230291 -0.0343305,-0.00959547 -0.062797,-0.0245218 -0.0856129,-0.0450987 -0.0226027,-0.0206836 -0.0399811,-0.0473376 -0.0520288,-0.0798556 -0.0120476,-0.0326246 -0.0160991,-0.0745248 -0.0125807,-0.125594 0.00426465,-0.0616242 0.0152461,-0.107682 0.0329444,-0.138495 0.0179115,-0.0307055 0.0397679,-0.0543743 0.0657823,-0.0711131 0.0260144,-0.0167388 0.0529883,-0.0270805 0.0806019,-0.0310253 0.0409407,-0.00575728 0.100752,-0.0058639 0.179542,-0.000319849l0.375503 0.0262276zm-0.751645 0.536813m-0.00724991 0.0688741l0.695991 0.0731388 -0.0135403 0.129752 -0.577754 -0.0606647 -0.033904 0.322621 -0.118344 -0.0124741 0.0475509 -0.452373zm-0.0732454 0.47327m0.672962 0.221975l-0.0293195 0.127087 -0.372411 -0.0859327c-0.0590654,-0.0136469 -0.0977672,-0.0208968 -0.115999,-0.0218563 -0.0294261,-0.00106616 -0.055014,0.00682344 -0.0767637,0.0232424 -0.0218563,0.0166321 -0.0367826,0.0426465 -0.0449921,0.0781498 -0.00831607,0.0360363 -0.00661021,0.0651426 0.00533082,0.0872121 0.0117278,0.0220696 0.0289996,0.0375289 0.0516023,0.0466979 0.0226027,0.009169 0.0610911,0.0200439 0.115572,0.032518l0.380514 0.0878518 -0.0294261 0.127193 -0.361216 -0.0834806c-0.0826276,-0.0189777 -0.140094,-0.0359297 -0.172505,-0.0506427 -0.032518,-0.0148197 -0.0583191,-0.0340106 -0.0776167,-0.0578927 -0.0190843,-0.0238821 -0.0320915,-0.0529883 -0.038915,-0.0869989 -0.00671683,-0.0342238 -0.00426465,-0.0762307 0.00724991,-0.12602 0.0138601,-0.0602382 0.0318783,-0.104058 0.0542677,-0.131671 0.0223894,-0.027507 0.0476575,-0.0475509 0.076124,-0.0599184 0.0282533,-0.0124741 0.0565066,-0.0184446 0.0843335,-0.0181248 0.0413671,0.000746314 0.100433,0.0101285 0.177303,0.0278269l0.366867 0.08476zm-0.824571 0.418789m-0.0229225 0.0597051l0.658782 0.252894 -0.0699403 0.182421 -0.491608 -0.0631169 0.408021 0.280721 -0.0701535 0.182847 -0.658782 -0.252894 0.0433928 -0.113227 0.518582 0.199053 -0.47263 -0.318783 0.0449921 -0.117385 0.564533 0.0796424 -0.518582 -0.199053 0.0433928 -0.11312z"/>
  <path class="fil6" d="M5.1049 14.2146m0.0518155 0.0376356l0.380833 -0.524126 0.158432 0.115146 -0.164722 0.426678 0.35386 -0.289357 0.158752 0.115359 -0.380833 0.524232 -0.0981936 -0.0714329 0.299805 -0.412605 -0.403969 0.337014 -0.101925 -0.0740983 0.196067 -0.488089 -0.299805 0.412712 -0.0983002 -0.0714329zm0.557283 0.405888m0.0565066 0.033904l0.333709 -0.555364 0.411752 0.247456 -0.0564 0.093929 -0.299698 -0.180075 -0.0739917 0.123142 0.278802 0.167494 -0.0561868 0.0935025 -0.278802 -0.167494 -0.0908371 0.151289 0.310253 0.186365 -0.0561868 0.0936091 -0.422414 -0.253853zm0.465807 0.273897m0.0629036 0.0293195l0.271658 -0.582445 0.118557 0.0552273 -0.225494 0.483612 0.294687 0.137428 -0.0461649 0.0989399 -0.413245 -0.192762zm0.435741 0.19692m0.0569331 0.0242019l0.253107 -0.596412 0.120476 0.0510692 -0.253214 0.596412 -0.12037 -0.0510692zm0.17645 0.0753777m0.0625838 0.0215365l0.210994 -0.612617 0.260464 0.0897709c0.0654624,0.022496 0.111094,0.0443524 0.136895,0.065569 0.0259078,0.0212166 0.043073,0.0490435 0.0511758,0.0831607 0.00810284,0.0343305 0.0058639,0.0695138 -0.00661021,0.105763 -0.0157792,0.0459516 -0.0424333,0.0794292 -0.079749,0.100006 -0.0372091,0.0205769 -0.0842269,0.0255879 -0.140734,0.0147131 0.0214299,0.0249482 0.0377422,0.0497898 0.048617,0.0744182 0.0109815,0.0246284 0.0230291,0.0657823 0.0361429,0.123568l0.0336908 0.145318 -0.147877 -0.050856 -0.0436061 -0.164189c-0.0152461,-0.058639 -0.0266541,-0.0960613 -0.0341172,-0.11248 -0.00735653,-0.0164189 -0.016952,-0.0289996 -0.0284666,-0.0383819 -0.0115146,-0.00895577 -0.0314518,-0.0184446 -0.0599184,-0.0282533l-0.0250548 -0.00863592 -0.0880651 0.255773 -0.123782 -0.0426465zm0.245537 -0.311l0.0914768 0.0314518c0.0593853,0.0204703 0.0973407,0.0308121 0.113866,0.0310253 0.0164189,0 0.0309187,-0.00469112 0.0436061,-0.0140734 0.0124741,-0.00948885 0.021963,-0.0232424 0.0283599,-0.041687 0.00703668,-0.0206836 0.00724991,-0.0391282 0.000639698,-0.0555471 -0.00661021,-0.0165255 -0.0194042,-0.0298526 -0.0382753,-0.0401944 -0.00959547,-0.00469112 -0.039448,-0.0157792 -0.0896643,-0.0330511l-0.0964878 -0.0332643 -0.0535214 0.15534zm0.318356 0.47956m0.630955 0.157259l-0.138175 -0.0344371 -0.0194042 -0.156513 -0.251188 -0.0626904 -0.087532 0.129965 -0.134656 -0.0335841 0.401624 -0.567625 0.13423 0.0334775 0.0951018 0.691407zm-0.171759 -0.306948l-0.0285732 -0.255026 -0.142972 0.212273 0.171546 0.0427531zm0.176343 0.303537m0.0666352 0.00820946l0.0790027 -0.64311 0.12634 0.015566 0.210567 0.461755 0.0526685 -0.429451 0.12069 0.0148197 -0.0790027 0.643003 -0.130285 -0.0159924 -0.207795 -0.4512 -0.0514957 0.419429 -0.12069 -0.0148197zm0.578074 0.0552273m0.375503 -0.225174l0.00383819 -0.109282 0.28168 0.00991532 -0.00895577 0.257905c-0.0283599,0.0255879 -0.0688741,0.0476575 -0.121649,0.0659955 -0.0526685,0.0181248 -0.105657,0.0264408 -0.158858,0.0246284 -0.0677014,-0.00234556 -0.126234,-0.0186579 -0.175704,-0.0487237 -0.0492567,-0.0301724 -0.0858261,-0.0721792 -0.109175,-0.125807 -0.0235622,-0.0538412 -0.0342238,-0.111734 -0.0319849,-0.173891 0.00234556,-0.0674881 0.0185512,-0.12698 0.048617,-0.178369 0.0301724,-0.0512824 0.0728189,-0.0901974 0.128473,-0.116212 0.0422201,-0.0200439 0.0942488,-0.0289996 0.156086,-0.0268673 0.0802821,0.00287864 0.142653,0.021963 0.186579,0.0571463 0.0440325,0.03529 0.0714329,0.0830541 0.0824144,0.142866l-0.130712 0.0198306c-0.00810284,-0.0320915 -0.0244151,-0.0579993 -0.0489369,-0.0771902 -0.0245218,-0.0192976 -0.0555471,-0.0295327 -0.0932893,-0.0308121 -0.0571463,-0.00202571 -0.103098,0.0144998 -0.138175,0.04947 -0.0350768,0.0350768 -0.053628,0.0882783 -0.0561868,0.159498 -0.00266541,0.0767637 0.0123675,0.135083 0.0453119,0.174744 0.0327312,0.0396613 0.0767637,0.0604514 0.132204,0.0623705 0.0274004,0.000959547 0.055014,-0.00351834 0.0830541,-0.013327 0.0277202,-0.00970208 0.0518155,-0.021963 0.0721792,-0.0365694l0.00287864 -0.0820946 -0.149689 -0.0052242zm0.580099 0.216111m-0.0132204 -0.651106l0.257159 -0.031665c0.050856,-0.00618375 0.0891312,-0.00884915 0.114719,-0.00756976 0.0254813,0.00117278 0.0489369,0.00724991 0.0702602,0.018338 0.0214299,0.0109815 0.0398745,0.0268673 0.0558669,0.0476575 0.0159924,0.0206836 0.0255879,0.0449921 0.0289996,0.0727123 0.00373157,0.0301724 -0.00106616,0.0587456 -0.0139667,0.0859327 -0.013327,0.0271872 -0.0330511,0.0487237 -0.0591721,0.0647161 0.0405142,0.00661021 0.0731388,0.0222828 0.0974473,0.0471244 0.0244151,0.0250548 0.038915,0.0560802 0.0434995,0.0931827 0.00351834,0.0292129 0.000426465,0.0585324 -0.00991532,0.0878518 -0.0102352,0.0292129 -0.0260144,0.0537346 -0.0474443,0.0730322 -0.0216431,0.0194042 -0.0493634,0.0331577 -0.0834806,0.0412605 -0.0213233,0.00490435 -0.0734586,0.012794 -0.156086,0.0235622l-0.21899 0.0268673 -0.0788961 -0.643003zm0.143079 0.0909437l0.0182314 0.14873 0.0850798 -0.0104484c0.0505361,-0.00618375 0.0819879,-0.0108749 0.0941422,-0.0138601 0.0217497,-0.0052242 0.0383819,-0.0150329 0.0495766,-0.0292129 0.0110881,-0.0143932 0.0153527,-0.0318783 0.012794,-0.0527751 -0.00234556,-0.0198306 -0.0098087,-0.0353966 -0.0222828,-0.0463781 -0.0125807,-0.0111947 -0.0298526,-0.0165255 -0.0517089,-0.0164189 -0.0130072,-0.000106616 -0.0502163,0.00373157 -0.111201,0.0113013l-0.0746314 0.00906239zm0.0313452 0.255773l0.02111 0.171972 0.120157 -0.0147131c0.0469112,-0.00575728 0.0763373,-0.0106616 0.0885982,-0.0148197 0.0189777,-0.0058639 0.0335841,-0.0165255 0.0440325,-0.0314518 0.0104484,-0.0151395 0.0143932,-0.0342238 0.0116212,-0.0569331 -0.00234556,-0.0192976 -0.00927562,-0.0349702 -0.0200439,-0.0473376 -0.0111947,-0.0123675 -0.0259078,-0.0205769 -0.0443524,-0.0246284 -0.018338,-0.0039448 -0.057253,-0.00213233 -0.116212,0.00511758l-0.10491 0.012794zm0.492461 0.213872m-0.0824144 -0.645882l0.127513 -0.0294261 0.0788961 0.341812c0.0125807,0.0542677 0.0222828,0.0892379 0.0291063,0.104484 0.0113013,0.0246284 0.0292129,0.0422201 0.0533082,0.0530949 0.0242019,0.0110881 0.0540545,0.0123675 0.0896643,0.00415804 0.0361429,-0.00831607 0.0617308,-0.0220696 0.0766571,-0.0411539 0.0150329,-0.0188711 0.0218563,-0.0396613 0.0205769,-0.0619441 -0.00117278,-0.022496 -0.00767637,-0.058639 -0.0191909,-0.108642l-0.0806019 -0.349168 0.127406 -0.0294261 0.0765505 0.331577c0.0174851,0.0758042 0.0264408,0.130072 0.0268673,0.16291 0.000213233,0.0330511 -0.00629036,0.0622639 -0.0198306,0.0880651 -0.0135403,0.0258011 -0.0344371,0.0487237 -0.0623705,0.0685543 -0.0280401,0.0200439 -0.0671683,0.0357165 -0.117065,0.047231 -0.0604514,0.0139667 -0.107682,0.0175917 -0.14212,0.0107682 -0.0343305,-0.00671683 -0.0630102,-0.0190843 -0.0862526,-0.0372091 -0.0231357,-0.0179115 -0.0405142,-0.0384885 -0.0519221,-0.0616242 -0.0167388,-0.0342238 -0.0330511,-0.0866791 -0.04947,-0.157472l-0.0777233 -0.336588zm0.717954 0.50099m0.0631169 -0.0229225l-0.221549 -0.608886 0.119624 -0.0434995 0.397146 0.315798 -0.147983 -0.406528 0.114293 -0.0415804 0.221549 0.608779 -0.123355 0.0449921 -0.390002 -0.307695 0.144465 0.397039 -0.114186 0.0415804zm0.554298 -0.194255m0.232317 -0.371131l-0.0461649 -0.0990466 0.255453 -0.11909 0.109068 0.233916c-0.0135403,0.0356098 -0.0397679,0.0736719 -0.078363,0.113973 -0.0387017,0.0400877 -0.0820946,0.0715395 -0.130392,0.0940356 -0.061411,0.0286798 -0.120903,0.0407274 -0.178582,0.0363562 -0.0576794,-0.00447789 -0.109282,-0.0252681 -0.154487,-0.0625838 -0.0454185,-0.0372091 -0.081135,-0.0840137 -0.107469,-0.140307 -0.0284666,-0.0611978 -0.0410473,-0.121543 -0.0375289,-0.181035 0.00351834,-0.0593853 0.0238821,-0.11344 0.0616242,-0.161844 0.0284666,-0.0369959 0.0707932,-0.0686609 0.126873,-0.0947819 0.0728189,-0.0340106 0.137109,-0.0452053 0.192229,-0.033904 0.0552273,0.0116212 0.101285,0.0415804 0.138281,0.0899842l-0.107469 0.076977c-0.0217497,-0.0249482 -0.048084,-0.0405142 -0.0785762,-0.0464847 -0.0307055,-0.00607713 -0.0630102,-0.00117278 -0.0972341,0.0148197 -0.0517089,0.0240953 -0.0852931,0.0597051 -0.100646,0.10683 -0.0152461,0.047231 -0.00767637,0.102991 0.022496,0.167601 0.0324114,0.0696205 0.0722859,0.114719 0.119517,0.135189 0.047231,0.0204703 0.0959547,0.0188711 0.146171,-0.00447789 0.0248416,-0.0116212 0.0474443,-0.0281467 0.0679146,-0.0495766 0.0203637,-0.0213233 0.0362495,-0.0431796 0.0477641,-0.0653558l-0.0347569 -0.0745248 -0.135723 0.0633301zm0.399385 0.0723925m0.55739 -0.334882l-0.122076 0.073352 -0.124421 -0.0970208 -0.221975 0.133377 0.0300658 0.153634 -0.118984 0.0715395 -0.117385 -0.68533 0.118664 -0.0713263 0.556111 0.421774zm-0.338507 -0.0956348l-0.200545 -0.160138 0.0489369 0.251188 0.151608 -0.0910503zm0.353326 0.104697m0.0514957 -0.041687l-0.407807 -0.503549 0.101819 -0.0823078 0.160351 0.198093 0.199266 -0.16131 -0.160458 -0.198093 0.101605 -0.0823078 0.407807 0.503442 -0.101712 0.0824144 -0.178262 -0.220163 -0.199159 0.16131 0.178262 0.220056 -0.101712 0.0824144z"/>
  <path class="fil6" d="M7.12986 16.5888m0.520501 -0.178902l0.0332643 -0.13327 0.343944 0.0858261 -0.0785762 0.314838c-0.0415804,0.0240953 -0.0970208,0.0406208 -0.166641,0.0493634 -0.0696205,0.00863592 -0.136895,0.00501097 -0.201931,-0.0111947 -0.082521,-0.0205769 -0.150436,-0.0558669 -0.203211,-0.10587 -0.0527751,-0.0501097 -0.0865724,-0.110988 -0.101392,-0.18338 -0.0149263,-0.0722859 -0.012794,-0.146278 0.00607713,-0.222082 0.0205769,-0.0823078 0.0560802,-0.151182 0.106403,-0.206622 0.0505361,-0.0552273 0.113227,-0.0917966 0.188284,-0.109282 0.0571463,-0.0137535 0.123568,-0.0109815 0.199053,0.00778299 0.098087,0.0245218 0.169733,0.064183 0.214512,0.118984 0.0448855,0.0549074 0.0662087,0.12069 0.0638632,0.197347l-0.165788 -0.00991532c-0.00159924,-0.0415804 -0.0148197,-0.0775101 -0.0399811,-0.107682 -0.0252681,-0.0300658 -0.0606647,-0.050856 -0.106616,-0.0623705 -0.0697271,-0.0173785 -0.130712,-0.00906239 -0.182847,0.0248416 -0.0523486,0.0340106 -0.0891312,0.0944621 -0.110774,0.181461 -0.023349,0.0936091 -0.0201505,0.169413 0.0100219,0.226666 0.0298526,0.0573596 0.0785762,0.0943554 0.146171,0.111201 0.0334775,0.00831607 0.0685543,0.0100219 0.10555,0.00533082 0.0367826,-0.00469112 0.0696205,-0.0135403 0.0984069,-0.0260144l0.0249482 -0.100326 -0.18274 -0.0456318zm0.341812 0.383712m0.0826276 0.0101285l0.0992598 -0.808472 0.343731 0.0422201c0.0864658,0.0106616 0.148197,0.0255879 0.185619,0.0448855 0.0373157,0.0192976 0.065569,0.0490435 0.0845467,0.088918 0.0189777,0.040301 0.0254813,0.0840137 0.0196174,0.131884 -0.00746314,0.0604514 -0.0315584,0.108535 -0.071966,0.143825 -0.0404076,0.0349702 -0.0970208,0.0533082 -0.169093,0.0548008 0.0327312,0.0250548 0.0591721,0.0511758 0.0791093,0.0786828 0.0199373,0.0276136 0.0455252,0.0749513 0.0767637,0.142653l0.0794292 0.16984 -0.195214 -0.0238821 -0.0963811 -0.190523c-0.0343305,-0.0680212 -0.0579993,-0.111094 -0.0714329,-0.129432 -0.0135403,-0.0181248 -0.0285732,-0.0312386 -0.0449921,-0.0396613 -0.0166321,-0.00810284 -0.0436061,-0.0144998 -0.0812416,-0.0190843l-0.0329444 -0.00405142 -0.0413671 0.337441 -0.163443 -0.0200439zm0.220696 -0.446616l0.12069 0.0148197c0.0782564,0.00959547 0.12762,0.0124741 0.147983,0.00831607 0.0202571,-0.00415804 0.0368892,-0.0138601 0.0500031,-0.0286798 0.0129006,-0.0148197 0.0208968,-0.0342238 0.0238821,-0.058639 0.00341172,-0.0272938 -0.0012794,-0.0500031 -0.0136469,-0.0684477 -0.0124741,-0.0186579 -0.031665,-0.031665 -0.0576794,-0.039448 -0.0129006,-0.00330511 -0.0524552,-0.00906239 -0.118877,-0.0172718l-0.127193 -0.015566 -0.0251615 0.204917zm0.507174 0.527538m0.0827343 0.00437127l0.0426465 -0.813482 0.603022 0.031665 -0.00724991 0.137642 -0.438726 -0.0230291 -0.00948885 0.180395 0.40834 0.0214299 -0.00714329 0.136895 -0.40834 -0.0214299 -0.0116212 0.221335 0.454292 0.0238821 -0.00714329 0.137109 -0.618588 -0.0324114zm0.676267 0.00703668m0.0179115 -0.2675l0.158005 -0.0296393c0.01418,0.0528817 0.0372091,0.0904106 0.0687675,0.112907 0.0315584,0.0223894 0.0720726,0.031665 0.121969,0.0272938 0.0526685,-0.00469112 0.0915834,-0.0192976 0.116318,-0.0441392 0.0248416,-0.0245218 0.0359297,-0.0518155 0.0332643,-0.0816681 -0.00159924,-0.0191909 -0.00874254,-0.0349702 -0.0212166,-0.0474443 -0.0123675,-0.0126873 -0.0330511,-0.0226027 -0.0620507,-0.0300658 -0.0196174,-0.00511758 -0.0645029,-0.0130072 -0.134123,-0.0239887 -0.0897709,-0.0140734 -0.153741,-0.0355032 -0.191909,-0.0640764 -0.0537346,-0.040301 -0.083374,-0.092543 -0.0890246,-0.156726 -0.00362495,-0.0413671 0.00469112,-0.0809218 0.0250548,-0.11909 0.0201505,-0.0379554 0.0517089,-0.0683411 0.093929,-0.0910503 0.0426465,-0.0226027 0.0948885,-0.036676 0.157259,-0.0421134 0.102032,-0.00895577 0.180501,0.00671683 0.235942,0.0468046 0.0553339,0.0401944 0.087532,0.0974473 0.096701,0.171759l-0.163123 0.0215365c-0.0106616,-0.0411539 -0.0283599,-0.0698337 -0.0529883,-0.0860394 -0.024735,-0.0162057 -0.0601316,-0.0222828 -0.10619,-0.018338 -0.0475509,0.00415804 -0.0842269,0.0171652 -0.109282,0.0391282 -0.0163123,0.0139667 -0.0235622,0.0315584 -0.0217497,0.0525618 0.00170586,0.0192976 0.0113013,0.0349702 0.0287864,0.0471244 0.0220696,0.015566 0.0738851,0.0293195 0.15534,0.0410473 0.0813482,0.011941 0.141906,0.0262276 0.181994,0.0429664 0.0398745,0.0168454 0.0720726,0.041687 0.0969142,0.074738 0.0245218,0.0330511 0.0391282,0.0751645 0.0436061,0.12634 0.00405142,0.0464847 -0.00501097,0.0912636 -0.0274004,0.134017 -0.0222828,0.0427531 -0.0560802,0.0762307 -0.101605,0.100006 -0.0454185,0.0239887 -0.103524,0.038915 -0.174104,0.0450987 -0.102565,0.00895577 -0.183487,-0.00767637 -0.242552,-0.0503229 -0.0590654,-0.0426465 -0.0979804,-0.108855 -0.116532,-0.198626zm0.74109 0.210567m0.0756976 -0.0174851l-0.183167 -0.793652 0.160244 -0.0369959 0.183273 0.793652 -0.160351 0.0369959zm0.24042 -0.0507494m0.0828409 -0.0190843l-0.183273 -0.793652 0.160138 -0.0369959 0.0813482 0.352367 0.242552 -0.427212 0.215365 -0.0496832 -0.227413 0.378168 0.426892 0.411752 -0.207369 0.0478707 -0.30407 -0.322195 -0.0993664 0.162696 0.0553339 0.239887 -0.160138 0.0369959z"/>
 </g>
</svg>
