<?xml version="1.0" encoding="UTF-8"?>
<!DOCTYPE svg PUBLIC "-//W3C//DTD SVG 1.1//EN" "http://www.w3.org/Graphics/SVG/1.1/DTD/svg11.dtd">
<!-- Creator: CorelDRAW -->
<svg xmlns="http://www.w3.org/2000/svg" xml:space="preserve" width="36.6021mm" height="14.5268mm" style="shape-rendering:geometricPrecision; text-rendering:geometricPrecision; image-rendering:optimizeQuality; fill-rule:evenodd; clip-rule:evenodd"
viewBox="0 0 4.07937 1.61904"
 xmlns:xlink="http://www.w3.org/1999/xlink">
 <defs>
  <style type="text/css">
   <![CDATA[
    .str0 {stroke:#000066;stroke-width:0.111452}
    .fil1 {fill:none;fill-rule:nonzero}
    .fil0 {fill:white;fill-rule:nonzero}
   ]]>
  </style>
 </defs>
 <g id="Layer_x0020_1">
  <metadata id="CorelCorpID_0Corel-Layer"/>
  <path class="fil0" d="M0.393414 0.227585l-0.205027 0.95882 0.217097 0 0.0120591 -0.0603066c0.0324102,0.0276401 0.0640737,0.0479912 0.0947229,0.0608081 0.0309056,0.012817 0.0605518,0.019348 0.0891949,0.0190917 0.0374367,-0.000245194 0.0733687,-0.0100418 0.108543,-0.0288883 0.034929,-0.0191028 0.0678407,-0.0457287 0.0990027,-0.0796546 0.0309056,-0.0341711 0.0593035,-0.0738703 0.0849263,-0.119599 0.0256339,-0.0454724 0.047746,-0.0949793 0.0665813,-0.148242 0.0186013,-0.053274 0.0329229,-0.108799 0.043221,-0.166342 0.010053,-0.0575314 0.0153246,-0.11533 0.0153246,-0.173363 0,-0.0464866 -0.00452494,-0.0909558 -0.01382,-0.133675 -0.00929508,-0.0429647 -0.0238618,-0.0824186 -0.0437114,-0.118852 -0.0198496,-0.0364336 -0.0454835,-0.0680859 -0.0768906,-0.0952245 -0.0316635,-0.0271385 -0.0696017,-0.0482364 -0.113826,-0.0633158 -0.0444693,-0.0153246 -0.095726,-0.0228699 -0.154272,-0.0231151 -0.0615549,0.000245194 -0.120101,0.00728895 -0.175882,0.0216105 -0.0557816,0.0140652 -0.107038,0.0336696 -0.15377,0.0590472 -0.0467429,0.0251212 -0.0874451,0.0545222 -0.121873,0.0879355 -0.0344163,0.0334244 -0.0612985,0.0698469 -0.0804014,0.108543 -0.0188465,0.0389524 -0.0286431,0.0793983 -0.0288883,0.120858 0.000245194,0.0339259 0.00677627,0.0613097 0.0195932,0.0819171 0.0130622,0.0205963 0.0316635,0.0354305 0.0557816,0.0447256 0.023873,0.00929508 0.0525161,0.01382 0.0859294,0.0135637 -0.000746727,-0.00402341 -0.00276401,-0.00929508 -0.00602954,-0.015581 -0.00352188,-0.00627474 -0.00678742,-0.0158262 -0.010053,-0.0291447 -0.0030092,-0.0133185 -0.00477014,-0.0326665 -0.00502648,-0.0577878 0.000256339,-0.0575426 0.0103093,-0.108799 0.0301589,-0.154026 0.0198496,-0.0452272 0.0474896,-0.0834217 0.0831654,-0.115074 0.0356757,-0.0316635 0.0773922,-0.0557816 0.125127,-0.0723657 0.0479912,-0.016584 0.100006,-0.0248761 0.156534,-0.0248761 0.0439789,-0.000256339 0.0824186,0.00904989 0.11533,0.0281416 0.0329229,0.019348 0.0585457,0.0497521 0.0768906,0.0917137 0.018345,0.0419616 0.0276401,0.0969854 0.0278853,0.165071 0,0.0510115 -0.0030092,0.10277 -0.00903874,0.154784 -0.00578435,0.0522598 -0.0145779,0.103015 -0.0261355,0.152511 -0.0115576,0.0495069 -0.0256228,0.0957371 -0.0422068,0.138445 -0.0168404,0.0429758 -0.0356869,0.0806577 -0.0572862,0.113324 -0.0213653,0.0324102 -0.0452272,0.0580441 -0.0711174,0.0763891 -0.0258791,0.0183338 -0.0537644,0.0276289 -0.0836669,0.0278853 -0.0143216,0 -0.0286431,-0.00226247 -0.0429647,-0.00703261 -0.0143216,-0.00502648 -0.0286431,-0.0125606 -0.0429647,-0.0231151l0.180909 -0.845752 -0.223127 0.0301477z"/>
  <path id="1" class="fil0" d="M1.55275 0.432611l-0.016584 0.079911 0 -0.0105545c0,-0.0148231 -0.00402341,-0.0278964 -0.0125606,-0.039454 -0.00854836,-0.0115576 -0.0216105,-0.0205963 -0.0396991,-0.0271385 -0.0180998,-0.00677627 -0.0412149,-0.0100418 -0.069858,-0.0102982 -0.0437226,0.000256339 -0.0836669,0.00854836 -0.119855,0.0248761 -0.0361773,0.0163277 -0.0685875,0.0384397 -0.0972306,0.0665813 -0.0286431,0.0281416 -0.0537755,0.0603066 -0.0748845,0.0959823 -0.0213542,0.0359321 -0.0391976,0.0736251 -0.0532628,0.113068 -0.0140652,0.0391976 -0.0246197,0.0783952 -0.0316635,0.117348 -0.00703261,0.0389413 -0.0105433,0.0756312 -0.0105433,0.109802 0.000245194,0.0447256 0.00577321,0.0826638 0.0168292,0.113569 0.011056,0.0311508 0.0261355,0.0560268 0.0449708,0.0751297 0.0188465,0.0188354 0.0402118,0.0326554 0.0640737,0.0412037 0.023873,0.00879355 0.048749,0.012817 0.0746282,0.012817 0.026637,-0.000256339 0.0512567,-0.00427975 0.0736251,-0.0118139 0.0223572,-0.00779048 0.0429647,-0.018345 0.0612985,-0.0316635 0.018345,-0.0130622 0.0351853,-0.0278853 0.0500084,-0.0442129 0.0148231,-0.016584 0.0281416,-0.0334244 0.0396991,-0.0510115 0.00477014,0.0454835 0.0200948,0.0796546 0.0454724,0.103271 0.0256339,0.0233603 0.0598051,0.0351742 0.102268,0.0354305 0.0163277,0.000245194 0.0346727,-0.00151575 0.0545222,-0.00552801 0.0198496,-0.00377822 0.0407022,-0.011056 0.0625691,-0.0218669 0.0218557,-0.0107997 0.0437114,-0.0266258 0.0655783,-0.0472333 0.0218557,-0.0206074 0.0432099,-0.0474896 0.0635721,-0.0809029 0.0205963,-0.0334244 0.0394428,-0.074383 0.0567847,-0.123377l-0.0633269 0c-0.00753414,0.0253776 -0.0170856,0.0489942 -0.0286431,0.0703595 -0.0115576,0.0213542 -0.0251212,0.0384397 -0.0407022,0.0512567 -0.015581,0.0130622 -0.0331681,0.0198496 -0.0527613,0.0200948 -0.021109,0 -0.0366899,-0.00552801 -0.0467318,-0.016584 -0.010053,-0.011056 -0.0150794,-0.0271274 -0.0150794,-0.0482364 0,-0.00678742 0.000501533,-0.0140764 0.00125941,-0.0218669 0.00100307,-0.00777934 0.00250767,-0.0165729 0.00477014,-0.0263807l0.108543 -0.512578 -0.217086 0zm-0.0919701 0.0859405c0.0158373,0.000245194 0.0283979,0.00401227 0.0374478,0.0107997 0.00903874,0.00678742 0.0153246,0.0145779 0.0190917,0.0236166 0.00352188,0.00879355 0.00527167,0.0163388 0.00527167,0.0228699l-0.0723545 0.340708c-0.00654222,0.0291447 -0.016584,0.0535192 -0.0306604,0.0733687 -0.0143216,0.0196044 -0.0296462,0.0344275 -0.0467318,0.0442241 -0.0168404,0.010053 -0.0326665,0.0150794 -0.047746,0.0150794 -0.00703261,0.000245194 -0.0148231,-0.000501533 -0.0231151,-0.00201728 -0.00853721,-0.00174979 -0.0168292,-0.00602954 -0.0248761,-0.0133185 -0.00777934,-0.00703261 -0.0143216,-0.0188354 -0.019348,-0.0349179 -0.00527167,-0.0160825 -0.00777934,-0.0386961 -0.00803568,-0.0673392 0,-0.023873 0.00226247,-0.05051 0.00678742,-0.0798998 0.00452494,-0.0291447 0.0107997,-0.0593035 0.019348,-0.0902091 0.00853721,-0.0309056 0.0190917,-0.0608081 0.0314071,-0.0896964 0.0123043,-0.0286431 0.0261243,-0.0547786 0.0419616,-0.0776374 0.0155698,-0.0231151 0.0326554,-0.0414601 0.0515019,-0.0550349 0.0186013,-0.0133073 0.0386961,-0.0203511 0.0600503,-0.0205963z"/>
  <path id="12" class="fil0" d="M2.41507 0.281862c0.0015046,-0.00904989 0.00276401,-0.0185902 0.00352188,-0.0286431 0.000746727,-0.010053 0.00100307,-0.021109 0.00100307,-0.0331681 -0.000256339,-0.0246309 -0.00528282,-0.0469881 -0.0148231,-0.0668377 -0.00980776,-0.0198496 -0.0228699,-0.0369351 -0.0396991,-0.0512567 -0.016584,-0.0143216 -0.0356869,-0.0253776 -0.0567847,-0.0331681 -0.021109,-0.00753414 -0.0434774,-0.0115576 -0.0665925,-0.0115576 -0.0251212,-0.000256339 -0.0512567,0.00276401 -0.0783952,0.00979662 -0.0271274,0.00678742 -0.0535192,0.019348 -0.079142,0.0374367 -0.0256339,0.018345 -0.0484927,0.0442241 -0.0688438,0.07815 -0.0203511,0.0336696 -0.0364336,0.077381 -0.0479912,0.1309l-0.182424 0.860832c-0.0359209,0.0107997 -0.0695905,0.022112 -0.101009,0.0341711 -0.0311508,0.0123154 -0.0585345,0.026637 -0.0824075,0.043221 -0.0236166,0.016584 -0.042218,0.0369351 -0.0555253,0.0610533 -0.0133185,0.0241182 -0.0201059,0.0532628 -0.0203623,0.0876903 0.000256339,0.0246197 0.00528282,0.0467318 0.0148342,0.0668377 0.00979662,0.0198496 0.0228588,0.0369351 0.0396991,0.0512567 0.016584,0.0143216 0.0356757,0.0253776 0.0567847,0.0331681 0.0210978,0.00753414 0.0434662,0.0115576 0.0665813,0.0115576 0.0251212,0.000245194 0.0510115,-0.00302034 0.0778937,-0.00979662 0.0266258,-0.00678742 0.0525161,-0.019348 0.077381,-0.0374478 0.0248761,-0.0183338 0.0474896,-0.0442129 0.0673392,-0.0781389 0.0198496,-0.0336696 0.0356869,-0.0773922 0.0472444,-0.130911l0.173363 -0.814089 0.111563 0 0.0105545 -0.0603066 -0.110048 0 0.0256228 -0.119097c0.00728895,-0.0334133 0.0170856,-0.0590472 0.029401,-0.0768795 0.0123154,-0.0180886 0.0251212,-0.0304041 0.0386961,-0.0371915 0.0135637,-0.00678742 0.0261243,-0.010053 0.0374367,-0.00954028 0.0102982,0 0.0195932,0.00174979 0.0283868,0.00551687 0.00854836,0.00377822 0.015581,0.00930623 0.0208638,0.0170967 0.00527167,0.00753414 0.00803568,0.0170856 0.00803568,0.0286431 0,0.00653108 -0.000256339,0.0133073 -0.00100307,0.0198496 -0.000501533,0.00627474 -0.00125941,0.0133073 -0.00201728,0.0208526l0.0708611 0zm-0.806555 1.09751c0.000256339,-0.0268822 0.00753414,-0.0499973 0.0218669,-0.0693453 0.0143216,-0.019348 0.0339148,-0.0359321 0.0587908,-0.0497521 0.0248761,-0.01382 0.0532628,-0.0258791 0.0851826,-0.0361773l-0.0196044 0.087434c-0.00653108,0.029401 -0.0145779,0.0527724 -0.023873,0.0701032 -0.00954028,0.0170856 -0.019348,0.029401 -0.0301477,0.0366899 -0.0105545,0.00753414 -0.0213542,0.011056 -0.0319087,0.0107997 -0.0113124,-0.000256339 -0.0213542,-0.00302034 -0.0304041,-0.00829202 -0.00904989,-0.00502648 -0.0163277,-0.0115576 -0.0216105,-0.0190917 -0.00552801,-0.00754529 -0.00829202,-0.0150794 -0.00829202,-0.0223684z"/>
  <path id="123" class="fil0" d="M2.38944 0.224575l-0.0452272 0.208036 -0.0497521 0 -0.0120591 0.0603066 0.0497521 0 -0.0904543 0.423628c-0.00376707,0.0180886 -0.00678742,0.0354305 -0.00879355,0.0517582 -0.00226247,0.016584 -0.00326554,0.0319198 -0.00326554,0.0462414 0.000245194,0.0422068 0.00753414,0.0763779 0.0216105,0.10326 0.0143216,0.026637 0.0334133,0.0462414 0.0577878,0.058802 0.0241182,0.0125606 0.051513,0.0188465 0.081906,0.0188465 0.0163388,0.000245194 0.0351853,-0.00151575 0.056038,-0.00552801 0.0208526,-0.00377822 0.0427083,-0.011056 0.0658346,-0.0218669 0.0231151,-0.0107997 0.0462302,-0.0266258 0.0695905,-0.0472333 0.0233715,-0.0206074 0.0457287,-0.0474896 0.067094,-0.0809029 0.0213542,-0.0334244 0.0407022,-0.074383 0.0580441,-0.123377l-0.0633269 0c-0.00779048,0.0253776 -0.0183338,0.0479912 -0.0321539,0.0678407 -0.01382,0.0198496 -0.029401,0.0356869 -0.0472444,0.0472444 -0.0178323,0.0115576 -0.0364336,0.0173308 -0.0562832,0.0175871 -0.0210978,0.000245194 -0.0366788,-0.00376707 -0.0467318,-0.0120591 -0.010053,-0.00829202 -0.0150794,-0.0228699 -0.0150794,-0.0437226 0,-0.00678742 0.000501533,-0.0140764 0.00125941,-0.0218669 0.00100307,-0.00777934 0.00250767,-0.0165729 0.00477014,-0.0263807l0.0964839 -0.452272 0.0904543 0 0.0120702 -0.0603066 -0.0904543 0 0.0512567 -0.238195 -0.223127 0.0301589z"/>
  <path id="1234" class="fil0" d="M3.15077 0.432611l-0.016584 0.079911 0 -0.0105545c0,-0.0148231 -0.00402341,-0.0278964 -0.0125606,-0.039454 -0.00854836,-0.0115576 -0.0216105,-0.0205963 -0.0396991,-0.0271385 -0.0180998,-0.00677627 -0.0412149,-0.0100418 -0.069858,-0.0102982 -0.0437226,0.000256339 -0.0836669,0.00854836 -0.119855,0.0248761 -0.0361773,0.0163277 -0.0685875,0.0384397 -0.0972306,0.0665813 -0.0286431,0.0281416 -0.0537755,0.0603066 -0.0748845,0.0959823 -0.0213542,0.0359321 -0.0391976,0.0736251 -0.0532628,0.113068 -0.0140652,0.0391976 -0.0246197,0.0783952 -0.0316635,0.117348 -0.00703261,0.0389413 -0.0105433,0.0756312 -0.0105433,0.109802 0.000245194,0.0447256 0.00577321,0.0826638 0.0168292,0.113569 0.011056,0.0311508 0.0261355,0.0560268 0.0449708,0.0751297 0.0188465,0.0188354 0.0402118,0.0326554 0.0640737,0.0412037 0.023873,0.00879355 0.048749,0.012817 0.0746282,0.012817 0.026637,-0.000256339 0.0512567,-0.00427975 0.0736251,-0.0118139 0.0223572,-0.00779048 0.0429647,-0.018345 0.0612985,-0.0316635 0.018345,-0.0130622 0.0351853,-0.0278853 0.0500084,-0.0442129 0.0148231,-0.016584 0.0281416,-0.0334244 0.0396991,-0.0510115 0.00477014,0.0454835 0.0200948,0.0796546 0.0454724,0.103271 0.0256339,0.0233603 0.0598051,0.0351742 0.102268,0.0354305 0.0163277,0.000245194 0.0346727,-0.00151575 0.0545222,-0.00552801 0.0198496,-0.00377822 0.0407022,-0.011056 0.0625691,-0.0218669 0.0218557,-0.0107997 0.0437114,-0.0266258 0.0655783,-0.0472333 0.0218557,-0.0206074 0.0432099,-0.0474896 0.0635721,-0.0809029 0.0205963,-0.0334244 0.0394428,-0.074383 0.0567847,-0.123377l-0.0633269 0c-0.00753414,0.0253776 -0.0170856,0.0489942 -0.0286431,0.0703595 -0.0115576,0.0213542 -0.0251212,0.0384397 -0.0407022,0.0512567 -0.015581,0.0130622 -0.0331681,0.0198496 -0.0527613,0.0200948 -0.021109,0 -0.0366899,-0.00552801 -0.0467318,-0.016584 -0.010053,-0.011056 -0.0150794,-0.0271274 -0.0150794,-0.0482364 0,-0.00678742 0.000501533,-0.0140764 0.00125941,-0.0218669 0.00100307,-0.00777934 0.00250767,-0.0165729 0.00477014,-0.0263807l0.108543 -0.512578 -0.217086 0zm-0.0919701 0.0859405c0.0158373,0.000245194 0.0283979,0.00401227 0.0374478,0.0107997 0.00903874,0.00678742 0.0153246,0.0145779 0.0190917,0.0236166 0.00352188,0.00879355 0.00527167,0.0163388 0.00527167,0.0228699l-0.0723545 0.340708c-0.00654222,0.0291447 -0.016584,0.0535192 -0.0306604,0.0733687 -0.0143216,0.0196044 -0.0296462,0.0344275 -0.0467318,0.0442241 -0.0168404,0.010053 -0.0326665,0.0150794 -0.047746,0.0150794 -0.00703261,0.000245194 -0.0148231,-0.000501533 -0.0231151,-0.00201728 -0.00853721,-0.00174979 -0.0168292,-0.00602954 -0.0248761,-0.0133185 -0.00777934,-0.00703261 -0.0143216,-0.0188354 -0.019348,-0.0349179 -0.00527167,-0.0160825 -0.00777934,-0.0386961 -0.00803568,-0.0673392 0,-0.023873 0.00226247,-0.05051 0.00678742,-0.0798998 0.00452494,-0.0291447 0.0107997,-0.0593035 0.019348,-0.0902091 0.00853721,-0.0309056 0.0190917,-0.0608081 0.0314071,-0.0896964 0.0123043,-0.0286431 0.0261243,-0.0547786 0.0419616,-0.0776374 0.0155698,-0.0231151 0.0326554,-0.0414601 0.0515019,-0.0550349 0.0186013,-0.0133073 0.0386961,-0.0203511 0.0600503,-0.0205963z"/>
  <path id="12345" class="fil0" d="M3.53971 0.432611l-0.1598 0.753793 0.217086 0 0.120613 -0.572874c0.0123043,-0.0115687 0.0241182,-0.0218669 0.0351742,-0.0304041 0.011056,-0.00854836 0.0226136,-0.0150794 0.0346727,-0.0198496 0.0118139,-0.00452494 0.0253776,-0.00704376 0.0402007,-0.00704376 0.00879355,0.000256339 0.0148231,0.00377822 0.018345,0.0103093 0.00352188,0.00653108 0.00602954,0.0148231 0.00753414,0.0246197 0.00176094,0.00979662 0.00426861,0.0196044 0.00728895,0.029401 0.00326554,0.010053 0.00904989,0.0180886 0.0170856,0.0248761 0.00829202,0.00653108 0.0206074,0.0100418 0.0371915,0.0102982 0.0246197,-0.000501533 0.0449708,-0.00602954 0.0610533,-0.0168292 0.0160825,-0.0108108 0.0278853,-0.0246309 0.0356757,-0.0412149 0.00804682,-0.0168292 0.0118139,-0.0341711 0.0118139,-0.0520034 0,-0.019348 -0.00402341,-0.037693 -0.0118139,-0.0547786 -0.00803568,-0.0170856 -0.0195932,-0.0309056 -0.0351742,-0.0417164 -0.0153246,-0.0107997 -0.0344275,-0.0163277 -0.0570411,-0.016584 -0.0241182,0.000256339 -0.0467318,0.00502648 -0.0678407,0.0140764 -0.0210978,0.00929508 -0.0409474,0.0208526 -0.0597939,0.034929 -0.0191028,0.0143216 -0.0371915,0.0291447 -0.0547786,0.0444693l0.0196044 -0.0934747 -0.217097 0z"/>
  <path id="123456" class="fil1 str0" d="M0.393414 0.227585l-0.205027 0.95882 0.217097 0 0.0120591 -0.0603066c0.0324102,0.0276401 0.0640737,0.0479912 0.0947229,0.0608081 0.0309056,0.012817 0.0605518,0.019348 0.0891949,0.0190917 0.0374367,-0.000245194 0.0733687,-0.0100418 0.108543,-0.0288883 0.034929,-0.0191028 0.0678407,-0.0457287 0.0990027,-0.0796546 0.0309056,-0.0341711 0.0593035,-0.0738703 0.0849263,-0.119599 0.0256339,-0.0454724 0.047746,-0.0949793 0.0665813,-0.148242 0.0186013,-0.053274 0.0329229,-0.108799 0.043221,-0.166342 0.010053,-0.0575314 0.0153246,-0.11533 0.0153246,-0.173363 0,-0.0464866 -0.00452494,-0.0909558 -0.01382,-0.133675 -0.00929508,-0.0429647 -0.0238618,-0.0824186 -0.0437114,-0.118852 -0.0198496,-0.0364336 -0.0454835,-0.0680859 -0.0768906,-0.0952245 -0.0316635,-0.0271385 -0.0696017,-0.0482364 -0.113826,-0.0633158 -0.0444693,-0.0153246 -0.095726,-0.0228699 -0.154272,-0.0231151 -0.0615549,0.000245194 -0.120101,0.00728895 -0.175882,0.0216105 -0.0557816,0.0140652 -0.107038,0.0336696 -0.15377,0.0590472 -0.0467429,0.0251212 -0.0874451,0.0545222 -0.121873,0.0879355 -0.0344163,0.0334244 -0.0612985,0.0698469 -0.0804014,0.108543 -0.0188465,0.0389524 -0.0286431,0.0793983 -0.0288883,0.120858 0.000245194,0.0339259 0.00677627,0.0613097 0.0195932,0.0819171 0.0130622,0.0205963 0.0316635,0.0354305 0.0557816,0.0447256 0.023873,0.00929508 0.0525161,0.01382 0.0859294,0.0135637 -0.000746727,-0.00402341 -0.00276401,-0.00929508 -0.00602954,-0.015581 -0.00352188,-0.00627474 -0.00678742,-0.0158262 -0.010053,-0.0291447 -0.0030092,-0.0133185 -0.00477014,-0.0326665 -0.00502648,-0.0577878 0.000256339,-0.0575426 0.0103093,-0.108799 0.0301589,-0.154026 0.0198496,-0.0452272 0.0474896,-0.0834217 0.0831654,-0.115074 0.0356757,-0.0316635 0.0773922,-0.0557816 0.125127,-0.0723657 0.0479912,-0.016584 0.100006,-0.0248761 0.156534,-0.0248761 0.0439789,-0.000256339 0.0824186,0.00904989 0.11533,0.0281416 0.0329229,0.019348 0.0585457,0.0497521 0.0768906,0.0917137 0.018345,0.0419616 0.0276401,0.0969854 0.0278853,0.165071 0,0.0510115 -0.0030092,0.10277 -0.00903874,0.154784 -0.00578435,0.0522598 -0.0145779,0.103015 -0.0261355,0.152511 -0.0115576,0.0495069 -0.0256228,0.0957371 -0.0422068,0.138445 -0.0168404,0.0429758 -0.0356869,0.0806577 -0.0572862,0.113324 -0.0213653,0.0324102 -0.0452272,0.0580441 -0.0711174,0.0763891 -0.0258791,0.0183338 -0.0537644,0.0276289 -0.0836669,0.0278853 -0.0143216,0 -0.0286431,-0.00226247 -0.0429647,-0.00703261 -0.0143216,-0.00502648 -0.0286431,-0.0125606 -0.0429647,-0.0231151l0.180909 -0.845752 -0.223127 0.0301477z"/>
  <path id="1234567" class="fil1 str0" d="M1.55275 0.432611l-0.016584 0.079911 0 -0.0105545c0,-0.0148231 -0.00402341,-0.0278964 -0.0125606,-0.039454 -0.00854836,-0.0115576 -0.0216105,-0.0205963 -0.0396991,-0.0271385 -0.0180998,-0.00677627 -0.0412149,-0.0100418 -0.069858,-0.0102982 -0.0437226,0.000256339 -0.0836669,0.00854836 -0.119855,0.0248761 -0.0361773,0.0163277 -0.0685875,0.0384397 -0.0972306,0.0665813 -0.0286431,0.0281416 -0.0537755,0.0603066 -0.0748845,0.0959823 -0.0213542,0.0359321 -0.0391976,0.0736251 -0.0532628,0.113068 -0.0140652,0.0391976 -0.0246197,0.0783952 -0.0316635,0.117348 -0.00703261,0.0389413 -0.0105433,0.0756312 -0.0105433,0.109802 0.000245194,0.0447256 0.00577321,0.0826638 0.0168292,0.113569 0.011056,0.0311508 0.0261355,0.0560268 0.0449708,0.0751297 0.0188465,0.0188354 0.0402118,0.0326554 0.0640737,0.0412037 0.023873,0.00879355 0.048749,0.012817 0.0746282,0.012817 0.026637,-0.000256339 0.0512567,-0.00427975 0.0736251,-0.0118139 0.0223572,-0.00779048 0.0429647,-0.018345 0.0612985,-0.0316635 0.018345,-0.0130622 0.0351853,-0.0278853 0.0500084,-0.0442129 0.0148231,-0.016584 0.0281416,-0.0334244 0.0396991,-0.0510115 0.00477014,0.0454835 0.0200948,0.0796546 0.0454724,0.103271 0.0256339,0.0233603 0.0598051,0.0351742 0.102268,0.0354305 0.0163277,0.000245194 0.0346727,-0.00151575 0.0545222,-0.00552801 0.0198496,-0.00377822 0.0407022,-0.011056 0.0625691,-0.0218669 0.0218557,-0.0107997 0.0437114,-0.0266258 0.0655783,-0.0472333 0.0218557,-0.0206074 0.0432099,-0.0474896 0.0635721,-0.0809029 0.0205963,-0.0334244 0.0394428,-0.074383 0.0567847,-0.123377l-0.0633269 0c-0.00753414,0.0253776 -0.0170856,0.0489942 -0.0286431,0.0703595 -0.0115576,0.0213542 -0.0251212,0.0384397 -0.0407022,0.0512567 -0.015581,0.0130622 -0.0331681,0.0198496 -0.0527613,0.0200948 -0.021109,0 -0.0366899,-0.00552801 -0.0467318,-0.016584 -0.010053,-0.011056 -0.0150794,-0.0271274 -0.0150794,-0.0482364 0,-0.00678742 0.000501533,-0.0140764 0.00125941,-0.0218669 0.00100307,-0.00777934 0.00250767,-0.0165729 0.00477014,-0.0263807l0.108543 -0.512578 -0.217086 0zm-0.0919701 0.0859405c0.0158373,0.000245194 0.0283979,0.00401227 0.0374478,0.0107997 0.00903874,0.00678742 0.0153246,0.0145779 0.0190917,0.0236166 0.00352188,0.00879355 0.00527167,0.0163388 0.00527167,0.0228699l-0.0723545 0.340708c-0.00654222,0.0291447 -0.016584,0.0535192 -0.0306604,0.0733687 -0.0143216,0.0196044 -0.0296462,0.0344275 -0.0467318,0.0442241 -0.0168404,0.010053 -0.0326665,0.0150794 -0.047746,0.0150794 -0.00703261,0.000245194 -0.0148231,-0.000501533 -0.0231151,-0.00201728 -0.00853721,-0.00174979 -0.0168292,-0.00602954 -0.0248761,-0.0133185 -0.00777934,-0.00703261 -0.0143216,-0.0188354 -0.019348,-0.0349179 -0.00527167,-0.0160825 -0.00777934,-0.0386961 -0.00803568,-0.0673392 0,-0.023873 0.00226247,-0.05051 0.00678742,-0.0798998 0.00452494,-0.0291447 0.0107997,-0.0593035 0.019348,-0.0902091 0.00853721,-0.0309056 0.0190917,-0.0608081 0.0314071,-0.0896964 0.0123043,-0.0286431 0.0261243,-0.0547786 0.0419616,-0.0776374 0.0155698,-0.0231151 0.0326554,-0.0414601 0.0515019,-0.0550349 0.0186013,-0.0133073 0.0386961,-0.0203511 0.0600503,-0.0205963z"/>
  <path id="12345678" class="fil1 str0" d="M2.41507 0.281862c0.0015046,-0.00904989 0.00276401,-0.0185902 0.00352188,-0.0286431 0.000746727,-0.010053 0.00100307,-0.021109 0.00100307,-0.0331681 -0.000256339,-0.0246309 -0.00528282,-0.0469881 -0.0148231,-0.0668377 -0.00980776,-0.0198496 -0.0228699,-0.0369351 -0.0396991,-0.0512567 -0.016584,-0.0143216 -0.0356869,-0.0253776 -0.0567847,-0.0331681 -0.021109,-0.00753414 -0.0434774,-0.0115576 -0.0665925,-0.0115576 -0.0251212,-0.000256339 -0.0512567,0.00276401 -0.0783952,0.00979662 -0.0271274,0.00678742 -0.0535192,0.019348 -0.079142,0.0374367 -0.0256339,0.018345 -0.0484927,0.0442241 -0.0688438,0.07815 -0.0203511,0.0336696 -0.0364336,0.077381 -0.0479912,0.1309l-0.182424 0.860832c-0.0359209,0.0107997 -0.0695905,0.022112 -0.101009,0.0341711 -0.0311508,0.0123154 -0.0585345,0.026637 -0.0824075,0.043221 -0.0236166,0.016584 -0.042218,0.0369351 -0.0555253,0.0610533 -0.0133185,0.0241182 -0.0201059,0.0532628 -0.0203623,0.0876903 0.000256339,0.0246197 0.00528282,0.0467318 0.0148342,0.0668377 0.00979662,0.0198496 0.0228588,0.0369351 0.0396991,0.0512567 0.016584,0.0143216 0.0356757,0.0253776 0.0567847,0.0331681 0.0210978,0.00753414 0.0434662,0.0115576 0.0665813,0.0115576 0.0251212,0.000245194 0.0510115,-0.00302034 0.0778937,-0.00979662 0.0266258,-0.00678742 0.0525161,-0.019348 0.077381,-0.0374478 0.0248761,-0.0183338 0.0474896,-0.0442129 0.0673392,-0.0781389 0.0198496,-0.0336696 0.0356869,-0.0773922 0.0472444,-0.130911l0.173363 -0.814089 0.111563 0 0.0105545 -0.0603066 -0.110048 0 0.0256228 -0.119097c0.00728895,-0.0334133 0.0170856,-0.0590472 0.029401,-0.0768795 0.0123154,-0.0180886 0.0251212,-0.0304041 0.0386961,-0.0371915 0.0135637,-0.00678742 0.0261243,-0.010053 0.0374367,-0.00954028 0.0102982,0 0.0195932,0.00174979 0.0283868,0.00551687 0.00854836,0.00377822 0.015581,0.00930623 0.0208638,0.0170967 0.00527167,0.00753414 0.00803568,0.0170856 0.00803568,0.0286431 0,0.00653108 -0.000256339,0.0133073 -0.00100307,0.0198496 -0.000501533,0.00627474 -0.00125941,0.0133073 -0.00201728,0.0208526l0.0708611 0zm-0.806555 1.09751c0.000256339,-0.0268822 0.00753414,-0.0499973 0.0218669,-0.0693453 0.0143216,-0.019348 0.0339148,-0.0359321 0.0587908,-0.0497521 0.0248761,-0.01382 0.0532628,-0.0258791 0.0851826,-0.0361773l-0.0196044 0.087434c-0.00653108,0.029401 -0.0145779,0.0527724 -0.023873,0.0701032 -0.00954028,0.0170856 -0.019348,0.029401 -0.0301477,0.0366899 -0.0105545,0.00753414 -0.0213542,0.011056 -0.0319087,0.0107997 -0.0113124,-0.000256339 -0.0213542,-0.00302034 -0.0304041,-0.00829202 -0.00904989,-0.00502648 -0.0163277,-0.0115576 -0.0216105,-0.0190917 -0.00552801,-0.00754529 -0.00829202,-0.0150794 -0.00829202,-0.0223684z"/>
  <path id="123456789" class="fil1 str0" d="M2.38944 0.224575l-0.0452272 0.208036 -0.0497521 0 -0.0120591 0.0603066 0.0497521 0 -0.0904543 0.423628c-0.00376707,0.0180886 -0.00678742,0.0354305 -0.00879355,0.0517582 -0.00226247,0.016584 -0.00326554,0.0319198 -0.00326554,0.0462414 0.000245194,0.0422068 0.00753414,0.0763779 0.0216105,0.10326 0.0143216,0.026637 0.0334133,0.0462414 0.0577878,0.058802 0.0241182,0.0125606 0.051513,0.0188465 0.081906,0.0188465 0.0163388,0.000245194 0.0351853,-0.00151575 0.056038,-0.00552801 0.0208526,-0.00377822 0.0427083,-0.011056 0.0658346,-0.0218669 0.0231151,-0.0107997 0.0462302,-0.0266258 0.0695905,-0.0472333 0.0233715,-0.0206074 0.0457287,-0.0474896 0.067094,-0.0809029 0.0213542,-0.0334244 0.0407022,-0.074383 0.0580441,-0.123377l-0.0633269 0c-0.00779048,0.0253776 -0.0183338,0.0479912 -0.0321539,0.0678407 -0.01382,0.0198496 -0.029401,0.0356869 -0.0472444,0.0472444 -0.0178323,0.0115576 -0.0364336,0.0173308 -0.0562832,0.0175871 -0.0210978,0.000245194 -0.0366788,-0.00376707 -0.0467318,-0.0120591 -0.010053,-0.00829202 -0.0150794,-0.0228699 -0.0150794,-0.0437226 0,-0.00678742 0.000501533,-0.0140764 0.00125941,-0.0218669 0.00100307,-0.00777934 0.00250767,-0.0165729 0.00477014,-0.0263807l0.0964839 -0.452272 0.0904543 0 0.0120702 -0.0603066 -0.0904543 0 0.0512567 -0.238195 -0.223127 0.0301589z"/>
  <path id="12345678910" class="fil1 str0" d="M3.15077 0.432611l-0.016584 0.079911 0 -0.0105545c0,-0.0148231 -0.00402341,-0.0278964 -0.0125606,-0.039454 -0.00854836,-0.0115576 -0.0216105,-0.0205963 -0.0396991,-0.0271385 -0.0180998,-0.00677627 -0.0412149,-0.0100418 -0.069858,-0.0102982 -0.0437226,0.000256339 -0.0836669,0.00854836 -0.119855,0.0248761 -0.0361773,0.0163277 -0.0685875,0.0384397 -0.0972306,0.0665813 -0.0286431,0.0281416 -0.0537755,0.0603066 -0.0748845,0.0959823 -0.0213542,0.0359321 -0.0391976,0.0736251 -0.0532628,0.113068 -0.0140652,0.0391976 -0.0246197,0.0783952 -0.0316635,0.117348 -0.00703261,0.0389413 -0.0105433,0.0756312 -0.0105433,0.109802 0.000245194,0.0447256 0.00577321,0.0826638 0.0168292,0.113569 0.011056,0.0311508 0.0261355,0.0560268 0.0449708,0.0751297 0.0188465,0.0188354 0.0402118,0.0326554 0.0640737,0.0412037 0.023873,0.00879355 0.048749,0.012817 0.0746282,0.012817 0.026637,-0.000256339 0.0512567,-0.00427975 0.0736251,-0.0118139 0.0223572,-0.00779048 0.0429647,-0.018345 0.0612985,-0.0316635 0.018345,-0.0130622 0.0351853,-0.0278853 0.0500084,-0.0442129 0.0148231,-0.016584 0.0281416,-0.0334244 0.0396991,-0.0510115 0.00477014,0.0454835 0.0200948,0.0796546 0.0454724,0.103271 0.0256339,0.0233603 0.0598051,0.0351742 0.102268,0.0354305 0.0163277,0.000245194 0.0346727,-0.00151575 0.0545222,-0.00552801 0.0198496,-0.00377822 0.0407022,-0.011056 0.0625691,-0.0218669 0.0218557,-0.0107997 0.0437114,-0.0266258 0.0655783,-0.0472333 0.0218557,-0.0206074 0.0432099,-0.0474896 0.0635721,-0.0809029 0.0205963,-0.0334244 0.0394428,-0.074383 0.0567847,-0.123377l-0.0633269 0c-0.00753414,0.0253776 -0.0170856,0.0489942 -0.0286431,0.0703595 -0.0115576,0.0213542 -0.0251212,0.0384397 -0.0407022,0.0512567 -0.015581,0.0130622 -0.0331681,0.0198496 -0.0527613,0.0200948 -0.021109,0 -0.0366899,-0.00552801 -0.0467318,-0.016584 -0.010053,-0.011056 -0.0150794,-0.0271274 -0.0150794,-0.0482364 0,-0.00678742 0.000501533,-0.0140764 0.00125941,-0.0218669 0.00100307,-0.00777934 0.00250767,-0.0165729 0.00477014,-0.0263807l0.108543 -0.512578 -0.217086 0zm-0.0919701 0.0859405c0.0158373,0.000245194 0.0283979,0.00401227 0.0374478,0.0107997 0.00903874,0.00678742 0.0153246,0.0145779 0.0190917,0.0236166 0.00352188,0.00879355 0.00527167,0.0163388 0.00527167,0.0228699l-0.0723545 0.340708c-0.00654222,0.0291447 -0.016584,0.0535192 -0.0306604,0.0733687 -0.0143216,0.0196044 -0.0296462,0.0344275 -0.0467318,0.0442241 -0.0168404,0.010053 -0.0326665,0.0150794 -0.047746,0.0150794 -0.00703261,0.000245194 -0.0148231,-0.000501533 -0.0231151,-0.00201728 -0.00853721,-0.00174979 -0.0168292,-0.00602954 -0.0248761,-0.0133185 -0.00777934,-0.00703261 -0.0143216,-0.0188354 -0.019348,-0.0349179 -0.00527167,-0.0160825 -0.00777934,-0.0386961 -0.00803568,-0.0673392 0,-0.023873 0.00226247,-0.05051 0.00678742,-0.0798998 0.00452494,-0.0291447 0.0107997,-0.0593035 0.019348,-0.0902091 0.00853721,-0.0309056 0.0190917,-0.0608081 0.0314071,-0.0896964 0.0123043,-0.0286431 0.0261243,-0.0547786 0.0419616,-0.0776374 0.0155698,-0.0231151 0.0326554,-0.0414601 0.0515019,-0.0550349 0.0186013,-0.0133073 0.0386961,-0.0203511 0.0600503,-0.0205963z"/>
  <path id="1234567891011" class="fil1 str0" d="M3.53971 0.432611l-0.1598 0.753793 0.217086 0 0.120613 -0.572874c0.0123043,-0.0115687 0.0241182,-0.0218669 0.0351742,-0.0304041 0.011056,-0.00854836 0.0226136,-0.0150794 0.0346727,-0.0198496 0.0118139,-0.00452494 0.0253776,-0.00704376 0.0402007,-0.00704376 0.00879355,0.000256339 0.0148231,0.00377822 0.018345,0.0103093 0.00352188,0.00653108 0.00602954,0.0148231 0.00753414,0.0246197 0.00176094,0.00979662 0.00426861,0.0196044 0.00728895,0.029401 0.00326554,0.010053 0.00904989,0.0180886 0.0170856,0.0248761 0.00829202,0.00653108 0.0206074,0.0100418 0.0371915,0.0102982 0.0246197,-0.000501533 0.0449708,-0.00602954 0.0610533,-0.0168292 0.0160825,-0.0108108 0.0278853,-0.0246309 0.0356757,-0.0412149 0.00804682,-0.0168292 0.0118139,-0.0341711 0.0118139,-0.0520034 0,-0.019348 -0.00402341,-0.037693 -0.0118139,-0.0547786 -0.00803568,-0.0170856 -0.0195932,-0.0309056 -0.0351742,-0.0417164 -0.0153246,-0.0107997 -0.0344275,-0.0163277 -0.0570411,-0.016584 -0.0241182,0.000256339 -0.0467318,0.00502648 -0.0678407,0.0140764 -0.0210978,0.00929508 -0.0409474,0.0208526 -0.0597939,0.034929 -0.0191028,0.0143216 -0.0371915,0.0291447 -0.0547786,0.0444693l0.0196044 -0.0934747 -0.217097 0z"/>
  <path class="fil0" d="M0.393414 0.227585l-0.205027 0.95882 0.217097 0 0.0120591 -0.0603066c0.0324102,0.0276401 0.0640737,0.0479912 0.0947229,0.0608081 0.0309056,0.012817 0.0605518,0.019348 0.0891949,0.0190917 0.0374367,-0.000245194 0.0733687,-0.0100418 0.108543,-0.0288883 0.034929,-0.0191028 0.0678407,-0.0457287 0.0990027,-0.0796546 0.0309056,-0.0341711 0.0593035,-0.0738703 0.0849263,-0.119599 0.0256339,-0.0454724 0.047746,-0.0949793 0.0665813,-0.148242 0.0186013,-0.053274 0.0329229,-0.108799 0.043221,-0.166342 0.010053,-0.0575314 0.0153246,-0.11533 0.0153246,-0.173363 0,-0.0464866 -0.00452494,-0.0909558 -0.01382,-0.133675 -0.00929508,-0.0429647 -0.0238618,-0.0824186 -0.0437114,-0.118852 -0.0198496,-0.0364336 -0.0454835,-0.0680859 -0.0768906,-0.0952245 -0.0316635,-0.0271385 -0.0696017,-0.0482364 -0.113826,-0.0633158 -0.0444693,-0.0153246 -0.095726,-0.0228699 -0.154272,-0.0231151 -0.0615549,0.000245194 -0.120101,0.00728895 -0.175882,0.0216105 -0.0557816,0.0140652 -0.107038,0.0336696 -0.15377,0.0590472 -0.0467429,0.0251212 -0.0874451,0.0545222 -0.121873,0.0879355 -0.0344163,0.0334244 -0.0612985,0.0698469 -0.0804014,0.108543 -0.0188465,0.0389524 -0.0286431,0.0793983 -0.0288883,0.120858 0.000245194,0.0339259 0.00677627,0.0613097 0.0195932,0.0819171 0.0130622,0.0205963 0.0316635,0.0354305 0.0557816,0.0447256 0.023873,0.00929508 0.0525161,0.01382 0.0859294,0.0135637 -0.000746727,-0.00402341 -0.00276401,-0.00929508 -0.00602954,-0.015581 -0.00352188,-0.00627474 -0.00678742,-0.0158262 -0.010053,-0.0291447 -0.0030092,-0.0133185 -0.00477014,-0.0326665 -0.00502648,-0.0577878 0.000256339,-0.0575426 0.0103093,-0.108799 0.0301589,-0.154026 0.0198496,-0.0452272 0.0474896,-0.0834217 0.0831654,-0.115074 0.0356757,-0.0316635 0.0773922,-0.0557816 0.125127,-0.0723657 0.0479912,-0.016584 0.100006,-0.0248761 0.156534,-0.0248761 0.0439789,-0.000256339 0.0824186,0.00904989 0.11533,0.0281416 0.0329229,0.019348 0.0585457,0.0497521 0.0768906,0.0917137 0.018345,0.0419616 0.0276401,0.0969854 0.0278853,0.165071 0,0.0510115 -0.0030092,0.10277 -0.00903874,0.154784 -0.00578435,0.0522598 -0.0145779,0.103015 -0.0261355,0.152511 -0.0115576,0.0495069 -0.0256228,0.0957371 -0.0422068,0.138445 -0.0168404,0.0429758 -0.0356869,0.0806577 -0.0572862,0.113324 -0.0213653,0.0324102 -0.0452272,0.0580441 -0.0711174,0.0763891 -0.0258791,0.0183338 -0.0537644,0.0276289 -0.0836669,0.0278853 -0.0143216,0 -0.0286431,-0.00226247 -0.0429647,-0.00703261 -0.0143216,-0.00502648 -0.0286431,-0.0125606 -0.0429647,-0.0231151l0.180909 -0.845752 -0.223127 0.0301477z"/>
  <path id="1" class="fil0" d="M1.55275 0.432611l-0.016584 0.079911 0 -0.0105545c0,-0.0148231 -0.00402341,-0.0278964 -0.0125606,-0.039454 -0.00854836,-0.0115576 -0.0216105,-0.0205963 -0.0396991,-0.0271385 -0.0180998,-0.00677627 -0.0412149,-0.0100418 -0.069858,-0.0102982 -0.0437226,0.000256339 -0.0836669,0.00854836 -0.119855,0.0248761 -0.0361773,0.0163277 -0.0685875,0.0384397 -0.0972306,0.0665813 -0.0286431,0.0281416 -0.0537755,0.0603066 -0.0748845,0.0959823 -0.0213542,0.0359321 -0.0391976,0.0736251 -0.0532628,0.113068 -0.0140652,0.0391976 -0.0246197,0.0783952 -0.0316635,0.117348 -0.00703261,0.0389413 -0.0105433,0.0756312 -0.0105433,0.109802 0.000245194,0.0447256 0.00577321,0.0826638 0.0168292,0.113569 0.011056,0.0311508 0.0261355,0.0560268 0.0449708,0.0751297 0.0188465,0.0188354 0.0402118,0.0326554 0.0640737,0.0412037 0.023873,0.00879355 0.048749,0.012817 0.0746282,0.012817 0.026637,-0.000256339 0.0512567,-0.00427975 0.0736251,-0.0118139 0.0223572,-0.00779048 0.0429647,-0.018345 0.0612985,-0.0316635 0.018345,-0.0130622 0.0351853,-0.0278853 0.0500084,-0.0442129 0.0148231,-0.016584 0.0281416,-0.0334244 0.0396991,-0.0510115 0.00477014,0.0454835 0.0200948,0.0796546 0.0454724,0.103271 0.0256339,0.0233603 0.0598051,0.0351742 0.102268,0.0354305 0.0163277,0.000245194 0.0346727,-0.00151575 0.0545222,-0.00552801 0.0198496,-0.00377822 0.0407022,-0.011056 0.0625691,-0.0218669 0.0218557,-0.0107997 0.0437114,-0.0266258 0.0655783,-0.0472333 0.0218557,-0.0206074 0.0432099,-0.0474896 0.0635721,-0.0809029 0.0205963,-0.0334244 0.0394428,-0.074383 0.0567847,-0.123377l-0.0633269 0c-0.00753414,0.0253776 -0.0170856,0.0489942 -0.0286431,0.0703595 -0.0115576,0.0213542 -0.0251212,0.0384397 -0.0407022,0.0512567 -0.015581,0.0130622 -0.0331681,0.0198496 -0.0527613,0.0200948 -0.021109,0 -0.0366899,-0.00552801 -0.0467318,-0.016584 -0.010053,-0.011056 -0.0150794,-0.0271274 -0.0150794,-0.0482364 0,-0.00678742 0.000501533,-0.0140764 0.00125941,-0.0218669 0.00100307,-0.00777934 0.00250767,-0.0165729 0.00477014,-0.0263807l0.108543 -0.512578 -0.217086 0zm-0.0919701 0.0859405c0.0158373,0.000245194 0.0283979,0.00401227 0.0374478,0.0107997 0.00903874,0.00678742 0.0153246,0.0145779 0.0190917,0.0236166 0.00352188,0.00879355 0.00527167,0.0163388 0.00527167,0.0228699l-0.0723545 0.340708c-0.00654222,0.0291447 -0.016584,0.0535192 -0.0306604,0.0733687 -0.0143216,0.0196044 -0.0296462,0.0344275 -0.0467318,0.0442241 -0.0168404,0.010053 -0.0326665,0.0150794 -0.047746,0.0150794 -0.00703261,0.000245194 -0.0148231,-0.000501533 -0.0231151,-0.00201728 -0.00853721,-0.00174979 -0.0168292,-0.00602954 -0.0248761,-0.0133185 -0.00777934,-0.00703261 -0.0143216,-0.0188354 -0.019348,-0.0349179 -0.00527167,-0.0160825 -0.00777934,-0.0386961 -0.00803568,-0.0673392 0,-0.023873 0.00226247,-0.05051 0.00678742,-0.0798998 0.00452494,-0.0291447 0.0107997,-0.0593035 0.019348,-0.0902091 0.00853721,-0.0309056 0.0190917,-0.0608081 0.0314071,-0.0896964 0.0123043,-0.0286431 0.0261243,-0.0547786 0.0419616,-0.0776374 0.0155698,-0.0231151 0.0326554,-0.0414601 0.0515019,-0.0550349 0.0186013,-0.0133073 0.0386961,-0.0203511 0.0600503,-0.0205963z"/>
  <path id="12" class="fil0" d="M2.41507 0.281862c0.0015046,-0.00904989 0.00276401,-0.0185902 0.00352188,-0.0286431 0.000746727,-0.010053 0.00100307,-0.021109 0.00100307,-0.0331681 -0.000256339,-0.0246309 -0.00528282,-0.0469881 -0.0148231,-0.0668377 -0.00980776,-0.0198496 -0.0228699,-0.0369351 -0.0396991,-0.0512567 -0.016584,-0.0143216 -0.0356869,-0.0253776 -0.0567847,-0.0331681 -0.021109,-0.00753414 -0.0434774,-0.0115576 -0.0665925,-0.0115576 -0.0251212,-0.000256339 -0.0512567,0.00276401 -0.0783952,0.00979662 -0.0271274,0.00678742 -0.0535192,0.019348 -0.079142,0.0374367 -0.0256339,0.018345 -0.0484927,0.0442241 -0.0688438,0.07815 -0.0203511,0.0336696 -0.0364336,0.077381 -0.0479912,0.1309l-0.182424 0.860832c-0.0359209,0.0107997 -0.0695905,0.022112 -0.101009,0.0341711 -0.0311508,0.0123154 -0.0585345,0.026637 -0.0824075,0.043221 -0.0236166,0.016584 -0.042218,0.0369351 -0.0555253,0.0610533 -0.0133185,0.0241182 -0.0201059,0.0532628 -0.0203623,0.0876903 0.000256339,0.0246197 0.00528282,0.0467318 0.0148342,0.0668377 0.00979662,0.0198496 0.0228588,0.0369351 0.0396991,0.0512567 0.016584,0.0143216 0.0356757,0.0253776 0.0567847,0.0331681 0.0210978,0.00753414 0.0434662,0.0115576 0.0665813,0.0115576 0.0251212,0.000245194 0.0510115,-0.00302034 0.0778937,-0.00979662 0.0266258,-0.00678742 0.0525161,-0.019348 0.077381,-0.0374478 0.0248761,-0.0183338 0.0474896,-0.0442129 0.0673392,-0.0781389 0.0198496,-0.0336696 0.0356869,-0.0773922 0.0472444,-0.130911l0.173363 -0.814089 0.111563 0 0.0105545 -0.0603066 -0.110048 0 0.0256228 -0.119097c0.00728895,-0.0334133 0.0170856,-0.0590472 0.029401,-0.0768795 0.0123154,-0.0180886 0.0251212,-0.0304041 0.0386961,-0.0371915 0.0135637,-0.00678742 0.0261243,-0.010053 0.0374367,-0.00954028 0.0102982,0 0.0195932,0.00174979 0.0283868,0.00551687 0.00854836,0.00377822 0.015581,0.00930623 0.0208638,0.0170967 0.00527167,0.00753414 0.00803568,0.0170856 0.00803568,0.0286431 0,0.00653108 -0.000256339,0.0133073 -0.00100307,0.0198496 -0.000501533,0.00627474 -0.00125941,0.0133073 -0.00201728,0.0208526l0.0708611 0zm-0.806555 1.09751c0.000256339,-0.0268822 0.00753414,-0.0499973 0.0218669,-0.0693453 0.0143216,-0.019348 0.0339148,-0.0359321 0.0587908,-0.0497521 0.0248761,-0.01382 0.0532628,-0.0258791 0.0851826,-0.0361773l-0.0196044 0.087434c-0.00653108,0.029401 -0.0145779,0.0527724 -0.023873,0.0701032 -0.00954028,0.0170856 -0.019348,0.029401 -0.0301477,0.0366899 -0.0105545,0.00753414 -0.0213542,0.011056 -0.0319087,0.0107997 -0.0113124,-0.000256339 -0.0213542,-0.00302034 -0.0304041,-0.00829202 -0.00904989,-0.00502648 -0.0163277,-0.0115576 -0.0216105,-0.0190917 -0.00552801,-0.00754529 -0.00829202,-0.0150794 -0.00829202,-0.0223684z"/>
  <path id="123" class="fil0" d="M2.38944 0.224575l-0.0452272 0.208036 -0.0497521 0 -0.0120591 0.0603066 0.0497521 0 -0.0904543 0.423628c-0.00376707,0.0180886 -0.00678742,0.0354305 -0.00879355,0.0517582 -0.00226247,0.016584 -0.00326554,0.0319198 -0.00326554,0.0462414 0.000245194,0.0422068 0.00753414,0.0763779 0.0216105,0.10326 0.0143216,0.026637 0.0334133,0.0462414 0.0577878,0.058802 0.0241182,0.0125606 0.051513,0.0188465 0.081906,0.0188465 0.0163388,0.000245194 0.0351853,-0.00151575 0.056038,-0.00552801 0.0208526,-0.00377822 0.0427083,-0.011056 0.0658346,-0.0218669 0.0231151,-0.0107997 0.0462302,-0.0266258 0.0695905,-0.0472333 0.0233715,-0.0206074 0.0457287,-0.0474896 0.067094,-0.0809029 0.0213542,-0.0334244 0.0407022,-0.074383 0.0580441,-0.123377l-0.0633269 0c-0.00779048,0.0253776 -0.0183338,0.0479912 -0.0321539,0.0678407 -0.01382,0.0198496 -0.029401,0.0356869 -0.0472444,0.0472444 -0.0178323,0.0115576 -0.0364336,0.0173308 -0.0562832,0.0175871 -0.0210978,0.000245194 -0.0366788,-0.00376707 -0.0467318,-0.0120591 -0.010053,-0.00829202 -0.0150794,-0.0228699 -0.0150794,-0.0437226 0,-0.00678742 0.000501533,-0.0140764 0.00125941,-0.0218669 0.00100307,-0.00777934 0.00250767,-0.0165729 0.00477014,-0.0263807l0.0964839 -0.452272 0.0904543 0 0.0120702 -0.0603066 -0.0904543 0 0.0512567 -0.238195 -0.223127 0.0301589z"/>
  <path id="1234" class="fil0" d="M3.15077 0.432611l-0.016584 0.079911 0 -0.0105545c0,-0.0148231 -0.00402341,-0.0278964 -0.0125606,-0.039454 -0.00854836,-0.0115576 -0.0216105,-0.0205963 -0.0396991,-0.0271385 -0.0180998,-0.00677627 -0.0412149,-0.0100418 -0.069858,-0.0102982 -0.0437226,0.000256339 -0.0836669,0.00854836 -0.119855,0.0248761 -0.0361773,0.0163277 -0.0685875,0.0384397 -0.0972306,0.0665813 -0.0286431,0.0281416 -0.0537755,0.0603066 -0.0748845,0.0959823 -0.0213542,0.0359321 -0.0391976,0.0736251 -0.0532628,0.113068 -0.0140652,0.0391976 -0.0246197,0.0783952 -0.0316635,0.117348 -0.00703261,0.0389413 -0.0105433,0.0756312 -0.0105433,0.109802 0.000245194,0.0447256 0.00577321,0.0826638 0.0168292,0.113569 0.011056,0.0311508 0.0261355,0.0560268 0.0449708,0.0751297 0.0188465,0.0188354 0.0402118,0.0326554 0.0640737,0.0412037 0.023873,0.00879355 0.048749,0.012817 0.0746282,0.012817 0.026637,-0.000256339 0.0512567,-0.00427975 0.0736251,-0.0118139 0.0223572,-0.00779048 0.0429647,-0.018345 0.0612985,-0.0316635 0.018345,-0.0130622 0.0351853,-0.0278853 0.0500084,-0.0442129 0.0148231,-0.016584 0.0281416,-0.0334244 0.0396991,-0.0510115 0.00477014,0.0454835 0.0200948,0.0796546 0.0454724,0.103271 0.0256339,0.0233603 0.0598051,0.0351742 0.102268,0.0354305 0.0163277,0.000245194 0.0346727,-0.00151575 0.0545222,-0.00552801 0.0198496,-0.00377822 0.0407022,-0.011056 0.0625691,-0.0218669 0.0218557,-0.0107997 0.0437114,-0.0266258 0.0655783,-0.0472333 0.0218557,-0.0206074 0.0432099,-0.0474896 0.0635721,-0.0809029 0.0205963,-0.0334244 0.0394428,-0.074383 0.0567847,-0.123377l-0.0633269 0c-0.00753414,0.0253776 -0.0170856,0.0489942 -0.0286431,0.0703595 -0.0115576,0.0213542 -0.0251212,0.0384397 -0.0407022,0.0512567 -0.015581,0.0130622 -0.0331681,0.0198496 -0.0527613,0.0200948 -0.021109,0 -0.0366899,-0.00552801 -0.0467318,-0.016584 -0.010053,-0.011056 -0.0150794,-0.0271274 -0.0150794,-0.0482364 0,-0.00678742 0.000501533,-0.0140764 0.00125941,-0.0218669 0.00100307,-0.00777934 0.00250767,-0.0165729 0.00477014,-0.0263807l0.108543 -0.512578 -0.217086 0zm-0.0919701 0.0859405c0.0158373,0.000245194 0.0283979,0.00401227 0.0374478,0.0107997 0.00903874,0.00678742 0.0153246,0.0145779 0.0190917,0.0236166 0.00352188,0.00879355 0.00527167,0.0163388 0.00527167,0.0228699l-0.0723545 0.340708c-0.00654222,0.0291447 -0.016584,0.0535192 -0.0306604,0.0733687 -0.0143216,0.0196044 -0.0296462,0.0344275 -0.0467318,0.0442241 -0.0168404,0.010053 -0.0326665,0.0150794 -0.047746,0.0150794 -0.00703261,0.000245194 -0.0148231,-0.000501533 -0.0231151,-0.00201728 -0.00853721,-0.00174979 -0.0168292,-0.00602954 -0.0248761,-0.0133185 -0.00777934,-0.00703261 -0.0143216,-0.0188354 -0.019348,-0.0349179 -0.00527167,-0.0160825 -0.00777934,-0.0386961 -0.00803568,-0.0673392 0,-0.023873 0.00226247,-0.05051 0.00678742,-0.0798998 0.00452494,-0.0291447 0.0107997,-0.0593035 0.019348,-0.0902091 0.00853721,-0.0309056 0.0190917,-0.0608081 0.0314071,-0.0896964 0.0123043,-0.0286431 0.0261243,-0.0547786 0.0419616,-0.0776374 0.0155698,-0.0231151 0.0326554,-0.0414601 0.0515019,-0.0550349 0.0186013,-0.0133073 0.0386961,-0.0203511 0.0600503,-0.0205963z"/>
  <path id="12345" class="fil0" d="M3.53971 0.432611l-0.1598 0.753793 0.217086 0 0.120613 -0.572874c0.0123043,-0.0115687 0.0241182,-0.0218669 0.0351742,-0.0304041 0.011056,-0.00854836 0.0226136,-0.0150794 0.0346727,-0.0198496 0.0118139,-0.00452494 0.0253776,-0.00704376 0.0402007,-0.00704376 0.00879355,0.000256339 0.0148231,0.00377822 0.018345,0.0103093 0.00352188,0.00653108 0.00602954,0.0148231 0.00753414,0.0246197 0.00176094,0.00979662 0.00426861,0.0196044 0.00728895,0.029401 0.00326554,0.010053 0.00904989,0.0180886 0.0170856,0.0248761 0.00829202,0.00653108 0.0206074,0.0100418 0.0371915,0.0102982 0.0246197,-0.000501533 0.0449708,-0.00602954 0.0610533,-0.0168292 0.0160825,-0.0108108 0.0278853,-0.0246309 0.0356757,-0.0412149 0.00804682,-0.0168292 0.0118139,-0.0341711 0.0118139,-0.0520034 0,-0.019348 -0.00402341,-0.037693 -0.0118139,-0.0547786 -0.00803568,-0.0170856 -0.0195932,-0.0309056 -0.0351742,-0.0417164 -0.0153246,-0.0107997 -0.0344275,-0.0163277 -0.0570411,-0.016584 -0.0241182,0.000256339 -0.0467318,0.00502648 -0.0678407,0.0140764 -0.0210978,0.00929508 -0.0409474,0.0208526 -0.0597939,0.034929 -0.0191028,0.0143216 -0.0371915,0.0291447 -0.0547786,0.0444693l0.0196044 -0.0934747 -0.217097 0z"/>
 </g>
</svg>
